<svg width="271" height="271" viewBox="0 0 271 271" fill="none" xmlns="http://www.w3.org/2000/svg">
<path d="M271 207.261H0V207.396H271V207.261Z" fill="#EBEBEB"/>
<path d="M243.846 215.982H215.082V216.117H243.846V215.982Z" fill="#EBEBEB"/>
<path d="M179.521 214.285H147.728V214.421H179.521V214.285Z" fill="#EBEBEB"/>
<path d="M216.469 213.505H206.068V213.64H216.469V213.505Z" fill="#EBEBEB"/>
<path d="M77.8637 211.862H54.4548V211.998H77.8637V211.862Z" fill="#EBEBEB"/>
<path d="M51.4358 211.862H43.0673V211.998H51.4358V211.862Z" fill="#EBEBEB"/>
<path d="M100.633 214.15H71.2567V214.285H100.633V214.15Z" fill="#EBEBEB"/>
<path d="M128.454 183.088H23.7992C22.9794 183.086 22.1936 182.76 21.6144 182.179C21.0352 181.599 20.7098 180.813 20.7098 179.993V32.8778C20.717 32.0626 21.0454 31.2832 21.6239 30.7088C22.2023 30.1344 22.9841 29.8115 23.7992 29.8101H128.454C129.275 29.8101 130.062 30.1361 130.642 30.7165C131.223 31.2969 131.549 32.0841 131.549 32.9049V179.993C131.549 180.814 131.223 181.601 130.642 182.181C130.062 182.762 129.275 183.088 128.454 183.088ZM23.7992 29.9185C23.0153 29.9199 22.264 30.2323 21.7102 30.7871C21.1564 31.342 20.8453 32.0939 20.8453 32.8778V179.993C20.8453 180.777 21.1564 181.529 21.7102 182.084C22.264 182.638 23.0153 182.951 23.7992 182.952H128.454C129.238 182.951 129.99 182.639 130.545 182.084C131.1 181.529 131.412 180.777 131.413 179.993V32.8778C131.412 32.0934 131.1 31.3415 130.545 30.7868C129.99 30.2321 129.238 29.9199 128.454 29.9185H23.7992Z" fill="#EBEBEB"/>
<path d="M245.694 183.088H141.034C140.213 183.086 139.427 182.76 138.847 182.18C138.267 181.6 137.94 180.813 137.939 179.993V32.8778C137.948 32.0621 138.277 31.2827 138.857 30.7085C139.436 30.1342 140.218 29.8114 141.034 29.8101H245.694C246.508 29.8129 247.289 30.1365 247.866 30.7107C248.443 31.285 248.771 32.0636 248.778 32.8778V179.993C248.778 180.812 248.453 181.597 247.875 182.177C247.297 182.757 246.513 183.085 245.694 183.088ZM141.034 29.9185C140.249 29.9199 139.497 30.2321 138.943 30.7868C138.388 31.3415 138.076 32.0934 138.074 32.8778V179.993C138.076 180.777 138.388 181.529 138.943 182.084C139.497 182.639 140.249 182.951 141.034 182.952H245.694C246.478 182.951 247.23 182.639 247.785 182.084C248.34 181.529 248.652 180.777 248.653 179.993V32.8778C248.652 32.0934 248.34 31.3415 247.785 30.7868C247.23 30.2321 246.478 29.9199 245.694 29.9185H141.034Z" fill="#EBEBEB"/>
<path d="M107.289 59.8206H33.3438V143.966H107.289V59.8206Z" fill="#F5F5F5"/>
<path d="M107.289 143.966H108.297L108.297 59.8206H107.289L107.289 143.966Z" fill="#E0E0E0"/>
<path d="M102.129 63.528H38.5037V140.264H102.129V63.528Z" fill="#FAFAFA"/>
<path d="M157.175 175.055H230.187L230.187 45.1974H157.175V175.055Z" fill="#E6E6E6"/>
<path d="M149.348 42.7042H234.914C235.106 42.7042 235.291 42.7807 235.427 42.9169C235.563 43.0532 235.64 43.2379 235.64 43.4305C235.638 43.6222 235.561 43.8055 235.425 43.9406C235.289 44.0756 235.105 44.1514 234.914 44.1514H149.348C149.157 44.1514 148.974 44.0754 148.838 43.9402C148.703 43.805 148.627 43.6217 148.627 43.4305C148.627 43.3354 148.645 43.2411 148.681 43.153C148.716 43.0649 148.769 42.9848 148.836 42.9173C148.903 42.8498 148.983 42.7962 149.071 42.7596C149.159 42.723 149.253 42.7042 149.348 42.7042Z" fill="#E6E6E6"/>
<path d="M154.074 175.055H228.74L228.74 45.1974H154.074V175.055Z" fill="#F0F0F0"/>
<path d="M157.175 175.055H230.187V177.109H155.039L157.175 175.055Z" fill="#E6E6E6"/>
<path d="M148.915 175.055H223.58L221.445 177.109H146.779L148.915 175.055Z" fill="#F0F0F0"/>
<path d="M224.404 170.719V49.5334L158.416 49.5334V170.719H224.404Z" fill="#FAFAFA"/>
<path d="M209.423 170.719L183.966 49.5334H171.95L197.407 170.719H209.423Z" fill="white"/>
<path d="M194.822 170.719L169.37 49.5334H164.681L190.139 170.719H194.822Z" fill="white"/>
<path d="M158.963 170.719V49.5334H158.41V170.719H158.963Z" fill="#E6E6E6"/>
<g opacity="0.4">
<path opacity="0.4" d="M224.355 160.058H231.819L231.819 41.4035H224.355V160.058Z" fill="#F0F0F0"/>
<path opacity="0.4" d="M221.445 160.058H227.261L227.261 41.4035H221.445V160.058Z" fill="#E6E6E6"/>
<path opacity="0.4" d="M216.892 160.058H224.355L224.355 41.4035H216.892V160.058Z" fill="#F0F0F0"/>
<path opacity="0.4" d="M213.976 160.058H219.792L219.792 41.4035H213.976V160.058Z" fill="#E6E6E6"/>
<path opacity="0.4" d="M209.423 160.058H216.887L216.887 41.4035H209.423V160.058Z" fill="#F0F0F0"/>
</g>
<g opacity="0.4">
<path opacity="0.4" d="M161.191 160.058H165.494L165.494 41.4035H161.191V160.058Z" fill="#F0F0F0"/>
<path opacity="0.4" d="M159.516 160.058H162.866L162.866 41.4035H159.516L159.516 160.058Z" fill="#E6E6E6"/>
<path opacity="0.4" d="M156.893 160.058H161.196L161.196 41.4035H156.893V160.058Z" fill="#F0F0F0"/>
<path opacity="0.4" d="M155.218 160.058H158.568L158.568 41.4035H155.218L155.218 160.058Z" fill="#E6E6E6"/>
<path opacity="0.4" d="M152.584 160.058H156.887L156.887 41.4035H152.584V160.058Z" fill="#F0F0F0"/>
</g>
<path d="M77.739 197.83C78.6171 165.706 76.9314 113.609 73.777 96.1509C73.7126 95.834 73.583 95.534 73.3964 95.2699C73.2097 95.0058 72.9702 94.7835 72.693 94.617C71.067 93.571 70.086 94.8175 70.2919 96.6007C71.2784 105.24 72.1618 126.655 73.0453 163.917C73.4843 182.459 73.0453 195.163 74.2214 197.841L77.739 197.83Z" fill="#E6E6E6"/>
<path d="M75.1266 126.183C78.0318 117.468 88.5682 109.972 98.4652 111.863C101.365 112.405 86.4815 126.525 82.4274 137.701C79.2784 146.373 76.0968 160.974 75.2567 169.072C74.8936 152.042 72.2215 134.898 75.1266 126.183Z" fill="#E6E6E6"/>
<path d="M78.487 145.256C81.3921 136.541 88.243 130.329 95.6684 130.335C98.5898 130.335 87.5384 140.486 83.5059 151.662C80.3569 160.334 77.1754 174.936 76.3353 183.033C75.9721 166.015 75.5819 153.982 78.487 145.256Z" fill="#E6E6E6"/>
<path d="M72.0209 143.321C67.7391 133.76 57.9289 125.202 49.7989 125.202C46.3952 125.202 59.8043 139.95 65.6795 152.237C70.2432 161.787 75.3922 177.608 77.1428 186.286C75.983 168.264 76.2973 152.877 72.0209 143.321Z" fill="#E6E6E6"/>
<path d="M75.6794 106.807C78.1401 99.43 83.9233 94.1672 90.2267 94.1726C92.7037 94.1726 83.3596 102.769 79.9287 112.232C77.2621 119.582 74.5683 131.939 73.8583 138.79C73.5494 124.378 73.2188 114.189 75.6794 106.807Z" fill="#E6E6E6"/>
<path d="M69.8312 110.752C66.2053 102.66 58.807 96.4543 51.2623 95.7768C48.303 95.5113 60.2704 105.636 65.2459 116.042C69.1158 124.129 73.4735 137.527 74.9531 144.877C73.9992 129.614 73.4518 118.844 69.8312 110.752Z" fill="#E6E6E6"/>
<path d="M70.1782 121.408C66.1565 112.422 54.5361 103.701 45.6527 106.509C42.6121 107.468 59.5658 115.723 65.0942 127.283C69.376 136.259 74.254 151.137 75.88 159.299C74.796 142.351 74.1998 130.395 70.1782 121.408Z" fill="#E6E6E6"/>
<path d="M65.5278 195.158L66.0698 205.38C66.1294 207.321 66.9695 207.261 67.9831 207.261H81.5005C82.5141 207.261 83.3542 207.321 83.4138 205.38L83.9558 195.153C84.0154 193.05 83.1428 191.277 82.0425 191.277H67.4411C66.3408 191.277 65.4628 193.05 65.5278 195.158Z" fill="#E6E6E6"/>
<path d="M64.7202 194.269H84.7742C84.912 194.278 85.0483 194.235 85.155 194.147C85.2618 194.06 85.3311 193.935 85.3487 193.797L85.8203 189.841C85.8274 189.763 85.8177 189.685 85.792 189.612C85.7662 189.538 85.7249 189.471 85.6709 189.415C85.6169 189.359 85.5515 189.315 85.479 189.287C85.4066 189.258 85.3289 189.246 85.2512 189.25H64.2433C64.1651 189.245 64.0868 189.257 64.0137 189.285C63.9406 189.313 63.8745 189.357 63.8199 189.413C63.7653 189.469 63.7235 189.537 63.6974 189.61C63.6713 189.684 63.6615 189.763 63.6687 189.841L64.1457 193.797C64.1633 193.935 64.2326 194.06 64.3394 194.147C64.4462 194.235 64.5824 194.278 64.7202 194.269Z" fill="#F5F5F5"/>
<path d="M135.5 231.738C193.539 231.738 240.588 228.991 240.588 225.602C240.588 222.214 193.539 219.467 135.5 219.467C77.4613 219.467 30.4116 222.214 30.4116 225.602C30.4116 228.991 77.4613 231.738 135.5 231.738Z" fill="#F5F5F5"/>
<path d="M184.464 223.537C204.286 223.537 220.356 207.468 220.356 187.646C220.356 167.824 204.286 151.755 184.464 151.755C164.642 151.755 148.573 167.824 148.573 187.646C148.573 207.468 164.642 223.537 184.464 223.537Z" fill="#FF725E"/>
<g opacity="0.2">
<path opacity="0.2" d="M219.732 194.323C212.117 205.606 202.397 215.314 191.104 222.914C191.597 222.822 192.09 222.719 192.578 222.605C203.058 215.354 212.147 206.278 219.412 195.808C219.51 195.315 219.635 194.816 219.732 194.323Z" fill="white"/>
<path opacity="0.2" d="M220.166 183.977C220.133 183.662 220.095 183.348 220.052 183.033C210.157 199.542 196.337 213.349 179.819 223.228L180.757 223.337C196.863 213.571 210.381 200.071 220.166 183.977Z" fill="white"/>
<path opacity="0.2" d="M218.377 175.863C218.296 175.63 218.204 175.402 218.117 175.169C206.995 194.287 191.088 210.181 171.96 221.288L172.66 221.542C191.558 210.48 207.299 194.752 218.377 175.863Z" fill="white"/>
<path opacity="0.2" d="M215.494 169.597C215.385 169.407 215.266 169.223 215.158 169.055C203.211 189.439 186.227 206.411 165.836 218.345L166.378 218.681C186.653 206.756 203.556 189.864 215.494 169.597Z" fill="white"/>
<path opacity="0.2" d="M211.922 164.53C211.792 164.372 211.656 164.221 211.526 164.069C199.034 184.823 181.645 202.198 160.882 214.675L161.343 215.071C182.06 202.586 199.421 185.237 211.922 164.53Z" fill="white"/>
<path opacity="0.2" d="M207.743 160.34C207.597 160.21 207.451 160.08 207.299 159.96C194.516 180.421 177.232 197.694 156.763 210.464L157.148 210.903C177.634 198.11 194.937 180.818 207.743 160.34Z" fill="white"/>
<path opacity="0.2" d="M201.261 155.917L200.768 155.668C189.163 175.69 172.514 192.321 152.481 203.906C152.562 204.068 152.638 204.236 152.725 204.399C172.865 192.761 189.601 176.044 201.261 155.917Z" fill="white"/>
<path opacity="0.2" d="M193.83 153.001L193.288 152.86C183.263 171.305 168.108 186.45 149.657 196.464C149.7 196.637 149.749 196.805 149.793 196.979C168.429 186.905 183.731 171.624 193.83 153.001Z" fill="white"/>
<path opacity="0.2" d="M185.51 151.76H184.968C176.784 167.264 164.105 179.932 148.594 188.101C148.594 188.286 148.594 188.47 148.594 188.643C164.365 180.392 177.244 167.524 185.51 151.76Z" fill="white"/>
<path opacity="0.2" d="M149.592 179.272C160.77 173.098 169.976 163.891 176.15 152.714L175.527 152.871C169.465 163.661 160.546 172.571 149.749 178.621C149.673 178.86 149.592 179.066 149.592 179.272Z" fill="white"/>
</g>
<path d="M119.475 67.5474C120.159 64.6486 118.364 61.7441 115.465 61.0599C112.566 60.3757 109.662 62.171 108.978 65.0698C108.293 67.9686 110.089 70.8731 112.987 71.5573C115.886 72.2415 118.791 70.4462 119.475 67.5474Z" fill="#263238"/>
<path d="M115.896 72.525C115.825 72.5256 115.756 72.5004 115.702 72.4541C115.649 72.4078 115.614 72.3435 115.604 72.2733C115.594 72.2031 115.61 72.1316 115.648 72.0722C115.687 72.0129 115.746 71.9696 115.815 71.9505C116.785 71.6752 117.651 71.1183 118.305 70.3502C118.958 69.582 119.369 68.6373 119.485 67.6355C119.601 66.6338 119.417 65.6201 118.957 64.7229C118.496 63.8257 117.78 63.0853 116.899 62.5955C116.314 62.266 115.67 62.0561 115.004 61.9779C114.338 61.8998 113.663 61.955 113.018 62.1403C112.954 62.1411 112.891 62.1209 112.84 62.0828C112.788 62.0446 112.751 61.9907 112.733 61.9291C112.715 61.8676 112.718 61.8019 112.741 61.7421C112.764 61.6824 112.806 61.6318 112.861 61.5983C114.311 61.1886 115.865 61.3719 117.18 62.1078C118.495 62.8437 119.464 64.0719 119.874 65.5223C120.284 66.9727 120.101 68.5265 119.365 69.8418C118.629 71.1571 117.4 72.1261 115.95 72.5358L115.896 72.525Z" fill="#263238"/>
<path d="M117.82 72.628C117.754 72.6327 117.688 72.6145 117.634 72.5764C117.58 72.5383 117.541 72.4827 117.523 72.4189C117.505 72.3552 117.51 72.2872 117.536 72.2266C117.563 72.1659 117.609 72.1163 117.668 72.086C118.295 71.7665 118.848 71.321 119.294 70.7772C119.741 70.2335 120.069 69.6035 120.26 68.9266C120.451 68.2497 120.5 67.5407 120.404 66.844C120.307 66.1474 120.068 65.4782 119.701 64.8784C119.333 64.2787 118.846 63.7614 118.269 63.3591C117.692 62.9568 117.038 62.6781 116.349 62.5406C115.659 62.4031 114.948 62.4097 114.261 62.56C113.574 62.7103 112.926 63.001 112.357 63.414C112.291 63.4476 112.215 63.4551 112.144 63.435C112.073 63.4149 112.012 63.3687 111.973 63.3056C111.935 63.2425 111.922 63.1672 111.937 63.0948C111.951 63.0225 111.993 62.9583 112.053 62.9154C113.341 62.1305 114.888 61.8894 116.354 62.2452C117.819 62.601 119.084 63.5244 119.869 64.8124C120.654 66.1003 120.895 67.6474 120.539 69.1131C120.183 70.5788 119.26 71.8431 117.972 72.628C117.922 72.6411 117.87 72.6411 117.82 72.628Z" fill="#263238"/>
<path d="M99.2618 85.1265C96.292 83.5267 93.4345 81.7267 90.7091 79.739C89.2984 78.7287 87.9534 77.6298 86.682 76.449C86.0015 75.8186 85.3642 75.1432 84.7742 74.4274C84.0456 73.5749 83.4765 72.5981 83.094 71.5439L83.0181 71.2946L82.926 71.0019L82.8989 70.861V70.7635V70.5683L82.8121 69.7933C82.8121 69.3543 82.7634 68.899 82.7579 68.4654C82.7579 67.6036 82.7579 66.7581 82.7579 65.9234C82.7905 64.254 82.888 62.6064 82.9856 60.9587C83.2078 57.6687 83.5276 54.4059 83.9666 51.1322C84.0137 50.807 84.1797 50.5109 84.4325 50.301C84.6853 50.0911 85.007 49.9824 85.3353 49.9959C85.6636 50.0094 85.9752 50.1441 86.2099 50.374C86.4447 50.6039 86.5858 50.9127 86.6061 51.2406C86.7741 54.4926 86.8988 57.7446 87.0235 60.9966C87.0831 62.6226 87.1698 64.2486 87.2511 65.8313C87.2945 66.628 87.3541 67.4193 87.4246 68.1835L87.5438 69.3001C87.5698 69.5187 87.6151 69.7345 87.6793 69.945C87.9201 70.4016 88.2249 70.8213 88.5844 71.1916C89.0669 71.7088 89.579 72.1975 90.1183 72.655C91.2457 73.6144 92.4923 74.5358 93.7768 75.4301C95.0613 76.3244 96.4055 77.1699 97.7551 78.0046C99.1047 78.8393 100.498 79.6631 101.825 80.4382L101.88 80.4653C102.185 80.6364 102.454 80.8662 102.671 81.1413C102.888 81.4164 103.049 81.7316 103.144 82.0688C103.239 82.406 103.267 82.7586 103.226 83.1066C103.185 83.4545 103.075 83.791 102.904 84.0967C102.733 84.4024 102.503 84.6714 102.228 84.8883C101.953 85.1052 101.638 85.2658 101.301 85.3609C100.963 85.4561 100.611 85.4838 100.263 85.4427C99.9148 85.4015 99.5784 85.2922 99.2727 85.121L99.2618 85.1265Z" fill="#FFC3BD"/>
<path d="M86.3135 53.1485L90.617 49.1919L85.5655 47.5659C85.5655 47.5659 82.2864 50.0103 83.8745 52.4439L86.3135 53.1485Z" fill="#FFC3BD"/>
<path d="M89.8148 45.6147L87.9395 45.1215C87.6043 45.0325 87.2482 45.0674 86.9366 45.2197C86.625 45.372 86.3788 45.6316 86.2431 45.9507L85.5656 47.5767L90.617 49.2027L90.8772 47.2027C90.9232 46.8542 90.8408 46.5007 90.6453 46.2085C90.4498 45.9162 90.1546 45.7052 89.8148 45.6147Z" fill="#FFC3BD"/>
<path d="M80.72 43.902H78.7255C77.6119 43.902 76.7092 44.8047 76.7092 45.9182V50.639C76.7092 51.7526 77.6119 52.6553 78.7255 52.6553H80.72C81.8336 52.6553 82.7363 51.7526 82.7363 50.639V45.9182C82.7363 44.8047 81.8336 43.902 80.72 43.902Z" fill="#FF725E"/>
<path d="M95.9665 43.902H93.9719C92.8584 43.902 91.9557 44.8047 91.9557 45.9182V50.639C91.9557 51.7526 92.8584 52.6553 93.9719 52.6553H95.9665C97.08 52.6553 97.9827 51.7526 97.9827 50.639V45.9182C97.9827 44.8047 97.08 43.902 95.9665 43.902Z" fill="#FF725E"/>
<path d="M93.9177 49.322H80.758C80.4761 49.3136 80.2087 49.1956 80.0124 48.9933C79.8161 48.7909 79.7064 48.52 79.7065 48.238C79.7163 47.9658 79.8314 47.708 80.0276 47.5189C80.2237 47.3299 80.4855 47.2243 80.758 47.2245H93.9015C94.1778 47.2327 94.4405 47.3461 94.6359 47.5415C94.8314 47.737 94.9448 47.9997 94.953 48.276C94.9437 48.5486 94.832 48.8077 94.6401 49.0016C94.4482 49.1955 94.1903 49.3099 93.9177 49.322Z" fill="#FF725E"/>
<path d="M96.0099 83.4355C95.9232 87.2295 96.4543 95.0994 99.1155 111.457H120.324C119.993 103.468 119.609 98.2376 122.833 83.4355C122.941 82.9433 122.944 82.4342 122.845 81.9404C122.746 81.4466 122.545 80.9787 122.256 80.5662C121.966 80.1538 121.595 79.8057 121.165 79.544C120.734 79.2822 120.254 79.1124 119.755 79.0453C118.389 78.861 116.768 78.6876 115.077 78.6063C111.871 78.3757 108.652 78.3757 105.446 78.6063C103.376 78.796 101.159 79.1483 99.4841 79.4193C98.5279 79.5794 97.6576 80.0682 97.0234 80.8014C96.3891 81.5347 96.0307 82.4663 96.0099 83.4355Z" fill="#FF725E"/>
<path d="M105.446 78.59C101.652 76.8881 96.3405 76.5195 96.3405 76.5195C95.2042 79.323 94.6154 82.3183 94.6061 85.3433C100.346 86.6604 102.796 85.8094 103.224 84.3243C103.652 82.8393 105.446 78.59 105.446 78.59Z" fill="#FF725E"/>
<path d="M114.124 67.75C113.516 70.8502 112.909 76.525 115.077 78.59C115.077 78.59 113.245 83.6631 106.46 84.6062C102.617 81.4355 105.446 78.59 105.446 78.59C108.904 77.7607 108.812 75.1971 108.21 72.7906L114.124 67.75Z" fill="#FFC3BD"/>
<path opacity="0.2" d="M111.712 69.8204L108.216 72.8068C108.361 73.3669 108.461 73.9379 108.514 74.5141C109.831 74.3244 111.647 72.8882 111.766 71.4952C111.848 70.9382 111.83 70.3709 111.712 69.8204Z" fill="black"/>
<path d="M117.804 63.7988C115.766 68.563 115.007 70.6226 111.652 72.2432C106.611 74.6876 101.202 71.1592 101.777 65.8638C102.292 61.1105 105.538 54.1187 110.991 53.8802C112.197 53.8144 113.401 54.06 114.485 54.5935C115.569 55.1269 116.498 55.9303 117.182 56.9264C117.867 57.9225 118.283 59.0778 118.392 60.2814C118.501 61.4849 118.298 62.6962 117.804 63.7988Z" fill="#FFC3BD"/>
<path d="M109.977 53.1484C110.297 52.0102 108.796 46.1946 105.029 46.9046C101.262 47.6146 100.27 54.7419 106.774 55.4194C106.774 55.4194 109.105 56.2758 109.977 53.1484Z" fill="#263238"/>
<path d="M109.37 56.395C107.609 57.5929 105.365 57.3598 104.362 55.853C103.359 54.3463 103.972 52.2 105.733 51.0076C107.495 49.8152 109.739 50.0428 110.741 51.5496C111.744 53.0563 111.11 55.2026 109.37 56.395Z" fill="#FF725E"/>
<path d="M114.226 50.8883C109.663 49.4845 104.313 52.059 104.47 57.0074C111.609 57.3489 112.319 59.8204 115.083 59.8204C113.853 61.4464 113.17 66.2594 115.939 65.5819C121.001 67.7499 122.909 62.1781 121.836 60.4871C122.774 56.1673 119.267 52.4438 114.226 50.8883Z" fill="#263238"/>
<path d="M120.714 62.8937C122.504 62.8937 123.955 60.9937 123.955 58.6499C123.955 56.306 122.504 54.406 120.714 54.406C118.924 54.406 117.473 56.306 117.473 58.6499C117.473 60.9937 118.924 62.8937 120.714 62.8937Z" fill="#FF725E"/>
<path d="M120.134 56.4059C120.909 55.3816 127.348 52.5035 129.348 56.3409C131.348 60.1783 125.89 65.9072 120.449 60.9913C120.454 60.9913 118.004 59.1972 120.134 56.4059Z" fill="#263238"/>
<path d="M99.5654 111.711C99.5654 111.711 92.0478 144.112 88.888 159.722C85.5926 175.982 78.5629 219.813 78.5629 219.813L82.8989 219.532C82.8989 219.532 96.7578 182.134 99.5654 161.836C105.82 144.979 115.609 111.11 115.609 111.11L99.5654 111.711Z" fill="#FFC3BD"/>
<path d="M78.2756 219.461L79.9016 210.318C79.9016 210.318 83.9883 209.597 86.8121 209.282C85.7281 211.965 83.1049 219.461 83.1049 219.461H78.2756Z" fill="#FF725E"/>
<path d="M78.552 218.968L82.9693 218.849C83.0764 218.841 83.1828 218.871 83.2692 218.935C83.3557 218.999 83.4166 219.091 83.4409 219.196L84.2972 223.326C84.3097 223.45 84.2953 223.576 84.2551 223.695C84.2148 223.814 84.1496 223.922 84.0639 224.014C83.9781 224.105 83.8738 224.177 83.758 224.225C83.6421 224.272 83.5173 224.295 83.3921 224.29C81.1103 224.29 80.9748 224.198 78.1022 224.29C76.3298 224.334 73.1212 225.087 70.7256 224.653C68.3299 224.22 69.2513 222.252 70.292 222.269C74.0589 222.334 74.4491 221.185 77.5873 219.331C77.8712 219.127 78.2041 219.002 78.552 218.968Z" fill="#263238"/>
<path d="M120.324 111.457C120.324 111.457 133.332 142.226 134.378 159.603C140.925 174.779 146.795 219.814 146.795 219.814L142.459 219.532C142.459 219.532 132.161 183.847 124.389 162.194C118.123 145.337 103.251 111.755 103.251 111.755L120.324 111.457Z" fill="#FFC3BD"/>
<path d="M142.139 219.461L139.169 209.261C141.318 209.268 143.464 209.402 145.597 209.662C146.042 212.415 146.779 219.261 146.779 219.261L142.139 219.461Z" fill="#FF725E"/>
<path d="M142.627 218.968L146.627 218.86C146.73 218.856 146.831 218.889 146.911 218.954C146.99 219.019 147.044 219.111 147.061 219.212L147.847 223.342C147.863 223.46 147.854 223.581 147.82 223.695C147.786 223.81 147.728 223.916 147.65 224.007C147.573 224.097 147.476 224.171 147.368 224.221C147.26 224.272 147.142 224.299 147.023 224.301C144.958 224.301 144.855 224.204 142.237 224.274C140.611 224.318 139.961 224.621 138.302 224.621C136.134 224.621 136.996 222.491 137.901 222.236C140.015 221.629 140.877 220.155 141.755 219.315C141.993 219.097 142.304 218.973 142.627 218.968Z" fill="#263238"/>
<path d="M109.928 62.5198C109.788 62.9208 109.462 63.1647 109.202 63.0618C108.942 62.9588 108.85 62.574 108.991 62.1783C109.132 61.7826 109.457 61.5333 109.717 61.6363C109.977 61.7393 110.069 62.1241 109.928 62.5198Z" fill="#263238"/>
<path d="M105.446 60.9208C105.305 61.3165 104.98 61.5658 104.72 61.4628C104.46 61.3598 104.362 60.975 104.503 60.5739C104.644 60.1729 104.975 59.9344 105.229 60.0319C105.484 60.1295 105.587 60.5252 105.446 60.9208Z" fill="#263238"/>
<path d="M105.338 60.097L104.481 59.4845C104.481 59.4845 104.709 60.4005 105.338 60.097Z" fill="#263238"/>
<path d="M106.389 62.0265C105.713 62.8054 104.932 63.4875 104.069 64.0536C104.219 64.2705 104.415 64.4519 104.642 64.5849C104.87 64.7178 105.124 64.7992 105.386 64.8232L106.389 62.0265Z" fill="#ED847E"/>
<path d="M106.915 67.0616C106.68 67.0256 106.449 66.9657 106.227 66.8828C106.196 66.8717 106.171 66.8491 106.156 66.8197C106.142 66.7903 106.14 66.7565 106.151 66.7256C106.163 66.6945 106.187 66.6693 106.217 66.6551C106.247 66.641 106.282 66.6391 106.313 66.6497C106.802 66.8377 107.329 66.9072 107.85 66.8526C108.371 66.7979 108.871 66.6207 109.311 66.3354C109.334 66.314 109.365 66.3022 109.397 66.3022C109.429 66.3022 109.46 66.314 109.484 66.3354C109.506 66.3586 109.519 66.3897 109.519 66.4221C109.519 66.4545 109.506 66.4856 109.484 66.5088C108.733 67.0223 107.811 67.2208 106.915 67.0616Z" fill="#263238"/>
<path d="M118.02 66.7473C117.484 67.594 116.635 68.1942 115.657 68.4166C114.362 68.6985 113.787 67.5223 114.21 66.3353C114.595 65.2513 115.728 63.8367 117.002 64.086C117.278 64.1458 117.535 64.2736 117.75 64.4578C117.965 64.642 118.13 64.8768 118.231 65.1409C118.332 65.4051 118.366 65.6903 118.329 65.9708C118.292 66.2512 118.186 66.5181 118.02 66.7473Z" fill="#FFC3BD"/>
<path d="M111.354 60.8449C111.322 60.837 111.291 60.8223 111.265 60.8017C111.239 60.7812 111.217 60.7552 111.202 60.7257C111.059 60.4506 110.854 60.2128 110.603 60.0311C110.351 59.8495 110.061 59.7291 109.755 59.6796C109.72 59.682 109.684 59.6767 109.651 59.6642C109.618 59.6517 109.587 59.6323 109.562 59.6072C109.537 59.5821 109.518 59.5519 109.505 59.5186C109.493 59.4854 109.487 59.4499 109.49 59.4144C109.492 59.379 109.502 59.3445 109.519 59.3132C109.535 59.2818 109.559 59.2545 109.587 59.2329C109.615 59.2113 109.648 59.196 109.682 59.188C109.717 59.1799 109.753 59.1794 109.787 59.1864C110.177 59.2402 110.548 59.3863 110.869 59.6126C111.191 59.8389 111.454 60.1387 111.636 60.4872C111.667 60.5448 111.674 60.6123 111.656 60.6752C111.638 60.7381 111.595 60.7912 111.538 60.8232C111.482 60.8544 111.416 60.8622 111.354 60.8449Z" fill="#263238"/>
<path d="M104.091 58.0644C104.063 58.0488 104.039 58.0279 104.019 58.0027C104 57.9776 103.986 57.9488 103.977 57.9181C103.959 57.8562 103.965 57.7896 103.996 57.7327C104.026 57.6758 104.078 57.6333 104.14 57.6145C104.514 57.4928 104.911 57.4627 105.299 57.5269C105.686 57.591 106.053 57.7475 106.368 57.9831C106.393 58.0035 106.414 58.0288 106.429 58.0574C106.444 58.086 106.454 58.1174 106.457 58.1497C106.46 58.182 106.456 58.2146 106.447 58.2455C106.437 58.2765 106.421 58.3052 106.4 58.33C106.357 58.38 106.296 58.4113 106.23 58.4174C106.165 58.4234 106.099 58.4038 106.048 58.3625C105.798 58.1785 105.507 58.0574 105.201 58.0093C104.894 57.9612 104.581 57.9875 104.286 58.0861C104.254 58.0965 104.22 58.1 104.186 58.0962C104.153 58.0925 104.12 58.0816 104.091 58.0644Z" fill="#263238"/>
<path d="M109.82 61.7013L108.969 61.0834C108.969 61.0834 109.191 62.0048 109.82 61.7013Z" fill="#263238"/>
<path d="M99.186 112.611L120.709 111.918C120.755 111.916 120.801 111.904 120.842 111.882C120.884 111.86 120.919 111.83 120.947 111.792C120.975 111.755 120.993 111.711 121.002 111.665C121.01 111.62 121.008 111.572 120.996 111.527L120.671 110.384C120.653 110.318 120.613 110.26 120.558 110.22C120.503 110.18 120.436 110.159 120.367 110.162L99.1264 110.855C99.0449 110.86 98.9683 110.895 98.9127 110.955C98.857 111.015 98.8268 111.094 98.8283 111.175L98.8662 112.313C98.8669 112.354 98.8758 112.394 98.8924 112.432C98.909 112.469 98.9329 112.503 98.9628 112.53C98.9926 112.558 99.0278 112.58 99.0661 112.594C99.1045 112.608 99.1453 112.614 99.186 112.611Z" fill="#263238"/>
<path d="M117.018 111.11C117.018 111.11 112.449 128.996 108.075 137.749C103.988 138.774 95.2402 133.668 94.2158 131.527C96.4543 119.809 97.8797 113.684 99.5654 111.69C109.321 111.858 117.018 111.11 117.018 111.11Z" fill="#263238"/>
<path opacity="0.2" d="M109.484 119.592C107.609 123.76 107.972 131.196 108.758 136.394C109.901 133.89 111.04 130.85 112.091 127.766L109.484 119.592Z" fill="black"/>
<path d="M102.286 111.516C102.286 111.516 108.248 129.023 112.644 137.771C117.094 137.576 127.636 132.828 128.655 130.692C126.422 118.974 121.999 113.121 120.324 111.11C110.568 111.272 102.286 111.516 102.286 111.516Z" fill="#263238"/>
<path d="M121.191 79.9829C123.744 80.7309 126.432 81.4463 129.029 81.9829C130.281 82.2412 131.548 82.4222 132.823 82.5249C133.353 82.5718 133.886 82.5718 134.416 82.5249C134.557 82.5131 134.696 82.4896 134.833 82.4545C134.866 82.4545 134.833 82.4545 134.806 82.5032L134.72 82.5954C134.72 82.5954 134.687 82.6333 134.671 82.6604C134.654 82.6875 134.627 82.7309 134.671 82.6604C135.004 82.1805 135.304 81.6789 135.57 81.1591C135.879 80.5846 136.172 79.9829 136.465 79.3705C137.039 78.1401 137.614 76.8827 138.161 75.609L141.495 67.9126C141.624 67.6092 141.862 67.3649 142.162 67.2273C142.461 67.0896 142.802 67.0684 143.116 67.1678C143.431 67.2673 143.697 67.4802 143.863 67.7651C144.029 68.0501 144.083 68.3867 144.015 68.7093C143.44 71.5061 142.752 74.254 141.934 76.9965C141.516 78.3624 141.088 79.7065 140.589 81.0995C140.335 81.7824 140.074 82.4707 139.776 83.1699C139.461 83.9196 139.09 84.6443 138.665 85.3379L138.497 85.5764C138.429 85.6695 138.355 85.7582 138.275 85.842C138.132 86.0057 137.974 86.1562 137.804 86.2918C137.517 86.5215 137.204 86.7162 136.871 86.8718C136.353 87.1118 135.807 87.2848 135.245 87.3867C134.384 87.5451 133.508 87.6123 132.633 87.5872C131.101 87.5523 129.573 87.4019 128.064 87.1373C125.183 86.6641 122.341 85.9812 119.56 85.094C118.883 84.8863 118.317 84.4184 117.986 83.7933C117.655 83.1682 117.585 82.437 117.793 81.7607C118.001 81.0844 118.468 80.5183 119.094 80.1869C119.719 79.8555 120.45 79.7861 121.126 79.9938L121.191 79.9829Z" fill="#FFC3BD"/>
<path d="M119.039 78.9531C123.148 79.5493 125.262 80.5791 125.262 80.5791C125.262 80.5791 125.012 85.3758 122.915 89.056C117.831 86.346 116.216 82.6658 116.655 81.1862C117.094 79.7065 119.039 78.9531 119.039 78.9531Z" fill="#FF725E"/>
<path d="M141.462 69.2404L138.676 64.3624L144.096 66.1619C144.096 66.1619 144.947 68.5196 143.451 70.0914L141.462 69.2404Z" fill="#FFC3BD"/>
<path d="M140.714 61.8151L142.844 62.3571C143.117 62.4231 143.362 62.5733 143.545 62.7863C143.728 62.9993 143.839 63.2644 143.863 63.5441L144.091 66.1565L138.671 64.3571L139.11 62.7799C139.199 62.442 139.417 62.1524 139.716 61.9723C140.016 61.7922 140.374 61.7358 140.714 61.8151Z" fill="#FFC3BD"/>
<path d="M136.013 59.2055L134.05 58.8529C132.954 58.6561 131.906 59.3851 131.709 60.4811L130.875 65.1276C130.678 66.2236 131.407 67.2716 132.503 67.4684L134.466 67.821C135.562 68.0178 136.61 67.2888 136.807 66.1928L137.641 61.5463C137.838 60.4503 137.109 59.4023 136.013 59.2055Z" fill="#FF725E"/>
<path d="M151.024 61.8969L149.061 61.5443C147.965 61.3475 146.917 62.0765 146.72 63.1725L145.886 67.819C145.689 68.915 146.418 69.963 147.514 70.1599L149.477 70.5124C150.573 70.7092 151.621 69.9802 151.818 68.8842L152.653 64.2377C152.849 63.1417 152.12 62.0937 151.024 61.8969Z" fill="#FF725E"/>
<path d="M148.053 66.872L135.121 64.5522C134.849 64.4957 134.609 64.3372 134.451 64.1094C134.293 63.8815 134.228 63.6016 134.27 63.3273C134.326 63.0567 134.484 62.8179 134.71 62.6598C134.937 62.5016 135.216 62.436 135.489 62.4764L148.421 64.7961C148.693 64.8526 148.933 65.0111 149.091 65.239C149.249 65.4668 149.314 65.7467 149.272 66.021C149.216 66.2916 149.058 66.5304 148.831 66.6886C148.605 66.8467 148.326 66.9123 148.053 66.872Z" fill="#FF725E"/>
</svg>
