<svg width="231" height="231" viewBox="0 0 231 231" fill="none" xmlns="http://www.w3.org/2000/svg">
<path d="M117.14 222.536C178.041 222.536 227.41 197.262 227.41 166.084C227.41 134.907 178.041 109.633 117.14 109.633C56.2396 109.633 6.87 134.907 6.87 166.084C6.87 197.262 56.2396 222.536 117.14 222.536Z" fill="#FAFAFA"/>
<path d="M180.004 202.527C196.597 202.527 210.048 194.218 210.048 183.968C210.048 173.719 196.597 165.41 180.004 165.41C163.412 165.41 149.961 173.719 149.961 183.968C149.961 194.218 163.412 202.527 180.004 202.527Z" fill="#E0E0E0"/>
<path d="M108.686 150.667L89.434 139.556C89.1144 139.393 88.7605 139.307 88.4014 139.307C88.0424 139.307 87.6884 139.393 87.3689 139.556L23.562 176.401C23.437 176.443 23.3283 176.523 23.2512 176.63C23.1741 176.737 23.1327 176.865 23.1327 176.997C23.1327 177.129 23.1741 177.257 23.2512 177.364C23.3283 177.471 23.437 177.551 23.562 177.593L42.809 188.709C43.1296 188.869 43.4831 188.952 43.8415 188.952C44.1999 188.952 44.5535 188.869 44.8741 188.709L50.5613 185.424L102.994 155.232L108.69 151.883C108.819 151.841 108.931 151.76 109.011 151.65C109.09 151.541 109.133 151.409 109.132 151.273C109.132 151.138 109.088 151.006 109.008 150.897C108.927 150.789 108.815 150.708 108.686 150.667Z" fill="#E0E0E0"/>
<path d="M195.227 177.066L192.252 175.486C192.252 175.486 192.543 160.961 195.555 149.711C198.642 138.194 207.623 125.47 216.11 130.238C224.597 135.006 209.512 144.805 204.976 154.262C200.439 163.719 195.227 177.066 195.227 177.066Z" fill="#FF725E"/>
<path opacity="0.15" d="M195.227 177.066L192.252 175.486C192.252 175.486 192.543 160.961 195.555 149.711C198.642 138.194 207.623 125.47 216.11 130.238C224.597 135.006 209.512 144.805 204.976 154.262C200.439 163.719 195.227 177.066 195.227 177.066Z" fill="black"/>
<path d="M194.835 173.62C194.795 173.619 194.756 173.61 194.72 173.593C194.684 173.577 194.652 173.554 194.625 173.525C194.598 173.497 194.577 173.463 194.563 173.426C194.549 173.389 194.542 173.35 194.544 173.31C195.181 150.769 205.036 137.006 213.282 132.072C213.351 132.031 213.433 132.019 213.511 132.038C213.588 132.058 213.655 132.107 213.696 132.176C213.737 132.245 213.749 132.327 213.729 132.404C213.71 132.482 213.66 132.548 213.592 132.589C205.475 137.445 195.777 151.028 195.144 173.324C195.144 173.364 195.135 173.403 195.119 173.44C195.103 173.476 195.08 173.509 195.051 173.537C195.023 173.564 194.989 173.586 194.951 173.6C194.914 173.614 194.874 173.621 194.835 173.62Z" fill="white"/>
<path d="M196.572 177.759L193.915 176.396C193.915 176.396 194.243 169.263 199.709 159.968C204.56 151.712 214.391 145.244 218.521 147.549C221.728 149.332 222.467 153.241 219.395 155.842C216.322 158.443 202.139 163.899 196.572 177.759Z" fill="#FF725E"/>
<path d="M195.505 175.482C195.967 175.574 196.128 174.433 196.221 174.142C196.396 173.597 196.581 173.061 196.784 172.525C197.182 171.483 197.634 170.462 198.138 169.466C199.108 167.552 200.245 165.726 201.534 164.01C202.739 162.404 204.052 160.882 205.465 159.455C206.74 158.172 208.082 156.957 209.485 155.814C210.658 154.853 211.878 153.943 213.13 153.088C214.054 152.46 214.978 151.859 215.944 151.296C216.447 151 216.951 150.709 217.473 150.441L217.621 150.367C217.703 150.327 217.767 150.255 217.796 150.168C217.826 150.081 217.82 149.986 217.78 149.903C217.74 149.82 217.668 149.757 217.581 149.727C217.494 149.697 217.398 149.703 217.316 149.744C216.992 149.901 216.683 150.076 216.392 150.252C215.579 150.714 214.784 151.176 214.003 151.693C212.845 152.442 211.715 153.233 210.612 154.068C209.245 155.103 207.931 156.201 206.671 157.362C205.235 158.677 203.883 160.081 202.624 161.566C201.259 163.167 200.023 164.874 198.928 166.671C197.764 168.573 196.789 170.585 196.017 172.677C195.873 173.081 195.734 173.483 195.602 173.883C195.407 174.283 195.29 174.715 195.255 175.158C195.261 175.229 195.286 175.296 195.327 175.353C195.369 175.41 195.426 175.455 195.491 175.482H195.505Z" fill="white"/>
<path d="M44.7401 164.398C44.7401 164.398 44.814 155.338 41.252 147.84C37.69 140.342 32.1183 135.269 26.468 134.109C20.8178 132.95 15.6064 137.616 21.2428 141.963C26.8792 146.311 37.2326 151.342 40.5406 165.424L44.7401 164.398Z" fill="#FF725E"/>
<path opacity="0.15" d="M44.7401 164.398C44.7401 164.398 44.814 155.338 41.252 147.84C37.69 140.342 32.1183 135.269 26.468 134.109C20.8178 132.95 15.6064 137.616 21.2428 141.963C26.8792 146.311 37.2326 151.342 40.5406 165.424L44.7401 164.398Z" fill="black"/>
<path d="M42.384 162.832C42.325 162.832 42.2683 162.809 42.2253 162.769C42.1824 162.729 42.1565 162.673 42.153 162.615C41.2844 148.112 29.3371 138.683 23.4327 137.075C23.3741 137.059 23.3242 137.02 23.2939 136.968C23.2637 136.915 23.2554 136.852 23.271 136.793C23.2873 136.734 23.3265 136.683 23.3801 136.651C23.4337 136.62 23.4974 136.612 23.5575 136.627C29.5635 138.267 41.7325 147.854 42.615 162.587C42.6164 162.648 42.5948 162.707 42.5545 162.752C42.5142 162.797 42.4583 162.826 42.3978 162.832H42.384Z" fill="white"/>
<path d="M45.4701 176.835C46.6146 175.391 47.3826 173.685 47.7051 171.871C48.0277 170.056 47.8947 168.19 47.3181 166.44C46.9827 165.383 46.4462 164.401 45.738 163.548C45.1698 162.878 44.352 162.532 43.6867 161.973C42.2545 160.785 40.5913 159.524 40.0739 157.639C39.6581 156.138 39.7459 154.715 38.9143 153.306C38.4243 152.423 37.644 151.738 36.7059 151.365C35.4816 150.903 34.1326 151.208 32.839 151.365C30.991 151.573 29.605 150.935 28.0065 150.085C26.2462 149.161 24.1903 148.431 22.2823 149C21.6617 149.184 21.0867 149.496 20.5946 149.916C20.1024 150.336 19.704 150.855 19.4252 151.439C19.1465 152.024 18.9935 152.66 18.9764 153.307C18.9592 153.954 19.0781 154.597 19.3255 155.195C19.7505 156.23 20.5359 157.071 21.1134 158.032C21.6909 158.993 21.9958 160.092 21.5754 161.141C21.252 161.917 20.6514 162.527 20.4112 163.317C19.7274 165.396 20.1109 167.244 22.176 168.316C24.3336 169.42 27.72 168.588 28.8011 171.3C29.2077 172.331 29.2215 173.472 29.4433 174.558C29.8985 176.742 31.1689 178.672 32.9961 179.954C35.477 181.677 38.845 181.257 41.4183 180.055C42.9993 179.309 44.3861 178.207 45.4701 176.835Z" fill="#FF725E"/>
<path d="M26.0199 163.714C26.0704 163.723 26.1223 163.715 26.1678 163.691C27.9874 162.988 29.9403 162.696 31.8861 162.836C33.8319 162.977 35.7225 163.547 37.4221 164.504C37.4803 164.535 37.5485 164.542 37.6117 164.523C37.675 164.504 37.728 164.461 37.7594 164.403C37.7756 164.374 37.7859 164.343 37.7898 164.31C37.7937 164.278 37.7911 164.245 37.782 164.214C37.773 164.182 37.7577 164.153 37.7372 164.127C37.7166 164.102 37.6912 164.081 37.6623 164.065C35.8965 163.074 33.9329 162.486 31.9126 162.343C29.8924 162.201 27.8657 162.508 25.9784 163.243C25.934 163.267 25.8981 163.305 25.8754 163.35C25.8527 163.395 25.8443 163.446 25.8513 163.496C25.8583 163.546 25.8804 163.593 25.9147 163.631C25.9489 163.668 25.9937 163.694 26.043 163.705L26.0199 163.714Z" fill="white"/>
<path d="M42.1529 176.914C42.0924 176.915 42.0338 176.892 41.9898 176.851C41.9457 176.81 41.9197 176.752 41.9173 176.692C41.4876 166.251 31.0049 155.209 23.9778 152.206C23.9495 152.194 23.9237 152.177 23.902 152.155C23.8803 152.134 23.8632 152.108 23.8515 152.08C23.8399 152.051 23.8341 152.021 23.8344 151.99C23.8346 151.96 23.841 151.929 23.8531 151.901C23.8784 151.844 23.9251 151.8 23.9831 151.777C24.0411 151.755 24.1056 151.756 24.1626 151.781C31.3005 154.839 41.945 166.066 42.3839 176.683C42.3851 176.714 42.3803 176.745 42.3696 176.774C42.3588 176.803 42.3425 176.829 42.3215 176.852C42.3005 176.875 42.2752 176.893 42.247 176.906C42.2189 176.919 42.1885 176.926 42.1575 176.928L42.1529 176.914Z" fill="white"/>
<path d="M100.014 27.7198L47.7245 57.8977C47.2067 58.2357 46.7764 58.6916 46.4688 59.2281C46.1613 59.7645 45.9852 60.3662 45.9551 60.9838V184.121C45.9551 185.248 46.7497 185.705 47.7245 185.137L100.014 154.95C100.528 154.613 100.956 154.159 101.263 153.627C101.571 153.094 101.749 152.496 101.783 151.882V28.727C101.783 27.5997 100.989 27.1377 100.014 27.7198ZM99.2375 142.758C99.2375 143.723 98.5584 144.338 97.7222 144.818L49.8405 172.474C49.0089 172.936 48.3251 172.566 48.3251 171.596V69.1936C48.3253 68.6641 48.4651 68.144 48.7303 67.6857C48.9955 67.2275 49.3769 66.8472 49.8359 66.5833L97.7176 38.9233C97.8712 38.8341 98.0456 38.7869 98.2233 38.7865C98.401 38.786 98.5757 38.8324 98.7298 38.9209C98.8838 39.0094 99.0119 39.1369 99.101 39.2906C99.1902 39.4444 99.2372 39.6188 99.2375 39.7965V142.758Z" fill="#455A64"/>
<path d="M99.2376 142.758C99.2376 143.723 98.5585 144.338 97.7222 144.818L49.8406 172.474C49.009 172.936 48.3252 172.566 48.3252 171.596V69.1935C48.3254 68.664 48.4651 68.1439 48.7304 67.6857C48.9956 67.2274 49.3769 66.8471 49.8359 66.5832L97.7176 38.9233C97.8713 38.834 98.0457 38.7868 98.2234 38.7864C98.4011 38.786 98.5757 38.8323 98.7298 38.9208C98.8839 39.0093 99.0119 39.1369 99.1011 39.2906C99.1902 39.4443 99.2373 39.6188 99.2376 39.7964V142.758Z" fill="#263238"/>
<path d="M49.8406 172.474L97.7222 144.828C98.0584 144.646 98.369 144.421 98.6462 144.158L48.3252 115.819V171.596C48.3252 172.566 49.009 172.954 49.8406 172.474Z" fill="#37474F"/>
<path d="M95.3614 140.961V40.2864L49.8359 66.5834C49.3769 66.8473 48.9956 67.2276 48.7304 67.6859C48.4651 68.1441 48.3254 68.6642 48.3252 69.1937V169.305L93.8461 143.021C94.6823 142.541 95.3614 141.926 95.3614 140.961Z" fill="#FF725E"/>
<path d="M47.5029 185.262C46.9749 185.484 46.4048 185.59 45.8321 185.571C45.2594 185.552 44.6977 185.408 44.1857 185.151L42.1621 183.982C41.6458 183.648 41.2158 183.196 40.9075 182.663C40.5992 182.131 40.4212 181.533 40.3881 180.919V57.7498C40.3997 57.2933 40.5034 56.8439 40.693 56.4285C40.7577 56.2852 40.827 56.1466 40.9055 56.0034L46.4495 59.2374C46.333 59.4457 46.2311 59.6618 46.1446 59.8842C46.01 60.2341 45.9365 60.6044 45.9274 60.9792V184.121C45.9552 185.16 46.6297 185.631 47.5029 185.262Z" fill="#263238"/>
<path d="M75.4308 160.453C76.5627 160.453 76.6828 161.723 76.6828 162.268C76.6152 163.361 76.295 164.422 75.7474 165.37C75.1999 166.317 74.4399 167.125 73.5274 167.729C73.1612 167.962 72.741 168.095 72.3077 168.117C71.1758 168.117 71.0557 166.847 71.0557 166.302C71.1238 165.209 71.4437 164.148 71.9903 163.199C72.5369 162.251 73.2954 161.442 74.2065 160.836C74.5758 160.607 74.9969 160.475 75.4308 160.453Z" fill="#FF725E"/>
<path d="M73.8322 44.7724C74.2942 44.4952 74.6961 44.717 74.6961 45.2714C74.6794 45.5711 74.5925 45.8627 74.4424 46.1227C74.2923 46.3827 74.0833 46.6038 73.8322 46.7682C73.3702 47.0408 72.9636 46.8191 72.9636 46.2693C72.9794 45.9688 73.0664 45.6764 73.2175 45.4161C73.3685 45.1559 73.5792 44.9353 73.8322 44.7724Z" fill="#263238"/>
<path d="M68.2513 52.0673C68.6763 51.8224 69.0182 52.0211 69.0182 52.5293C69.0041 52.7951 68.9273 53.0539 68.794 53.2844C68.6607 53.5148 68.4747 53.7104 68.2513 53.8552C67.8263 54.1001 67.4844 53.9014 67.4844 53.3932C67.4992 53.1275 67.5763 52.8691 67.7096 52.6387C67.8428 52.4084 68.0284 52.2126 68.2513 52.0673Z" fill="#263238"/>
<path d="M70.8154 50.552L79.404 45.5947C79.866 45.3221 80.2541 45.5162 80.2541 46.0244C80.2316 46.3098 80.1431 46.586 79.9955 46.8313C79.848 47.0767 79.6455 47.2844 79.404 47.4381L70.8154 52.3954C70.3534 52.6679 69.9653 52.4739 69.9653 51.9657C69.9878 51.6803 70.0764 51.4041 70.2239 51.1587C70.3714 50.9134 70.5739 50.7057 70.8154 50.552Z" fill="#263238"/>
<path d="M101.765 28.4452C101.635 27.5212 100.901 27.1932 100.018 27.706L47.72 57.8978C47.1967 58.2226 46.7668 58.6779 46.4726 59.2191L40.9286 55.9851C41.2274 55.4482 41.6584 54.9966 42.1806 54.673L94.4467 24.4859C94.9951 24.2079 95.6013 24.063 96.2161 24.063C96.831 24.063 97.4372 24.2079 97.9856 24.4859L100.018 25.6501C100.492 25.9644 100.893 26.3764 101.194 26.8586C101.496 27.3407 101.69 27.8817 101.765 28.4452Z" fill="#37474F"/>
<path d="M88.0479 32.1827C87.7765 32.3276 87.4746 32.4061 87.167 32.4117C86.8594 32.4174 86.5549 32.3499 86.2784 32.215C86.1858 32.1755 86.1056 32.1117 86.0462 32.0304C85.9869 31.9491 85.9506 31.8532 85.9412 31.753C85.9412 31.6236 85.9412 31.1432 85.9412 31.0092C85.956 30.8939 86.0004 30.7844 86.07 30.6913C86.1396 30.5982 86.2321 30.5247 86.3385 30.4779L91.9425 27.2439C92.2151 27.1 92.5176 27.0221 92.8257 27.0164C93.1339 27.0108 93.439 27.0777 93.7166 27.2115C93.8075 27.2529 93.886 27.3173 93.9444 27.3983C94.0027 27.4793 94.0389 27.5742 94.0493 27.6735C94.0493 27.8075 94.0493 28.3065 94.0493 28.4358C94.0348 28.5518 93.9906 28.6621 93.9209 28.756C93.8513 28.8498 93.7587 28.9242 93.6519 28.9718L88.0479 32.1827Z" fill="#FF725E"/>
<path opacity="0.25" d="M88.0479 32.1827C87.7765 32.3276 87.4746 32.4061 87.167 32.4117C86.8594 32.4174 86.5549 32.3499 86.2784 32.215C86.1858 32.1755 86.1056 32.1117 86.0462 32.0304C85.9869 31.9491 85.9506 31.8532 85.9412 31.753C85.9412 31.6236 85.9412 31.1432 85.9412 31.0092C85.956 30.8939 86.0004 30.7844 86.07 30.6913C86.1396 30.5982 86.2321 30.5247 86.3385 30.4779L91.9425 27.2439C92.2151 27.1 92.5176 27.0221 92.8257 27.0164C93.1339 27.0108 93.439 27.0777 93.7166 27.2115C93.8075 27.2529 93.886 27.3173 93.9444 27.3983C94.0027 27.4793 94.0389 27.5742 94.0493 27.6735C94.0493 27.8075 94.0493 28.3065 94.0493 28.4358C94.0348 28.5518 93.9906 28.6621 93.9209 28.756C93.8513 28.8498 93.7587 28.9242 93.6519 28.9718L88.0479 32.1827Z" fill="black"/>
<path d="M88.0479 31.4482L93.652 28.2142C94.1602 27.9186 94.1833 27.4612 93.712 27.1886C93.4344 27.0547 93.1293 26.9879 92.8212 26.9935C92.513 26.9991 92.2105 27.077 91.938 27.2209L86.3339 30.4549C85.8303 30.746 85.8026 31.2034 86.2785 31.4759C86.5549 31.6105 86.8591 31.6781 87.1665 31.6733C87.4739 31.6685 87.7759 31.5914 88.0479 31.4482Z" fill="#FF725E"/>
<path opacity="0.3" d="M88.0479 31.4482L93.652 28.2142C94.1602 27.9186 94.1833 27.4612 93.712 27.1886C93.4344 27.0547 93.1293 26.9879 92.8212 26.9935C92.513 26.9991 92.2105 27.077 91.938 27.2209L86.3339 30.4549C85.8303 30.746 85.8026 31.2034 86.2785 31.4759C86.5549 31.6105 86.8591 31.6781 87.1665 31.6733C87.4739 31.6685 87.7759 31.5914 88.0479 31.4482Z" fill="black"/>
<path d="M43.89 76.3086C43.879 76.0011 43.7955 75.7006 43.6461 75.4316C43.4968 75.1626 43.2859 74.9327 43.0307 74.7609C42.9471 74.6991 42.848 74.6617 42.7445 74.6527C42.6409 74.6438 42.5369 74.6636 42.4439 74.7101C42.3377 74.7747 41.9126 75.0104 41.8018 75.0797C41.709 75.1499 41.636 75.243 41.5898 75.3499C41.5437 75.4568 41.526 75.5738 41.5384 75.6895V89.4201C41.5496 89.727 41.6328 90.027 41.7812 90.2959C41.9297 90.5647 42.1393 90.7949 42.3931 90.9678C42.4766 91.024 42.5732 91.0578 42.6735 91.0659C42.7738 91.074 42.8746 91.0561 42.966 91.014C43.0861 90.954 43.5158 90.7045 43.6313 90.6352C43.7241 90.5649 43.7971 90.4718 43.8432 90.3649C43.8894 90.2581 43.9071 90.1411 43.8946 90.0253L43.89 76.3086Z" fill="#FF725E"/>
<path opacity="0.3" d="M43.89 76.3086C43.879 76.0011 43.7955 75.7006 43.6461 75.4316C43.4968 75.1626 43.2859 74.9327 43.0307 74.7609C42.9471 74.6991 42.848 74.6617 42.7445 74.6527C42.6409 74.6438 42.5369 74.6636 42.4439 74.7101C42.3377 74.7747 41.9126 75.0104 41.8018 75.0797C41.709 75.1499 41.636 75.243 41.5898 75.3499C41.5437 75.4568 41.526 75.5738 41.5384 75.6895V89.4201C41.5496 89.727 41.6328 90.027 41.7812 90.2959C41.9297 90.5647 42.1393 90.7949 42.3931 90.9678C42.4766 91.024 42.5732 91.0578 42.6735 91.0659C42.7738 91.074 42.8746 91.0561 42.966 91.014C43.0861 90.954 43.5158 90.7045 43.6313 90.6352C43.7241 90.5649 43.7971 90.4718 43.8432 90.3649C43.8894 90.2581 43.9071 90.1411 43.8946 90.0253L43.89 76.3086Z" fill="black"/>
<path d="M43.2524 76.6921V90.4227C43.2524 91.0048 42.8689 91.2543 42.393 90.9817C42.1392 90.8088 41.9296 90.5786 41.7811 90.3098C41.6327 90.0409 41.5495 89.741 41.5383 89.434V75.6895C41.5383 75.1028 41.9218 74.8533 42.393 75.1259C42.6502 75.3001 42.8622 75.533 43.0116 75.8053C43.161 76.0777 43.2436 76.3816 43.2524 76.6921Z" fill="#FF725E"/>
<path opacity="0.4" d="M43.2524 76.6921V90.4227C43.2524 91.0048 42.8689 91.2543 42.393 90.9817C42.1392 90.8088 41.9296 90.5786 41.7811 90.3098C41.6327 90.0409 41.5495 89.741 41.5383 89.434V75.6895C41.5383 75.1028 41.9218 74.8533 42.393 75.1259C42.6502 75.3001 42.8622 75.533 43.0116 75.8053C43.161 76.0777 43.2436 76.3816 43.2524 76.6921Z" fill="black"/>
<path d="M43.89 94.7099C43.879 94.4025 43.7955 94.1019 43.6461 93.8329C43.4968 93.5639 43.2859 93.3341 43.0307 93.1622C42.9471 93.1005 42.848 93.0631 42.7445 93.0541C42.6409 93.0451 42.5369 93.065 42.4439 93.1114C42.3377 93.1761 41.9126 93.4117 41.8018 93.481C41.709 93.5513 41.636 93.6444 41.5898 93.7513C41.5437 93.8581 41.526 93.9751 41.5384 94.0909V100.559C41.5503 100.865 41.6338 101.164 41.7822 101.432C41.9307 101.7 42.1399 101.929 42.3931 102.102C42.4739 102.162 42.5692 102.199 42.6691 102.209C42.769 102.22 42.8699 102.204 42.9614 102.162C43.0815 102.102 43.5112 101.852 43.6267 101.783C43.7191 101.714 43.7919 101.621 43.838 101.515C43.8842 101.409 43.9021 101.293 43.89 101.178V94.7099Z" fill="#FF725E"/>
<path opacity="0.3" d="M43.89 94.7099C43.879 94.4025 43.7955 94.1019 43.6461 93.8329C43.4968 93.5639 43.2859 93.3341 43.0307 93.1622C42.9471 93.1005 42.848 93.0631 42.7445 93.0541C42.6409 93.0451 42.5369 93.065 42.4439 93.1114C42.3377 93.1761 41.9126 93.4117 41.8018 93.481C41.709 93.5513 41.636 93.6444 41.5898 93.7513C41.5437 93.8581 41.526 93.9751 41.5384 94.0909V100.559C41.5503 100.865 41.6338 101.164 41.7822 101.432C41.9307 101.7 42.1399 101.929 42.3931 102.102C42.4739 102.162 42.5692 102.199 42.6691 102.209C42.769 102.22 42.8699 102.204 42.9614 102.162C43.0815 102.102 43.5112 101.852 43.6267 101.783C43.7191 101.714 43.7919 101.621 43.838 101.515C43.8842 101.409 43.9021 101.293 43.89 101.178V94.7099Z" fill="black"/>
<path d="M43.2524 95.0566V101.525C43.2524 102.107 42.8689 102.361 42.393 102.084C42.1392 101.911 41.9296 101.681 41.7811 101.412C41.6327 101.143 41.5495 100.843 41.5383 100.536V94.0679C41.5383 93.4858 41.9218 93.2317 42.393 93.5043C42.6478 93.6777 42.8583 93.9085 43.0075 94.1781C43.1568 94.4478 43.2407 94.7487 43.2524 95.0566Z" fill="#FF725E"/>
<path opacity="0.4" d="M43.2524 95.0566V101.525C43.2524 102.107 42.8689 102.361 42.393 102.084C42.1392 101.911 41.9296 101.681 41.7811 101.412C41.6327 101.143 41.5495 100.843 41.5383 100.536V94.0679C41.5383 93.4858 41.9218 93.2317 42.393 93.5043C42.6478 93.6777 42.8583 93.9085 43.0075 94.1781C43.1568 94.4478 43.2407 94.7487 43.2524 95.0566Z" fill="black"/>
<path d="M59.2007 83.2477C59.2466 83.472 59.3084 83.6928 59.3855 83.9083C59.6858 84.7215 60.2263 85.4884 60.1801 86.3569C60.1293 87.3364 59.3578 88.0941 58.7664 88.8748C57.9979 89.9072 57.4857 91.1074 57.272 92.3765C57.0583 93.6456 57.1493 94.9474 57.5375 96.1744C58.1055 97.669 58.8934 99.0705 59.8752 100.332L62.1067 103.497C62.7814 104.383 63.6425 105.11 64.6292 105.627C66.5467 106.711 68.6861 107.343 70.8847 107.475C74.4985 107.719 78.0933 106.776 81.1226 104.791C84.3335 102.666 82.9198 97.2139 86.2046 95.2227C90.1778 92.8203 92.072 84.4766 87.2025 80.9931C87.2025 80.9931 87.9879 75.8834 86.5465 74.5806C85.11 73.3785 83.3324 72.6578 81.4645 72.52C78.8865 72.2521 76.3039 72.7557 73.7306 72.7464C71.0815 72.7379 68.4348 72.903 65.8073 73.2408C64.8833 73.3655 63.5805 73.7028 63.0815 74.6037C62.9406 74.957 62.9022 75.3429 62.9706 75.7171C62.9635 76.3107 62.7513 76.8836 62.37 77.3387C61.7971 78.0317 60.984 78.4983 60.3742 79.1497C59.8709 79.6929 59.5025 80.3469 59.2987 81.0587C59.0948 81.7706 59.0613 82.5204 59.2007 83.2477Z" fill="#263238"/>
<path d="M84.8417 90.6211C88.9997 90.7366 89.5402 91.6236 93.2639 95.3104C96.3593 98.3735 106.616 107.84 106.616 107.84L118.905 111.111L116.004 118.609C116.004 118.609 113.232 118.494 107.688 118.489C104.283 118.489 103.1 117.727 99.6719 115.44C97.9255 114.271 88.0711 107.821 88.0711 107.821L84.8417 90.6211Z" fill="#E6E6E6"/>
<path d="M132.502 95.948L109.979 103.885L103.77 130.681L104.273 131.217L125.687 123.229L133.001 96.4839L132.502 95.948Z" fill="#FF725E"/>
<path opacity="0.35" d="M110.478 104.421L104.273 131.217L103.77 130.681L109.979 103.885L110.478 104.421Z" fill="black"/>
<path opacity="0.25" d="M133.001 96.4841L110.478 104.421L104.273 131.217L125.687 123.229L133.001 96.4841Z" fill="black"/>
<g opacity="0.2">
<path opacity="0.2" d="M122.338 117.778C122.546 118.304 124.273 119.464 126.773 119.256L127.193 117.713L122.338 117.778Z" fill="black"/>
</g>
<g opacity="0.1">
<path opacity="0.1" d="M126.218 101.972L126.403 101.072C126.505 100.577 125.184 100.836 123.451 101.654L119.385 102.883C117.653 103.7 116.017 104.31 115.911 104.804L115.726 105.701L126.218 101.972Z" fill="black"/>
</g>
<path d="M127.558 97.9069C127.623 97.5973 127.096 97.662 126.389 97.8514L125.091 98.2903C125.091 98.2903 125.622 96.9875 122.55 97.8283C119.173 98.7523 119.099 100.429 119.099 100.429C118.571 100.658 118.029 100.856 117.477 101.021C116.355 101.386 116.235 101.603 116.142 101.917L115.976 102.485L127.457 98.4474C127.457 98.4474 127.512 98.2164 127.558 97.9069Z" fill="#37474F"/>
<path d="M126.348 99.6302C125.285 100.092 124.846 100.346 124.685 101.113C124.504 101.986 124.467 102.351 124.467 102.351L118.489 104.708C118.489 104.708 118.813 103.419 118.891 102.989C118.97 102.559 118.18 102.559 117.145 103.035L117.39 101.963L126.69 98.5122L126.348 99.6302Z" fill="#37474F"/>
<path d="M126.523 101.986C126.523 101.986 126.611 101.584 126.713 101.086C126.814 100.587 125.493 100.85 123.761 101.668L119.695 102.897C117.963 103.714 116.322 104.324 116.221 104.818L116.036 105.742L126.523 101.986Z" fill="#37474F"/>
<path d="M130.497 105.65C130.497 105.65 129.697 108.588 129.485 109.346C129.272 110.104 125.586 111.79 123.742 112.021C120.213 112.46 119.811 113.222 120.656 115.717C121.441 118.027 123.738 118.905 126.925 118.531C128.422 118.355 130.487 117.029 131.301 114.714C132.335 111.758 131.763 108.602 132.192 106.86C132.622 105.119 131.393 104.62 130.497 105.65Z" fill="#FFA8A7"/>
<path d="M95.5971 146.057L93.2085 147.443L92.206 148.02L79.0667 155.601L77.2741 156.618L74.248 158.364L75.172 148.935L76.9369 130.677V130.487L77.02 129.669L79.33 105.798L80.3418 95.3521L80.6976 91.6053L80.8177 90.3948H80.8824C81.9524 90.0972 83.0833 90.0972 84.1533 90.3948C84.3919 90.4672 84.6237 90.5599 84.8463 90.672C86.2323 91.3604 87.1563 92.7002 87.9232 94.1093C88.1118 94.4525 88.2814 94.8057 88.4314 95.1673C89.0011 96.5367 89.4404 97.9567 89.7435 99.4085C90.3487 102.088 91.1295 104.828 91.4391 109.147C91.4878 110.259 91.429 111.373 91.2635 112.474C91.0553 115.386 91.0198 118.308 91.1572 121.224C91.5453 127.831 93.2085 130.824 95.5971 146.057Z" fill="#E0E0E0"/>
<path d="M92.206 148.011L79.0667 155.592L77.2742 156.618L74.2481 158.364L72.1645 159.565L59.5149 166.865C59.6489 161.783 59.7089 156.271 59.5888 151.065C59.5518 149.323 59.538 147.544 59.6119 145.724C59.8521 139.404 61.0534 132.626 65.3592 125.493L65.5578 125.133C66.0661 128.149 70.6861 130.108 74.8441 130.57L75.3061 130.612C75.8281 130.663 76.3687 130.686 76.9277 130.686H77.2788C80.7946 130.653 84.9572 129.826 89.7528 128.205C90.2148 130.884 90.6768 134.4 91.1711 138.512C91.3929 140.36 91.6177 142.33 91.8457 144.421C91.9381 145.59 92.0813 146.787 92.206 148.011Z" fill="#FFA8A7"/>
<path d="M93.2086 147.433L92.206 148.011L79.0667 155.592L77.2742 156.618L74.2481 158.364L72.1645 159.565L59.5149 166.865L58.1289 167.664C58.1982 162.194 58.2444 156.835 58.2398 153.472C58.2398 150.344 58.3091 147.563 58.48 145.096C58.8173 140.226 59.5195 136.562 60.693 133.79C62.0699 130.757 63.6988 127.843 65.5625 125.082C65.5625 125.082 66.7175 128.981 75.3569 129.596H75.4123C75.9205 129.632 76.4564 129.656 77.0201 129.665H77.6761C88.4315 129.665 89.6188 126.953 89.6188 126.953C90.6695 130.941 91.5008 134.983 92.109 139.062C92.3369 140.503 92.5571 142.043 92.7697 143.682C92.9267 144.883 93.0746 146.131 93.2086 147.433Z" fill="#FF725E"/>
<path opacity="0.4" d="M93.2086 147.433L92.206 148.011L79.0667 155.592L77.2742 156.618L74.2481 158.364L72.1645 159.565L59.5149 166.865L58.1289 167.664C58.1982 162.194 58.2444 156.835 58.2398 153.472C58.2398 150.344 58.3091 147.563 58.48 145.096C58.8173 140.226 59.5195 136.562 60.693 133.79C62.0699 130.757 63.6988 127.843 65.5625 125.082C65.5625 125.082 66.7175 128.981 75.3569 129.596H75.4123C75.9205 129.632 76.4564 129.656 77.0201 129.665H77.6761C88.4315 129.665 89.6188 126.953 89.6188 126.953C90.6695 130.941 91.5008 134.983 92.109 139.062C92.3369 140.503 92.5571 142.043 92.7697 143.682C92.9267 144.883 93.0746 146.131 93.2086 147.433Z" fill="black"/>
<path opacity="0.2" d="M87.0409 141.302C87.0409 141.302 85.8397 145.119 80.7854 147.258L80.5451 148.427L79.0667 155.592L77.2742 156.618L78.346 148.713L78.808 145.276C81.9316 144.952 84.8438 143.546 87.0409 141.302Z" fill="black"/>
<path d="M71.6701 91.499L66.5881 92.0349C63.2247 92.8573 61.7047 94.3449 61.3582 97.3156C61.1965 98.7016 60.3603 102.398 61.5338 107.018C62.5964 111.213 65.4331 121.478 65.4331 121.478C65.4331 121.478 58.905 129.997 57.7223 144.606C69.6696 152.404 87.9972 148.214 92.9544 143.502C92.5386 139.039 89.6881 126.791 89.3323 122.813C89.3323 122.813 89.5957 116.599 90.09 113.906C93.8692 109.78 93.3887 105.835 91.6932 102.652C88.5608 96.7751 83.8392 91.6099 82.3099 91.6145L71.6701 91.499Z" fill="#FF725E"/>
<path opacity="0.7" d="M71.6701 91.499L66.5881 92.0349C63.2247 92.8573 61.7047 94.3449 61.3582 97.3156C61.1965 98.7016 60.3603 102.398 61.5338 107.018C62.5964 111.213 65.4331 121.478 65.4331 121.478C65.4331 121.478 58.905 129.997 57.7223 144.606C69.6696 152.404 87.9972 148.214 92.9544 143.502C92.5386 139.039 89.6881 126.791 89.3323 122.813C89.3323 122.813 89.5957 116.599 90.09 113.906C93.8692 109.78 93.3887 105.835 91.6932 102.652C88.5608 96.7751 83.8392 91.6099 82.3099 91.6145L71.6701 91.499Z" fill="white"/>
<path d="M76.073 123.308C76.073 123.4 76.073 123.483 76.073 123.552V123.673C76.0759 123.711 76.0759 123.75 76.073 123.788C75.8974 125.636 75.6895 127.6 75.4677 129.6C75.4677 129.6 75.4677 129.6 75.4677 129.628C75.4354 129.951 75.3984 130.275 75.3615 130.603C74.6823 136.632 73.8738 143.077 73.2501 148.944C73.0977 150.367 72.9591 151.753 72.8343 153.102C72.6403 155.121 72.4324 157.334 72.2199 159.57L59.5703 166.87L58.1843 167.669L54.65 169.706C55.3615 162.707 57.0201 146.491 57.9441 139.173C58.0503 138.346 58.1889 137.519 58.346 136.696L58.4708 136.096L58.5262 135.851C58.5863 135.574 58.6463 135.306 58.711 135.033C58.7757 134.761 58.8357 134.53 58.8958 134.285C59.039 133.726 59.1915 133.176 59.3578 132.64C59.4363 132.381 59.5103 132.123 59.5934 131.868C59.6766 131.614 59.7459 131.36 59.829 131.111C59.9954 130.612 60.1571 130.122 60.328 129.646C60.326 129.637 60.326 129.628 60.328 129.619C60.4065 129.392 60.4897 129.157 60.5729 128.944C60.6837 128.63 60.7992 128.325 60.9147 128.02L61.0533 127.655C61.1226 127.489 61.1827 127.327 61.2474 127.165C61.4738 126.597 61.7094 126.057 61.9173 125.553C61.9635 125.442 62.0143 125.331 62.0605 125.225C62.1067 125.119 62.1806 124.962 62.2361 124.832C62.3747 124.509 62.5133 124.209 62.6472 123.908C62.7027 123.779 62.7627 123.654 62.8182 123.534C62.8736 123.414 62.9522 123.257 63.0122 123.127L63.1 122.943L63.1924 122.762C63.1984 122.739 63.2095 122.717 63.2247 122.698C63.2373 122.664 63.2528 122.632 63.2709 122.601C63.2821 122.58 63.2914 122.558 63.2987 122.536C63.3371 122.471 63.3711 122.403 63.4003 122.333L63.7098 121.732C63.7098 121.7 63.7422 121.677 63.7514 121.649L63.8715 121.427L60.0277 105.488L58.115 97.5696V97.4402C58.2028 96.738 58.7895 93.4254 62.1714 92.4183C64.0807 91.9254 66.0364 91.6343 68.0064 91.5497C68.7641 91.5035 69.4479 91.4851 70.0069 91.4712H70.8893H71.4206C71.4218 91.4819 71.4218 91.4928 71.4206 91.5035C71.4483 91.5728 71.5269 91.7807 71.647 92.1041C71.66 92.1583 71.6786 92.2109 71.7024 92.2612C71.7029 92.2689 71.7029 92.2766 71.7024 92.2843C72.534 94.5666 74.8671 101.21 76.0268 106.981C76.23 107.978 76.3964 108.953 76.5165 109.877C76.863 112.765 76.6089 117.597 76.073 123.308Z" fill="#FAFAFA"/>
<path d="M63.9963 113.795C63.9963 113.795 64.4583 111.517 65.1374 106.597C65.9274 100.924 65.6456 98.1195 64.7909 96.3269L59.9723 105.516L63.8161 121.455C63.8161 121.455 59.866 128.69 58.2721 136.701C62.0512 126.024 66.1861 122.841 66.1861 122.841L63.9963 113.795Z" fill="#E6E6E6"/>
<path d="M80.8777 87.9417C82.3746 87.9417 82.5501 88.1911 83.8391 89.919C84.606 90.9493 89.4616 98.965 89.4616 98.965C89.4616 98.965 85.5993 93.883 82.6841 92.3399C82.1229 92.011 81.5155 91.768 80.8823 91.6192L80.8777 87.9417Z" fill="#EBEBEB"/>
<path d="M69.8083 104.975C69.8083 104.513 69.7621 103.516 69.6835 102.259C69.3001 96.0958 69.1153 90.5518 71.1943 90.0898L71.3744 90.9399C69.8591 91.2679 70.358 99.2005 70.5475 102.185C70.6306 103.469 70.6953 104.495 70.6722 104.994L69.8083 104.975Z" fill="#FF725E"/>
<path d="M62.8783 64.6245L66.1123 67.2718C66.2881 67.0706 66.421 66.8356 66.5028 66.5812C66.5846 66.3268 66.6137 66.0584 66.5882 65.7924C66.5626 65.5264 66.4831 65.2684 66.3544 65.0343C66.2257 64.8001 66.0506 64.5946 65.8397 64.4305C65.4145 64.0789 64.871 63.9031 64.3205 63.9392C63.7699 63.9753 63.254 64.2205 62.8783 64.6245Z" fill="#263238"/>
<path d="M71.3236 88.3343C71.3236 86.3061 66.5973 83.2523 64.158 78.988C61.7186 74.7238 62.9383 67.7106 66.2832 66.6342C66.3109 66.6342 66.4033 65.7333 66.4171 65.6686C66.6021 64.8549 66.9139 64.0754 67.3411 63.3586C68.704 61.0116 71.5915 59.2006 74.2711 58.8217C84.8648 57.2787 89.7343 61.3951 91.6793 65.9227C92.3098 67.4457 92.5908 69.0908 92.5017 70.7367C92.4472 71.9456 91.9986 73.1035 91.2245 74.0336C90.4504 74.9637 89.3932 75.615 88.2143 75.888L71.3236 88.3343Z" fill="#263238"/>
<path d="M86.0198 64.4072C88.0942 65.3312 90.0669 68.4867 90.0346 77.3663C90.0068 84.8969 87.6968 86.8004 86.5326 87.3594C85.3684 87.9184 83.0907 87.632 80.8777 87.2947V91.619C80.8777 91.619 82.5363 93.2499 81.9542 94.2755C81.3721 95.3012 79.2238 96.1697 75.8835 95.121C72.0997 93.9336 71.2358 91.425 71.2358 91.425L71.148 81.9355C71.148 81.9355 69.8775 83.2707 67.6368 81.3118C65.7888 79.6902 65.1235 76.9136 66.5141 75.389C67.9048 73.8644 69.6881 73.7442 71.2958 75.449L72.4508 74.8392C74.5114 74.5989 77.5328 74.2524 79.7597 73.1298C85.47 70.2238 86.0614 67.073 86.0198 64.4072Z" fill="#FFA8A7"/>
<path d="M71.3282 74.2202L71.356 78.3782C71.623 78.3853 71.8886 78.3377 72.1366 78.2383C72.3845 78.1389 72.6095 77.9899 72.7978 77.8004C72.986 77.6109 73.1335 77.3848 73.2311 77.1362C73.3288 76.8876 73.3746 76.6216 73.3657 76.3547C73.3606 75.8067 73.1473 75.2811 72.7689 74.8847C72.3905 74.4883 71.8754 74.2507 71.3282 74.2202Z" fill="#263238"/>
<path d="M86.2139 74.8116C86.2158 75.007 86.2751 75.1975 86.3843 75.3595C86.4935 75.5215 86.6478 75.6479 86.8282 75.723C87.0085 75.798 87.207 75.8185 87.3989 75.7819C87.5908 75.7453 87.7677 75.6531 87.9077 75.5168C88.0477 75.3806 88.1447 75.2062 88.1865 75.0154C88.2283 74.8245 88.2132 74.6256 88.1431 74.4433C88.0729 74.261 87.9508 74.1032 87.7918 73.9897C87.6328 73.8761 87.444 73.8117 87.2487 73.8045C87.1143 73.8014 86.9807 73.8251 86.8555 73.8743C86.7304 73.9235 86.6163 73.9971 86.52 74.0909C86.4236 74.1847 86.3469 74.2967 86.2944 74.4204C86.2418 74.5442 86.2144 74.6772 86.2139 74.8116Z" fill="black"/>
<path d="M78.2444 75.255C78.2363 75.3982 78.2565 75.5416 78.304 75.677C78.3514 75.8124 78.4251 75.9371 78.5208 76.044C78.6165 76.1509 78.7324 76.2378 78.8617 76.2998C78.9911 76.3618 79.1314 76.3977 79.2747 76.4053C79.4201 76.4066 79.5643 76.3791 79.699 76.3244C79.8337 76.2697 79.9563 76.189 80.0598 76.0868C80.1633 75.9847 80.2455 75.8631 80.3019 75.7291C80.3582 75.595 80.3875 75.4512 80.3881 75.3058C80.3927 75.165 80.3694 75.0248 80.3198 74.893C80.2701 74.7612 80.195 74.6405 80.0987 74.5377C80.0024 74.435 79.8868 74.3522 79.7585 74.2941C79.6301 74.2361 79.4917 74.2038 79.3509 74.1993C79.2102 74.1947 79.0699 74.218 78.9381 74.2676C78.8063 74.3173 78.6856 74.3924 78.5829 74.4887C78.4801 74.585 78.3973 74.7006 78.3393 74.8289C78.2812 74.9572 78.249 75.0957 78.2444 75.2365V75.255Z" fill="black"/>
<path d="M88.8565 72.9498L86.2832 71.9288C86.3427 71.7556 86.4373 71.5966 86.5611 71.4617C86.6849 71.3269 86.8352 71.219 87.0026 71.1448C87.1699 71.0706 87.3508 71.0318 87.5339 71.0308C87.717 71.0297 87.8983 71.0665 88.0665 71.1387C88.4056 71.2814 88.6768 71.549 88.8238 71.8862C88.9709 72.2234 88.9826 72.6042 88.8565 72.9498Z" fill="black"/>
<path d="M83.7745 73.9985L83.6451 80.1616L86.9577 79.427L83.7745 73.9985Z" fill="#F28F8F"/>
<path d="M79.8706 81.4182L83.1046 82.4208C83.0575 82.6412 82.9657 82.8497 82.8347 83.0331C82.7037 83.2166 82.5364 83.3712 82.3432 83.4873C82.15 83.6034 81.9349 83.6786 81.7114 83.7081C81.488 83.7376 81.2608 83.7209 81.044 83.6589C80.6002 83.5046 80.2319 83.187 80.0139 82.7708C79.7959 82.3545 79.7447 81.8709 79.8706 81.4182Z" fill="#B16668"/>
<path d="M81.6586 83.7143C81.6549 83.2646 81.4737 82.8346 81.1544 82.5178C80.8351 82.2011 80.4035 82.0234 79.9538 82.0234C79.9092 82.0212 79.8645 82.0212 79.8198 82.0234C79.8364 82.3844 79.9611 82.7321 80.1778 83.0212C80.3945 83.3104 80.6931 83.5278 81.0349 83.6451C81.2357 83.7113 81.4481 83.7349 81.6586 83.7143Z" fill="#F28F8F"/>
<path d="M80.8778 87.3178C78.5447 87.0406 73.7352 85.7008 72.9545 83.7466C73.2673 84.7276 73.8677 85.5919 74.6777 86.2275C76.1284 87.4749 80.8778 88.7731 80.8778 88.7731V87.3178Z" fill="#F28F8F"/>
<path d="M71.2127 87.9646C70.6029 87.8398 70.0623 88.1078 69.5634 88.9486C69.0644 89.7895 67.9695 91.582 67.9695 91.582C67.9695 91.582 67.4012 97.491 67.9695 98.974C68.4592 100.249 73.86 105.031 73.86 105.031C73.86 105.031 72.4509 110.339 72.4001 112.081C72.3492 113.823 75.634 120.434 76.0314 123.816C76.0314 123.816 77.2002 113.19 76.6966 109.36C75.8281 102.721 72.7142 94.1461 71.2451 91.4203L71.2127 87.9646Z" fill="#EBEBEB"/>
<path d="M74.5161 109.956C74.1556 109.098 73.7309 108.269 73.2456 107.475C72.4786 106.204 71.5315 104.985 70.6768 104.671C70.5473 104.619 70.4096 104.591 70.2703 104.587H70.2241C70.0834 104.595 69.9454 104.63 69.8175 104.689C69.143 104.989 68.4315 105.909 67.854 106.967C67.2626 108.029 66.7752 109.146 66.3987 110.302C66.177 111.018 66.274 112.538 66.5373 114.276C67.0548 117.648 68.2051 121.862 68.8473 122.693C69.318 123.274 69.8741 123.78 70.4967 124.195C70.1155 124.447 69.7042 124.65 69.2724 124.8C69.0281 124.889 68.7701 124.934 68.5101 124.934V125.539H68.584C68.8586 125.535 69.1311 125.49 69.3925 125.405C69.9981 125.209 70.5699 124.92 71.088 124.55C71.635 124.876 72.2286 125.116 72.8482 125.262C73.14 125.332 73.4417 125.351 73.7399 125.317L73.666 124.717C73.4072 124.739 73.1467 124.718 72.8944 124.657C72.45 124.541 72.0217 124.37 71.6193 124.148C72.2057 123.682 72.7195 123.131 73.1439 122.513C73.5043 121.963 73.9478 120.069 74.2804 117.893C74.4837 116.595 74.65 115.2 74.7424 113.929C74.8441 112.155 74.7979 110.635 74.5161 109.956ZM72.608 122.18C72.1746 122.806 71.6425 123.356 71.0326 123.811C70.3847 123.411 69.8071 122.907 69.3232 122.319C68.7226 121.538 67.6138 117.426 67.1148 114.183C66.8607 112.543 66.7683 111.125 66.9716 110.487C67.3484 109.317 67.847 108.19 68.4592 107.124C69.0968 106.024 69.7759 105.216 70.2472 105.197C70.8062 105.197 71.7117 106.209 72.5572 107.507C72.7281 107.761 72.8898 108.039 73.0469 108.316C73.3915 108.913 73.7001 109.53 73.9709 110.164C74.225 110.792 74.2527 112.21 74.1372 113.86C74.0725 114.784 73.9709 115.749 73.8415 116.71C73.4904 119.219 72.9961 121.571 72.608 122.166V122.18Z" fill="#455A64"/>
<path d="M74.5669 124.962C74.5741 125.138 74.5288 125.313 74.4367 125.463C74.3447 125.614 74.21 125.734 74.0497 125.808C73.8895 125.882 73.7109 125.906 73.5366 125.879C73.3623 125.851 73.2001 125.773 73.0705 125.653C72.9409 125.533 72.8498 125.377 72.8088 125.206C72.7677 125.034 72.7785 124.854 72.8398 124.688C72.9011 124.523 73.0101 124.379 73.1531 124.276C73.2961 124.172 73.4665 124.114 73.6429 124.107C73.8786 124.098 74.1082 124.183 74.2814 124.344C74.4546 124.504 74.5573 124.726 74.5669 124.962Z" fill="#263238"/>
<path d="M69.3879 125.202C69.396 125.378 69.3515 125.553 69.26 125.705C69.1685 125.856 69.0342 125.976 68.8741 126.051C68.714 126.126 68.5353 126.151 68.3607 126.124C68.1861 126.097 68.0235 126.019 67.8934 125.899C67.7634 125.779 67.6718 125.624 67.6304 125.452C67.5889 125.28 67.5994 125.1 67.6605 124.934C67.7216 124.769 67.8306 124.625 67.9736 124.521C68.1167 124.417 68.2873 124.358 68.4638 124.352C68.5804 124.347 68.6967 124.365 68.8062 124.405C68.9157 124.445 69.0163 124.506 69.1021 124.585C69.1879 124.664 69.2574 124.759 69.3064 124.865C69.3554 124.971 69.3831 125.085 69.3879 125.202Z" fill="#263238"/>
<path d="M74.6685 113.92L74.1557 113.883C74.1034 113.878 74.055 113.853 74.0205 113.814C73.9861 113.774 73.9683 113.723 73.9709 113.67C74.0772 111.975 74.0217 110.727 73.8138 110.228C72.9176 108.039 71.0418 105.294 70.2518 105.327C69.4618 105.359 67.8263 108.256 67.1148 110.51C66.9531 111.028 67.0039 112.275 67.2488 113.957C67.2569 114.008 67.2444 114.061 67.2142 114.103C67.184 114.145 67.1383 114.174 67.0871 114.183L66.5789 114.262C66.5256 114.268 66.4719 114.253 66.4295 114.221C66.3871 114.188 66.3594 114.139 66.3525 114.086C66.0707 112.201 66.0384 110.908 66.2509 110.238C66.6297 109.027 68.4177 104.495 70.2148 104.421C72.012 104.347 74.1788 108.708 74.6593 109.887C74.9226 110.533 75.0012 111.827 74.8811 113.726C74.8775 113.779 74.8534 113.829 74.8138 113.866C74.7742 113.902 74.7221 113.921 74.6685 113.92Z" fill="#FF725E"/>
<path d="M63.5897 92.3584C60.2079 92.3029 58.6463 93.4441 56.5026 96.3131C54.8025 98.5907 48.1866 110.898 45.9921 114.493L34.0448 108.108C31.6286 106.44 30.8478 103.807 29.3186 102.268C27.7893 100.73 26.2047 100.42 24.523 99.1498C22.8413 97.8793 22.1576 96.8906 21.6725 98.0779C21.1874 99.2653 23.0585 101.187 23.4142 101.663C23.7699 102.139 25.6457 103.197 23.2109 103.234C20.7762 103.271 15.9575 100.748 14.784 100.3C13.6106 99.852 13.6799 101.252 14.2574 102.148C14.8349 103.044 14.8071 105.576 15.782 107.041C16.8122 108.593 17.3759 109.268 19.672 110.275C21.8064 111.199 26.2878 111.568 28.5563 112.987C30.8247 114.405 36.4472 119.404 39.866 122.402C44.2134 126.214 47.2118 126.911 49.6327 124.624C51.9843 122.162 54.3682 119.274 55.5324 117.81C58.6694 113.86 63.6313 104.874 63.6313 104.874C63.6313 104.874 65.7796 100.254 63.5897 92.3584Z" fill="#FFA8A7"/>
<path d="M64.0564 92.021C59.076 92.021 57.5884 93.8228 55.0381 97.9854C52.4879 102.148 45.946 114.063 45.946 114.063L36.5258 109.129C36.5258 109.129 34.8302 112.862 33.0284 116.71C33.0284 116.71 38.3599 121.33 40.8824 123.516C43.405 125.701 46.7498 127.415 49.8499 124.74C53.1624 121.885 63.9039 107.05 63.9039 107.05C66.4542 102.421 65.8859 95.4028 64.0564 92.021Z" fill="#F0F0F0"/>
<path d="M45.9459 114.063C47.4844 115.874 49.3462 117.911 49.2631 119.515C49.2631 119.515 50.3164 118.092 46.6158 112.848L45.9459 114.063Z" fill="#E0E0E0"/>
<path d="M28.1266 69.6327L24.2735 71.8411L24.2874 67.4151L21.4045 65.752L14.6824 69.6327V77.3943L7.96033 81.2751V89.0367L10.8432 90.6999L14.6824 88.4823V92.9222L17.5653 94.5854L24.2874 90.6999V82.9383L31.0095 79.0575V71.296L28.1266 69.6327Z" fill="#FF725E"/>
<path d="M10.8433 82.9382V90.6998L17.5654 86.819V94.5853L24.2875 90.6998V82.9382L31.0096 79.0574V71.2958L24.2644 75.1905L24.2875 67.415L17.5654 71.2958V79.0574L10.8433 82.9382Z" fill="#FF725E"/>
<g opacity="0.2">
<path opacity="0.2" d="M10.8432 90.6997L7.96033 89.0365V81.2749L10.8432 82.9381V90.6997Z" fill="black"/>
<path opacity="0.2" d="M17.5653 71.2958L14.6824 69.6326V77.3942L17.5653 79.0574V71.2958Z" fill="black"/>
<path opacity="0.2" d="M17.5653 94.5853L14.6824 92.9221V88.4823L17.5653 86.8191V94.5853Z" fill="black"/>
</g>
<g opacity="0.5">
<path opacity="0.5" d="M17.5653 79.0575L14.6824 77.3943L7.96033 81.2751L10.8432 82.9383L17.5653 79.0575Z" fill="white"/>
<path opacity="0.5" d="M24.2874 67.4151L21.4045 65.752L14.6824 69.6327L17.5653 71.2959L24.2874 67.4151Z" fill="white"/>
<path opacity="0.5" d="M31.0095 71.296L28.1266 69.6328L24.2735 71.8412L24.2643 75.1907L31.0095 71.296Z" fill="white"/>
</g>
<path d="M138.693 54.0541C138.571 53.9483 138.439 53.854 138.3 53.7722C137.81 53.4812 135.593 52.2061 135.477 52.1368C134.304 51.3883 132.446 51.5546 130.792 52.3909C128.422 53.5874 126.45 56.1146 124.943 60.3234C124.943 60.3234 123.419 59.2285 122.924 58.9374C121.7 58.2675 120.268 58.5909 118.656 59.6396C116.84 60.8224 115.602 62.3562 114.47 64.6754V64.717C113.489 66.6863 112.953 68.847 112.899 71.0464C112.899 75.9113 114.89 78.2305 117.482 79.9723C118.221 80.4712 120.176 81.52 120.37 81.6493C121.934 82.6821 123.664 83.4384 125.484 83.8854L128.039 84.4814L130.594 80.9378C132.454 78.3251 134.161 75.6071 135.708 72.7974C138.3 68.0619 140.328 63.4234 140.291 58.577C140.254 56.5027 139.658 54.9781 138.693 54.0541Z" fill="#FF725E"/>
<path opacity="0.3" d="M138.693 54.0541C138.571 53.9483 138.439 53.854 138.3 53.7722C137.81 53.4812 135.593 52.2061 135.477 52.1368C134.304 51.3883 132.446 51.5546 130.792 52.3909C128.422 53.5874 126.45 56.1146 124.943 60.3234C124.943 60.3234 123.419 59.2285 122.924 58.9374C121.7 58.2675 120.268 58.5909 118.656 59.6396C116.84 60.8224 115.602 62.3562 114.47 64.6754V64.717C113.489 66.6863 112.953 68.847 112.899 71.0464C112.899 75.9113 114.89 78.2305 117.482 79.9723C118.221 80.4712 120.176 81.52 120.37 81.6493C121.934 82.6821 123.664 83.4384 125.484 83.8854L128.039 84.4814L130.594 80.9378C132.454 78.3251 134.161 75.6071 135.708 72.7974C138.3 68.0619 140.328 63.4234 140.291 58.577C140.254 56.5027 139.658 54.9781 138.693 54.0541Z" fill="black"/>
<path d="M138.693 54.0541C138.571 53.9483 138.439 53.854 138.3 53.7722C137.81 53.4812 135.592 52.2061 135.477 52.1368C134.304 51.3883 132.446 51.5546 130.792 52.3909C128.422 53.5874 126.45 56.1146 124.943 60.3234C124.943 60.3234 123.419 59.2285 122.924 58.9374C121.7 58.2675 120.268 58.5909 118.656 59.6396C116.84 60.8224 115.602 62.3562 114.47 64.6754V64.717C114.419 64.8187 114.377 64.9203 114.331 65.0219L133.735 76.2116C134.424 75.0935 135.094 73.9616 135.731 72.7974C138.323 68.0619 140.351 63.4234 140.314 58.577C140.254 56.5027 139.658 54.9781 138.693 54.0541Z" fill="#FF725E"/>
<path opacity="0.15" d="M138.693 54.0541C138.571 53.9483 138.439 53.854 138.3 53.7722C137.81 53.4812 135.592 52.2061 135.477 52.1368C134.304 51.3883 132.446 51.5546 130.792 52.3909C128.422 53.5874 126.45 56.1146 124.943 60.3234C124.943 60.3234 123.419 59.2285 122.924 58.9374C121.7 58.2675 120.268 58.5909 118.656 59.6396C116.84 60.8224 115.602 62.3562 114.47 64.6754V64.717C114.419 64.8187 114.377 64.9203 114.331 65.0219L133.735 76.2116C134.424 75.0935 135.094 73.9616 135.731 72.7974C138.323 68.0619 140.351 63.4234 140.314 58.577C140.254 56.5027 139.658 54.9781 138.693 54.0541Z" fill="black"/>
<path d="M124.93 60.3049L127.526 63.6914L131.712 58.7387L126.981 56.0083C126.138 57.3591 125.45 58.8004 124.93 60.3049Z" fill="#FF725E"/>
<path opacity="0.3" d="M124.93 60.3049L127.526 63.6914L131.712 58.7387L126.981 56.0083C126.138 57.3591 125.45 58.8004 124.93 60.3049Z" fill="black"/>
<path d="M138.693 54.0542C137.561 53.0424 135.5 53.1302 133.68 54.0542C131.199 55.3108 129.148 58.0228 127.614 62.615C126.08 59.7968 124.029 59.7091 121.548 61.3214C119.727 62.5042 118.489 64.038 117.362 66.3572L117.339 66.3988C116.362 68.3708 115.827 70.5326 115.773 72.7328C115.773 77.5977 117.769 79.9169 120.356 81.6587C121.92 82.6914 123.65 83.4478 125.47 83.8948L128.025 84.4907L130.58 80.9472C132.44 78.3344 134.147 75.6164 135.694 72.8068C138.286 68.0713 140.314 63.4328 140.277 58.5864C140.254 56.5028 139.658 54.9782 138.693 54.0542Z" fill="#FF725E"/>
<g opacity="0.07">
<path opacity="0.07" d="M136.512 53.592C137.224 53.5594 137.924 53.7841 138.485 54.225C138.494 54.2449 138.509 54.2623 138.526 54.2758C139.478 55.1443 140.009 56.6874 140.014 58.6094C140.014 63.6683 137.704 68.5793 135.463 72.7096C133.928 75.5101 132.231 78.219 130.381 80.8223L127.928 84.2365L125.539 83.6775C123.746 83.237 122.042 82.4933 120.499 81.4784C118.189 79.9076 116.008 77.7824 116.027 72.7558C116.076 70.5942 116.595 68.4692 117.547 66.528V66.4865C118.683 64.1534 119.908 62.6796 121.645 61.5523C122.452 60.9538 123.414 60.6009 124.417 60.5359C125.59 60.5359 126.556 61.2612 127.369 62.7535C127.389 62.7935 127.42 62.8268 127.459 62.8498C127.497 62.8727 127.541 62.8841 127.586 62.8829H127.609C127.657 62.8784 127.702 62.8604 127.74 62.8309C127.778 62.8014 127.806 62.7617 127.822 62.7165C129.286 58.3321 131.231 55.5786 133.763 54.2989C134.608 53.8561 135.544 53.6142 136.498 53.592H136.512ZM136.498 53.3472C135.506 53.3676 134.532 53.6175 133.652 54.0771C131.171 55.3338 129.12 58.0457 127.586 62.638C126.699 61.0025 125.636 60.2864 124.417 60.2864C123.37 60.3552 122.365 60.7224 121.52 61.3444C119.7 62.5271 118.462 64.0609 117.334 66.3802L117.311 66.4218C116.334 68.3938 115.799 70.5556 115.745 72.7558C115.745 77.6207 117.741 79.9399 120.328 81.6816C121.892 82.7144 123.622 83.4708 125.442 83.9177L127.997 84.5137L130.552 80.9702C132.412 78.3574 134.12 75.6394 135.666 72.8297C138.258 68.0942 140.286 63.4557 140.249 58.6094C140.249 56.5257 139.644 54.978 138.679 54.091C138.069 53.5943 137.298 53.3393 136.512 53.3749L136.498 53.3472Z" fill="black"/>
</g>
<path d="M138.411 67.1517L133.44 70.0254L131.592 63.3033C131.565 63.2016 131.505 63.1119 131.421 63.0489C131.337 62.986 131.234 62.9535 131.13 62.9568C131.021 62.9546 130.916 62.9904 130.832 63.0579C130.747 63.1254 130.689 63.2204 130.668 63.3264L127.789 76.4749L125.368 69.8498C125.364 69.7273 125.31 69.6117 125.22 69.5285C125.13 69.4454 125.01 69.4014 124.888 69.4063C124.765 69.4112 124.65 69.4646 124.567 69.5547C124.483 69.6448 124.44 69.7642 124.444 69.8868L122.809 75.6941L117.339 78.8542C117.519 79.1158 117.713 79.3672 117.921 79.6072L123.465 76.4148C123.572 76.3526 123.652 76.2518 123.687 76.133L124.976 71.55L127.457 78.3229C127.49 78.4176 127.553 78.4991 127.636 78.5549C127.719 78.6108 127.818 78.638 127.919 78.6324C128.021 78.6273 128.119 78.5882 128.197 78.5212C128.275 78.4543 128.328 78.3634 128.348 78.2628L131.167 65.41L132.654 70.8662C132.672 70.9364 132.706 71.0015 132.753 71.0561C132.801 71.1108 132.86 71.1536 132.927 71.181C132.994 71.2084 133.067 71.2197 133.139 71.214C133.211 71.2083 133.281 71.1857 133.343 71.148L137.759 68.6024C138.013 68.1173 138.217 67.6368 138.411 67.1517Z" fill="white"/>
<path d="M159.275 190.709C159.085 191.335 159.069 192.001 159.228 192.636C159.413 193.024 160.568 194.299 162.924 194.761C165.281 195.223 168.519 194.761 169.914 194.678C171.31 194.594 175.689 195.14 177.08 195.315C179.27 195.611 180.952 195.13 181.769 194.34C181.902 194.181 181.999 193.997 182.056 193.798C182.112 193.599 182.126 193.39 182.097 193.185C182.093 192.658 182.015 192.134 181.866 191.628L159.275 190.709Z" fill="#263238"/>
<path d="M181.506 189.337C181.548 189.517 181.589 189.702 181.626 189.887C181.839 190.816 181.906 191.773 181.825 192.723C181.543 193.416 180.771 193.8 180.148 193.994C178.498 194.521 177.246 194.456 175.421 194.091C173.586 193.823 171.732 193.709 169.877 193.749C168.441 193.846 166.463 194.123 165.026 193.989C163.805 193.938 162.599 193.692 161.455 193.259C160.499 192.853 159.519 192.335 159.284 191.337C159.002 189.258 159.875 188.344 160.859 187.761C161.843 187.179 163.243 187.226 164.74 187.129C166.094 187.036 167.082 187.036 168.288 186.944C169.331 186.893 170.367 186.749 171.384 186.514C172.308 186.228 173.232 185.068 173.61 185.026C173.61 185.026 179.639 184.98 180.212 185.026C180.878 185.082 181.081 187.142 181.164 187.591C181.229 187.942 181.243 188.32 181.335 188.658C181.395 188.884 181.451 189.11 181.506 189.337Z" fill="#37474F"/>
<path d="M162.929 193.712C162.74 192.215 162.467 188.972 165.239 187.096H165.585C164.34 186.736 163.019 186.736 161.774 187.096C159.57 187.683 158.591 189.466 159.141 191.351C159.15 191.333 159.64 193.158 162.929 193.712Z" fill="#FAFAFA"/>
<path d="M170.972 186.62C170.081 187.41 169.771 189.208 169.771 189.208C169.656 189.882 168.436 189.984 168.552 189.332C168.738 188.437 169.097 187.586 169.61 186.828C170.028 186.608 170.508 186.535 170.972 186.62Z" fill="#FAFAFA"/>
<path d="M168.473 186.93C167.801 187.588 167.361 188.448 167.221 189.378C167.096 190.025 166.08 190.016 166.154 189.378C166.154 189.378 166.269 187.785 167.221 187.041C167.405 186.923 167.615 186.851 167.833 186.832C168.051 186.812 168.271 186.846 168.473 186.93Z" fill="#FAFAFA"/>
<path d="M180.397 180.642C180.397 180.642 180.235 184.518 180.023 185.789C179.894 186.546 178.9 187.341 176.429 187.258C174.691 187.198 173.324 187.341 173.393 185.983L173.546 182.023L180.397 180.642Z" fill="#FFA8A7"/>
<path d="M184.273 171.485C184.186 172.543 184.042 173.499 184.477 174.664C185.096 176.336 186.408 177.103 187.179 177.759C187.991 178.563 188.74 179.428 189.42 180.346C190.178 181.27 190.376 181.82 191.513 182.827C192.079 183.263 192.749 183.545 193.457 183.644C194.165 183.744 194.886 183.658 195.551 183.395C196.535 182.975 196.877 182.642 196.817 181.132C196.757 179.621 191.943 179.108 191.943 179.108L184.273 171.485Z" fill="#263238"/>
<path d="M196.193 176.632C196.604 176.78 196.706 177.524 196.77 179.002C196.817 180.12 197.311 181.774 195.689 182.462C194.382 183.031 192.294 182.652 191.411 181.599C190.312 180.282 189.563 179.122 187.992 177.519C186.606 176.133 185.22 175.671 184.606 172.876C184.213 171.083 184.523 170.344 185.789 169.831C187.53 169.125 190.261 171.43 191.628 171.795C192.802 172.104 195.782 176.484 196.193 176.632Z" fill="#37474F"/>
<path d="M191.628 171.795L191.397 171.716C190.618 171.745 189.861 171.978 189.199 172.39C188.538 172.803 187.996 173.381 187.627 174.068C187.396 174.553 188.089 174.932 188.551 174.553C189.522 172.705 191.517 172.308 192.317 172.22C192.12 172.031 191.885 171.886 191.628 171.795Z" fill="#FAFAFA"/>
<path d="M192.751 172.635C192.02 172.704 191.317 172.953 190.706 173.36C190.095 173.768 189.594 174.32 189.249 174.969C189.018 175.431 189.734 175.833 190.173 175.431C190.503 174.852 190.955 174.353 191.497 173.968C192.04 173.582 192.66 173.32 193.315 173.199C193.116 173.014 192.931 172.816 192.751 172.635Z" fill="#FAFAFA"/>
<path d="M196.429 173.961L196.193 177.08C196.193 177.08 194.211 178.526 191.37 177.2C191.287 177.029 191.046 174.239 191.046 174.239L196.429 173.961Z" fill="#FFA8A7"/>
<path d="M185.405 174.932C185.405 174.932 185.539 171.619 190.247 171.162L190.52 171.305C189.984 170.474 189.162 169.869 188.21 169.605C186.648 169.203 185.41 169.605 184.587 170.593C183.765 171.582 184.592 174.289 185.405 174.932Z" fill="#FAFAFA"/>
<path d="M197.801 153.19C197.126 147.734 196.877 144.694 196.877 144.694C196.877 144.694 196.743 137.011 197.209 129.91C197.413 126.796 197.519 123.349 197.584 120.208C197.67 116.748 197.394 113.289 196.761 109.887C196.761 109.887 172.603 105.082 172.303 113.943C171.938 124.569 171.984 142.73 171.573 149.665C171.347 153.56 171.739 156.789 171.984 164.357C172.183 170.63 172.123 186.071 172.123 186.071C174.784 189.725 181.067 186.939 181.067 186.939C181.067 186.939 183.007 165.257 183.294 160.776C183.599 155.957 183.091 153.518 183.091 153.518L185.581 131.069C185.581 131.069 185.77 138.272 185.983 142.157C186.195 146.043 186.764 148.431 187.775 155.68C188.653 161.973 190.52 178.032 190.52 178.032C193.754 179.944 196.877 178.032 196.877 178.032C196.877 178.032 198.475 158.646 197.801 153.19Z" fill="#455A64"/>
<path d="M194.502 122.185C194.502 122.185 191.476 126.047 187.572 127.706C187.572 127.706 185.881 141.284 185.895 141.016L185.456 127.35C185.456 127.35 191.268 124.781 194.502 122.185Z" fill="#37474F"/>
<path d="M194.419 78.54C197.02 77.9579 199.963 79.8151 201.922 83.9592C203.816 87.9232 208.99 97.9347 209.115 100.739C209.249 103.645 196.322 112.46 196.641 112.289C196.743 112.238 194.41 105.622 194.41 105.622L200.688 100.425L197.274 93.3933L194.419 78.54Z" fill="#FFA8A7"/>
<path d="M193.051 77.9164C195.241 77.6484 199.21 78.4754 200.725 81.1088C202.924 84.9203 204.929 89.3278 207.484 95.0242C207.484 95.0242 205.59 99.1268 200.138 99.5149L196.872 93.7861L193.051 77.9164Z" fill="#37474F"/>
<path d="M182.028 74.4837L182.407 82.5687L190.418 82.1391L190.173 72.7466L182.028 74.4837Z" fill="#FFA8A7"/>
<path d="M198.286 81.9866C197.611 79.7828 195.283 77.9672 192.34 77.8794C191.684 77.8794 190.307 77.8794 190.307 77.8794C189.974 79.2423 185.803 79.7274 182.236 78.9097C181.159 79.1961 176.692 80.2956 175.768 80.5728C173.204 81.4229 172.414 84.0378 172.016 92.4C172.016 92.4 172.095 108.884 172.016 116.752C176.526 119.131 183.493 118.836 188.45 118.332C196.239 117.547 197.399 114.724 197.399 114.724C197.071 110.136 197.269 108.408 197.399 103.881C197.496 100.476 198.475 96.8768 198.785 93.0191C199.242 87.2857 198.743 83.5019 198.286 81.9866Z" fill="#FF725E"/>
<path d="M180.776 76.0173C178.928 75.888 176.618 77.3618 176.022 80.5172L177.528 80.1153L180.776 76.0173Z" fill="#FF725E"/>
<path opacity="0.3" d="M180.776 76.0173C178.928 75.888 176.618 77.3618 176.022 80.5172L177.528 80.1153L180.776 76.0173Z" fill="black"/>
<path d="M182.13 76.692C183.516 77.154 187.558 77.0893 188.912 76.692C190.265 76.2947 190.252 75.694 190.252 75.694V75.0149C191.032 75.0127 191.795 75.2497 192.437 75.694C193.301 76.3963 194.788 78.9281 194.747 80.1431C194.705 81.3582 192.109 84.5644 187.101 84.4859C182.093 84.4074 179.279 82.5548 178.415 81.3351L177.547 80.1108C177.547 80.1108 178.734 77.6714 179.903 76.6458C180.502 76.0649 181.271 75.6895 182.097 75.5739L182.13 76.692Z" fill="#FF725E"/>
<path opacity="0.2" d="M182.13 76.692C183.516 77.154 187.558 77.0893 188.912 76.692C190.265 76.2947 190.252 75.694 190.252 75.694V75.0149C191.032 75.0127 191.795 75.2497 192.437 75.694C193.301 76.3963 194.788 78.9281 194.747 80.1431C194.705 81.3582 192.109 84.5644 187.101 84.4859C182.093 84.4074 179.279 82.5548 178.415 81.3351L177.547 80.1108C177.547 80.1108 178.734 77.6714 179.903 76.6458C180.502 76.0649 181.271 75.6895 182.097 75.5739L182.13 76.692Z" fill="black"/>
<path d="M176.636 64.5691C176.636 64.5691 174.728 67.4658 174.946 67.7477C175.163 68.0295 176.567 68.2928 176.567 68.2928L176.636 64.5691Z" fill="#F28F8F"/>
<path d="M181.94 56.5488C178.078 57.3666 176.535 58.4985 176.295 65.1004C176.064 71.5222 176.872 73.6382 177.713 74.5021C178.281 75.0843 181.446 75.1905 183.04 74.747C185.036 74.1972 189.549 72.5987 191.661 69.3739C194.146 65.5763 194.798 60.4296 192.123 58.3183C188.394 55.3476 183.516 56.2162 181.94 56.5488Z" fill="#FFA8A7"/>
<path d="M177.713 74.4977C178.175 74.9597 180.388 75.1352 182.051 74.9319L182.028 73.9756C180.65 74.4839 179.172 74.6627 177.713 74.4977Z" fill="#F28F8F"/>
<path d="M175.782 59.0298C176.744 59.7196 177.938 60.0064 179.108 59.829C179.085 60.3467 179.224 60.8586 179.506 61.2936C179.898 61.8867 180.492 62.3169 181.178 62.504C180.755 63.3328 180.53 64.2486 180.522 65.179C180.496 65.471 180.559 65.7641 180.702 66.0198C180.746 66.1128 180.816 66.1912 180.903 66.2462C180.99 66.3011 181.091 66.3303 181.194 66.3303C181.297 66.3303 181.398 66.3011 181.485 66.2462C181.572 66.1912 181.642 66.1128 181.686 66.0198C181.904 65.5283 182.176 65.0633 182.499 64.6338C182.918 64.1327 183.507 63.8037 184.153 63.7098C186.579 63.4465 186.884 66.6204 185.914 67.9371C184.324 70.0901 182.975 68.6301 182.975 68.6301C182.913 69.6394 183.067 70.6502 183.425 71.5957C183.783 72.5411 184.339 73.3996 185.054 74.1141C186.778 74.6221 188.606 74.6683 190.353 74.2481C192.506 71.2866 193.86 69.8452 195.01 67.2903C197.44 61.8803 196.267 58.4846 194.387 57.0524C194.017 54.5622 192.053 53.4442 189.813 52.9314C186.468 52.1598 183.345 54.1464 180.028 53.3934C179.483 53.2794 178.945 53.1376 178.415 52.9683C178.211 52.8727 177.978 52.8578 177.764 52.9268C177.645 53.0058 177.552 53.1179 177.496 53.2493C177.44 53.3807 177.424 53.5255 177.45 53.666C177.491 54.3035 178.138 55.0104 178.466 55.3523C177.742 55.4185 177.011 55.3765 176.299 55.2275C176.052 55.1812 175.798 55.1812 175.551 55.2275C175.28 55.3381 175.05 55.5318 174.896 55.7808C174.741 56.0298 174.67 56.3213 174.692 56.6135C174.694 57.0701 174.793 57.5211 174.981 57.9372C175.168 58.3534 175.441 58.7256 175.782 59.0298Z" fill="#263238"/>
<path d="M194.447 57.8564L196.757 56.4704C196.573 56.164 196.275 55.9433 195.928 55.8566C195.582 55.77 195.215 55.8246 194.909 56.0084C194.602 56.1922 194.382 56.4901 194.295 56.8367C194.208 57.1832 194.263 57.55 194.447 57.8564Z" fill="#263238"/>
<path d="M164.343 94.2479C163.819 92.1905 163.314 90.13 162.827 88.0664C162.365 86.1676 161.654 83.9684 162.305 82.028C162.676 81.1806 163.14 80.3778 163.691 79.6349C164.168 78.8519 164.57 78.0259 164.892 77.1678C165.054 76.752 165.202 76.327 165.354 75.9065C165.507 75.4861 165.724 75.2459 165.622 74.8439C165.285 73.5272 163.585 75.2551 163.238 75.7957C163.085 76.0794 162.905 76.3485 162.703 76.5995C162.481 76.8352 161.94 77.1308 161.682 76.7843C161.595 76.6453 161.547 76.4859 161.543 76.3223C161.367 74.2942 162.097 72.4785 162.703 70.5843C162.798 70.3356 162.856 70.074 162.874 69.8081C162.885 69.6754 162.867 69.5419 162.821 69.4167C162.776 69.2915 162.704 69.1776 162.61 69.0828C162.46 68.9673 162.281 68.8936 162.093 68.8692C161.905 68.8449 161.713 68.8708 161.538 68.9442C161.196 69.0597 160.901 69.2768 160.559 69.3831C160.217 69.4894 159.963 69.4894 159.663 69.5679C158.95 69.7267 158.264 69.9865 157.625 70.3394C156.516 70.9909 156.027 71.9426 155.736 73.153C155.386 74.6398 155.267 76.1716 155.384 77.6945C155.463 78.7063 155.643 79.7042 155.768 80.7021L156.184 84.0424C156.466 86.2692 156.549 97.3942 156.932 99.6071C157.316 101.82 158.055 103.303 159.806 104.038C162.347 105.073 166.454 100.397 168.787 97.9763L164.343 94.2479Z" fill="#FFA8A7"/>
<path d="M163.414 92.9868C161.779 94.2111 159.741 96.2486 159.33 98.2906C159.33 98.2906 158.923 94.6177 163.414 91.3606V92.9868Z" fill="#F28F8F"/>
<path d="M175.639 80.6238C174.068 80.7716 171.481 80.8271 168.847 83.6591C165.793 86.967 161.086 93.4905 161.086 93.4905C161.086 93.4905 161.7 98.6834 166.699 100.545C166.699 100.545 173.966 93.6152 175.528 90.6307C177.089 87.6462 177.44 82.6982 175.639 80.6238Z" fill="#37474F"/>
<path d="M173.546 69.6467L171.559 68.5794L172.7 67.6046L168.575 65.6735L170.376 64.6294L165.932 62.2639L168.575 64.597L166.426 65.6735L171.273 67.7709L170.076 68.9675L173.546 69.6467Z" fill="#FF725E"/>
<path d="M174.557 67.0271L173.264 65.789L173.971 65.2669L172.834 63.9179L173.924 63.5483L173.546 61.8389L174.313 63.6822L173.546 64.0149L174.775 65.3639L173.943 65.9553L174.557 67.0271Z" fill="#FF725E"/>
<path d="M173.804 71.6009L171.365 73.5043L170.464 72.1784L168.33 73.338L167.456 71.6979L164.153 72.5434L167.974 70.7139L169.069 72.2246L170.843 71.2729L171.582 72.5434L173.804 71.6009Z" fill="#FF725E"/>
<path d="M156.844 105.664C156.919 105.602 157.014 105.573 157.11 105.581C157.206 105.59 157.295 105.636 157.357 105.71C157.83 106.241 158.443 106.626 159.126 106.821C159.809 107.015 160.534 107.012 161.215 106.81C161.261 106.793 161.311 106.787 161.36 106.79C161.409 106.793 161.457 106.806 161.501 106.828C161.545 106.85 161.584 106.881 161.616 106.919C161.647 106.957 161.671 107.001 161.685 107.048C161.7 107.095 161.704 107.144 161.699 107.193C161.694 107.242 161.679 107.29 161.655 107.333C161.63 107.376 161.598 107.413 161.559 107.443C161.52 107.473 161.475 107.495 161.427 107.507C160.611 107.749 159.742 107.752 158.923 107.517C158.105 107.281 157.371 106.816 156.807 106.177C156.776 106.141 156.752 106.099 156.736 106.054C156.721 106.008 156.715 105.96 156.718 105.913C156.722 105.865 156.735 105.818 156.756 105.776C156.778 105.733 156.808 105.695 156.844 105.664Z" fill="#E0E0E0"/>
<path d="M157.214 108.108C157.279 108.054 157.361 108.024 157.445 108.024C157.529 108.024 157.611 108.054 157.676 108.108C158.052 108.38 158.483 108.566 158.939 108.654C159.394 108.742 159.864 108.729 160.314 108.616C160.41 108.598 160.508 108.619 160.589 108.674C160.669 108.728 160.725 108.812 160.744 108.907C160.753 108.954 160.753 109.002 160.744 109.049C160.734 109.096 160.716 109.14 160.689 109.18C160.663 109.219 160.628 109.253 160.589 109.279C160.549 109.305 160.504 109.323 160.457 109.332C159.901 109.461 159.323 109.467 158.764 109.348C158.205 109.229 157.679 108.989 157.223 108.644C157.187 108.613 157.157 108.575 157.135 108.532C157.114 108.49 157.101 108.443 157.097 108.395C157.094 108.347 157.1 108.3 157.115 108.254C157.131 108.209 157.155 108.167 157.186 108.131C157.195 108.122 157.204 108.114 157.214 108.108Z" fill="#E0E0E0"/>
<path d="M202.578 80.1061C202.535 80.1283 202.488 80.1416 202.441 80.1455C202.393 80.1493 202.344 80.1435 202.299 80.1285C202.253 80.1134 202.211 80.0893 202.175 80.0577C202.139 80.0261 202.109 79.9876 202.088 79.9444C201.751 79.3193 201.243 78.8025 200.624 78.4542C200.005 78.1058 199.3 77.9401 198.591 77.9763C198.543 77.9791 198.495 77.9723 198.449 77.9565C198.404 77.9407 198.362 77.9161 198.327 77.8841C198.254 77.8196 198.21 77.7289 198.205 77.6321C198.199 77.5353 198.233 77.4403 198.297 77.368C198.362 77.2956 198.452 77.2519 198.549 77.2464C199.401 77.2018 200.247 77.4011 200.99 77.8209C201.732 78.2408 202.339 78.8636 202.739 79.6164C202.782 79.703 202.788 79.8027 202.758 79.8942C202.728 79.9856 202.663 80.0617 202.578 80.1061Z" fill="#E0E0E0"/>
<path d="M202.781 77.6576C202.704 77.6983 202.614 77.7095 202.529 77.6891C202.444 77.6687 202.37 77.6181 202.319 77.5467C202.021 77.1983 201.651 76.9181 201.235 76.7252C200.819 76.5323 200.366 76.4312 199.907 76.4287C199.859 76.4269 199.812 76.4156 199.769 76.3956C199.725 76.3756 199.686 76.3472 199.653 76.312C199.621 76.2768 199.595 76.2356 199.579 76.1906C199.562 76.1456 199.554 76.0978 199.556 76.0499C199.558 76.0019 199.569 75.9548 199.589 75.9113C199.609 75.8677 199.638 75.8284 199.673 75.7958C199.708 75.7632 199.749 75.7379 199.794 75.7212C199.839 75.7046 199.887 75.6969 199.935 75.6987C200.505 75.7045 201.066 75.8348 201.58 76.0806C202.094 76.3264 202.548 76.6818 202.91 77.1217C202.962 77.1999 202.982 77.2953 202.965 77.3877C202.947 77.48 202.895 77.5619 202.818 77.616L202.781 77.6576Z" fill="#E0E0E0"/>
<path d="M209.24 104.287C209.194 104.203 209.183 104.103 209.209 104.01C209.236 103.918 209.299 103.84 209.383 103.793C209.992 103.427 210.484 102.896 210.802 102.261C211.12 101.626 211.251 100.914 211.18 100.208C211.174 100.16 211.178 100.112 211.192 100.065C211.205 100.019 211.227 99.9761 211.257 99.9386C211.287 99.9012 211.325 99.8701 211.367 99.8473C211.409 99.8245 211.456 99.8104 211.504 99.8058C211.6 99.7954 211.696 99.8237 211.772 99.8843C211.847 99.945 211.895 100.033 211.906 100.129C211.988 100.974 211.829 101.825 211.447 102.583C211.065 103.341 210.476 103.975 209.748 104.412C209.707 104.438 209.661 104.455 209.612 104.463C209.564 104.471 209.515 104.469 209.468 104.457C209.42 104.445 209.376 104.424 209.337 104.395C209.297 104.366 209.265 104.329 209.24 104.287Z" fill="#E0E0E0"/>
<path d="M211.693 104.375C211.652 104.3 211.638 104.213 211.654 104.128C211.67 104.044 211.715 103.968 211.781 103.913C212.116 103.6 212.379 103.217 212.552 102.792C212.725 102.367 212.804 101.909 212.783 101.451C212.783 101.354 212.822 101.261 212.89 101.193C212.959 101.124 213.051 101.086 213.148 101.086C213.245 101.086 213.338 101.124 213.406 101.193C213.475 101.261 213.513 101.354 213.513 101.451C213.533 102.019 213.429 102.586 213.209 103.111C212.989 103.635 212.658 104.106 212.238 104.491C212.201 104.52 212.157 104.542 212.111 104.556C212.065 104.569 212.017 104.572 211.969 104.567C211.922 104.561 211.876 104.546 211.834 104.523C211.792 104.5 211.755 104.468 211.725 104.431L211.693 104.375Z" fill="#E0E0E0"/>
<path d="M169.194 148.302C169.28 148.346 169.346 148.421 169.377 148.513C169.408 148.604 169.402 148.705 169.36 148.792C169.067 149.438 168.965 150.155 169.065 150.858C169.165 151.561 169.462 152.221 169.924 152.76C169.986 152.835 170.017 152.931 170.009 153.028C170.001 153.124 169.956 153.214 169.882 153.278C169.809 153.341 169.714 153.372 169.618 153.365C169.522 153.358 169.433 153.313 169.369 153.241C168.815 152.591 168.458 151.797 168.341 150.952C168.223 150.106 168.349 149.245 168.704 148.468C168.748 148.382 168.823 148.316 168.915 148.285C169.006 148.254 169.106 148.26 169.194 148.302Z" fill="#E0E0E0"/>
<path d="M167.124 149.619C167.203 149.656 167.266 149.72 167.301 149.8C167.337 149.88 167.343 149.969 167.318 150.053C167.221 150.502 167.222 150.966 167.322 151.414C167.422 151.863 167.617 152.284 167.895 152.649C167.95 152.729 167.971 152.826 167.955 152.921C167.938 153.016 167.886 153.101 167.808 153.158C167.729 153.213 167.631 153.235 167.535 153.219C167.44 153.202 167.355 153.149 167.299 153.07C166.957 152.613 166.718 152.087 166.6 151.528C166.482 150.97 166.487 150.392 166.616 149.836C166.63 149.789 166.653 149.746 166.684 149.709C166.715 149.672 166.753 149.641 166.796 149.619C166.839 149.596 166.886 149.583 166.935 149.579C166.983 149.575 167.032 149.581 167.078 149.596L167.124 149.619Z" fill="#E0E0E0"/>
<path d="M142.042 21.46C142.019 21.0292 141.895 20.6099 141.679 20.2365C141.463 19.863 141.161 19.5461 140.799 19.3117L139.792 18.7249C139.407 18.5322 138.982 18.4319 138.552 18.4319C138.121 18.4319 137.696 18.5322 137.311 18.7249L113.911 32.2477C113.549 32.4827 113.248 32.7997 113.032 33.173C112.816 33.5463 112.691 33.9653 112.668 34.396V46.4957C112.692 46.9263 112.817 47.3452 113.033 47.7184C113.249 48.0917 113.549 48.4088 113.911 48.644L114.923 49.2262C115.307 49.4221 115.732 49.5242 116.163 49.5242C116.594 49.5242 117.019 49.4221 117.403 49.2262L140.799 35.708C141.161 35.4736 141.463 35.1567 141.679 34.7833C141.895 34.4098 142.019 33.9906 142.042 33.5597V21.46Z" fill="#FF725E"/>
<path opacity="0.5" d="M142.042 21.46C142.019 21.0292 141.895 20.6099 141.679 20.2365C141.463 19.863 141.161 19.5461 140.799 19.3117L139.792 18.7249C139.407 18.5322 138.982 18.4319 138.552 18.4319C138.121 18.4319 137.696 18.5322 137.311 18.7249L113.911 32.2477C113.549 32.4827 113.248 32.7997 113.032 33.173C112.816 33.5463 112.691 33.9653 112.668 34.396V46.4957C112.692 46.9263 112.817 47.3452 113.033 47.7184C113.249 48.0917 113.549 48.4088 113.911 48.644L114.923 49.2262C115.307 49.4221 115.732 49.5242 116.163 49.5242C116.594 49.5242 117.019 49.4221 117.403 49.2262L140.799 35.708C141.161 35.4736 141.463 35.1567 141.679 34.7833C141.895 34.4098 142.019 33.9906 142.042 33.5597V21.46Z" fill="white"/>
<path opacity="0.2" d="M112.668 46.4957C112.692 46.9263 112.817 47.3451 113.033 47.7184C113.249 48.0916 113.549 48.4087 113.911 48.644L114.923 49.2261C115.272 49.4023 115.655 49.5024 116.046 49.5199C116.437 49.5374 116.827 49.4719 117.191 49.3278C116.604 49.5495 116.161 49.2215 116.161 48.51V36.4103C116.176 35.9777 116.301 35.5561 116.526 35.186L113.033 33.1716C112.808 33.5416 112.682 33.9632 112.668 34.3959V46.4957Z" fill="black"/>
<path opacity="0.3" d="M142 21.1087C141.857 20.5821 141.377 20.4111 140.804 20.7438L117.403 34.2619C117.035 34.4879 116.732 34.8064 116.526 35.1859L113.037 33.1716C113.244 32.7933 113.545 32.475 113.911 32.2476L137.306 18.7294C137.69 18.5335 138.116 18.4314 138.547 18.4314C138.978 18.4314 139.403 18.5335 139.787 18.7294L140.804 19.3116C141.114 19.5147 141.38 19.7786 141.586 20.0875C141.792 20.3964 141.933 20.7438 142 21.1087Z" fill="white"/>
<path d="M116.165 40.3234L112.677 38.3091L108.473 42.3562C108.41 42.4199 108.362 42.4971 108.333 42.582C108.304 42.6669 108.294 42.7573 108.306 42.8463C108.317 42.9354 108.348 43.0207 108.397 43.0959C108.446 43.171 108.511 43.2341 108.588 43.2802L112.021 45.276C112.163 45.3504 112.323 45.384 112.483 45.3731L116.179 44.6662V40.3234H116.165Z" fill="#FF725E"/>
<path opacity="0.5" d="M116.165 40.3234L112.677 38.3091L108.473 42.3562C108.41 42.4199 108.362 42.4971 108.333 42.582C108.304 42.6669 108.294 42.7573 108.306 42.8463C108.317 42.9354 108.348 43.0207 108.397 43.0959C108.446 43.171 108.511 43.2341 108.588 43.2802L112.021 45.276C112.163 45.3504 112.323 45.384 112.483 45.3731L116.179 44.6662V40.3234H116.165Z" fill="white"/>
<path opacity="0.3" d="M112.021 45.276L110.173 44.218L109.956 44.0748L108.967 43.5019L108.847 43.428L108.584 43.2756C108.507 43.2294 108.441 43.1664 108.392 43.0912C108.343 43.0161 108.312 42.9307 108.301 42.8417C108.29 42.7527 108.299 42.6623 108.328 42.5773C108.357 42.4924 108.405 42.4152 108.468 42.3516L112.673 38.3044L116.165 40.3234L111.961 44.352C111.894 44.4113 111.842 44.4851 111.808 44.5677C111.774 44.6503 111.759 44.7396 111.765 44.8287C111.771 44.9178 111.797 45.0044 111.841 45.082C111.886 45.1595 111.947 45.2258 112.021 45.276Z" fill="white"/>
<path d="M122.998 36.6041C122.516 36.9181 122.114 37.3416 121.826 37.8401C121.537 38.3387 121.371 38.8982 121.34 39.4732C121.34 40.5265 122.084 40.9562 122.998 40.4295C123.48 40.1153 123.881 39.6917 124.169 39.1931C124.456 38.6945 124.622 38.1352 124.652 37.5605C124.652 36.4979 123.913 36.0775 122.998 36.6041Z" fill="white"/>
<path d="M129.101 33.0746C128.619 33.3888 128.218 33.8124 127.931 34.311C127.643 34.8095 127.478 35.3689 127.447 35.9436C127.447 36.997 128.186 37.4266 129.101 36.8953C129.583 36.5816 129.983 36.1586 130.271 35.661C130.558 35.1633 130.724 34.6048 130.755 34.0309C130.746 32.9729 130.016 32.5433 129.101 33.0746Z" fill="white"/>
<path d="M135.204 29.5401C134.723 29.8551 134.322 30.279 134.035 30.7773C133.748 31.2757 133.582 31.8347 133.55 32.4091C133.55 33.4671 134.289 33.8921 135.204 33.3655C135.688 33.051 136.09 32.6268 136.378 32.1274C136.666 31.628 136.832 31.0676 136.863 30.4918C136.863 29.4431 136.119 29.0134 135.204 29.5401Z" fill="white"/>
<path d="M187.082 45.1789L185.405 42.0419L186.754 38.1473V35.7495L182.624 38.1334V40.5173L184.398 43.5943C184.427 43.6402 184.469 43.6771 184.518 43.7005L187.082 45.1789Z" fill="#FF725E"/>
<path opacity="0.2" d="M187.082 45.1789L185.405 42.0419L186.754 38.1473V35.7495L182.624 38.1334V40.5173L184.398 43.5943C184.427 43.6402 184.469 43.6771 184.518 43.7005L187.082 45.1789Z" fill="black"/>
<path d="M199.626 20.2269C199.603 19.7973 199.479 19.3792 199.263 19.0067C199.048 18.6342 198.748 18.3178 198.387 18.0832L197.38 17.5011C196.997 17.3053 196.573 17.2031 196.142 17.2031C195.712 17.2031 195.287 17.3053 194.904 17.5011L171.559 30.9869C171.2 31.2243 170.901 31.542 170.686 31.9149C170.471 32.2878 170.346 32.7056 170.321 33.1352V45.2073C170.344 45.6369 170.468 46.055 170.683 46.4275C170.898 46.8 171.198 47.1164 171.559 47.3509L172.566 47.9331C172.951 48.125 173.375 48.2249 173.804 48.2249C174.234 48.2249 174.658 48.125 175.043 47.9331L185.207 42.0195L186.981 45.0871C187.006 45.1282 187.043 45.1612 187.086 45.1826C187.129 45.2039 187.178 45.2127 187.226 45.2078C187.274 45.203 187.32 45.1848 187.358 45.1553C187.396 45.1258 187.426 45.0862 187.443 45.0409L189.318 39.6402L198.364 34.4427C198.725 34.2082 199.025 33.8917 199.24 33.5192C199.455 33.1467 199.58 32.7286 199.602 32.299L199.626 20.2269Z" fill="#FF725E"/>
<path d="M177.316 35.4724L195.98 24.694C196.535 24.3752 196.983 24.6016 196.983 25.2022C196.958 25.5379 196.854 25.8631 196.68 26.1512C196.506 26.4394 196.266 26.6824 195.98 26.8607L177.316 37.6392C176.766 37.958 176.318 37.7316 176.318 37.131C176.343 36.7957 176.446 36.471 176.619 36.183C176.793 35.8949 177.031 35.6515 177.316 35.4724Z" fill="white"/>
<path d="M177.316 40.2726L195.98 29.4988C196.535 29.18 196.983 29.4064 196.983 30.0024C196.958 30.3389 196.855 30.665 196.681 30.954C196.507 31.243 196.267 31.4868 195.98 31.6656L177.316 42.4394C176.766 42.7628 176.318 42.5318 176.318 41.9358C176.342 41.5998 176.445 41.2741 176.618 40.9852C176.792 40.6963 177.03 40.4522 177.316 40.2726Z" fill="white"/>
<path opacity="0.2" d="M170.321 45.2068C170.344 45.6364 170.468 46.0545 170.683 46.427C170.898 46.7995 171.198 47.1159 171.559 47.3504L172.566 47.9326C172.915 48.108 173.297 48.2078 173.687 48.2253C174.077 48.2428 174.467 48.1777 174.83 48.0342C174.248 48.2513 173.804 47.9233 173.804 47.2165V35.1444C173.819 34.7139 173.943 34.2942 174.165 33.9247L170.681 31.9104C170.46 32.2815 170.336 32.7027 170.321 33.1347V45.2068Z" fill="black"/>
<path opacity="0.2" d="M199.584 19.866C199.441 19.3393 198.96 19.173 198.387 19.501L175.043 32.9914C174.675 33.217 174.374 33.5358 174.169 33.9154L170.686 31.9057C170.893 31.5281 171.194 31.2099 171.559 30.9817L194.899 17.4913C195.284 17.2986 195.709 17.1982 196.14 17.1982C196.57 17.1982 196.995 17.2986 197.38 17.4913L198.387 18.0734C198.698 18.275 198.965 18.5379 199.171 18.8462C199.376 19.1544 199.517 19.5014 199.584 19.866Z" fill="white"/>
</svg>
