<svg width="258" height="258" viewBox="0 0 258 258" fill="none" xmlns="http://www.w3.org/2000/svg">
<path d="M26.2128 124.325C26.2128 124.325 20.4594 125.228 23.9269 137.803C27.3944 150.378 30.2531 156.864 30.2531 156.864C30.2531 156.864 30.7381 159.718 28.4316 159.666C26.1251 159.614 21.3882 157.834 19.835 160.347C18.2303 162.958 19.7318 166.023 23.4057 169.233C27.0797 172.442 34.8764 179.687 35.604 180.347C36.3315 181.008 36.8321 182.385 35.2583 182.607C33.6845 182.829 22.4047 181.709 22.188 187.081C21.9713 192.453 33.6793 199.656 34.9435 200.466C36.2077 201.276 36.4141 201.932 36.1458 202.659C35.8775 203.387 32.1365 202.659 28.9218 202.473C25.7071 202.288 21.9506 202.633 22.0899 205.74C22.2293 208.846 28.4419 216.576 46.2645 222.123L54.696 224.145L60.7899 217.928C73.014 203.83 74.2059 193.97 72.6579 191.255C71.1099 188.541 67.7611 190.223 65.1295 192.081C62.4979 193.939 59.7063 196.534 59.0923 196.054C58.4783 195.574 58.3131 194.914 58.9581 193.557C59.6031 192.2 65.7435 179.903 62.7301 175.456C59.7167 171.008 50.7537 177.891 49.3141 178.552C47.8745 179.212 47.5855 177.726 47.828 176.813C48.0705 175.899 50.8518 165.579 52.2914 160.93C53.7311 156.281 53.3802 152.865 50.6351 151.498C47.988 150.156 44.892 154.181 42.9776 155.44C41.0633 156.699 39.9487 154.016 39.9487 154.016C39.9487 154.016 38.9683 147.019 35.3047 134.511C31.6411 122.003 26.0993 124.356 26.0993 124.356" fill="#EBEBEB"/>
<path d="M54.7269 226.23C52.0489 217.035 47.57 200.611 43.6536 186.524C39.7371 172.437 36.1767 159.692 33.5451 150.497C32.2293 145.904 31.1612 142.179 30.4233 139.594L29.5771 136.632L29.3604 135.858C29.3139 135.682 29.2985 135.589 29.2985 135.589C29.2985 135.589 29.3346 135.677 29.3862 135.847C29.4378 136.018 29.5255 136.286 29.6287 136.616C29.8351 137.297 30.1447 138.293 30.5214 139.563C31.3005 142.143 32.3945 145.847 33.7309 150.445C36.4038 159.64 39.9951 172.375 43.9116 186.451C47.828 200.528 52.2811 216.968 54.9075 226.183" fill="#E0E0E0"/>
<path d="M26.3624 163.092C26.5577 163.169 26.7445 163.266 26.9197 163.381C27.2706 163.577 27.7659 163.897 28.38 164.258C29.6029 165.017 31.2696 166.106 33.0807 167.354L37.7247 170.538L39.1334 171.493C39.3183 171.598 39.4913 171.722 39.6494 171.864C39.4529 171.792 39.2658 171.697 39.0921 171.58C38.7413 171.384 38.2407 171.064 37.6319 170.698C36.4141 169.929 34.7681 168.815 32.9517 167.602L28.3077 164.455L26.8939 163.505C26.6995 163.391 26.5208 163.252 26.3624 163.092Z" fill="#E0E0E0"/>
<path d="M40.3202 171.426C40.2583 171.39 42.3533 167.86 45.0055 163.541C47.6577 159.222 49.8507 155.76 49.9178 155.801C49.9849 155.842 47.8848 159.367 45.2325 163.686C42.5803 168.005 40.3821 171.467 40.3202 171.426Z" fill="#E0E0E0"/>
<path d="M45.3615 193.32C45.4976 193.154 45.6497 193.002 45.8156 192.866L47.1056 191.699C48.1892 190.709 49.6856 189.341 51.2749 187.767C52.8642 186.194 54.2677 184.728 55.2687 183.639L56.4607 182.37C56.5965 182.204 56.7505 182.053 56.9199 181.921C56.8109 182.106 56.6829 182.279 56.5381 182.437C56.2801 182.757 55.8983 183.216 55.4132 183.768C54.4431 184.873 53.0654 186.348 51.4658 187.943C49.8662 189.537 48.3698 190.874 47.2295 191.823C46.667 192.298 46.1975 192.68 45.8827 192.933C45.7262 193.083 45.551 193.213 45.3615 193.32Z" fill="#E0E0E0"/>
<path d="M31.0787 188.562C31.2764 188.578 31.4709 188.621 31.6566 188.691L33.2046 189.14C34.5049 189.527 36.3006 190.084 38.2666 190.688C40.2325 191.292 42.023 191.906 43.3079 192.339L44.8249 192.855C45.0155 192.909 45.1991 192.985 45.3719 193.082C45.1746 193.07 44.9792 193.037 44.7888 192.984L43.2408 192.535C41.9405 192.148 40.1448 191.591 38.1737 190.961C36.2026 190.332 34.4224 189.749 33.1375 189.315L31.5895 188.799C31.411 188.739 31.2396 188.66 31.0787 188.562Z" fill="#E0E0E0"/>
<path d="M33.0756 208.464C33.3246 208.498 33.5698 208.555 33.8083 208.634L35.7898 209.202C37.4616 209.692 39.763 210.384 42.2965 211.168C44.8301 211.952 47.1263 212.675 48.7826 213.232L50.7383 213.877C50.9812 213.948 51.2177 214.04 51.4452 214.15C51.1951 214.114 50.9483 214.057 50.7073 213.98L48.7259 213.413C47.0592 212.922 44.7578 212.231 42.2191 211.447C39.6804 210.662 37.3894 209.94 35.733 209.383L33.7774 208.738C33.5354 208.669 33.3004 208.577 33.0756 208.464Z" fill="#E0E0E0"/>
<path d="M51.0427 213.861C51.2112 213.65 51.3977 213.453 51.6 213.273L53.1841 211.725C54.5154 210.425 56.3472 208.629 58.3131 206.565C60.2791 204.501 62.018 202.618 63.2667 201.235L64.7425 199.594C64.9132 199.384 65.1032 199.191 65.3101 199.016C65.1672 199.246 65.0049 199.464 64.8251 199.666C64.4948 200.069 64.0149 200.652 63.4112 201.359C62.1986 202.778 60.4803 204.702 58.5092 206.751C56.5381 208.799 54.6805 210.59 53.3131 211.859C52.6268 212.494 52.0695 213 51.6722 213.34C51.4774 213.531 51.2669 213.706 51.0427 213.861Z" fill="#E0E0E0"/>
<path d="M127.586 107.137C127.281 107.131 126.982 107.057 126.709 106.92C126.995 106.819 127.3 106.782 127.602 106.812C128.118 106.812 128.489 106.9 128.479 107.024C128.468 107.147 128.071 107.194 127.586 107.137Z" fill="#E0E0E0"/>
<path d="M126.73 108.835C126.399 108.479 126.157 108.149 126.214 108.112C126.27 108.076 126.595 108.288 126.972 108.603C127.349 108.917 127.591 109.237 127.488 109.33C127.385 109.423 127.065 109.196 126.73 108.835Z" fill="#E0E0E0"/>
<path d="M124.98 109.593C124.932 109.292 124.952 108.984 125.037 108.69C125.188 108.956 125.278 109.252 125.3 109.557C125.393 110.037 125.367 110.445 125.244 110.455C125.12 110.465 125.001 110.084 124.98 109.593Z" fill="#E0E0E0"/>
<path d="M123.154 109.046C123.453 108.659 123.732 108.365 123.778 108.396C123.72 108.695 123.599 108.979 123.422 109.227C123.185 109.655 122.906 109.944 122.803 109.877C122.7 109.81 122.854 109.439 123.154 109.046Z" fill="#E0E0E0"/>
<path d="M122.106 107.457C122.395 107.359 122.701 107.325 123.004 107.359C122.768 107.551 122.493 107.69 122.199 107.767C121.74 107.942 121.337 107.989 121.301 107.87C121.265 107.751 121.626 107.565 122.106 107.457Z" fill="#E0E0E0"/>
<path d="M122.323 105.563C122.762 105.791 123.097 106.012 123.076 106.079C122.771 106.075 122.471 106.007 122.194 105.878C121.735 105.713 121.394 105.491 121.446 105.362C121.497 105.233 121.889 105.342 122.323 105.563Z" fill="#E0E0E0"/>
<path d="M123.706 104.232C123.854 104.499 123.942 104.795 123.964 105.099C123.912 105.125 123.67 104.8 123.417 104.377C123.164 103.954 123.051 103.572 123.164 103.515C123.278 103.458 123.515 103.804 123.706 104.232Z" fill="#E0E0E0"/>
<path d="M125.61 104.139C125.465 104.609 125.305 104.98 125.249 104.965C125.202 104.665 125.218 104.36 125.295 104.067C125.373 103.582 125.532 103.21 125.656 103.236C125.78 103.262 125.754 103.67 125.61 104.139Z" fill="#E0E0E0"/>
<path d="M127.142 105.264C126.73 105.532 126.368 105.713 126.332 105.666C126.296 105.62 126.575 105.326 126.946 105.006C127.318 104.686 127.679 104.49 127.756 104.604C127.834 104.717 127.555 105.006 127.142 105.264Z" fill="#E0E0E0"/>
<path d="M153.99 53.2566C152.819 53.1069 151.869 52.8747 151.874 52.7406C151.879 52.6064 152.855 52.4877 154.036 52.4774C155.218 52.4671 156.162 52.6941 156.147 52.9934C156.131 53.2927 155.161 53.401 153.99 53.2566Z" fill="#E0E0E0"/>
<path d="M151.931 57.3534C151.131 56.4865 150.548 55.7022 150.641 55.6042C150.734 55.5061 151.554 56.0376 152.468 56.7858C153.381 57.534 153.959 58.3338 153.752 58.5351C153.546 58.7363 152.736 58.2203 151.931 57.3534Z" fill="#E0E0E0"/>
<path d="M147.715 59.175C147.659 57.9933 147.715 57.0232 147.855 57.0078C147.994 56.9923 148.278 57.9211 148.494 59.0718C148.711 60.2224 148.644 61.2028 148.35 61.239C148.056 61.2751 147.772 60.3721 147.715 59.175Z" fill="#E0E0E0"/>
<path d="M143.319 57.8591C144.031 56.92 144.707 56.2131 144.821 56.3111C144.934 56.4091 144.552 57.276 143.964 58.308C143.376 59.34 142.71 60.0418 142.462 59.856C142.215 59.6702 142.602 58.824 143.319 57.8591Z" fill="#E0E0E0"/>
<path d="M140.791 54.0306C141.946 53.7726 142.917 53.6642 142.953 53.788C142.989 53.9119 142.122 54.3608 141.018 54.7788C139.913 55.1967 138.954 55.2948 138.856 55.0213C138.758 54.7478 139.64 54.2937 140.791 54.0306Z" fill="#E0E0E0"/>
<path d="M141.317 49.4691C142.349 49.9851 143.185 50.5527 143.128 50.6765C143.071 50.8004 142.127 50.5785 141.012 50.1863C139.898 49.7942 139.083 49.2575 139.201 48.9841C139.32 48.7106 140.269 48.9325 141.317 49.4691Z" fill="#E0E0E0"/>
<path d="M144.65 46.3163C145.11 47.405 145.388 48.339 145.27 48.3803C145.151 48.4216 144.563 47.663 143.954 46.6465C143.345 45.63 143.077 44.696 143.34 44.5825C143.603 44.469 144.191 45.2275 144.65 46.3163Z" fill="#E0E0E0"/>
<path d="M149.238 46.0376C148.887 47.1677 148.5 48.0655 148.365 48.0345C148.231 48.0036 148.288 47.0025 148.474 45.8622C148.66 44.7218 149.052 43.7982 149.341 43.8704C149.63 43.9427 149.583 44.8921 149.238 46.0376Z" fill="#E0E0E0"/>
<path d="M152.922 48.7724C151.931 49.4174 151.059 49.8509 150.976 49.7425C150.894 49.6342 151.559 48.9221 152.452 48.1481C153.345 47.3741 154.222 46.9406 154.398 47.178C154.573 47.4153 153.912 48.1326 152.922 48.7724Z" fill="#E0E0E0"/>
<path d="M228.991 108.051C228.509 108.039 228.036 107.925 227.602 107.715C227.602 107.622 228.242 107.545 229.016 107.54C229.79 107.535 230.415 107.679 230.399 107.875C230.384 108.071 229.754 108.143 228.991 108.051Z" fill="#E0E0E0"/>
<path d="M227.639 110.734C227.123 110.166 226.736 109.65 226.797 109.588C226.859 109.526 227.391 109.872 227.989 110.362C228.588 110.852 228.97 111.394 228.836 111.508C228.701 111.621 228.165 111.301 227.639 110.734Z" fill="#E0E0E0"/>
<path d="M224.878 111.926C224.806 111.451 224.838 110.967 224.971 110.507C225.205 110.926 225.348 111.39 225.389 111.869C225.528 112.627 225.487 113.267 225.296 113.288C225.105 113.308 224.914 112.7 224.878 111.926Z" fill="#E0E0E0"/>
<path d="M221.999 111.069C222.468 110.45 222.907 109.991 222.979 110.037C222.892 110.51 222.702 110.957 222.422 111.348C222.045 112.024 221.601 112.483 221.441 112.38C221.281 112.277 221.529 111.683 221.999 111.069Z" fill="#E0E0E0"/>
<path d="M220.332 108.556C220.787 108.404 221.269 108.351 221.746 108.401C221.375 108.704 220.944 108.924 220.482 109.046C219.754 109.32 219.119 109.392 219.063 109.206C219.006 109.021 219.589 108.732 220.332 108.556Z" fill="#E0E0E0"/>
<path d="M220.688 105.568C221.134 105.747 221.538 106.016 221.875 106.358C221.394 106.354 220.92 106.245 220.487 106.038C219.754 105.785 219.223 105.429 219.3 105.249C219.377 105.068 220.002 105.218 220.688 105.568Z" fill="#E0E0E0"/>
<path d="M222.871 103.505C223.1 103.925 223.237 104.389 223.273 104.867C223.196 104.908 222.809 104.397 222.417 103.732C222.024 103.066 221.839 102.457 222.009 102.369C222.179 102.282 222.571 102.793 222.871 103.505Z" fill="#E0E0E0"/>
<path d="M225.874 103.324C225.779 103.794 225.586 104.239 225.306 104.629C225.224 104.156 225.247 103.669 225.373 103.205C225.497 102.442 225.755 101.853 225.946 101.9C226.137 101.946 226.101 102.581 225.874 103.324Z" fill="#E0E0E0"/>
<path d="M228.289 105.115C227.914 105.415 227.48 105.631 227.014 105.749C226.963 105.677 227.396 105.207 227.984 104.717C228.572 104.227 229.14 103.923 229.259 104.077C229.377 104.232 228.939 104.691 228.289 105.115Z" fill="#E0E0E0"/>
<path d="M239.042 226.23C239.042 226.302 189.769 226.364 129.005 226.364C68.241 226.364 18.9579 226.302 18.9579 226.23C18.9579 226.158 68.2204 226.096 129.005 226.096C189.79 226.096 239.042 226.158 239.042 226.23Z" fill="#263238"/>
<path d="M186.245 125.553C188.351 124.665 190.58 124.103 192.855 123.887C195.755 123.531 199.047 123.556 201.137 125.605C203.098 127.53 203.448 130.765 205.662 132.411C207.37 133.67 209.677 133.582 211.787 133.84C216.452 134.498 220.705 136.869 223.717 140.491C226.691 144.12 228.545 148.536 229.052 153.201C229.703 158.624 228.841 164.516 231.591 169.233C234.042 173.438 238.815 175.688 243.521 177.009C240.606 181.725 224.15 191.751 219.006 193.83L214.197 153.438C214.197 153.438 195.306 131.652 188.624 131.936L186.245 125.553Z" fill="#FF725E"/>
<g opacity="0.4">
<path opacity="0.4" d="M186.245 125.553C188.351 124.665 190.58 124.103 192.855 123.887C195.755 123.531 199.047 123.556 201.137 125.605C203.098 127.53 203.448 130.765 205.662 132.411C207.37 133.67 209.677 133.582 211.787 133.84C216.452 134.498 220.705 136.869 223.717 140.491C226.691 144.12 228.545 148.536 229.052 153.201C229.703 158.624 228.841 164.516 231.591 169.233C234.042 173.438 238.815 175.688 243.521 177.009C240.606 181.725 224.15 191.751 219.006 193.83L214.197 153.438C214.197 153.438 195.306 131.652 188.624 131.936L186.245 125.553Z" fill="black"/>
</g>
<path d="M228.676 150.92C228.662 150.97 228.641 151.019 228.614 151.064C228.547 151.204 228.468 151.337 228.376 151.461C228.051 151.926 227.648 152.331 227.184 152.659C226.491 153.143 225.706 153.48 224.878 153.649C223.87 153.828 222.846 153.898 221.823 153.856C220.745 153.856 219.718 153.794 218.794 153.856C217.975 153.889 217.163 154.019 216.374 154.243C215.654 154.475 214.971 154.811 214.346 155.239C214.346 155.239 214.377 155.187 214.455 155.115C214.567 155.011 214.686 154.914 214.811 154.826C215.271 154.496 215.779 154.239 216.318 154.062C217.115 153.805 217.942 153.652 218.779 153.608C219.723 153.541 220.755 153.582 221.828 153.608C222.833 153.648 223.839 153.588 224.832 153.427C225.632 153.275 226.395 152.967 227.076 152.519C227.697 152.082 228.238 151.541 228.676 150.92Z" fill="#FAFAFA"/>
<path d="M229.62 163.102C229.473 163.241 229.31 163.362 229.135 163.464C228.941 163.598 228.739 163.722 228.531 163.835C228.289 163.969 228.015 164.134 227.706 164.279C226.974 164.644 226.215 164.952 225.435 165.197C223.524 165.806 221.52 166.066 219.517 165.966C218.7 165.927 217.887 165.823 217.086 165.657C216.746 165.6 216.441 165.507 216.173 165.44C215.944 165.384 215.718 165.315 215.497 165.234C215.301 165.181 215.112 165.105 214.935 165.007C214.935 164.96 215.765 165.234 217.122 165.471C217.917 165.609 218.721 165.692 219.527 165.719C220.511 165.748 221.496 165.704 222.473 165.584C223.451 165.451 224.417 165.242 225.363 164.96C226.135 164.728 226.89 164.444 227.623 164.109C228.887 163.536 229.62 163.056 229.62 163.102Z" fill="#FAFAFA"/>
<path d="M236.209 173.892C236.209 173.918 235.926 173.892 235.43 173.98C234.73 174.09 234.057 174.333 233.449 174.697C232.552 175.254 231.713 175.901 230.946 176.627C230.008 177.537 229.012 178.385 227.964 179.166C226.89 179.92 225.709 180.508 224.46 180.91C223.436 181.236 222.367 181.401 221.292 181.4C220.568 181.395 219.848 181.294 219.15 181.101C218.961 181.045 218.775 180.979 218.593 180.904C218.526 180.887 218.463 180.857 218.407 180.817C219.348 181.073 220.317 181.205 221.292 181.209C222.344 181.192 223.387 181.018 224.388 180.693C225.611 180.284 226.768 179.7 227.824 178.959C228.865 178.185 229.858 177.347 230.797 176.451C231.585 175.723 232.45 175.083 233.377 174.542C234.012 174.184 234.715 173.96 235.441 173.887C235.636 173.872 235.833 173.872 236.029 173.887C236.142 173.892 236.209 173.892 236.209 173.892Z" fill="#FAFAFA"/>
<path d="M223.717 140.491C223.709 140.55 223.694 140.607 223.671 140.662C223.616 140.823 223.549 140.98 223.469 141.131C223.17 141.683 222.755 142.164 222.252 142.54C221.503 143.091 220.655 143.492 219.754 143.721C218.662 144 217.546 144.173 216.421 144.237C215.234 144.336 214.104 144.413 213.098 144.599C212.205 144.752 211.338 145.024 210.518 145.409C209.774 145.789 209.1 146.293 208.526 146.9C208.549 146.844 208.58 146.792 208.619 146.745C208.716 146.608 208.822 146.479 208.939 146.358C209.372 145.907 209.876 145.529 210.43 145.239C211.255 144.82 212.136 144.523 213.046 144.356C214.154 144.165 215.272 144.035 216.395 143.969C217.504 143.896 218.604 143.723 219.682 143.453C220.556 143.258 221.388 142.907 222.138 142.416C222.633 142.064 223.053 141.619 223.376 141.105C223.604 140.708 223.691 140.481 223.717 140.491Z" fill="#FAFAFA"/>
<path d="M201.756 140.502C201.756 140.502 201.797 140.533 201.88 140.553C201.94 140.563 202.002 140.56 202.061 140.546C202.12 140.532 202.176 140.506 202.226 140.471C202.397 140.355 202.555 140.22 202.695 140.068L203.304 139.495C204.474 138.377 205.714 137.332 207.014 136.368C208.326 135.399 209.799 134.667 211.364 134.206C211.84 134.075 212.327 133.987 212.819 133.943C212.998 133.912 213.182 133.912 213.361 133.943C213.361 133.99 212.592 134.031 211.416 134.397C209.894 134.901 208.46 135.641 207.169 136.59C205.621 137.684 204.372 138.84 203.433 139.645L202.788 140.182C202.633 140.33 202.459 140.458 202.272 140.563C202.209 140.599 202.139 140.621 202.067 140.629C201.995 140.636 201.923 140.628 201.854 140.605C201.756 140.558 201.725 140.502 201.756 140.502Z" fill="#FAFAFA"/>
<path d="M201.534 127.013C201.446 127.191 201.33 127.354 201.188 127.493C200.839 127.905 200.441 128.273 200.002 128.587C199.352 129.071 198.614 129.421 197.829 129.619C196.858 129.801 195.861 129.793 194.893 129.593C193.951 129.402 192.995 129.282 192.035 129.232C191.253 129.214 190.472 129.274 189.702 129.413C188.381 129.661 187.612 130.001 187.597 129.955C187.754 129.842 187.929 129.755 188.113 129.697C188.615 129.498 189.133 129.341 189.661 129.227C190.443 129.06 191.24 128.979 192.04 128.985C193.014 129.02 193.984 129.134 194.94 129.325C195.872 129.522 196.833 129.539 197.773 129.377C198.532 129.206 199.251 128.893 199.893 128.453C200.481 128.022 201.03 127.54 201.534 127.013Z" fill="#FAFAFA"/>
<path d="M199.661 130.109C196.049 129.129 193.392 128.045 189.707 127.885L149.759 133.004L145.605 160.476C145.605 160.476 158.866 187.582 161.384 190.863C166.095 197.009 149.516 222.313 150.032 226.209H221.591C221.591 226.209 220.889 171.663 216.637 146.482C215.894 142.06 213.361 137.488 209.997 135.084C206.859 132.851 203.364 131.169 199.661 130.109Z" fill="#FF725E"/>
<path d="M189.284 212.819C189.202 212.764 189.126 212.7 189.057 212.628L188.438 212.03C187.922 211.514 187.133 210.765 186.168 209.852C184.238 208.031 181.498 205.585 178.319 203.072C175.141 200.559 172.127 198.464 169.893 197.009C168.784 196.281 167.875 195.703 167.246 195.311L166.524 194.847C166.439 194.797 166.359 194.738 166.286 194.671C166.38 194.704 166.47 194.747 166.555 194.8L167.303 195.218C167.948 195.585 168.851 196.142 169.996 196.849C175.861 200.562 181.325 204.873 186.302 209.713C187.251 210.647 188.005 211.416 188.515 211.957L189.093 212.587C189.166 212.656 189.231 212.734 189.284 212.819Z" fill="#263238"/>
<path d="M184.578 156.126C183.995 155.672 183.975 154.717 184.542 153.99C185.11 153.262 186.039 153.051 186.606 153.505C187.174 153.959 187.21 154.919 186.642 155.646C186.075 156.374 185.161 156.585 184.578 156.126Z" fill="#263238"/>
<path d="M199.398 133.84C199.042 134.49 198.397 134.826 197.953 134.583C197.509 134.341 197.437 133.618 197.793 132.968C198.149 132.318 198.794 131.982 199.238 132.225C199.682 132.467 199.749 133.19 199.398 133.84Z" fill="#263238"/>
<path d="M193.562 165.43C193.358 165.375 193.174 165.264 193.03 165.109C192.887 164.954 192.79 164.762 192.751 164.554C192.713 164.347 192.733 164.133 192.811 163.936C192.888 163.74 193.02 163.57 193.19 163.445C193.361 163.32 193.563 163.246 193.773 163.231C193.984 163.216 194.194 163.261 194.38 163.361C194.566 163.461 194.721 163.611 194.825 163.794C194.929 163.978 194.98 164.187 194.971 164.398C194.92 164.721 194.743 165.011 194.479 165.204C194.215 165.398 193.885 165.479 193.562 165.43Z" fill="#263238"/>
<path d="M174.97 154.186C174.754 154.329 174.501 154.405 174.242 154.404C173.983 154.404 173.73 154.326 173.514 154.183C173.299 154.039 173.131 153.835 173.031 153.596C172.931 153.357 172.904 153.094 172.953 152.839C173.002 152.585 173.125 152.351 173.307 152.166C173.488 151.981 173.72 151.854 173.974 151.801C174.227 151.747 174.491 151.77 174.731 151.866C174.972 151.961 175.179 152.126 175.326 152.339C175.524 152.631 175.597 152.99 175.531 153.336C175.464 153.682 175.262 153.988 174.97 154.186Z" fill="#263238"/>
<path d="M162.963 180.435C162.292 180.11 162.101 179.129 162.535 178.237C162.968 177.344 163.856 176.885 164.521 177.205C165.187 177.525 165.383 178.51 164.955 179.403C164.527 180.296 163.629 180.76 162.963 180.435Z" fill="#263238"/>
<path d="M170.703 182.772C170.043 183.108 169.305 182.984 169.067 182.499C168.83 182.014 169.165 181.359 169.831 181.023C170.497 180.688 171.229 180.817 171.467 181.297C171.704 181.776 171.369 182.442 170.703 182.772Z" fill="#263238"/>
<path d="M167.354 191.663C167.237 191.802 167.09 191.912 166.923 191.984C166.756 192.056 166.575 192.089 166.393 192.078C166.212 192.067 166.035 192.015 165.878 191.924C165.72 191.833 165.586 191.707 165.486 191.555C165.377 191.403 165.306 191.227 165.277 191.043C165.248 190.858 165.264 190.669 165.321 190.492C165.381 190.326 165.477 190.176 165.6 190.052C165.724 189.927 165.874 189.83 166.038 189.769C166.355 189.646 166.699 189.61 167.034 189.666C167.163 189.679 167.288 189.717 167.402 189.779C167.515 189.841 167.615 189.926 167.695 190.027C167.826 190.251 167.864 190.519 167.798 190.77C167.73 191.101 167.577 191.409 167.354 191.663Z" fill="#263238"/>
<path d="M179.155 195.306C179.261 195.487 179.313 195.694 179.306 195.904C179.298 196.113 179.232 196.316 179.114 196.49C178.996 196.663 178.831 196.799 178.639 196.883C178.447 196.966 178.235 196.994 178.028 196.962C177.82 196.93 177.627 196.84 177.469 196.702C177.31 196.564 177.195 196.385 177.134 196.184C177.074 195.983 177.072 195.769 177.128 195.567C177.185 195.365 177.297 195.184 177.452 195.043C177.714 194.856 178.039 194.779 178.357 194.828C178.676 194.877 178.962 195.049 179.155 195.306Z" fill="#263238"/>
<path d="M160.775 219.682C160.533 219.697 160.291 219.64 160.08 219.52C159.869 219.399 159.697 219.22 159.587 219.004C159.476 218.787 159.431 218.543 159.457 218.301C159.483 218.06 159.58 217.831 159.734 217.643C159.888 217.455 160.094 217.316 160.326 217.244C160.558 217.171 160.806 217.168 161.04 217.234C161.274 217.301 161.483 217.434 161.642 217.617C161.802 217.801 161.904 218.027 161.936 218.268C161.968 218.609 161.864 218.949 161.646 219.214C161.429 219.478 161.116 219.647 160.775 219.682Z" fill="#263238"/>
<path d="M168.67 205.239C168.722 205.42 168.723 205.613 168.672 205.795C168.622 205.977 168.523 206.141 168.386 206.271C168.196 206.449 167.972 206.586 167.727 206.674C167.482 206.763 167.222 206.801 166.962 206.787C166.704 206.784 166.448 206.728 166.212 206.622C165.976 206.517 165.764 206.364 165.59 206.173C165.458 206.031 165.369 205.856 165.333 205.666C165.296 205.476 165.314 205.28 165.383 205.1C165.532 204.774 165.786 204.508 166.106 204.346C166.397 204.178 166.729 204.094 167.065 204.104C167.402 204.118 167.728 204.227 168.004 204.418C168.313 204.608 168.548 204.898 168.67 205.239Z" fill="#263238"/>
<path d="M171.591 217.236C171.256 217.32 170.904 217.298 170.583 217.174C170.261 217.05 169.986 216.829 169.795 216.542C169.603 216.256 169.505 215.917 169.514 215.572C169.522 215.228 169.637 214.894 169.843 214.618C170.048 214.341 170.334 214.134 170.661 214.026C170.989 213.919 171.341 213.914 171.671 214.015C172.001 214.115 172.292 214.315 172.504 214.586C172.716 214.858 172.838 215.189 172.855 215.533C172.91 215.926 172.808 216.325 172.571 216.644C172.335 216.962 171.983 217.175 171.591 217.236Z" fill="#263238"/>
<path d="M182.937 211.968C182.817 212.106 182.665 212.212 182.494 212.278C182.323 212.344 182.139 212.366 181.957 212.344C181.746 212.312 181.543 212.237 181.361 212.125C181.179 212.013 181.021 211.866 180.897 211.692C180.773 211.517 180.685 211.32 180.638 211.111C180.592 210.903 180.587 210.687 180.626 210.476C180.664 210.298 180.745 210.132 180.862 209.991C180.979 209.851 181.128 209.741 181.297 209.671C181.626 209.543 181.989 209.526 182.329 209.625C182.635 209.703 182.905 209.885 183.092 210.141C183.269 210.402 183.351 210.715 183.324 211.029C183.301 211.375 183.165 211.705 182.937 211.968Z" fill="#263238"/>
<path d="M183.392 222.597C182.772 222.189 182.71 221.194 183.257 220.378C183.804 219.563 184.738 219.238 185.358 219.651C185.977 220.064 186.034 221.054 185.492 221.87C184.95 222.685 184.006 223.01 183.392 222.597Z" fill="#263238"/>
<path d="M198.851 223.294C198.593 223.065 198.413 222.761 198.334 222.425C198.256 222.09 198.283 221.738 198.412 221.418C198.542 221.098 198.767 220.826 199.057 220.64C199.347 220.453 199.687 220.36 200.032 220.374C200.376 220.389 200.708 220.509 200.981 220.719C201.255 220.93 201.456 221.219 201.559 221.549C201.661 221.878 201.659 222.231 201.553 222.559C201.447 222.887 201.242 223.174 200.967 223.382C200.673 223.647 200.286 223.786 199.891 223.77C199.495 223.753 199.122 223.583 198.851 223.294Z" fill="#263238"/>
<path d="M217.499 223.624C216.808 223.892 216.09 223.706 215.9 223.211C215.709 222.716 216.116 222.102 216.808 221.833C217.499 221.565 218.216 221.751 218.407 222.246C218.598 222.742 218.191 223.356 217.499 223.624Z" fill="#263238"/>
<path d="M151.807 83.561C150.455 85.3516 149.083 87.173 148.226 89.237C147.37 91.301 147.065 93.7004 147.88 95.7902C148.283 96.8222 148.938 97.7407 149.15 98.8191C149.542 100.883 148.237 102.813 147.602 104.8C147.135 106.294 147.03 107.878 147.294 109.42C147.559 110.963 148.186 112.421 149.124 113.675C150.698 115.739 153.051 117.106 155.497 117.973C160.022 119.578 165.729 119.351 168.825 115.687" fill="#263238"/>
<path d="M188.046 79.6084C188.908 84.1544 195.42 85.9965 196.039 90.5786C196.307 92.5445 195.358 94.4898 195.414 96.4764C195.492 99.139 197.334 101.389 198.268 103.891C200.193 109.051 197.953 115.12 193.81 118.732C189.666 122.344 184.006 123.773 178.495 123.861" fill="#263238"/>
<path d="M189.372 82.1006C189.099 79.8664 186.792 78.4628 184.584 77.9726C182.375 77.4824 180.043 77.5186 178.005 76.5588C176.204 75.7074 174.841 74.1594 173.247 72.9468C171.276 71.4757 168.948 70.556 166.504 70.282C164.06 70.0081 161.586 70.3898 159.338 71.388C157.09 72.3861 155.149 73.9648 153.713 75.9618C152.277 77.9587 151.398 80.302 151.167 82.7508C150.858 86.0429 151.967 89.7013 154.779 91.4299C158.046 93.4268 162.261 92.2297 165.858 90.9139C169.454 89.5981 173.546 88.1998 176.978 89.9077C179.042 90.9397 180.445 92.9108 181.89 94.7168C183.335 96.5228 185.079 98.3288 187.355 98.7416C189.63 99.1544 192.365 97.4258 192.102 95.1296" fill="#263238"/>
<path d="M167.7 138.422C166.89 133.319 166.1 128.355 166.106 128.381C166.111 128.407 157.788 128.252 154.516 117.916C152.891 112.756 151.859 104.108 151.245 96.9823C150.693 90.5736 153.727 82.1473 160.156 81.8687L180.667 83.8965C181.609 83.8539 182.533 84.1673 183.255 84.7743C183.976 85.3814 184.443 86.2377 184.563 87.1731L190.063 135.373C190.4 138.313 189.568 141.268 187.747 143.601C185.926 145.934 183.261 147.458 180.326 147.844C177.409 148.231 174.456 147.462 172.097 145.701C169.738 143.941 168.16 141.329 167.7 138.422Z" fill="#FFBE9D"/>
<path d="M159.444 102.168C159.248 102.013 158.335 102.932 156.864 103.149C155.393 103.365 154.222 102.792 154.088 102.994C154.021 103.087 154.243 103.381 154.759 103.649C155.458 103.991 156.245 104.11 157.014 103.99C157.774 103.878 158.479 103.528 159.026 102.989C159.444 102.571 159.521 102.23 159.444 102.168Z" fill="#263238"/>
<path d="M173.283 100.883C173.077 100.744 172.22 101.714 170.775 102.018C169.331 102.323 168.118 101.828 167.999 102.018C167.937 102.111 168.175 102.39 168.706 102.627C169.424 102.927 170.217 102.997 170.977 102.829C171.729 102.672 172.413 102.28 172.927 101.709C173.293 101.296 173.376 100.945 173.283 100.883Z" fill="#263238"/>
<path d="M164.511 110.94C164.511 110.857 163.577 110.837 162.076 110.868C161.699 110.868 161.333 110.868 161.229 110.62C161.141 110.239 161.169 109.839 161.312 109.475L161.993 106.471C162.917 102.194 163.541 98.7056 163.35 98.6695C163.159 98.6334 162.292 102.07 161.364 106.342C161.147 107.374 160.935 108.406 160.739 109.356C160.572 109.842 160.582 110.372 160.765 110.852C160.839 110.976 160.941 111.08 161.061 111.159C161.182 111.238 161.319 111.288 161.462 111.306C161.676 111.335 161.893 111.335 162.107 111.306C163.598 111.157 164.521 111.023 164.511 110.94Z" fill="#263238"/>
<path d="M166.1 128.381C171.095 127.705 175.806 125.658 179.707 122.467C179.594 122.514 176.926 130.419 166.616 130.857L166.1 128.381Z" fill="#EB996E"/>
<path d="M172.452 96.8429C172.174 96.5178 170.863 97.2248 169.171 97.6479C167.478 98.071 165.997 98.1329 165.909 98.5509C165.879 98.747 166.24 99.0153 166.905 99.1753C167.78 99.3497 168.684 99.3233 169.547 99.0981C170.411 98.8728 171.212 98.4546 171.89 97.8749C172.39 97.4105 172.576 97.0081 172.452 96.8429Z" fill="#263238"/>
<path d="M159.269 99.1442C159.021 98.8037 157.989 99.1133 156.766 99.0875C155.543 99.0617 154.516 98.7882 154.269 99.1288C154.155 99.2939 154.31 99.6448 154.748 99.9698C155.339 100.379 156.042 100.596 156.761 100.589C157.121 100.657 157.492 100.638 157.843 100.533C158.194 100.428 158.515 100.24 158.778 99.9853C159.222 99.6551 159.377 99.3145 159.269 99.1442Z" fill="#263238"/>
<path d="M190.538 118.613C187.716 119.645 187.231 118.205 184.749 116.513C183.509 115.652 182.488 114.513 181.767 113.187C181.047 111.861 180.647 110.385 180.6 108.876C180.533 106.229 181.529 103.37 180.254 101.048C178.567 97.9523 173.856 97.6685 172.153 94.6087C171.162 92.8285 171.456 90.5271 170.378 88.7985C169.346 87.1782 167.38 86.4558 165.502 86.0843C163.624 85.7128 161.647 85.5683 159.975 84.624C158.304 83.6798 157.039 81.6364 157.752 79.8614C165.801 79.6053 173.852 80.3085 181.735 81.9563C183.562 82.3382 185.492 82.8335 186.746 84.2164C188.077 85.6767 188.345 87.782 188.552 89.7428C189.553 99.3129 190.557 108.883 191.565 118.453" fill="#263238"/>
<path d="M193.903 96.0122C193.793 94.2205 194.274 92.4423 195.271 90.9497C196.269 89.4571 197.727 88.3323 199.424 87.7471C201.121 87.1619 202.963 87.1487 204.668 87.7095C206.373 88.2702 207.848 89.3741 208.867 90.8522C210.791 93.6179 210.838 97.3331 209.924 100.574C208.846 104.433 206.003 108.236 202.024 108.659C198.278 109.057 194.8 106.244 193.165 102.844C191.529 99.4436 191.4 95.5529 191.281 91.7861" fill="#263238"/>
<path d="M198.185 110.192C198.389 109.995 198.545 109.755 198.644 109.49C198.963 108.789 199.123 108.026 199.114 107.256C199.098 106.118 198.892 104.992 198.505 103.922C198.103 102.71 197.473 101.471 196.957 100.135C196.423 98.9085 196.14 97.5871 196.126 96.2494C196.163 95.042 196.565 93.9532 196.668 92.9883C196.795 92.2183 196.696 91.4281 196.384 90.7127C196.142 90.1967 195.868 90.0368 195.868 90.0574C195.868 90.078 196.044 90.2999 196.224 90.785C196.449 91.4818 196.49 92.2246 196.343 92.9418C196.209 93.8603 195.77 94.9233 195.698 96.2339C195.685 97.6322 195.966 99.0176 196.524 100.3C197.04 101.667 197.68 102.88 198.072 104.067C198.461 105.089 198.691 106.164 198.753 107.256C198.786 108.265 198.592 109.268 198.185 110.192Z" fill="#455A64"/>
<path d="M196.4 97.4569C196.369 97.493 196.983 98.1483 198.268 98.7985C199.955 99.645 201.857 99.9634 203.728 99.7121C205.598 99.4608 207.349 98.6515 208.753 97.3898C209.362 96.9099 209.855 96.2999 210.198 95.6044C210.131 95.5528 209.62 96.2701 208.536 97.1524C207.139 98.2946 205.453 99.0271 203.665 99.2685C201.877 99.5099 200.057 99.2507 198.407 98.5198C197.112 97.9471 196.452 97.3898 196.4 97.4569Z" fill="#455A64"/>
<path d="M197.179 99.0359C197.455 99.6238 197.846 100.15 198.33 100.584C199.428 101.683 200.733 102.553 202.17 103.144C203.606 103.734 205.146 104.034 206.699 104.026C207.34 104.056 207.982 103.963 208.588 103.752C208.588 103.67 207.86 103.752 206.704 103.69C203.687 103.532 200.813 102.351 198.557 100.341C198.12 99.8829 197.66 99.4472 197.179 99.0359Z" fill="#455A64"/>
<path d="M196.74 114.036C196.74 114.036 196.777 113.99 196.833 113.886C196.921 113.736 196.997 113.579 197.06 113.417C197.315 112.795 197.457 112.133 197.478 111.461C197.517 110.392 197.295 109.33 196.833 108.365C196.222 107.064 195.169 106.021 193.861 105.424C192.473 104.733 190.765 104.366 189.491 103.112C189.174 102.801 188.926 102.428 188.762 102.016C188.597 101.603 188.52 101.162 188.536 100.718C188.609 99.7398 188.782 98.7715 189.052 97.8285C189.311 96.7597 189.347 95.6489 189.157 94.5657C188.967 93.4825 188.555 92.4502 187.948 91.5333C187.3 90.547 186.412 89.7411 185.368 89.1907C184.291 88.6687 183.117 88.3803 181.921 88.3444C180.734 88.2567 179.568 88.2773 178.459 88.1174C177.37 88.007 176.325 87.6276 175.419 87.0131C174.601 86.3595 174.023 85.4517 173.778 84.4331C173.519 83.4126 173.195 82.4095 172.808 81.43C172.048 79.6029 170.798 78.0209 169.196 76.8583C167.781 75.8596 166.094 75.3193 164.361 75.3103C162.93 75.2899 161.53 75.7254 160.362 76.5538C159.486 77.1748 158.777 78.0025 158.298 78.9635C157.998 79.564 157.811 80.2147 157.746 80.8831C157.716 81.1142 157.716 81.3485 157.746 81.5797C157.819 80.6966 158.062 79.8361 158.464 79.0461C158.951 78.1351 159.65 77.3546 160.502 76.7705C161.634 76.0021 162.978 75.6069 164.346 75.6405C166.005 75.6788 167.613 76.2185 168.959 77.1885C170.493 78.3176 171.685 79.8477 172.406 81.6106C172.782 82.5786 173.095 83.5696 173.345 84.5776C173.61 85.692 174.24 86.6856 175.136 87.4001C176.102 88.0664 177.219 88.4798 178.386 88.6024C179.547 88.7675 180.719 88.7469 181.88 88.8346C183.012 88.8656 184.126 89.1364 185.146 89.6293C186.114 90.1433 186.936 90.8942 187.535 91.8119C188.108 92.6788 188.496 93.6549 188.673 94.6788C188.851 95.7026 188.815 96.7522 188.567 97.7614C188.302 98.7343 188.137 99.7321 188.077 100.739C188.065 101.235 188.155 101.729 188.343 102.189C188.53 102.649 188.81 103.065 189.166 103.412C190.554 104.753 192.324 105.089 193.675 105.749C194.929 106.297 195.947 107.271 196.55 108.499C197.016 109.422 197.255 110.443 197.246 111.477C197.234 112.353 197.062 113.221 196.74 114.036Z" fill="#455A64"/>
<path d="M191.529 84.624C191.582 84.4576 191.6 84.2817 191.58 84.108C191.548 83.6075 191.35 83.132 191.018 82.7561C190.5 82.154 189.802 81.7358 189.026 81.5641C187.994 81.4011 186.937 81.5261 185.972 81.9253C184.893 82.3072 183.81 82.9264 182.587 83.3598C181.364 83.7933 179.919 84.0461 178.67 83.3598C177.421 82.6735 176.606 81.2958 175.822 79.8923C175.006 78.4099 173.961 77.0655 172.726 75.9088C170.325 73.6488 167.237 72.2558 163.954 71.9511C162.509 71.8382 161.059 72.0975 159.743 72.7044C158.596 73.2479 157.628 74.1071 156.952 75.1812C156.392 76.0707 156.132 77.1157 156.209 78.1637C156.252 78.931 156.477 79.6772 156.864 80.3412C157.117 80.7642 157.45 81.1339 157.844 81.43C157.976 81.538 158.124 81.625 158.283 81.688C157.777 81.2891 157.349 80.8012 157.019 80.2483C156.661 79.5909 156.46 78.8599 156.431 78.1121C156.387 77.1246 156.654 76.1483 157.194 75.3205C157.852 74.3159 158.78 73.518 159.872 73.0192C161.132 72.4591 162.513 72.2283 163.887 72.3484C167.072 72.666 170.063 74.0264 172.396 76.2184C173.603 77.3408 174.625 78.6469 175.425 80.0884C176.235 81.4609 177.05 82.9367 178.464 83.7004C179.141 84.0622 179.907 84.225 180.672 84.1699C181.379 84.1164 182.074 83.9599 182.736 83.7055C184 83.236 185.063 82.6065 186.101 82.2195C187.007 81.8218 188.003 81.6774 188.985 81.8015C189.718 81.9408 190.387 82.3115 190.894 82.8593C191.22 83.1991 191.433 83.6318 191.503 84.0977C191.539 84.4176 191.498 84.5931 191.529 84.624Z" fill="#455A64"/>
<path d="M199.032 111.487C199.008 111.673 198.959 111.855 198.887 112.029C198.716 112.51 198.509 112.977 198.268 113.427C197.461 114.92 196.304 116.195 194.895 117.141C193.487 118.088 191.869 118.678 190.182 118.861C189.668 118.917 189.151 118.933 188.634 118.907C188.446 118.906 188.259 118.883 188.077 118.84C188.077 118.794 188.877 118.871 190.141 118.695C191.796 118.478 193.379 117.883 194.767 116.955C196.155 116.027 197.311 114.791 198.144 113.345C198.763 112.24 198.99 111.456 199.032 111.487Z" fill="#455A64"/>
<path d="M175.502 119.944C175.289 119.993 175.07 120.013 174.852 120.001C174.256 120.004 173.661 119.935 173.082 119.794C172.217 119.588 171.392 119.24 170.641 118.762C169.715 118.18 168.929 117.399 168.34 116.477C167.769 115.538 167.433 114.476 167.359 113.381C167.293 112.492 167.405 111.599 167.69 110.754C167.878 110.186 168.155 109.652 168.51 109.17C168.605 109.04 168.709 108.916 168.82 108.799C168.897 108.721 168.938 108.68 168.949 108.685C168.487 109.337 168.124 110.053 167.87 110.811C167.596 111.729 167.517 112.694 167.637 113.645C167.757 114.596 168.073 115.511 168.567 116.332C169.134 117.221 169.888 117.977 170.775 118.546C171.5 119.013 172.294 119.361 173.128 119.578C173.906 119.775 174.701 119.898 175.502 119.944Z" fill="#EB996E"/>
<path d="M165.074 98.1742C165.074 98.2052 164.939 98.2929 164.676 98.3187C164.323 98.3442 163.971 98.2477 163.68 98.0452C163.389 97.8419 163.179 97.5422 163.087 97.199C163.02 96.941 163.056 96.7759 163.087 96.7759C163.118 96.7759 163.242 97.4106 163.835 97.8079C164.213 98.0262 164.638 98.1517 165.074 98.1742Z" fill="#EB996E"/>
<path d="M160.641 99.072C160.579 99.0256 160.842 98.6025 160.894 98.04C160.946 97.4776 160.78 97.008 160.853 96.9616C160.925 96.9152 161.229 97.395 161.162 98.0658C161.095 98.7366 160.688 99.1391 160.641 99.072Z" fill="#EB996E"/>
<path d="M161.508 98.1433C161.436 98.1072 161.585 97.7408 161.575 97.2713C161.565 96.8017 161.42 96.4405 161.487 96.4044C161.554 96.3683 161.843 96.7192 161.843 97.2713C161.843 97.8234 161.554 98.1898 161.508 98.1433Z" fill="#EB996E"/>
<path d="M168.386 128.443C169.795 129.325 171.637 129.036 173.206 128.479C176.384 127.349 179.135 125.274 182.174 123.835C185.213 122.395 188.882 121.57 191.911 123.087C192.566 123.417 193.227 123.928 193.34 124.635C193.351 125.219 193.23 125.797 192.984 126.327C191.952 129.511 194.093 132.756 194.759 136.028C195.187 138.37 194.885 140.786 193.892 142.95C192.9 145.114 191.266 146.92 189.212 148.123C186.833 149.454 184.052 149.877 181.312 149.862C175.977 149.831 170.476 148.056 166.766 144.243C165.895 143.413 165.219 142.402 164.785 141.281C164.402 139.957 164.34 138.562 164.604 137.21C165.101 133.859 166.371 130.67 168.314 127.896" fill="#FF725E"/>
<g opacity="0.4">
<path opacity="0.4" d="M168.386 128.443C169.795 129.325 171.637 129.036 173.206 128.479C176.384 127.349 179.135 125.274 182.174 123.835C185.213 122.395 188.882 121.57 191.911 123.087C192.566 123.417 193.227 123.928 193.34 124.635C193.351 125.219 193.23 125.797 192.984 126.327C191.952 129.511 194.093 132.756 194.759 136.028C195.187 138.37 194.885 140.786 193.892 142.95C192.9 145.114 191.266 146.92 189.212 148.123C186.833 149.454 184.052 149.877 181.312 149.862C175.977 149.831 170.476 148.056 166.766 144.243C165.895 143.413 165.219 142.402 164.785 141.281C164.402 139.957 164.34 138.562 164.604 137.21C165.101 133.859 166.371 130.67 168.314 127.896" fill="black"/>
</g>
<path d="M192.984 144.717C192.984 144.717 193.154 144.387 193.448 143.794C193.868 142.966 194.214 142.103 194.48 141.214C194.893 139.892 195.037 138.5 194.903 137.122C194.802 136.315 194.598 135.524 194.295 134.769C193.99 133.974 193.613 133.164 193.304 132.302C192.714 130.663 192.561 128.899 192.86 127.184C193.048 126.477 193.085 125.738 192.968 125.016C192.791 124.407 192.431 123.866 191.936 123.468C191.219 122.874 190.351 122.49 189.429 122.359C188.779 122.261 188.397 122.307 188.397 122.276C188.482 122.251 188.571 122.239 188.66 122.24C188.917 122.213 189.177 122.213 189.434 122.24C190.391 122.335 191.3 122.706 192.05 123.308C192.582 123.725 192.971 124.297 193.165 124.944C193.299 125.696 193.271 126.469 193.082 127.209C192.805 128.882 192.962 130.598 193.536 132.194C193.841 133.045 194.212 133.85 194.522 134.66C194.829 135.437 195.034 136.251 195.131 137.08C195.254 138.491 195.087 139.912 194.64 141.255C194.348 142.151 193.966 143.016 193.5 143.835C193.335 144.124 193.201 144.351 193.103 144.49C193.005 144.63 193.015 144.722 192.984 144.717Z" fill="#263238"/>
<path d="M190.249 128.758C190.055 128.962 189.845 129.15 189.62 129.32C189.197 129.666 188.588 130.146 187.783 130.708C185.703 132.166 183.488 133.42 181.168 134.454C178.846 135.49 176.425 136.291 173.944 136.843C173.189 137.012 172.415 137.079 171.642 137.045C171.432 137.03 171.224 137.001 171.018 136.957C170.873 136.926 170.801 136.905 170.806 136.895C170.812 136.885 171.106 136.931 171.642 136.936C172.404 136.938 173.164 136.845 173.902 136.658C176.352 136.051 178.743 135.231 181.049 134.207C183.358 133.179 185.574 131.955 187.674 130.548C188.479 130.032 189.114 129.547 189.553 129.232C189.771 129.054 190.004 128.895 190.249 128.758Z" fill="#263238"/>
<path d="M185.007 136.606C184.86 136.715 184.701 136.805 184.532 136.874C184.222 137.034 183.758 137.235 183.175 137.463C180.113 138.644 176.82 139.103 173.551 138.804C173.058 138.76 172.567 138.691 172.081 138.598C171.905 138.574 171.731 138.531 171.565 138.469C171.565 138.422 172.334 138.541 173.577 138.613C176.812 138.81 180.054 138.368 183.118 137.313C184.284 136.879 184.986 136.565 185.007 136.606Z" fill="#263238"/>
<path d="M176.622 149.464C176.622 149.464 176.498 149.356 176.312 149.134C176.055 148.811 175.827 148.465 175.631 148.102C175.331 147.573 175.085 147.015 174.898 146.435C174.671 145.724 174.52 144.991 174.449 144.248C174.388 143.505 174.405 142.758 174.501 142.019C174.586 141.415 174.731 140.823 174.934 140.249C175.072 139.859 175.245 139.483 175.45 139.124C175.515 138.989 175.597 138.862 175.693 138.747C175.739 138.773 175.435 139.33 175.141 140.295C174.968 140.865 174.846 141.448 174.774 142.039C174.694 142.762 174.683 143.492 174.743 144.217C174.814 144.94 174.953 145.655 175.156 146.353C175.335 146.92 175.558 147.472 175.822 148.004C176.26 148.933 176.663 149.433 176.622 149.464Z" fill="#FAFAFA"/>
<path d="M178.257 135.404C178.601 135.879 178.754 136.467 178.686 137.05C178.705 137.637 178.509 138.212 178.134 138.665C178.256 138.128 178.351 137.586 178.417 137.039C178.396 136.491 178.343 135.945 178.257 135.404Z" fill="#FAFAFA"/>
<path d="M172.901 128.732C172.689 129.07 172.515 129.432 172.385 129.81C172.149 130.754 172.053 131.728 172.102 132.7C172.191 134.081 172.446 135.446 172.86 136.766C172.627 136.422 172.452 136.042 172.344 135.641C172.033 134.694 171.859 133.707 171.828 132.71C171.779 131.708 171.907 130.706 172.205 129.748C172.316 129.341 172.562 128.983 172.901 128.732Z" fill="#FAFAFA"/>
<path d="M184.346 132.715C184.011 132.42 183.727 132.071 183.505 131.683C182.331 129.844 181.814 127.662 182.04 125.491C182.065 125.044 182.161 124.603 182.323 124.186C182.145 125.674 182.208 127.181 182.509 128.649C182.897 130.095 183.517 131.469 184.346 132.715Z" fill="#FAFAFA"/>
<path d="M186.235 136.368C186.349 135.575 186.422 134.776 186.451 133.974C186.383 133.176 186.274 132.382 186.126 131.595C186.498 132.333 186.701 133.144 186.72 133.97C186.738 134.795 186.573 135.615 186.235 136.368Z" fill="#FAFAFA"/>
<path d="M188.036 147.653C187.889 147.608 187.751 147.539 187.628 147.447C187.268 147.23 186.931 146.977 186.622 146.694C185.579 145.763 184.795 144.578 184.347 143.254C183.899 141.93 183.803 140.512 184.068 139.139C184.144 138.725 184.26 138.319 184.413 137.927C184.457 137.779 184.525 137.64 184.614 137.514C184.661 137.514 184.408 138.138 184.258 139.17C184.053 140.509 184.172 141.878 184.606 143.161C185.04 144.444 185.775 145.604 186.751 146.544C187.499 147.282 188.067 147.612 188.036 147.653Z" fill="#FAFAFA"/>
<path d="M191.261 128.732C191.048 129.529 191.031 130.366 191.209 131.172C191.421 132.044 191.731 132.889 192.133 133.69C192.639 134.685 193.02 135.739 193.268 136.828C193.684 138.83 193.547 140.909 192.871 142.839C192.662 143.416 192.405 143.973 192.102 144.506C191.993 144.704 191.865 144.89 191.72 145.063C192.085 144.319 192.409 143.556 192.69 142.777C193.302 140.873 193.41 138.843 193.005 136.884C192.761 135.814 192.394 134.775 191.911 133.788C191.511 132.968 191.212 132.102 191.023 131.208C190.902 130.6 190.902 129.974 191.023 129.366C191.06 129.203 191.11 129.042 191.173 128.886C191.224 128.783 191.25 128.732 191.261 128.732Z" fill="#FAFAFA"/>
<path d="M167.561 144.996C167.447 144.806 167.357 144.604 167.292 144.392C167.192 144.155 167.104 143.912 167.029 143.665C166.942 143.381 166.828 143.056 166.745 142.684C166.524 141.822 166.371 140.944 166.286 140.058C166.189 138.972 166.18 137.879 166.26 136.792C166.355 135.705 166.54 134.628 166.813 133.572C167.044 132.714 167.341 131.876 167.7 131.064C167.839 130.708 168.004 130.409 168.139 130.135C168.25 129.903 168.374 129.677 168.51 129.459C168.61 129.264 168.731 129.081 168.871 128.912C168.918 128.938 168.438 129.743 167.875 131.136C167.545 131.952 167.272 132.79 167.06 133.644C166.535 135.734 166.361 137.896 166.544 140.042C166.618 140.91 166.751 141.772 166.942 142.622C167.261 144.093 167.607 144.96 167.561 144.996Z" fill="#FAFAFA"/>
<path d="M194.016 177.422C194.016 177.422 193.758 172.153 192.195 169.79C190.631 167.427 182.081 157.096 182.081 157.096C181.678 156.897 181.225 156.819 180.778 156.874C180.331 156.929 179.911 157.114 179.568 157.406C178.417 158.438 179.625 160.249 180.646 162.184C181.668 164.119 183.02 166.312 183.02 166.312C183.02 166.312 168.732 150.497 167.034 151.188C165.337 151.879 165.657 152.736 166.245 153.541C166.833 154.346 171.715 160.476 171.715 160.476C171.715 160.476 164.485 151.219 162.54 152.22C160.595 153.221 161.761 153.887 162.416 155.182C163.072 156.477 167.401 162.024 167.401 162.024C167.401 162.024 162.339 156.126 161.106 157.256C159.872 158.386 160.316 158.83 161.498 160.45C162.679 162.071 165.352 165.61 165.352 165.61C165.352 165.61 162.834 164.491 162.179 165.553C161.524 166.616 162.138 167.246 163.66 168.433C165.182 169.62 171.544 174.434 174.021 176.978C176.498 179.522 182.334 185.244 182.334 185.244L195.492 180.223L194.016 177.422Z" fill="#FFBE9D"/>
<path d="M182.334 185.27C182.277 185.213 176.467 179.475 174.021 176.962C171.864 174.749 166.678 170.77 164.465 169.042L163.665 168.422C162.117 167.225 161.524 166.591 162.179 165.528C162.452 165.089 163.087 164.96 164.026 165.151C164.471 165.248 164.906 165.384 165.326 165.559C165.032 165.166 162.602 161.947 161.498 160.44L161.302 160.166C160.27 158.773 159.934 158.304 161.106 157.23C161.221 157.129 161.37 157.075 161.524 157.081H161.575C162.287 157.122 163.489 157.963 165.146 159.578C165.982 160.393 166.725 161.214 167.122 161.642C166.157 160.404 162.968 156.291 162.421 155.197C162.285 154.933 162.131 154.678 161.962 154.434C161.663 153.98 161.4 153.587 161.503 153.195C161.606 152.803 161.921 152.555 162.535 152.22C162.979 151.983 163.742 152.272 164.795 153.071C165.889 153.945 166.913 154.904 167.855 155.94C168.737 156.879 169.583 157.85 170.254 158.644C168.763 156.781 166.606 154.067 166.224 153.551C166.059 153.374 165.934 153.162 165.859 152.931C165.784 152.7 165.761 152.456 165.791 152.215C165.899 151.812 166.307 151.472 167.019 151.183C167.063 151.177 167.109 151.177 167.153 151.183C168.041 151.183 170.899 153.644 175.667 158.505C179.083 161.983 182.375 165.574 182.948 166.219C182.659 165.739 181.524 163.871 180.646 162.21C180.528 161.988 180.409 161.766 180.29 161.554C179.846 160.81 179.481 160.022 179.202 159.201C178.985 158.402 179.098 157.834 179.568 157.416C179.913 157.124 180.337 156.939 180.786 156.884C181.235 156.829 181.691 156.906 182.096 157.107C182.179 157.21 190.657 167.473 192.21 169.805C193.763 172.138 194.026 177.292 194.037 177.437L195.497 180.259L182.334 185.27ZM163.242 165.084C163.046 165.065 162.848 165.096 162.668 165.175C162.487 165.253 162.33 165.377 162.21 165.533C162.059 165.729 161.971 165.966 161.958 166.213C161.945 166.46 162.008 166.705 162.138 166.916C162.567 167.492 163.091 167.993 163.686 168.397L164.485 169.016C166.699 170.724 171.885 174.723 174.047 176.942C176.457 179.418 182.138 185.027 182.354 185.244L195.487 180.228L194.042 177.421C194.042 177.37 193.763 172.127 192.215 169.8C190.667 167.473 182.272 157.303 182.107 157.107C181.705 156.911 181.255 156.836 180.812 156.891C180.369 156.946 179.951 157.128 179.609 157.416C179.15 157.829 179.037 158.386 179.253 159.171C179.533 159.991 179.898 160.779 180.342 161.523C180.456 161.735 180.579 161.957 180.693 162.179C181.725 164.088 183.056 166.281 183.072 166.307C182.891 166.152 169.3 151.188 167.184 151.188C167.143 151.18 167.101 151.18 167.06 151.188C166.353 151.482 165.956 151.818 165.842 152.22C165.816 152.457 165.84 152.697 165.915 152.923C165.99 153.149 166.113 153.357 166.276 153.531C166.751 154.181 170.043 158.298 171.276 159.841L171.745 160.424L171.276 159.841C170.605 159.016 169.3 157.437 167.891 155.94C166.209 154.15 164.073 152.148 162.937 152.148C162.819 152.143 162.701 152.17 162.597 152.225C161.967 152.555 161.637 152.86 161.565 153.185C161.493 153.51 161.714 153.933 162.024 154.398C162.193 154.645 162.348 154.902 162.488 155.166C163.128 156.446 167.416 161.905 167.463 161.957C167.421 161.905 163.335 157.153 161.637 157.05C161.556 157.041 161.474 157.049 161.396 157.073C161.318 157.097 161.245 157.136 161.183 157.189C160.027 158.252 160.342 158.68 161.384 160.094L161.58 160.368C162.752 161.967 165.409 165.492 165.435 165.528L165.466 165.564H165.419C164.727 165.277 163.99 165.115 163.242 165.084Z" fill="#EB996E"/>
<path d="M175.388 165.884C175.094 165.471 174.825 165.04 174.583 164.594C173.955 163.555 173.266 162.554 172.519 161.596C171.637 160.476 170.729 159.532 170.13 158.814C169.784 158.438 169.492 158.014 169.263 157.555C169.3 157.555 169.645 157.999 170.295 158.691C170.946 159.382 171.844 160.295 172.752 161.431C173.524 162.394 174.215 163.421 174.816 164.501C175.058 164.939 175.25 165.403 175.388 165.884Z" fill="#EB996E"/>
<path d="M171.957 167.7C171.66 167.382 171.394 167.036 171.162 166.668C170.693 166.033 170.037 165.161 169.274 164.227C168.51 163.293 167.788 162.483 167.256 161.9C166.949 161.601 166.669 161.274 166.42 160.925C166.775 161.167 167.101 161.449 167.39 161.766C168.869 163.218 170.187 164.825 171.322 166.56C171.579 166.912 171.793 167.295 171.957 167.7Z" fill="#EB996E"/>
<path d="M170.038 170.564C169.158 169.834 168.346 169.026 167.612 168.149C166.972 167.452 166.41 166.812 166.002 166.348C165.769 166.108 165.552 165.853 165.352 165.584C165.435 165.497 166.544 166.57 167.808 167.968C168.608 168.784 169.352 169.651 170.038 170.564Z" fill="#EB996E"/>
<g opacity="0.3">
<path opacity="0.3" d="M179.594 187.633C179.594 187.633 189.94 213.356 197.184 218.387C204.429 223.418 213.449 221.89 218.273 217.355C218.273 217.355 211.751 223.247 204.651 217.871C197.551 212.494 179.594 187.633 179.594 187.633Z" fill="black"/>
</g>
<g opacity="0.3">
<path opacity="0.3" d="M197.287 158.334C196.684 163.453 198.077 168.087 197.674 173.19C197.525 175.146 197.262 177.137 197.674 179.057C198.438 182.669 201.947 186.245 204.744 188.644C202.742 178.737 200.213 168.004 197.287 158.334Z" fill="black"/>
</g>
<path d="M197.04 214.919C196.823 215.032 196.579 215.08 196.336 215.056C196.093 215.032 195.862 214.938 195.672 214.785C195.481 214.632 195.34 214.426 195.265 214.194C195.19 213.962 195.184 213.712 195.249 213.477C195.313 213.241 195.445 213.03 195.628 212.868C195.811 212.707 196.038 212.602 196.279 212.567C196.521 212.532 196.768 212.569 196.989 212.672C197.21 212.776 197.396 212.942 197.525 213.149C197.61 213.297 197.664 213.46 197.686 213.63C197.707 213.799 197.695 213.97 197.65 214.135C197.605 214.299 197.528 214.453 197.423 214.588C197.318 214.722 197.188 214.835 197.04 214.919Z" fill="#263238"/>
<path d="M187.855 203.443C187.672 203.552 187.461 203.607 187.248 203.6C187.035 203.594 186.828 203.528 186.652 203.408C186.475 203.289 186.336 203.122 186.25 202.927C186.165 202.732 186.137 202.516 186.169 202.306C186.201 202.095 186.293 201.898 186.432 201.737C186.572 201.576 186.755 201.459 186.96 201.398C187.164 201.337 187.381 201.335 187.586 201.393C187.791 201.451 187.976 201.566 188.118 201.725C188.309 201.989 188.388 202.316 188.339 202.638C188.289 202.959 188.116 203.249 187.855 203.443Z" fill="#263238"/>
<path d="M210.528 135.543C209.498 134.64 208.216 134.076 206.854 133.928C200.399 132.968 192.989 137.024 194.986 147.942L200.378 170.646L204.764 188.67L195.156 179.775L178.495 186.137C178.495 186.137 196.988 211.483 202.938 216.54C208.887 221.596 213.108 220.554 218.268 217.375C218.268 217.375 224.646 214.47 224.594 196.219C224.553 180.445 221.111 145.863 210.528 135.543Z" fill="#FF725E"/>
<path d="M221.999 212.52C221.999 212.52 221.957 212.623 221.87 212.814L221.478 213.676C220.923 214.756 220.216 215.75 219.377 216.627C218.041 218.019 216.398 219.079 214.579 219.723C213.444 220.136 212.246 220.349 211.039 220.353C209.682 220.327 208.346 220.011 207.122 219.424C204.542 218.222 202.143 216.142 199.945 213.66C197.747 211.178 195.456 208.459 193.123 205.544C188.479 199.702 183.5 193.16 178.386 186.194L178.283 186.054L178.448 185.987L179.227 185.693L195.11 179.635L195.187 179.604L195.244 179.661L204.821 188.536L204.625 188.655C203.469 183.835 202.406 179.413 201.462 175.481C200.518 171.549 199.661 168.139 198.964 165.316C198.268 162.494 197.731 160.28 197.36 158.758L196.942 157.024C196.9 156.833 196.864 156.684 196.844 156.575C196.827 156.527 196.816 156.477 196.813 156.426C196.83 156.474 196.84 156.524 196.844 156.575C196.875 156.684 196.911 156.828 196.962 157.019C197.071 157.416 197.22 157.994 197.416 158.742C197.803 160.265 198.366 162.478 199.083 165.285C199.8 168.092 200.678 171.519 201.637 175.445L204.842 188.603L204.935 188.985L204.646 188.717L195.048 179.867L195.182 179.893L179.3 185.961L178.536 186.276L178.598 186.07C183.706 193.031 188.665 199.584 193.309 205.425C195.636 208.34 197.881 211.101 200.1 213.552C202.318 216.003 204.651 218.093 207.195 219.29C208.395 219.871 209.706 220.188 211.039 220.219C212.228 220.222 213.408 220.017 214.527 219.615C216.331 218.985 217.964 217.942 219.295 216.57C220.137 215.708 220.853 214.73 221.421 213.665L221.839 212.819C221.942 212.592 221.999 212.52 221.999 212.52Z" fill="#263238"/>
<path d="M207.066 136.384C207.066 136.43 206.142 136.441 204.692 136.74C203.848 136.916 203.02 137.161 202.215 137.473C201.225 137.841 200.298 138.364 199.47 139.021C198.678 139.709 198.043 140.559 197.607 141.513C197.25 142.299 196.963 143.116 196.751 143.954C196.565 144.671 196.441 145.259 196.348 145.662C196.316 145.876 196.259 146.085 196.178 146.286C196.178 146.071 196.201 145.857 196.245 145.646C196.307 145.233 196.405 144.614 196.57 143.907C196.757 143.05 197.028 142.213 197.38 141.41C197.822 140.419 198.477 139.537 199.3 138.83C200.15 138.163 201.103 137.64 202.122 137.282C202.944 136.975 203.792 136.744 204.656 136.59C205.238 136.488 205.825 136.426 206.416 136.405C206.63 136.366 206.849 136.359 207.066 136.384Z" fill="#263238"/>
<path d="M217.969 194.057C217.679 193.328 217.305 192.635 216.854 191.993C215.696 190.49 214.101 189.383 212.288 188.825C210.462 188.307 208.557 188.132 206.668 188.309C205.941 188.361 205.353 188.433 204.945 188.479C204.736 188.519 204.523 188.536 204.31 188.531C204.51 188.455 204.718 188.403 204.929 188.376C205.499 188.262 206.074 188.178 206.653 188.123C208.571 187.891 210.516 188.051 212.37 188.593C214.237 189.16 215.867 190.322 217.014 191.9C217.353 192.377 217.624 192.898 217.819 193.448C217.894 193.644 217.944 193.849 217.969 194.057Z" fill="#263238"/>
<path d="M210.012 196.152C209.966 196.152 209.806 195.636 209.455 194.831C208.53 192.725 207.086 190.888 205.26 189.491C204.558 188.975 204.088 188.675 204.109 188.634C204.563 188.805 204.988 189.041 205.373 189.336C207.3 190.68 208.782 192.568 209.63 194.759C209.824 195.202 209.953 195.672 210.012 196.152Z" fill="#263238"/>
<path d="M199.016 150.713C198.754 150.637 198.521 150.484 198.346 150.275C198.171 150.065 198.063 149.808 198.035 149.537C198.007 149.266 198.06 148.992 198.188 148.751C198.316 148.51 198.513 148.313 198.754 148.185C198.995 148.056 199.268 148.002 199.54 148.03C199.811 148.058 200.068 148.166 200.278 148.34C200.488 148.515 200.641 148.748 200.717 149.01C200.794 149.271 200.791 149.55 200.709 149.81C200.604 150.154 200.367 150.443 200.049 150.612C199.732 150.781 199.36 150.818 199.016 150.713Z" fill="#263238"/>
<path d="M212.272 151.534C212.022 151.726 211.719 151.838 211.404 151.854C211.089 151.87 210.776 151.789 210.508 151.622C210.241 151.455 210.03 151.211 209.905 150.921C209.78 150.631 209.747 150.31 209.809 150.001C209.872 149.691 210.028 149.409 210.256 149.19C210.484 148.972 210.773 148.828 211.085 148.779C211.396 148.73 211.716 148.777 212 148.914C212.284 149.051 212.519 149.272 212.675 149.547C212.883 149.864 212.958 150.251 212.882 150.623C212.807 150.995 212.588 151.322 212.272 151.534Z" fill="#263238"/>
<path d="M206.472 162.024C205.734 161.967 205.187 161.183 205.254 160.269C205.322 159.356 205.972 158.654 206.715 158.721C207.458 158.789 208 159.547 207.948 160.476C207.896 161.405 207.215 162.075 206.472 162.024Z" fill="#263238"/>
<path d="M216.354 166.585C216.118 166.699 215.854 166.741 215.595 166.706C215.336 166.67 215.093 166.558 214.897 166.385C214.701 166.212 214.561 165.984 214.494 165.731C214.427 165.478 214.436 165.211 214.521 164.964C214.605 164.716 214.761 164.499 214.968 164.34C215.176 164.18 215.426 164.086 215.687 164.069C215.948 164.051 216.208 164.111 216.435 164.241C216.662 164.372 216.846 164.566 216.963 164.8C217.04 164.957 217.086 165.128 217.097 165.303C217.109 165.478 217.085 165.653 217.029 165.819C216.972 165.985 216.884 166.138 216.768 166.27C216.652 166.401 216.511 166.508 216.354 166.585Z" fill="#263238"/>
<path d="M206.183 175.394C206.001 175.612 205.758 175.77 205.485 175.848C205.211 175.926 204.921 175.92 204.651 175.832C204.381 175.743 204.144 175.575 203.971 175.35C203.797 175.126 203.695 174.854 203.678 174.57C203.661 174.287 203.729 174.004 203.874 173.76C204.019 173.516 204.234 173.32 204.491 173.2C204.748 173.079 205.035 173.038 205.316 173.082C205.596 173.126 205.857 173.254 206.065 173.448C206.337 173.691 206.503 174.032 206.525 174.396C206.547 174.761 206.424 175.119 206.183 175.394Z" fill="#263238"/>
<path d="M214.868 179.945C215.08 180.087 215.245 180.288 215.344 180.524C215.442 180.76 215.469 181.019 215.421 181.27C215.373 181.521 215.252 181.752 215.074 181.934C214.895 182.117 214.667 182.243 214.417 182.297C214.167 182.35 213.907 182.329 213.67 182.236C213.432 182.143 213.227 181.982 213.08 181.773C212.933 181.564 212.851 181.316 212.844 181.061C212.837 180.805 212.906 180.554 213.041 180.337C213.232 180.044 213.531 179.838 213.873 179.765C214.216 179.691 214.573 179.756 214.868 179.945Z" fill="#263238"/>
<path d="M220.791 189.749C220.58 189.721 220.381 189.634 220.218 189.497C220.054 189.361 219.933 189.181 219.868 188.978C219.802 188.775 219.796 188.558 219.849 188.352C219.902 188.146 220.013 187.959 220.168 187.813C220.324 187.668 220.517 187.569 220.726 187.529C220.935 187.489 221.151 187.509 221.35 187.586C221.548 187.664 221.72 187.797 221.846 187.969C221.972 188.14 222.046 188.344 222.061 188.557C222.047 188.882 221.907 189.189 221.669 189.412C221.432 189.635 221.117 189.756 220.791 189.749Z" fill="#263238"/>
<path d="M213.903 197.871C213.681 197.815 213.48 197.697 213.324 197.53C213.167 197.363 213.062 197.155 213.021 196.93C212.979 196.706 213.003 196.474 213.09 196.262C213.177 196.051 213.323 195.869 213.51 195.738C213.697 195.607 213.918 195.532 214.147 195.523C214.375 195.514 214.601 195.571 214.798 195.687C214.995 195.803 215.154 195.974 215.257 196.178C215.36 196.382 215.402 196.611 215.378 196.839C215.318 197.17 215.129 197.465 214.853 197.658C214.576 197.851 214.235 197.928 213.903 197.871Z" fill="#263238"/>
<path d="M209.434 204.852C209.224 205.045 208.961 205.17 208.679 205.212C208.397 205.254 208.109 205.21 207.852 205.086C207.595 204.962 207.381 204.763 207.238 204.517C207.096 204.27 207.03 203.986 207.05 203.702C207.071 203.417 207.176 203.145 207.352 202.921C207.529 202.697 207.769 202.532 208.04 202.446C208.312 202.359 208.604 202.357 208.877 202.438C209.15 202.519 209.393 202.681 209.573 202.902C209.814 203.179 209.934 203.54 209.908 203.906C209.882 204.271 209.711 204.612 209.434 204.852Z" fill="#263238"/>
<path d="M208.608 213.335C208.935 213.297 209.264 213.361 209.554 213.516C209.843 213.672 210.077 213.913 210.225 214.206C210.373 214.499 210.428 214.83 210.381 215.155C210.335 215.48 210.19 215.783 209.966 216.023C209.743 216.264 209.45 216.429 209.129 216.498C208.808 216.567 208.474 216.536 208.171 216.409C207.869 216.282 207.612 216.065 207.437 215.787C207.261 215.51 207.175 215.185 207.189 214.857C207.178 214.468 207.321 214.09 207.587 213.805C207.852 213.52 208.219 213.351 208.608 213.335Z" fill="#263238"/>
<path d="M198.598 201.591C198.594 201.773 198.545 201.951 198.455 202.11C198.365 202.269 198.237 202.402 198.082 202.499C197.9 202.605 197.697 202.671 197.488 202.692C197.278 202.714 197.067 202.69 196.867 202.623C196.667 202.556 196.484 202.447 196.33 202.304C196.175 202.161 196.053 201.986 195.972 201.792C195.907 201.622 195.886 201.438 195.911 201.258C195.935 201.078 196.004 200.907 196.111 200.76C196.309 200.478 196.585 200.261 196.906 200.136C197.158 200.013 197.447 199.989 197.716 200.069C197.978 200.168 198.195 200.361 198.325 200.61C198.511 200.903 198.606 201.244 198.598 201.591Z" fill="#263238"/>
<path d="M201.911 194.558C201.728 194.461 201.576 194.315 201.472 194.136C201.368 193.956 201.317 193.752 201.325 193.545C201.333 193.338 201.399 193.137 201.515 192.966C201.632 192.795 201.794 192.661 201.984 192.578C202.174 192.495 202.383 192.468 202.588 192.499C202.792 192.53 202.984 192.618 203.141 192.753C203.298 192.888 203.413 193.065 203.474 193.263C203.535 193.461 203.538 193.672 203.485 193.871C203.364 194.169 203.132 194.407 202.838 194.535C202.543 194.664 202.211 194.672 201.911 194.558Z" fill="#263238"/>
<path d="M190.879 190.285C190.793 190.451 190.668 190.592 190.514 190.697C190.36 190.801 190.182 190.866 189.996 190.884C189.539 190.916 189.086 190.779 188.724 190.498C188.362 190.217 188.117 189.812 188.036 189.362C188.002 189.173 188.017 188.979 188.08 188.798C188.144 188.617 188.253 188.456 188.397 188.33C188.683 188.116 189.031 188.002 189.388 188.006C189.745 188.009 190.091 188.13 190.373 188.349C190.655 188.568 190.857 188.874 190.948 189.219C191.039 189.564 191.015 189.929 190.879 190.259V190.285Z" fill="#263238"/>
<path d="M219.625 206.56C219.801 206.657 219.946 206.802 220.044 206.979C220.142 207.155 220.188 207.355 220.177 207.556C220.162 208.123 219.971 208.671 219.631 209.125C219.291 209.578 218.818 209.915 218.278 210.089C218.088 210.156 217.882 210.167 217.685 210.123C217.488 210.078 217.307 209.979 217.164 209.837C217.047 209.685 216.965 209.509 216.924 209.321C216.883 209.134 216.884 208.94 216.926 208.753C217.012 208.302 217.203 207.878 217.484 207.515C217.752 207.143 218.106 206.842 218.516 206.637C218.683 206.542 218.87 206.486 219.062 206.472C219.254 206.459 219.446 206.489 219.625 206.56Z" fill="#263238"/>
<path d="M153.768 129.279C153.768 129.279 138.721 130.109 137.029 145.12C135.93 154.872 127.024 193.247 131.281 198.268C135.667 203.428 145.151 209.455 151.683 200.094C158.216 190.734 164.645 155.202 164.645 155.202L150.156 147.736L153.768 129.279Z" fill="#FF725E"/>
<path d="M153.464 139.238C153.464 139.238 149.217 132.937 149.134 131.668C149.052 130.398 149.217 127.689 149.614 127.607C149.614 127.607 149.217 126.575 149.692 126.018C150.166 125.46 151.204 124.506 151.204 124.506C151.204 124.506 150.884 122.916 151.523 122.519C152.163 122.122 156.374 118.541 156.374 118.541C156.374 118.541 158.123 114.96 159.078 114.882C160.032 114.805 161.704 114.722 162.339 115.197C162.973 115.672 165.682 117.973 165.682 117.973H166.952C167.354 117.973 168.624 120.367 168.624 120.367C168.624 120.367 169.976 120.527 170.296 121.245C170.615 121.962 169.661 130.868 169.661 130.868L166.477 140.971L163.897 154.97L150.837 147.942L153.464 139.238Z" fill="#FFBE9D"/>
<path d="M153.464 139.237C153.459 139.287 153.449 139.335 153.433 139.382C153.402 139.49 153.36 139.63 153.309 139.815C153.188 140.214 153.016 140.782 152.793 141.518C152.344 143.02 151.694 145.202 150.873 147.963L150.837 147.875L163.913 154.867L163.747 154.95C164.532 150.703 165.399 145.981 166.327 140.95C167.359 137.72 168.391 134.33 169.506 130.847C169.578 130.14 169.651 129.382 169.728 128.623C169.883 127.029 170.022 125.45 170.125 123.892C170.172 123.112 170.223 122.344 170.192 121.58C170.189 121.41 170.133 121.244 170.034 121.106C169.934 120.968 169.795 120.863 169.635 120.806C169.31 120.646 168.962 120.54 168.603 120.491H168.536L168.505 120.429C168.173 119.809 167.809 119.206 167.416 118.623C167.319 118.483 167.212 118.351 167.096 118.226C167.071 118.199 167.044 118.175 167.014 118.154C166.996 118.135 166.975 118.121 166.952 118.112C166.875 118.104 166.797 118.104 166.72 118.112H165.636L165.6 118.081L163.113 116.017L162.504 115.501C162.328 115.323 162.112 115.191 161.874 115.114C161.384 114.987 160.879 114.93 160.373 114.944C160.12 114.944 159.857 114.944 159.614 114.944C159.381 114.95 159.149 114.991 158.928 115.068C158.535 115.344 158.2 115.694 157.942 116.1C157.401 116.896 156.915 117.729 156.487 118.592C155.328 119.573 154.207 120.507 153.123 121.394C152.607 121.828 152.029 122.276 151.518 122.648C151.34 122.899 151.251 123.202 151.265 123.51C151.255 123.824 151.28 124.139 151.338 124.449V124.506L151.296 124.542C150.78 124.996 150.331 125.45 149.908 125.909C149.485 126.368 149.547 127.018 149.723 127.54L149.759 127.648H149.655C149.587 127.715 149.54 127.801 149.521 127.896C149.481 128.008 149.452 128.124 149.434 128.241C149.385 128.478 149.349 128.718 149.325 128.959C149.274 129.428 149.243 129.893 149.227 130.347C149.204 130.782 149.204 131.217 149.227 131.652C149.319 132.045 149.46 132.424 149.645 132.782C150.357 134.196 151.08 135.362 151.658 136.296L153.009 138.443L153.36 138.995C153.404 139.057 153.441 139.123 153.474 139.191C153.474 139.191 153.427 139.134 153.34 139.01L152.968 138.469C152.643 137.994 152.168 137.282 151.575 136.348C150.982 135.414 150.249 134.284 149.511 132.844C149.312 132.473 149.162 132.078 149.067 131.668C149.035 131.226 149.027 130.784 149.041 130.342C149.041 129.887 149.083 129.418 149.129 128.938C149.153 128.694 149.189 128.451 149.238 128.21C149.259 128.085 149.289 127.961 149.325 127.839C149.351 127.777 149.372 127.715 149.403 127.648C149.421 127.608 149.448 127.572 149.48 127.543C149.513 127.514 149.552 127.491 149.594 127.478L149.532 127.596C149.42 127.301 149.364 126.988 149.367 126.673C149.364 126.496 149.395 126.321 149.459 126.157C149.528 126.003 149.625 125.863 149.743 125.744C150.177 125.274 150.646 124.82 151.136 124.361L151.105 124.454C151.047 124.129 151.019 123.799 151.023 123.468C151.011 123.109 151.12 122.757 151.332 122.467C151.895 122.049 152.406 121.642 152.953 121.188C154.031 120.3 155.146 119.361 156.302 118.381L156.271 118.417C156.7 117.541 157.189 116.696 157.736 115.888C158.013 115.447 158.379 115.068 158.809 114.774C159.065 114.685 159.334 114.643 159.604 114.65C159.857 114.65 160.12 114.624 160.373 114.624C160.905 114.608 161.437 114.669 161.952 114.805C162.087 114.845 162.217 114.902 162.339 114.975C162.451 115.053 162.557 115.137 162.659 115.228L163.268 115.744L165.765 117.808L165.682 117.777H166.714C166.809 117.767 166.904 117.767 166.998 117.777C167.062 117.788 167.12 117.817 167.169 117.859C167.207 117.891 167.243 117.926 167.277 117.963C167.402 118.095 167.518 118.237 167.623 118.386C168.024 118.978 168.394 119.592 168.732 120.223L168.629 120.156C169.024 120.204 169.408 120.319 169.764 120.496C169.959 120.589 170.134 120.719 170.28 120.878C170.419 121.05 170.492 121.266 170.486 121.487C170.507 122.27 170.486 123.054 170.425 123.835C170.321 125.383 170.182 126.977 170.027 128.577C169.95 129.335 169.872 130.099 169.805 130.801C168.711 134.284 167.638 137.674 166.622 140.904C165.682 145.935 164.8 150.656 164.011 154.898L163.98 155.053L163.84 154.975L150.801 147.916L150.744 147.886V147.829C151.591 145.089 152.261 142.922 152.726 141.43L153.242 139.728L153.381 139.289C153.408 139.27 153.435 139.253 153.464 139.237Z" fill="#EB996E"/>
<path d="M167.767 124.593C167.56 124.646 167.343 124.651 167.133 124.606C166.924 124.561 166.727 124.469 166.56 124.335C166.18 124.077 165.855 123.747 165.6 123.365C165.255 122.929 164.964 122.452 164.733 121.946C164.559 121.411 164.5 120.844 164.563 120.285C164.557 119.826 164.632 119.37 164.785 118.938C164.899 118.644 165.096 118.389 165.352 118.205C165.538 118.081 165.667 118.066 165.672 118.081C165.341 118.303 165.093 118.628 164.965 119.005C164.843 119.422 164.791 119.856 164.81 120.29C164.767 120.812 164.824 121.338 164.981 121.838C165.207 122.322 165.482 122.782 165.801 123.21C166.033 123.575 166.324 123.897 166.663 124.165C166.989 124.399 167.369 124.547 167.767 124.593Z" fill="#EB996E"/>
<path d="M169.067 129.841C168.71 129.826 168.359 129.74 168.035 129.588C167.669 129.465 167.322 129.291 167.003 129.072C166.61 128.785 166.289 128.41 166.064 127.978C165.69 127.184 165.573 126.293 165.729 125.429C165.754 125.07 165.851 124.719 166.013 124.397C166.004 124.743 165.971 125.088 165.915 125.429C165.823 126.251 165.957 127.082 166.302 127.834C166.705 128.552 167.343 129.111 168.108 129.418C168.436 129.539 168.757 129.68 169.067 129.841Z" fill="#EB996E"/>
<path d="M165.063 138.34C164.448 137.286 163.758 136.277 162.999 135.321C162.176 134.424 161.291 133.584 160.352 132.808C160.69 132.942 161.006 133.128 161.286 133.36C161.995 133.877 162.639 134.476 163.206 135.146C163.772 135.815 164.258 136.547 164.656 137.328C164.847 137.64 164.985 137.982 165.063 138.34Z" fill="#EB996E"/>
<path d="M165.796 137.044C165.75 137.044 165.703 136.668 165.445 136.126C165.1 135.422 164.599 134.806 163.98 134.325C163.35 133.845 162.676 133.425 161.967 133.071C161.658 132.935 161.367 132.762 161.1 132.555C161.432 132.613 161.752 132.723 162.05 132.88C162.798 133.191 163.503 133.598 164.145 134.093C164.797 134.598 165.306 135.265 165.621 136.028C165.777 136.342 165.838 136.696 165.796 137.044Z" fill="#EB996E"/>
<path d="M163.882 141.162C163.882 141.162 163.763 141.472 163.366 141.828C162.861 142.292 162.232 142.598 161.555 142.71C160.879 142.822 160.185 142.734 159.558 142.457C159.083 142.24 158.851 142.008 158.871 141.988C159.128 142.07 159.379 142.166 159.625 142.277C160.228 142.488 160.875 142.545 161.506 142.441C162.137 142.337 162.732 142.077 163.237 141.683C163.649 141.384 163.845 141.136 163.882 141.162Z" fill="#EB996E"/>
<path d="M155.982 118.923C156.605 118.441 157.274 118.021 157.979 117.669C158.276 117.525 158.598 117.437 158.928 117.411C159.32 117.417 159.705 117.509 160.058 117.679C161.711 118.371 163.207 119.391 164.454 120.677C164.876 121.067 165.2 121.552 165.399 122.091C165.506 122.517 165.545 122.958 165.512 123.396C165.512 124.428 165.495 125.45 165.461 126.461C165.479 126.823 165.423 127.185 165.295 127.524C165.194 127.714 165.051 127.877 164.876 128.003C164.702 128.128 164.501 128.211 164.289 128.247C164.077 128.282 163.86 128.268 163.654 128.207C163.449 128.145 163.26 128.037 163.102 127.891" fill="#FFBE9D"/>
<path d="M163.102 127.891C163.304 128.042 163.536 128.146 163.784 128.195C164.072 128.237 164.367 128.192 164.63 128.066C164.802 127.991 164.953 127.875 165.07 127.729C165.186 127.582 165.266 127.409 165.301 127.225C165.357 126.751 165.378 126.273 165.363 125.796C165.363 125.269 165.363 124.712 165.363 124.124C165.398 123.521 165.379 122.917 165.306 122.318C165.131 121.703 164.783 121.152 164.305 120.729C163.42 119.826 162.413 119.053 161.312 118.432C160.832 118.162 160.336 117.922 159.826 117.715C159.406 117.508 158.926 117.461 158.474 117.581C157.815 117.797 157.194 118.114 156.632 118.52C156.425 118.678 156.202 118.813 155.966 118.923C156.155 118.746 156.356 118.583 156.57 118.437C157.122 117.987 157.749 117.638 158.422 117.405C158.654 117.326 158.9 117.296 159.145 117.318C159.405 117.346 159.661 117.41 159.903 117.509C160.433 117.714 160.95 117.952 161.451 118.221C162.581 118.843 163.614 119.627 164.516 120.548C165.031 121.005 165.403 121.602 165.584 122.266C165.658 122.886 165.674 123.511 165.631 124.134C165.631 124.722 165.6 125.28 165.59 125.801C165.599 126.293 165.564 126.785 165.486 127.271C165.441 127.48 165.345 127.675 165.207 127.838C165.07 128.002 164.895 128.129 164.697 128.21C164.406 128.335 164.083 128.368 163.773 128.303C163.583 128.262 163.406 128.175 163.257 128.051C163.139 127.968 163.097 127.896 163.102 127.891Z" fill="#EB996E"/>
<path d="M159.903 130.847C160.269 131.224 160.743 131.476 161.26 131.569C161.776 131.661 162.309 131.589 162.783 131.363C162.865 130.331 162.948 129.299 163.025 128.267C163.102 127.751 163.073 127.224 162.937 126.719C162.796 126.37 162.601 126.044 162.359 125.754C161.505 124.563 160.562 123.438 159.537 122.39C159.15 121.844 158.571 121.463 157.917 121.324C157.262 121.184 156.578 121.296 156.002 121.637C154.079 122.457 152.328 123.633 150.842 125.104" fill="#FFBE9D"/>
<path d="M150.822 125.109C150.822 125.109 150.868 125.037 150.976 124.924C151.085 124.81 151.245 124.645 151.461 124.438C152.083 123.87 152.749 123.352 153.453 122.89C153.942 122.571 154.447 122.276 154.965 122.008C155.56 121.689 156.186 121.429 156.833 121.234C157.204 121.138 157.592 121.138 157.963 121.234C158.338 121.336 158.689 121.511 158.995 121.75C159.607 122.262 160.173 122.827 160.688 123.437C161.25 124.093 161.761 124.753 162.236 125.398C162.487 125.712 162.713 126.045 162.912 126.394C163.087 126.75 163.173 127.143 163.164 127.54C163.087 129.026 162.937 130.305 162.85 131.363V131.42H162.808C162.449 131.586 162.057 131.667 161.661 131.657C161.266 131.648 160.878 131.547 160.528 131.363C160.339 131.266 160.165 131.143 160.012 130.997C159.914 130.894 159.872 130.832 159.877 130.827C160.09 130.998 160.32 131.147 160.564 131.27C160.899 131.432 161.267 131.516 161.64 131.516C162.012 131.516 162.38 131.432 162.715 131.27L162.664 131.348C162.726 130.29 162.85 128.979 162.912 127.54C162.923 127.182 162.843 126.826 162.679 126.508C162.485 126.172 162.264 125.853 162.019 125.553C161.534 124.913 161.023 124.253 160.471 123.608C159.968 123.012 159.418 122.458 158.825 121.951C158.546 121.717 158.223 121.542 157.875 121.435C157.545 121.35 157.199 121.35 156.869 121.435C156.24 121.62 155.63 121.865 155.048 122.168C154.49 122.442 153.985 122.731 153.536 123.009C152.829 123.455 152.153 123.948 151.513 124.485C151.293 124.705 151.063 124.913 150.822 125.109Z" fill="#EB996E"/>
<path d="M155.915 130.687C155.956 130.687 155.946 131.012 155.631 131.343C155.237 131.755 154.78 132.103 154.279 132.375C153.589 132.807 152.786 133.023 151.972 132.994C152.718 132.762 153.446 132.476 154.15 132.137C154.629 131.87 155.08 131.556 155.497 131.198C155.659 131.048 155.799 130.876 155.915 130.687Z" fill="#EB996E"/>
<path d="M155.409 129.64C155.498 129.88 155.649 130.092 155.848 130.254C156.047 130.415 156.286 130.521 156.539 130.558C156.525 130.926 156.593 131.292 156.738 131.629C156.884 131.967 157.103 132.267 157.38 132.509C157.583 132.706 157.847 132.828 158.128 132.855C158.691 132.855 159.098 132.339 159.387 131.869C159.728 131.301 160.043 130.718 160.332 130.125C160.419 130.023 160.484 129.905 160.523 129.777C160.562 129.648 160.574 129.514 160.558 129.381C160.542 129.248 160.498 129.119 160.43 129.004C160.362 128.889 160.27 128.789 160.161 128.711C159.473 128.023 158.768 127.335 158.046 126.647C157.744 126.314 157.382 126.043 156.978 125.847C156.383 125.685 155.756 125.685 155.161 125.847C153.195 126.193 151.394 126.642 149.712 127.726" fill="#FFBE9D"/>
<path d="M149.686 127.695C149.686 127.695 149.743 127.638 149.862 127.555C150.036 127.432 150.217 127.319 150.404 127.215C151.086 126.834 151.807 126.528 152.555 126.301C153.666 125.964 154.804 125.724 155.956 125.584C156.305 125.554 156.657 125.598 156.988 125.713C157.324 125.858 157.629 126.067 157.886 126.327L159.434 127.875L159.95 128.391C160.136 128.562 160.308 128.746 160.466 128.943C160.54 129.06 160.587 129.192 160.604 129.33C160.621 129.467 160.607 129.607 160.564 129.738C160.493 129.969 160.394 130.191 160.27 130.398L159.666 131.58C159.48 131.962 159.233 132.311 158.933 132.612C158.775 132.76 158.584 132.868 158.376 132.927C158.172 132.978 157.957 132.964 157.762 132.886C157.428 132.731 157.142 132.488 156.936 132.184C156.595 131.71 156.43 131.131 156.472 130.548L156.529 130.62C156.334 130.589 156.148 130.517 155.982 130.411C155.816 130.304 155.673 130.165 155.564 130.001C155.506 129.919 155.461 129.828 155.429 129.733C155.429 129.671 155.404 129.635 155.429 129.635C155.455 129.635 155.486 129.759 155.641 129.96C155.873 130.245 156.205 130.43 156.57 130.476H156.632V130.548C156.615 131.093 156.787 131.626 157.117 132.06C157.305 132.33 157.564 132.542 157.865 132.674C158.027 132.731 158.203 132.738 158.369 132.695C158.535 132.652 158.685 132.56 158.799 132.432C159.081 132.128 159.309 131.779 159.475 131.4C159.681 131.023 159.888 130.631 160.104 130.228C160.321 129.826 160.548 129.377 160.311 129.036C160.167 128.85 160.006 128.678 159.831 128.52L159.315 128.004L157.767 126.456C157.534 126.219 157.259 126.027 156.957 125.889C156.659 125.782 156.343 125.742 156.028 125.77C154.893 125.898 153.77 126.115 152.669 126.42C151.925 126.629 151.201 126.905 150.507 127.246C150.243 127.412 149.969 127.562 149.686 127.695Z" fill="#EB996E"/>
<path d="M155.749 130.801C155.749 130.832 155.605 130.945 155.306 131.012C154.91 131.086 154.502 131.059 154.119 130.935C153.58 130.792 153.09 130.507 152.7 130.109C152.746 130.027 153.381 130.409 154.196 130.677C154.546 130.789 154.913 130.84 155.28 130.827C155.559 130.811 155.734 130.765 155.749 130.801Z" fill="#EB996E"/>
<path d="M131.27 190.125C131.27 190.125 131.27 190.048 131.27 189.893C131.27 189.738 131.27 189.491 131.296 189.191C131.376 188.299 131.549 187.417 131.812 186.56C132.244 185.202 132.802 183.887 133.479 182.633C134.237 181.152 135.244 179.537 136.281 177.716C137.351 175.689 138.256 173.581 138.99 171.41C139.846 169.093 140.698 166.565 141.895 164.026C144.196 158.923 146.539 153.19 149 147.158L149.057 147.019L149.186 147.091L152.432 148.809L164.604 155.27L164.692 155.316V155.419C163.99 157.968 163.335 160.435 162.762 162.814C162.473 164 162.208 165.165 161.967 166.307C161.73 167.447 161.503 168.567 161.245 169.64C160.729 171.792 160.213 173.804 159.883 175.714C159.552 177.623 159.129 179.367 158.727 180.946C157.917 184.093 157.179 186.575 156.663 188.273C156.4 189.114 156.193 189.764 156.054 190.218C155.982 190.43 155.93 190.595 155.889 190.734L155.827 190.905C155.835 190.845 155.849 190.786 155.868 190.729L156.007 190.213C156.142 189.759 156.333 189.104 156.575 188.258C157.065 186.55 157.788 184.068 158.577 180.915C158.964 179.336 159.377 177.597 159.697 175.688C160.017 173.779 160.533 171.751 161.033 169.599C161.286 168.526 161.508 167.416 161.745 166.271C161.983 165.125 162.261 163.959 162.53 162.767C163.097 160.383 163.753 157.912 164.449 155.363L164.511 155.507L152.354 149.057L149.114 147.339L149.299 147.272C146.817 153.309 144.485 159.036 142.168 164.135C140.966 166.663 140.104 169.176 139.243 171.498C138.494 173.674 137.575 175.788 136.492 177.819C135.46 179.64 134.428 181.24 133.654 182.711C132.973 183.954 132.405 185.256 131.957 186.601C131.684 187.45 131.492 188.322 131.384 189.207C131.384 189.506 131.348 189.723 131.332 189.904C131.317 190.084 131.27 190.125 131.27 190.125Z" fill="#263238"/>
<path d="M139.924 192.091C139.222 192.329 138.407 191.787 138.107 190.889C137.808 189.991 138.133 189.073 138.84 188.825C139.547 188.577 140.357 189.129 140.656 190.027C140.956 190.925 140.626 191.859 139.924 192.091Z" fill="#263238"/>
<path d="M147.06 178.407C147.175 178.559 147.245 178.74 147.263 178.929C147.281 179.119 147.247 179.309 147.163 179.48C146.941 179.925 146.559 180.268 146.093 180.442C145.628 180.615 145.114 180.605 144.655 180.414C144.481 180.34 144.33 180.218 144.22 180.064C144.11 179.909 144.044 179.727 144.031 179.537C144.017 179.177 144.133 178.824 144.356 178.541C144.556 178.262 144.835 178.048 145.156 177.927C145.478 177.809 145.828 177.787 146.162 177.865C146.515 177.936 146.833 178.128 147.06 178.407Z" fill="#263238"/>
<path d="M149.475 192.742C149.136 192.784 148.792 192.722 148.49 192.562C148.187 192.402 147.942 192.153 147.786 191.849C147.631 191.544 147.573 191.199 147.621 190.861C147.669 190.522 147.82 190.207 148.054 189.957C148.287 189.708 148.592 189.537 148.927 189.467C149.262 189.397 149.61 189.432 149.923 189.567C150.237 189.702 150.502 189.931 150.681 190.222C150.86 190.513 150.946 190.852 150.925 191.194C150.936 191.591 150.79 191.976 150.518 192.266C150.247 192.556 149.872 192.727 149.475 192.742Z" fill="#263238"/>
<path d="M156.425 169.516C156.563 169.638 156.667 169.793 156.728 169.967C156.79 170.14 156.806 170.326 156.776 170.507C156.732 170.721 156.646 170.925 156.522 171.105C156.398 171.286 156.24 171.44 156.056 171.558C155.871 171.676 155.666 171.757 155.45 171.794C155.234 171.832 155.013 171.826 154.8 171.776C154.623 171.725 154.462 171.63 154.331 171.5C154.201 171.37 154.105 171.21 154.052 171.033C153.954 170.694 153.968 170.332 154.093 170.001C154.179 169.712 154.361 169.461 154.609 169.289C154.871 169.132 155.178 169.068 155.481 169.109C155.832 169.139 156.163 169.282 156.425 169.516Z" fill="#263238"/>
<path d="M149.258 161.508C149.409 161.785 149.472 162.102 149.438 162.416C149.404 162.73 149.274 163.026 149.067 163.264C148.86 163.503 148.585 163.672 148.278 163.749C147.972 163.827 147.65 163.809 147.354 163.698C147.058 163.586 146.804 163.388 146.625 163.128C146.445 162.868 146.35 162.559 146.351 162.243C146.352 161.927 146.45 161.619 146.631 161.361C146.812 161.102 147.068 160.905 147.364 160.796C147.71 160.64 148.103 160.628 148.458 160.761C148.813 160.895 149.101 161.163 149.258 161.508Z" fill="#263238"/>
<path d="M156.209 158.226C156.074 158.386 155.894 158.502 155.692 158.557C155.49 158.612 155.276 158.605 155.079 158.536C154.477 158.358 153.948 157.991 153.572 157.489C153.195 156.987 152.991 156.377 152.989 155.749C152.978 155.541 153.031 155.334 153.141 155.156C153.251 154.978 153.412 154.838 153.603 154.754C153.79 154.703 153.985 154.694 154.176 154.727C154.367 154.76 154.548 154.834 154.707 154.945C155.11 155.182 155.461 155.498 155.739 155.873C156.021 156.24 156.226 156.659 156.343 157.107C156.403 157.292 156.422 157.488 156.399 157.681C156.376 157.875 156.311 158.061 156.209 158.226Z" fill="#263238"/>
<path d="M138.402 164.955C138.655 165.216 138.804 165.561 138.819 165.925C138.852 166.282 138.784 166.641 138.624 166.962C138.463 167.283 138.217 167.553 137.911 167.741C137.611 167.951 137.243 168.041 136.879 167.994C136.689 167.96 136.513 167.873 136.369 167.744C136.226 167.614 136.122 167.447 136.069 167.261C135.93 166.762 135.981 166.228 136.213 165.764C136.444 165.3 136.84 164.938 137.323 164.749C137.504 164.678 137.701 164.66 137.892 164.696C138.083 164.733 138.259 164.822 138.402 164.955Z" fill="#263238"/>
<path d="M140.352 156.487C140.136 156.715 139.856 156.871 139.55 156.935C139.243 157 138.924 156.97 138.634 156.85C138.345 156.729 138.099 156.523 137.929 156.26C137.759 155.996 137.673 155.688 137.683 155.374C137.692 155.061 137.797 154.758 137.982 154.505C138.167 154.252 138.425 154.062 138.721 153.959C139.017 153.856 139.337 153.845 139.64 153.928C139.942 154.011 140.212 154.184 140.414 154.423C140.679 154.705 140.822 155.081 140.81 155.468C140.799 155.855 140.634 156.222 140.352 156.487Z" fill="#263238"/>
<path d="M143.169 143.448C143.861 143.174 144.81 143.923 145.285 145.125C145.76 146.327 145.595 147.519 144.903 147.793C144.212 148.066 143.267 147.318 142.788 146.121C142.308 144.924 142.483 143.742 143.169 143.448Z" fill="#263238"/>
<path d="M147.096 137.638C147.183 137.94 147.175 138.262 147.074 138.56C146.974 138.859 146.784 139.119 146.532 139.307C146.279 139.494 145.975 139.601 145.661 139.612C145.346 139.622 145.036 139.537 144.771 139.367C144.506 139.197 144.3 138.95 144.179 138.659C144.058 138.369 144.028 138.048 144.094 137.74C144.16 137.433 144.318 137.152 144.548 136.937C144.777 136.721 145.067 136.58 145.378 136.534C145.752 136.454 146.143 136.525 146.464 136.732C146.786 136.939 147.013 137.264 147.096 137.638Z" fill="#263238"/>
<path d="M195.445 64.2935C194.986 64.2818 194.534 64.1728 194.119 63.9736C194.554 63.8213 195.017 63.7633 195.476 63.8033C196.219 63.8033 196.813 63.9426 196.802 64.1283C196.792 64.3141 196.183 64.3864 195.445 64.2935Z" fill="#263238"/>
<path d="M194.155 66.8685C193.639 66.3267 193.288 65.8365 193.345 65.7694C193.402 65.7023 193.918 66.0429 194.491 66.5125C195.064 66.982 195.43 67.4774 195.301 67.6167C195.172 67.756 194.661 67.4155 194.155 66.8685Z" fill="#263238"/>
<path d="M191.508 68.0139C191.44 67.5587 191.47 67.0942 191.596 66.6516C191.821 67.0532 191.956 67.4985 191.993 67.9571C192.133 68.6898 192.091 69.2987 191.906 69.3193C191.72 69.34 191.544 68.7569 191.508 68.0139Z" fill="#263238"/>
<path d="M188.742 67.1884C189.191 66.6001 189.614 66.1564 189.687 66.2028C189.607 66.6529 189.431 67.0805 189.171 67.4567C188.804 68.1068 188.381 68.5506 188.226 68.4474C188.072 68.3442 188.294 67.7818 188.742 67.1884Z" fill="#263238"/>
<path d="M187.158 64.7838C187.594 64.6347 188.058 64.5836 188.515 64.6341C188.157 64.9225 187.742 65.1334 187.298 65.2533C186.606 65.5165 185.997 65.5836 185.941 65.4081C185.884 65.2327 186.436 64.9489 187.158 64.7838Z" fill="#263238"/>
<path d="M187.489 61.9199C188.149 62.2605 188.66 62.5959 188.624 62.6733C188.164 62.6668 187.71 62.563 187.293 62.3689C186.596 62.1212 186.085 61.7858 186.157 61.6103C186.23 61.4349 186.828 61.5794 187.489 61.9199Z" fill="#263238"/>
<path d="M189.584 59.9385C189.804 60.3413 189.936 60.7863 189.971 61.244C189.893 61.2853 189.522 60.7951 189.145 60.1552C188.768 59.5154 188.593 58.9323 188.758 58.8497C188.923 58.7672 189.295 59.2522 189.584 59.9385Z" fill="#263238"/>
<path d="M192.468 59.7631C192.375 60.2146 192.189 60.6416 191.921 61.017C191.845 60.5617 191.868 60.0953 191.988 59.6496C192.107 58.9169 192.349 58.3544 192.535 58.4009C192.721 58.4473 192.68 59.0562 192.468 59.7631Z" fill="#263238"/>
<path d="M194.78 61.4814C194.42 61.7686 194.003 61.9761 193.557 62.0903C193.505 62.0232 193.923 61.5743 194.486 61.0893C195.048 60.6042 195.595 60.3308 195.703 60.4804C195.812 60.63 195.399 61.079 194.78 61.4814Z" fill="#263238"/>
<path d="M137.947 87.751C137.49 87.7183 137.042 87.6011 136.626 87.4053C137.066 87.2718 137.526 87.221 137.984 87.2557C138.727 87.2557 139.32 87.4001 139.305 87.6014C139.289 87.8026 138.68 87.8697 137.947 87.751Z" fill="#263238"/>
<path d="M136.322 90.1347C136.062 89.7558 135.873 89.3327 135.765 88.886C135.827 88.8447 136.281 89.2833 136.73 89.8561C137.179 90.4288 137.452 90.9913 137.282 91.1048C137.112 91.2183 136.683 90.7849 136.322 90.1347Z" fill="#263238"/>
<path d="M133.443 90.3566C133.577 89.9174 133.79 89.5064 134.072 89.144C134.108 89.6021 134.055 90.0627 133.918 90.5011C133.763 91.2235 133.479 91.7705 133.288 91.7137C133.097 91.657 133.164 91.0429 133.443 90.3566Z" fill="#263238"/>
<path d="M131.477 88.2361C131.905 88.0696 132.359 87.9805 132.818 87.9729C132.479 88.2837 132.085 88.5302 131.657 88.7005C130.997 89.0307 130.393 89.1494 130.316 88.9636C130.238 88.7779 130.765 88.4528 131.477 88.2361Z" fill="#263238"/>
<path d="M131.9 85.3878C132.295 85.6165 132.645 85.9156 132.932 86.2702C132.477 86.2002 132.04 86.0462 131.642 85.8161C130.971 85.5065 130.502 85.1092 130.61 84.9337C130.718 84.7583 131.291 84.9647 131.9 85.3878Z" fill="#263238"/>
<path d="M134.392 83.9377C134.465 84.392 134.451 84.8559 134.351 85.3051C134.129 84.904 133.977 84.4676 133.902 84.0151C133.727 83.2927 133.747 82.6786 133.943 82.6477C134.139 82.6167 134.346 83.1946 134.392 83.9377Z" fill="#263238"/>
<path d="M137.086 84.98C136.776 85.3197 136.405 85.5981 135.992 85.8005C136.166 85.3654 136.42 84.9665 136.74 84.624C137.194 84.0358 137.684 83.6694 137.834 83.8036C137.984 83.9377 137.633 84.4847 137.086 84.98Z" fill="#263238"/>
<path d="M207.339 71.4918C206.891 71.4109 206.452 71.2865 206.029 71.1202C206.477 71.0473 206.931 71.0162 207.386 71.0273C208.129 71.0273 208.722 71.177 208.701 71.3989C208.681 71.6208 208.062 71.662 207.339 71.4918Z" fill="#263238"/>
<path d="M205.368 73.2719C205.309 72.8204 205.293 72.3642 205.322 71.9097C205.529 72.3173 205.702 72.742 205.838 73.179C206.08 73.8756 206.106 74.4949 205.889 74.5413C205.672 74.5877 205.445 73.9943 205.368 73.2719Z" fill="#263238"/>
<path d="M203.103 71.9408C203.513 71.7427 203.942 71.5838 204.382 71.4661C204.068 71.792 203.723 72.0858 203.35 72.3433C202.757 72.7922 202.179 73.0037 202.071 72.8128C201.962 72.6219 202.422 72.2401 203.103 71.9408Z" fill="#263238"/>
<path d="M203.65 69.3658C203.966 69.6942 204.248 70.0538 204.491 70.4391C204.086 70.2327 203.7 69.9891 203.34 69.7116C202.731 69.2885 202.349 68.8034 202.494 68.6383C202.638 68.4732 203.165 68.8034 203.65 69.3658Z" fill="#263238"/>
<path d="M206.266 69.0871C206.051 69.488 205.797 69.8665 205.507 70.2172C205.579 69.7681 205.689 69.3261 205.838 68.8962C206.054 68.1893 206.395 67.6733 206.596 67.7662C206.797 67.8591 206.648 68.4525 206.266 69.0871Z" fill="#263238"/>
<path d="M147.922 119.537C147.674 119.571 147.424 119.587 147.174 119.583C146.688 119.583 145.992 119.583 145.11 119.583C143.386 119.583 141.007 119.511 138.402 119.418L131.694 119.175L129.63 119.098C129.379 119.103 129.128 119.084 128.881 119.041C129.128 119 129.379 118.984 129.63 118.995C130.115 118.995 130.811 118.995 131.694 118.995C133.417 118.995 135.796 119.067 138.402 119.155L145.11 119.397L147.174 119.475C147.424 119.47 147.675 119.491 147.922 119.537Z" fill="#263238"/>
<path d="M147.395 117.044C147.364 117.111 144.397 115.925 140.765 114.392C137.132 112.86 134.206 111.554 134.232 111.487C134.258 111.42 137.23 112.607 140.868 114.144C144.506 115.682 147.426 116.977 147.395 117.044Z" fill="#263238"/>
<path d="M147.653 122.328C146.507 123.11 145.31 123.817 144.072 124.444C142.874 125.146 141.633 125.773 140.357 126.322C141.505 125.54 142.703 124.833 143.943 124.206C145.138 123.5 146.377 122.873 147.653 122.328Z" fill="#263238"/>
</svg>
