<svg width="237" height="237" viewBox="0 0 237 237" fill="none" xmlns="http://www.w3.org/2000/svg">
<path d="M118.4 225.454C181.252 225.454 232.203 195.834 232.203 159.297C232.203 122.76 181.252 93.1411 118.4 93.1411C55.549 93.1411 4.59778 122.76 4.59778 159.297C4.59778 195.834 55.549 225.454 118.4 225.454Z" fill="#F5F5F5"/>
<path d="M147.021 220.884L220.491 178.48C221.647 177.812 221.647 176.726 220.491 176.058L100.616 106.854C99.965 106.524 99.2457 106.353 98.5162 106.353C97.7866 106.353 97.0673 106.524 96.4163 106.854L22.9463 149.263C21.7898 149.931 21.7898 151.016 22.9463 151.685L142.821 220.884C143.472 221.214 144.191 221.385 144.921 221.385C145.65 221.385 146.37 221.214 147.021 220.884Z" fill="#E0E0E0"/>
<path d="M80.708 205.934C92.6924 205.934 102.408 200.325 102.408 193.406C102.408 186.487 92.6924 180.878 80.708 180.878C68.7235 180.878 59.0082 186.487 59.0082 193.406C59.0082 200.325 68.7235 205.934 80.708 205.934Z" fill="#E0E0E0"/>
<path d="M30.6915 140.972L33.7488 138.318C33.7488 138.318 34.147 129.407 31.8528 121.903C28.6154 111.352 20.7423 108.674 18.2253 110.124C15.7084 111.575 15.5377 114.864 21.24 120.415C24.5959 123.714 29.3596 130.947 30.6915 140.972Z" fill="#FF725E"/>
<g opacity="0.15">
<path opacity="0.15" d="M30.6915 140.972L33.7488 138.318C33.7488 138.318 34.147 129.407 31.8528 121.903C28.6154 111.352 20.7423 108.674 18.2253 110.124C15.7084 111.575 15.5377 114.864 21.24 120.415C24.5959 123.714 29.3596 130.947 30.6915 140.972Z" fill="black"/>
</g>
<path d="M32.232 136.114H32.1988C32.1342 136.117 32.0712 136.094 32.0233 136.05C31.9754 136.007 31.9466 135.946 31.9429 135.882C31.3978 125.61 25.2595 115.395 19.908 111.836C19.8811 111.818 19.8579 111.796 19.8397 111.77C19.8215 111.743 19.8088 111.714 19.8022 111.682C19.7955 111.651 19.7952 111.619 19.8012 111.587C19.8071 111.556 19.8193 111.526 19.8369 111.499C19.8743 111.446 19.9306 111.41 19.9942 111.397C20.0578 111.385 20.1237 111.398 20.1782 111.433C25.6529 115.054 31.9002 125.425 32.4453 135.863C32.447 135.924 32.4262 135.983 32.3868 136.029C32.3474 136.076 32.2923 136.106 32.232 136.114Z" fill="white"/>
<path d="M27.1839 147.912C26.909 148.471 24.9751 148.353 24.4632 148.357C23.5797 148.355 22.7116 148.126 21.9415 147.694C21.0717 147.202 20.3786 146.449 19.9602 145.542C19.7346 145.064 19.546 144.57 19.3961 144.063C19.2302 143.589 19.069 143.077 18.9221 142.589C18.796 142.091 18.5684 141.625 18.2538 141.219C17.5712 140.446 16.4194 140.366 15.4098 140.318C14.2722 140.266 12.9781 140.058 12.2908 139.038C11.809 138.21 11.6141 137.245 11.7363 136.294C11.8026 135.346 12.0064 134.398 12.0064 133.45C12.042 132.762 11.8431 132.082 11.4424 131.521C11.1585 131.202 10.8115 130.945 10.4233 130.767C9.58217 130.417 8.77059 130.001 7.9964 129.521C7.2617 128.975 6.69764 128.07 6.9062 127.179C7.02783 126.825 7.21875 126.499 7.46778 126.22C7.71682 125.941 8.01899 125.714 8.35664 125.553C8.98297 125.23 9.67195 125.048 10.3759 125.018C12.6037 124.818 14.8267 126.103 17.0119 125.624C17.8367 125.376 18.6443 125.074 19.4293 124.719C19.8242 124.544 20.2512 124.454 20.683 124.454C21.1148 124.454 21.5418 124.544 21.9367 124.719C23.4251 125.548 23.3113 127.89 24.6622 128.923C25.8567 129.838 27.3119 129.506 28.677 130.132C29.26 130.424 29.7348 130.894 30.0327 131.473C30.5907 132.414 30.9715 133.448 31.156 134.526C31.3093 135.662 31.3917 136.807 31.4025 137.953L27.1839 147.912Z" fill="#FF725E"/>
<path d="M29.7719 142.437C29.7449 142.455 29.7148 142.466 29.6831 142.472C29.6515 142.478 29.6191 142.477 29.5877 142.47C29.5564 142.463 29.5268 142.45 29.5006 142.431C29.4745 142.412 29.4523 142.389 29.4354 142.361C24.3304 134.152 14.566 127.9 10.0867 127.193C10.0554 127.189 10.0254 127.178 9.9983 127.162C9.97125 127.145 9.94775 127.123 9.9292 127.098C9.91064 127.072 9.89741 127.043 9.89027 127.012C9.88313 126.982 9.88223 126.95 9.88763 126.918C9.89227 126.887 9.90306 126.857 9.91939 126.829C9.93573 126.802 9.95728 126.778 9.98281 126.759C10.0084 126.741 10.0374 126.727 10.0682 126.719C10.0991 126.711 10.1311 126.71 10.1626 126.715C14.7272 127.435 24.648 133.782 29.862 142.11C29.8929 142.166 29.9008 142.231 29.884 142.292C29.8671 142.353 29.8269 142.405 29.7719 142.437Z" fill="white"/>
<path d="M21.8467 133.554C21.8265 133.568 21.804 133.577 21.7803 133.583C19.5332 134.351 17.3764 135.362 15.3482 136.597C15.2935 136.63 15.2278 136.641 15.1656 136.626C15.1034 136.61 15.0497 136.571 15.0164 136.517C14.9983 136.49 14.9859 136.46 14.9799 136.428C14.9739 136.396 14.9745 136.364 14.9816 136.332C14.9887 136.301 15.0022 136.271 15.0212 136.245C15.0402 136.219 15.0644 136.197 15.0922 136.18C17.1568 134.925 19.3517 133.899 21.6381 133.118C21.6686 133.109 21.7007 133.105 21.7325 133.108C21.7643 133.111 21.7952 133.12 21.8234 133.135C21.8516 133.15 21.8766 133.171 21.8968 133.196C21.9171 133.22 21.9323 133.249 21.9415 133.279C21.9569 133.329 21.956 133.383 21.939 133.432C21.9219 133.482 21.8896 133.524 21.8467 133.554Z" fill="white"/>
<path d="M159.975 103.308L156.065 101.052L159.975 99.9238V103.308Z" fill="#FF725E"/>
<path opacity="0.6" d="M159.975 103.308L156.065 101.052L159.975 99.9238V103.308Z" fill="black"/>
<path d="M140.389 111.233V114.831L117.846 101.787V98.189L140.389 111.233Z" fill="#FF725E"/>
<path opacity="0.6" d="M140.389 111.233V114.831L117.846 101.787V98.189L140.389 111.233Z" fill="black"/>
<path d="M115.888 69.967L138.432 83.0115V112.362L115.888 99.3171V69.967Z" fill="#FF725E"/>
<path opacity="0.55" d="M115.888 69.967L138.432 83.0115V112.362L115.888 99.3171V69.967Z" fill="black"/>
<path d="M138.432 83.0114L163.886 68.3174V97.6675L138.432 112.361V83.0114Z" fill="#FF725E"/>
<path opacity="0.45" d="M138.432 83.0114L163.886 68.3174V97.6675L138.432 112.361V83.0114Z" fill="black"/>
<path d="M163.886 68.3174L141.337 55.2729L115.888 69.967L138.432 83.0114L163.886 68.3174Z" fill="#FF725E"/>
<path opacity="0.3" d="M163.886 68.3174L141.337 55.2729L115.888 69.967L138.432 83.0114L163.886 68.3174Z" fill="black"/>
<path d="M140.389 84.1396L161.928 71.7019V78.4754L140.389 90.9131V84.1396Z" fill="#FF725E"/>
<path opacity="0.2" d="M140.389 84.1396L161.928 71.7019V78.4754L140.389 90.9131V84.1396Z" fill="black"/>
<path opacity="0.2" d="M140.389 93.1692L161.928 80.7314V96.5346L140.389 108.977V93.1692Z" fill="black"/>
<path d="M140.389 114.831L142.342 113.703V110.105L140.389 111.233V114.831Z" fill="#FF725E"/>
<path opacity="0.55" d="M140.389 114.831L142.342 113.703V110.105L140.389 111.233V114.831Z" fill="black"/>
<path d="M159.975 103.308L161.928 102.18V98.7957L159.975 99.9238V103.308Z" fill="#FF725E"/>
<path opacity="0.55" d="M159.975 103.308L161.928 102.18V98.7957L159.975 99.9238V103.308Z" fill="black"/>
<path d="M147.063 81.7126C147.063 82.0255 148.011 81.7363 149.149 81.0727L152.799 78.9634C153.95 78.2998 154.884 77.5082 154.884 77.1954V76.6313L147.063 81.1486V81.7126Z" fill="#37474F"/>
<path opacity="0.2" d="M161.928 96.5345L148.334 88.5808L140.389 93.1691V108.977L161.928 96.5345Z" fill="black"/>
<path d="M147.713 62.8713C147.713 62.7375 147.698 62.604 147.67 62.4732C147.348 61.0028 146.481 59.709 145.243 58.8518H140.167C138.932 59.712 138.066 61.0045 137.74 62.4732C137.711 62.6038 137.698 62.7375 137.702 62.8713C137.702 62.895 137.702 62.9424 137.702 62.9424C137.749 63.6439 138.233 64.336 139.162 64.8716C140.259 65.4279 141.472 65.7179 142.703 65.7179C143.933 65.7179 145.146 65.4279 146.243 64.8716C147.191 64.336 147.665 63.6439 147.699 62.9424C147.705 62.9191 147.71 62.8953 147.713 62.8713Z" fill="#263238"/>
<path d="M140.304 58.776C138.977 59.5438 138.977 60.7857 140.304 61.5536C141.05 61.9321 141.875 62.1294 142.712 62.1294C143.549 62.1294 144.374 61.9321 145.12 61.5536C146.447 60.7857 146.447 59.5438 145.12 58.776C144.374 58.3974 143.549 58.2002 142.712 58.2002C141.875 58.2002 141.05 58.3974 140.304 58.776Z" fill="#37474F"/>
<path d="M143.399 41.8352H142.015V59.6292C142.012 59.696 142.03 59.7621 142.066 59.8188C142.101 59.8754 142.153 59.92 142.214 59.9467C142.365 60.0237 142.533 60.0639 142.702 60.0639C142.872 60.0639 143.039 60.0237 143.191 59.9467C143.252 59.92 143.304 59.8754 143.339 59.8188C143.375 59.7621 143.392 59.696 143.39 59.6292L143.399 41.8352Z" fill="#263238"/>
<path d="M152.581 41.2379L147.935 29.3879H137.46L132.81 41.2379C132.147 43.0913 133.057 45.0963 135.55 46.5373C139.489 48.8125 145.878 48.8125 149.817 46.5373C152.329 45.0963 153.244 43.0913 152.581 41.2379Z" fill="#FF725E"/>
<path opacity="0.4" d="M152.581 41.2379L147.935 29.3879H137.46L132.81 41.2379C132.147 43.0913 133.057 45.0963 135.55 46.5373C139.489 48.8125 145.878 48.8125 149.817 46.5373C152.329 45.0963 153.244 43.0913 152.581 41.2379Z" fill="white"/>
<path d="M142.707 33.1277C145.663 33.1277 148.059 31.7441 148.059 30.0373C148.059 28.3304 145.663 26.9468 142.707 26.9468C139.752 26.9468 137.356 28.3304 137.356 30.0373C137.356 31.7441 139.752 33.1277 142.707 33.1277Z" fill="#FF725E"/>
<path opacity="0.7" d="M142.707 33.1277C145.663 33.1277 148.059 31.7441 148.059 30.0373C148.059 28.3304 145.663 26.9468 142.707 26.9468C139.752 26.9468 137.356 28.3304 137.356 30.0373C137.356 31.7441 139.752 33.1277 142.707 33.1277Z" fill="white"/>
<path d="M142.707 32.3647C141.565 32.3911 140.436 32.1234 139.427 31.5873C138.664 31.1465 138.242 30.5966 138.242 30.0326C138.242 29.4685 138.664 28.9234 139.427 28.4826C140.444 27.9715 141.567 27.7053 142.705 27.7053C143.843 27.7053 144.966 27.9715 145.983 28.4826C146.75 28.9234 147.168 29.4733 147.168 30.0326C147.168 30.5919 146.75 31.1465 145.983 31.5873C144.976 32.1236 143.848 32.3914 142.707 32.3647Z" fill="#FF725E"/>
<path opacity="0.4" d="M142.707 32.3647C141.565 32.3911 140.436 32.1234 139.427 31.5873C138.664 31.1465 138.242 30.5966 138.242 30.0326C138.242 29.4685 138.664 28.9234 139.427 28.4826C140.444 27.9715 141.567 27.7053 142.705 27.7053C143.843 27.7053 144.966 27.9715 145.983 28.4826C146.75 28.9234 147.168 29.4733 147.168 30.0326C147.168 30.5919 146.75 31.1465 145.983 31.5873C144.976 32.1236 143.848 32.3914 142.707 32.3647Z" fill="white"/>
<path opacity="0.2" d="M142.707 32.3647C141.565 32.3911 140.436 32.1234 139.427 31.5873C138.664 31.1465 138.242 30.5966 138.242 30.0326C138.242 29.4685 138.664 28.9234 139.427 28.4826C140.444 27.9715 141.567 27.7053 142.705 27.7053C143.843 27.7053 144.966 27.9715 145.983 28.4826C146.75 28.9234 147.168 29.4733 147.168 30.0326C147.168 30.5919 146.75 31.1465 145.983 31.5873C144.976 32.1236 143.848 32.3914 142.707 32.3647Z" fill="black"/>
<path opacity="0.1" d="M133.052 70.9244C133.052 72.1615 131.156 73.1664 128.828 73.1664C126.501 73.1664 124.61 72.1615 124.61 70.9244C124.61 69.6873 126.506 68.6824 128.828 68.6824C131.151 68.6824 133.052 69.6778 133.052 70.9244Z" fill="black"/>
<path d="M124.264 63.7432C122.614 63.7432 121.083 63.7432 120.908 64.7623C120.733 65.7814 121.382 68.8671 122.297 69.6587C123.212 70.4503 125.368 70.1327 125.368 70.1327V69.1278C124.669 69.1891 123.964 69.1347 123.283 68.9667C122.562 68.7012 122.055 65.6107 122.055 65.2505C122.055 64.8902 124.425 64.9661 124.425 64.9661L124.264 63.7432Z" fill="#E6E6E6"/>
<path d="M124.103 62.1791C124.212 61.7051 124.667 61.2785 125.473 60.9324C127.64 60.1241 130.026 60.1241 132.194 60.9324C133 61.2832 133.45 61.724 133.559 62.1838H133.587C133.9 65.1842 133.36 68.6634 132.289 70.5878C132.29 70.6004 132.29 70.6131 132.289 70.6257V70.6589C132.074 71.0063 131.772 71.2908 131.412 71.4837C130.622 71.8847 129.748 72.0936 128.862 72.0936C127.975 72.0936 127.102 71.8847 126.312 71.4837C125.95 71.2904 125.648 71.004 125.435 70.6542V70.6305V70.5831C124.368 68.6586 123.837 65.1795 124.155 62.1791H124.103Z" fill="#F5F5F5"/>
<path d="M125.473 60.9324C123.614 61.7382 123.614 63.0417 125.473 63.8522C127.642 64.6579 130.029 64.6579 132.199 63.8522C134.057 63.0464 134.057 61.7382 132.199 60.9324C130.03 60.1228 127.641 60.1228 125.473 60.9324Z" fill="#FAFAFA"/>
<path d="M126.122 61.4397C124.624 61.9658 124.619 62.819 126.122 63.3357C127.892 63.8646 129.779 63.8646 131.549 63.3357C133.047 62.8095 133.047 61.9563 131.549 61.4397C129.779 60.9107 127.892 60.9107 126.122 61.4397Z" fill="#E6E6E6"/>
<path d="M126.117 62.5915C125.851 62.6802 125.599 62.8063 125.368 62.966C125.598 63.1291 125.85 63.257 126.117 63.3452C127.888 63.8741 129.774 63.8741 131.545 63.3452C131.811 63.2584 132.064 63.1322 132.293 62.9707C132.065 62.8066 131.812 62.6787 131.545 62.5915C129.774 62.0626 127.888 62.0626 126.117 62.5915Z" fill="#37474F"/>
<path d="M128.103 59.6716C126.61 58.5151 125.804 56.5717 126.762 54.633C127.719 52.6944 129.544 51.3861 128.629 49.9641C128.629 49.9641 130.691 51.0022 130.179 53.0735C129.497 55.818 127.193 56.273 128.103 59.6716Z" fill="#E0E0E0"/>
<path d="M129.203 59.6716C129.203 59.6716 128.729 57.9131 129.525 56.747C130.322 55.581 131.421 54.9363 131.45 53.6091C131.45 53.6091 132.573 54.96 131.791 56.4531C131.009 57.9462 129.502 58.0884 129.203 59.6716Z" fill="#E0E0E0"/>
<path d="M136.513 75.5461L136.485 75.4798C136.477 75.4607 136.465 75.4431 136.452 75.4276C136.399 75.3461 136.329 75.2767 136.248 75.2238V75.4324L136.072 75.3281V75.1195C135.802 75.0035 135.51 74.948 135.216 74.957C134.922 74.966 134.633 75.0393 134.371 75.1717C134.212 75.2499 134.088 75.383 134.02 75.5461C134.022 75.5587 134.022 75.5715 134.02 75.584C134.015 75.6186 134.015 75.6537 134.02 75.6883V76.1007C134.02 76.2011 134.051 76.299 134.11 76.3803C134.186 76.4795 134.281 76.5618 134.39 76.6221C134.668 76.7625 134.974 76.8356 135.286 76.8356C135.597 76.8356 135.904 76.7625 136.182 76.6221C136.285 76.5763 136.374 76.5038 136.439 76.4122C136.505 76.3205 136.545 76.213 136.556 76.1007V75.6883C136.549 75.639 136.535 75.591 136.513 75.5461Z" fill="#F0F0F0"/>
<path d="M135.655 74.9915C135.215 74.9039 134.759 74.9673 134.361 75.1716C134.202 75.2499 134.078 75.3829 134.01 75.5461C134.012 75.5586 134.012 75.5714 134.01 75.584C134.005 75.6186 134.005 75.6537 134.01 75.6883V76.1006C134.01 76.201 134.041 76.299 134.1 76.3803C134.175 76.4794 134.271 76.5618 134.38 76.622C134.779 76.8247 135.235 76.8865 135.674 76.7974L135.655 74.9915Z" fill="#E6E6E6"/>
<path d="M134.36 75.1724C133.886 75.4378 133.886 75.8644 134.275 76.1536L136.062 75.1203C135.791 75.0042 135.499 74.9487 135.205 74.9577C134.911 74.9667 134.623 75.04 134.36 75.1724Z" fill="#F5F5F5"/>
<path d="M134.275 76.0437C134.275 76.0437 133.801 75.6645 134.332 75.1905C134.24 75.2279 134.16 75.2905 134.102 75.3712C134.044 75.452 134.01 75.5474 134.004 75.6466C133.998 75.7458 134.02 75.8446 134.068 75.9317C134.116 76.0187 134.188 76.0905 134.275 76.1385L136.062 75.1052L134.275 76.0437Z" fill="white"/>
<path d="M136.237 75.2236L134.455 76.257C134.724 76.3729 135.016 76.4284 135.309 76.4194C135.602 76.4104 135.89 76.3371 136.152 76.2048C136.621 75.9394 136.649 75.5128 136.237 75.2236Z" fill="#F5F5F5"/>
<path d="M134.455 76.257C134.724 76.3729 135.016 76.4284 135.309 76.4194C135.602 76.4104 135.89 76.3371 136.152 76.2048C136.204 76.1767 136.253 76.1433 136.299 76.1053C136.049 76.2403 135.773 76.3218 135.49 76.3447C135.207 76.3675 134.922 76.3312 134.654 76.238L136.237 75.2236L134.455 76.257Z" fill="white"/>
<path d="M136.062 75.3279L134.275 76.366V76.1527L136.062 75.1194V75.3279Z" fill="#E0E0E0"/>
<path opacity="0.2" d="M134.455 76.2571V76.4656L134.275 76.3661L134.455 76.2571Z" fill="black"/>
<path d="M138.109 77.6838L138.076 77.6175C138.07 77.5987 138.06 77.5811 138.048 77.5653C137.994 77.4849 137.924 77.4157 137.844 77.3615V77.5701L137.664 77.4658V77.262C137.394 77.146 137.103 77.0906 136.81 77.0996C136.516 77.1086 136.229 77.1818 135.967 77.3141C135.807 77.3909 135.682 77.5244 135.616 77.6886C135.616 77.6886 135.616 77.7123 135.616 77.7265C135.612 77.7611 135.612 77.7962 135.616 77.8308V78.2479C135.618 78.3472 135.651 78.4434 135.711 78.5228C135.785 78.6231 135.881 78.7056 135.991 78.7646C136.268 78.9049 136.575 78.9781 136.886 78.9781C137.198 78.9781 137.505 78.9049 137.782 78.7646C137.884 78.7187 137.973 78.6469 138.039 78.5562C138.104 78.4656 138.145 78.3593 138.157 78.2479V77.8308C138.149 77.7795 138.133 77.7299 138.109 77.6838Z" fill="#F0F0F0"/>
<path d="M137.261 77.1292C136.822 77.0416 136.366 77.105 135.967 77.3093C135.807 77.3861 135.682 77.5196 135.616 77.6838C135.616 77.6838 135.616 77.7075 135.616 77.7217C135.612 77.7563 135.612 77.7914 135.616 77.826V78.2431C135.618 78.3424 135.651 78.4386 135.711 78.518C135.785 78.6183 135.881 78.7008 135.991 78.7597C136.39 78.9624 136.846 79.0242 137.285 78.9351L137.261 77.1292Z" fill="#E6E6E6"/>
<path d="M135.967 77.3092C135.493 77.5747 135.493 78.0013 135.882 78.2904L137.664 77.2571C137.394 77.1411 137.103 77.0857 136.81 77.0947C136.516 77.1037 136.229 77.1769 135.967 77.3092Z" fill="#F5F5F5"/>
<path d="M135.882 78.1814C135.882 78.1814 135.408 77.8022 135.934 77.3282C135.842 77.3661 135.763 77.4291 135.705 77.5101C135.648 77.5911 135.614 77.6866 135.609 77.7858C135.603 77.885 135.626 77.9836 135.674 78.0704C135.723 78.1572 135.794 78.2286 135.882 78.2762L137.664 77.2429L135.882 78.1814Z" fill="white"/>
<path d="M137.844 77.3616L136.062 78.3949C136.331 78.5109 136.623 78.5663 136.916 78.5573C137.209 78.5483 137.497 78.475 137.759 78.3428C138.223 78.0773 138.252 77.6507 137.844 77.3616Z" fill="#F5F5F5"/>
<path d="M136.062 78.3949C136.331 78.5109 136.623 78.5663 136.916 78.5573C137.209 78.5483 137.497 78.475 137.759 78.3428C137.811 78.3146 137.86 78.2813 137.906 78.2432C137.656 78.3782 137.38 78.4597 137.097 78.4826C136.814 78.5054 136.529 78.4691 136.261 78.3759L137.844 77.3616L136.062 78.3949Z" fill="white"/>
<path d="M137.664 77.4659L135.882 78.5039V78.2906L137.664 77.2573V77.4659Z" fill="#E0E0E0"/>
<path opacity="0.2" d="M136.062 78.3948V78.6081L135.882 78.5038L136.062 78.3948Z" fill="black"/>
<path opacity="0.1" d="M145.343 76.8495C144.579 77.2375 143.734 77.4398 142.878 77.4398C142.021 77.4398 141.177 77.2375 140.413 76.8495C139.053 76.0627 139.053 74.7876 140.413 74.0055C141.177 73.6175 142.021 73.4153 142.878 73.4153C143.734 73.4153 144.579 73.6175 145.343 74.0055C146.703 74.7876 146.703 76.0627 145.343 76.8495Z" fill="black"/>
<path d="M140.015 70.1518C140.039 69.8885 140.133 69.6363 140.287 69.4214C140.442 69.2064 140.65 69.0364 140.892 68.9289C141.549 68.5946 142.276 68.4204 143.013 68.4204C143.75 68.4204 144.477 68.5946 145.134 68.9289C145.372 69.0391 145.577 69.2102 145.728 69.4249C145.878 69.6397 145.97 69.8905 145.992 70.1518V75.2473C145.968 75.5107 145.874 75.7628 145.72 75.9778C145.565 76.1927 145.357 76.3627 145.115 76.4703C144.458 76.8045 143.731 76.9787 142.994 76.9787C142.257 76.9787 141.53 76.8045 140.873 76.4703C140.631 76.3627 140.423 76.1927 140.268 75.9778C140.114 75.7628 140.02 75.5107 139.996 75.2473L140.015 70.1518Z" fill="#FF725E"/>
<path opacity="0.4" d="M141.167 68.7725V76.5982C141.072 76.5508 140.982 76.5081 140.892 76.456C140.719 76.3573 140.559 76.2362 140.418 76.0958V69.2749C140.559 69.1345 140.719 69.0133 140.892 68.9147C140.981 68.8626 141.073 68.8151 141.167 68.7725Z" fill="white"/>
<path opacity="0.4" d="M141.954 76.8494C141.807 76.82 141.663 76.7804 141.522 76.7309V68.6397C141.663 68.5903 141.807 68.5507 141.954 68.5212V76.8494Z" fill="white"/>
<path opacity="0.1" d="M140.067 69.82C140.255 69.5639 140.498 69.3533 140.778 69.2038C141.43 68.8739 142.146 68.6907 142.877 68.667C143.607 68.6432 144.334 68.7795 145.006 69.0663V68.8293L145.148 68.9052C145.387 69.0192 145.591 69.1949 145.739 69.414C145.888 69.6331 145.975 69.8878 145.992 70.1518V71.3226V73.5693V75.2473C145.968 75.5107 145.874 75.7628 145.72 75.9777C145.565 76.1927 145.357 76.3627 145.115 76.4702C144.458 76.8045 143.731 76.9787 142.994 76.9787C142.257 76.9787 141.53 76.8045 140.873 76.4702C140.673 76.3605 140.492 76.2197 140.337 76.0531C140.897 76.5745 142.285 76.8589 143.314 76.6598C144.343 76.4607 144.973 75.7971 144.973 75.3279V74.8776C144.329 75.1998 143.617 75.3624 142.897 75.3516V73.0669C143.613 73.0928 144.325 72.9465 144.973 72.6403V71.9767C144.3 72.2615 143.573 72.3964 142.843 72.3718C142.113 72.3472 141.397 72.1639 140.745 71.8345C140.439 71.6731 140.181 71.4345 139.996 71.1425V70.1518C140.001 70.0381 140.025 69.926 140.067 69.82Z" fill="black"/>
<path opacity="0.1" d="M145.518 75.4463V69.1753C145.666 69.2873 145.788 69.43 145.876 69.5937C145.963 69.7573 146.014 69.938 146.025 70.1233V75.2188C146.001 75.4822 145.907 75.7343 145.753 75.9492C145.599 76.1642 145.39 76.3342 145.148 76.4417C144.792 76.6402 144.407 76.7795 144.006 76.8541C145.12 76.5602 145.518 75.7923 145.518 75.4463Z" fill="black"/>
<path d="M139.83 68.7677C139.857 68.4862 139.959 68.2171 140.126 67.9886C140.293 67.7601 140.518 67.5807 140.778 67.469C141.475 67.1162 142.246 66.9324 143.027 66.9324C143.809 66.9324 144.579 67.1162 145.276 67.469C145.536 67.5807 145.761 67.7601 145.928 67.9886C146.095 68.2171 146.197 68.4862 146.224 68.7677V70.1897C146.198 70.4716 146.096 70.7412 145.929 70.9698C145.762 71.1985 145.537 71.3777 145.276 71.4885C144.579 71.8413 143.809 72.0251 143.027 72.0251C142.246 72.0251 141.475 71.8413 140.778 71.4885C140.518 71.3777 140.292 71.1985 140.125 70.9698C139.958 70.7412 139.856 70.4716 139.83 70.1897V68.7677Z" fill="#E0E0E0"/>
<g opacity="0.2">
<path opacity="0.2" d="M139.911 68.6399H139.759V70.8298H139.911V68.6399Z" fill="black"/>
<path opacity="0.2" d="M140.261 69.2275H140.11V71.4316H140.261V69.2275Z" fill="black"/>
<path opacity="0.2" d="M140.788 69.6353H140.636V71.8488H140.788V69.6353Z" fill="black"/>
<path opacity="0.2" d="M141.394 69.8911H141.243V72.1189H141.394V69.8911Z" fill="black"/>
<path opacity="0.2" d="M142.063 70.0571H141.911V72.2944H142.063V70.0571Z" fill="black"/>
<path opacity="0.2" d="M142.764 70.1423H142.612V72.3938H142.764V70.1423Z" fill="black"/>
<path opacity="0.2" d="M143.48 70.1423H143.328V72.4033H143.48V70.1423Z" fill="black"/>
<path opacity="0.2" d="M144.181 70.0476H144.03V72.3228H144.181V70.0476Z" fill="black"/>
<path opacity="0.2" d="M144.835 69.8579H144.684V72.1426H144.835V69.8579Z" fill="black"/>
<path opacity="0.2" d="M145.428 69.5688H145.276V71.8677H145.428V69.5688Z" fill="black"/>
<path opacity="0.2" d="M145.897 69.1611H145.746V71.4695H145.897V69.1611Z" fill="black"/>
<path opacity="0.2" d="M146.267 68.5071H146.115V70.8297H146.267V68.5071Z" fill="black"/>
</g>
<path opacity="0.1" d="M142.252 71.9577C143.826 71.9577 144.655 71.4553 144.907 71.0382C145.098 70.5683 145.176 70.0601 145.134 69.5546C145.134 69.5546 145.309 68.2321 145.276 68.2321C145.243 68.2321 145.651 68.142 145.959 68.0757C146.107 68.2763 146.188 68.5184 146.191 68.7677V70.1897C146.165 70.4716 146.063 70.7411 145.896 70.9698C145.729 71.1984 145.504 71.3777 145.243 71.4885C144.321 71.9576 143.274 72.1219 142.252 71.9577Z" fill="black"/>
<path d="M145.262 70.0665C144.565 70.4193 143.794 70.6031 143.013 70.6031C142.232 70.6031 141.461 70.4193 140.764 70.0665C139.522 69.3508 139.522 68.1705 140.764 67.469C141.461 67.1162 142.232 66.9324 143.013 66.9324C143.794 66.9324 144.565 67.1162 145.262 67.469C146.504 68.1847 146.504 69.3508 145.262 70.0665Z" fill="#EBEBEB"/>
<path d="M140.593 69.9574C139.527 69.2369 139.584 68.1515 140.764 67.4689C141.436 67.1107 142.187 66.9265 142.949 66.9333C143.357 66.9952 143.75 67.1301 144.11 67.3314C145.186 67.9429 145.186 69.1658 144.11 69.782C143.568 70.0519 142.975 70.2068 142.37 70.237C141.765 70.2672 141.16 70.172 140.593 69.9574Z" fill="#F5F5F5"/>
<path opacity="0.1" d="M144.959 76.3138C144.345 76.5812 143.682 76.7191 143.013 76.7191C142.343 76.7191 141.681 76.5812 141.067 76.3138C139.991 75.7734 139.991 74.8918 141.067 74.3609C141.681 74.0936 142.343 73.9556 143.013 73.9556C143.682 73.9556 144.345 74.0936 144.959 74.3609C146.035 74.8918 146.035 75.7782 144.959 76.3138Z" fill="black"/>
<path d="M145.992 71.4553C145.967 71.7192 145.873 71.9719 145.719 72.1876C145.565 72.4033 145.357 72.5742 145.115 72.683C144.461 73.0275 143.731 73.2004 142.992 73.1854V75.4322C143.731 75.4472 144.461 75.2743 145.115 74.9297C145.357 74.821 145.565 74.6501 145.719 74.4344C145.873 74.2187 145.967 73.966 145.992 73.7021V71.4553Z" fill="white"/>
<path d="M145.949 69.474C145.104 70.1825 144.016 70.5359 142.916 70.4599C140.92 70.403 140.119 69.3128 140.015 68.9763C139.962 68.7769 139.959 68.5675 140.006 68.3666C140.053 68.1657 140.149 67.9795 140.285 67.8245C140.149 67.9428 140.038 68.0882 139.961 68.2513C139.883 68.4145 139.84 68.5919 139.835 68.7725V70.1945C139.835 70.313 139.773 70.7254 140.418 71.2562C140.209 71.0195 140.077 70.7255 140.039 70.4125V69.4645C140.039 69.4645 140.745 70.6448 142.916 70.6448C145.087 70.6448 145.84 69.6494 145.949 69.474Z" fill="white"/>
<path d="M65.412 191.558C65.3219 192.112 65.3219 192.677 65.412 193.231C65.758 194.307 67.4786 195.776 70.152 196.027C72.6215 196.26 74.8209 195.724 76.4846 194.501C78.1484 193.278 80.5705 190.956 81.8835 189.913C83.4477 188.666 84.7275 187.571 85.0451 187.069C85.3626 186.566 85.1588 185.358 85.1588 185.358L65.412 191.558Z" fill="#263238"/>
<path d="M76.1765 193.629C77.7834 192.273 82.1868 188.728 83.6894 187.41C85.192 186.092 85.9267 184.997 84.0307 183.95C82.9983 183.396 81.8337 183.135 80.6636 183.197C79.4935 183.259 78.3629 183.641 77.3947 184.301C75.3233 185.756 67.2227 191.216 67.2227 191.216L76.1765 193.629Z" fill="#37474F"/>
<path d="M69.5121 187.704C71.9484 187.737 73.3752 188.605 74.9441 190.193C75.3989 190.632 75.7465 191.17 75.9602 191.765C76.1739 192.36 76.2479 192.996 76.1765 193.624C75.2218 194.291 74.1384 194.751 72.9957 194.975C71.853 195.198 70.6761 195.181 69.5405 194.923C65.9002 194.146 65.3835 191.828 65.3835 191.828C65.3835 191.828 65.7627 188.244 69.5121 187.704Z" fill="#455A64"/>
<path d="M75.2806 198.132C75.1901 198.688 75.1901 199.254 75.2806 199.81C75.6314 200.886 77.352 202.355 80.0207 202.607C82.4855 202.834 84.6895 202.298 86.3533 201.08C88.017 199.862 90.4344 197.535 91.7474 196.487C93.3164 195.245 94.5914 194.146 94.909 193.643C95.2266 193.141 95.0228 191.932 95.0228 191.932L75.2806 198.132Z" fill="#263238"/>
<path d="M86.0547 200.199C87.6615 198.843 92.065 195.298 93.5676 193.98C95.0701 192.662 95.8048 191.567 93.9041 190.515C92.8712 189.962 91.7064 189.703 90.5364 189.765C89.3664 189.828 88.236 190.21 87.2681 190.87C85.2015 192.321 77.0961 197.781 77.0961 197.781L86.0547 200.199Z" fill="#37474F"/>
<path d="M79.3855 194.274C81.8219 194.312 83.2533 195.179 84.8223 196.762C85.2771 197.202 85.6248 197.741 85.8385 198.337C86.0521 198.933 86.1261 199.57 86.0547 200.199C85.0995 200.864 84.0159 201.323 82.8732 201.546C81.7305 201.769 80.5539 201.751 79.4187 201.493C75.7736 200.72 75.257 198.397 75.257 198.397C75.257 198.397 75.6409 194.814 79.3855 194.274Z" fill="#455A64"/>
<path d="M31.2842 150.756L28.4402 149.111C28.0075 148.829 27.6472 148.449 27.3887 148.002C27.1301 147.555 26.9804 147.053 26.9518 146.537V102.142C26.9812 101.627 27.1311 101.127 27.3897 100.68C27.6482 100.234 28.0081 99.8548 28.4402 99.5732L96.5919 60.1981C97.0516 59.9645 97.5599 59.8428 98.0755 59.8428C98.5912 59.8428 99.0995 59.9645 99.5592 60.1981L102.432 61.8428C102.864 62.1241 103.223 62.5034 103.481 62.9498C103.739 63.3962 103.888 63.8972 103.915 64.4119V108.807C103.889 109.324 103.741 109.827 103.483 110.276C103.225 110.725 102.865 111.107 102.432 111.39L34.2514 150.756C33.7908 150.986 33.2828 151.106 32.7678 151.106C32.2528 151.106 31.7449 150.986 31.2842 150.756Z" fill="#FF725E"/>
<path opacity="0.3" d="M31.2842 150.756L28.4402 149.111C28.0075 148.829 27.6472 148.449 27.3887 148.002C27.1301 147.555 26.9804 147.053 26.9518 146.537V102.142C26.9812 101.627 27.1311 101.127 27.3897 100.68C27.6482 100.234 28.0081 99.8548 28.4402 99.5732L96.5919 60.1981C97.0516 59.9645 97.5599 59.8428 98.0755 59.8428C98.5912 59.8428 99.0995 59.9645 99.5592 60.1981L102.432 61.8428C102.864 62.1241 103.223 62.5034 103.481 62.9498C103.739 63.3962 103.888 63.8972 103.915 64.4119V108.807C103.889 109.324 103.741 109.827 103.483 110.276C103.225 110.725 102.865 111.107 102.432 111.39L34.2514 150.756C33.7908 150.986 33.2828 151.106 32.7678 151.106C32.2528 151.106 31.7449 150.986 31.2842 150.756Z" fill="black"/>
<path d="M103.915 64.4119V108.807C103.889 109.324 103.741 109.827 103.483 110.276C103.225 110.725 102.865 111.107 102.431 111.39L34.2513 150.756C33.4312 151.23 32.7676 150.841 32.7676 149.898V105.503C32.7953 104.988 32.9441 104.486 33.2019 104.039C33.4596 103.592 33.8191 103.211 34.2513 102.929L102.431 63.5539C103.251 63.0799 103.915 63.4639 103.915 64.4119Z" fill="#FF725E"/>
<path opacity="0.45" d="M103.915 64.4119V108.807C103.889 109.324 103.741 109.827 103.483 110.276C103.225 110.725 102.865 111.107 102.431 111.39L34.2513 150.756C33.4312 151.23 32.7676 150.841 32.7676 149.898V105.503C32.7953 104.988 32.9441 104.486 33.2019 104.039C33.4596 103.592 33.8191 103.211 34.2513 102.929L102.431 63.5539C103.251 63.0799 103.915 63.4639 103.915 64.4119Z" fill="black"/>
<path d="M33.91 150.912C33.4831 151.063 33.03 151.125 32.5784 151.094C32.1268 151.063 31.6863 150.94 31.284 150.732L28.4116 149.092C27.9806 148.809 27.6222 148.428 27.3653 147.981C27.1084 147.534 26.9602 147.033 26.9327 146.518V102.142C26.9483 101.627 27.0969 101.124 27.364 100.682L33.2037 104.038C32.9366 104.48 32.788 104.983 32.7724 105.498V149.893C32.7724 150.704 33.2558 151.102 33.91 150.912Z" fill="#FF725E"/>
<path opacity="0.55" d="M33.91 150.912C33.4831 151.063 33.03 151.125 32.5784 151.094C32.1268 151.063 31.6863 150.94 31.284 150.732L28.4116 149.092C27.9806 148.809 27.6222 148.428 27.3653 147.981C27.1084 147.534 26.9602 147.033 26.9327 146.518V102.142C26.9483 101.627 27.0969 101.124 27.364 100.682L33.2037 104.038C32.9366 104.48 32.788 104.983 32.7724 105.498V149.893C32.7724 150.704 33.2558 151.102 33.91 150.912Z" fill="black"/>
<path d="M151.822 197.829L144.949 193.866C144.719 193.749 144.465 193.688 144.207 193.688C143.95 193.688 143.695 193.749 143.466 193.866L136.593 197.834C136.372 197.969 136.19 198.16 136.066 198.388C136.042 198.432 136.021 198.478 136.005 198.526C135.91 198.709 135.857 198.912 135.848 199.118V210.267C135.863 210.512 135.932 210.751 136.051 210.966C136.17 211.181 136.335 211.366 136.536 211.508C136.553 211.524 136.573 211.538 136.593 211.551L143.466 215.523C143.489 215.523 143.527 215.523 143.551 215.556C143.635 215.597 143.722 215.631 143.812 215.656C143.941 215.684 144.073 215.699 144.205 215.699C144.464 215.702 144.719 215.642 144.949 215.523L151.822 211.551C152.038 211.41 152.218 211.221 152.347 210.998C152.477 210.774 152.552 210.524 152.566 210.267V199.113C152.552 198.856 152.477 198.605 152.347 198.382C152.218 198.159 152.038 197.97 151.822 197.829Z" fill="#455A64"/>
<path d="M144.949 215.523L151.822 211.551C152.038 211.41 152.218 211.22 152.347 210.997C152.477 210.774 152.552 210.524 152.566 210.266V199.113C152.566 198.639 152.23 198.45 151.822 198.687L144.949 202.654C144.733 202.795 144.553 202.984 144.424 203.207C144.295 203.431 144.22 203.681 144.205 203.938V215.092C144.205 215.566 144.537 215.755 144.949 215.523Z" fill="#37474F"/>
<path d="M214.694 161.511L207.821 157.543C207.591 157.426 207.337 157.365 207.079 157.365C206.821 157.365 206.567 157.426 206.337 157.543L199.459 161.511C199.241 161.648 199.061 161.839 198.938 162.065C198.912 162.111 198.892 162.158 198.876 162.208C198.781 162.389 198.727 162.59 198.72 162.795V174.484C198.734 174.729 198.803 174.968 198.922 175.183C199.041 175.398 199.207 175.584 199.407 175.726C199.423 175.742 199.441 175.756 199.459 175.769L206.337 179.205C206.361 179.205 206.394 179.205 206.422 179.238C206.506 179.279 206.593 179.313 206.683 179.338C206.812 179.366 206.944 179.381 207.076 179.381C207.335 179.387 207.592 179.326 207.821 179.205L214.694 175.233C214.908 175.093 215.086 174.905 215.215 174.683C215.343 174.462 215.418 174.214 215.433 173.958V162.795C215.419 162.538 215.345 162.288 215.216 162.065C215.088 161.842 214.909 161.652 214.694 161.511Z" fill="#455A64"/>
<path d="M207.821 179.205L214.694 175.233C214.908 175.093 215.086 174.905 215.215 174.683C215.343 174.462 215.418 174.214 215.433 173.958V162.795C215.433 162.321 215.096 162.132 214.689 162.369L207.816 166.336C207.6 166.477 207.42 166.667 207.291 166.89C207.161 167.113 207.086 167.363 207.072 167.621V178.774C207.076 179.248 207.408 179.442 207.821 179.205Z" fill="#37474F"/>
<path d="M103.806 94.4636L35.7349 133.806C34.8696 134.368 34.1494 135.127 33.633 136.021C33.1165 136.915 32.8184 137.918 32.7629 138.949V141.769C32.823 142.796 33.1236 143.795 33.6407 144.685C34.1578 145.576 34.8767 146.332 35.7396 146.893L141.252 207.802C142.172 208.269 143.19 208.513 144.222 208.513C145.254 208.513 146.271 208.269 147.191 207.802L215.267 168.46C216.131 167.896 216.85 167.136 217.365 166.243C217.881 165.349 218.179 164.347 218.234 163.317V160.497C218.179 159.466 217.881 158.464 217.365 157.57C216.85 156.677 216.131 155.917 215.267 155.354L109.75 94.4636C108.829 93.9953 107.811 93.7512 106.778 93.7512C105.745 93.7512 104.727 93.9953 103.806 94.4636Z" fill="#455A64"/>
<path d="M218.22 160.52V163.336C218.165 164.366 217.868 165.369 217.353 166.263C216.837 167.156 216.118 167.916 215.253 168.479L147.177 207.821C146.264 208.305 145.243 208.548 144.21 208.527V198.834C145.242 198.856 146.264 198.615 147.177 198.132L215.253 158.79C216.779 157.899 216.883 156.505 215.551 155.553C216.334 156.134 216.978 156.88 217.44 157.739C217.901 158.597 218.167 159.547 218.22 160.52Z" fill="#263238"/>
<path d="M35.7396 137.218C34.1802 136.318 34.1043 134.886 35.5121 133.943C34.7115 134.517 34.0494 135.262 33.5745 136.125C33.0996 136.988 32.8239 137.946 32.7676 138.929V141.75C32.8243 142.78 33.1229 143.783 33.6392 144.676C34.1556 145.57 34.8751 146.329 35.7396 146.893L141.252 207.802C142.166 208.288 143.189 208.533 144.224 208.513V198.833C143.19 198.857 142.167 198.615 141.252 198.132L35.7396 137.218Z" fill="#37474F"/>
<path d="M103.806 78.4043L35.7349 117.746C34.8704 118.31 34.1508 119.069 33.6344 119.963C33.1181 120.856 32.8195 121.859 32.7629 122.889V128.881C32.8195 129.911 33.1181 130.914 33.6344 131.807C34.1508 132.701 34.8704 133.46 35.7349 134.023L141.252 194.932C142.172 195.4 143.19 195.644 144.222 195.644C145.254 195.644 146.271 195.4 147.191 194.932L215.267 155.59C216.132 155.027 216.851 154.268 217.367 153.374C217.882 152.481 218.18 151.478 218.234 150.448V144.456C218.179 143.426 217.881 142.424 217.365 141.53C216.85 140.637 216.131 139.877 215.267 139.313L109.75 78.4043C108.829 77.936 107.811 77.6919 106.778 77.6919C105.745 77.6919 104.727 77.936 103.806 78.4043Z" fill="#FF725E"/>
<path opacity="0.8" d="M35.7349 121.159L141.252 182.068C142.172 182.536 143.19 182.779 144.222 182.779C145.254 182.779 146.271 182.536 147.191 182.068L215.267 142.75C216.907 141.802 216.907 140.266 215.267 139.318L109.75 78.4092C108.83 77.9417 107.812 77.698 106.78 77.698C105.748 77.698 104.731 77.9417 103.811 78.4092L35.7349 117.751C34.0948 118.68 34.0948 120.216 35.7349 121.159Z" fill="white"/>
<path opacity="0.5" d="M218.22 144.461V150.471C218.164 151.501 217.867 152.504 217.351 153.397C216.836 154.291 216.117 155.05 215.253 155.614L147.177 194.933C146.265 195.418 145.243 195.663 144.21 195.644V182.774C145.243 182.796 146.264 182.553 147.177 182.068L215.253 142.726C216.779 141.835 216.883 140.442 215.551 139.489C216.334 140.071 216.979 140.818 217.441 141.677C217.902 142.537 218.168 143.487 218.22 144.461Z" fill="white"/>
<path opacity="0.6" d="M35.7396 121.159C34.1802 120.259 34.1043 118.832 35.5121 117.884C34.7115 118.457 34.0494 119.203 33.5745 120.066C33.0996 120.929 32.8239 121.887 32.7676 122.87V128.881C32.8243 129.911 33.1229 130.914 33.6392 131.807C34.1556 132.701 34.8751 133.46 35.7396 134.023L141.252 194.933C142.166 195.419 143.189 195.664 144.224 195.644V182.774C143.189 182.796 142.166 182.553 141.252 182.068L35.7396 121.159Z" fill="white"/>
<path d="M119.998 90.8659C120.946 87.3393 119.524 85.4955 117.59 82.2202C115.656 78.9448 111.129 72.6074 109.276 69.8962C107.423 67.1849 105.361 64.5163 104.252 64.1418C103.142 63.7673 102.393 63.3218 99.4594 64.3835C96.5253 65.4453 90.4297 69.0619 82.8694 73.2189C75.3091 77.3759 72.2328 79.2908 71.7683 83.3625C71.4792 85.8794 84.7607 108.044 87.9933 108.375C95.1744 109.11 95.7812 107.745 99.7817 105.332C106.456 101.313 111.229 98.3409 115.85 95.2078C117.96 93.7857 119.548 92.5012 119.998 90.8659Z" fill="#F0F0F0"/>
<path d="M75.276 92.2452C77.0345 95.0892 82.1584 102.834 83.9359 105.124C85.7134 107.413 88.8039 110.015 89.5244 107.081C90.2449 104.147 87.4909 100.445 85.6234 97.5302C83.7558 94.6151 78.5418 87.7516 76.8496 85.5096C75.1575 83.2676 72.3372 81.0777 71.6736 83.6989C71.01 86.3202 73.5222 89.3917 75.276 92.2452Z" fill="#E0E0E0"/>
<path d="M86.7135 110.362C87.6615 106.835 86.2395 104.991 84.3056 101.716C82.3717 98.4404 77.845 92.103 75.9917 89.3918C74.1383 86.6805 72.0764 84.0119 70.9673 83.6374C69.8581 83.2629 69.1092 82.8174 66.1751 83.8791C63.2411 84.9409 57.1454 88.5575 49.5851 92.7145C42.0248 96.8715 36.7208 100.052 36.2562 104.124C35.9671 106.641 49.2486 128.81 52.4813 129.137C59.6624 129.876 62.5016 127.241 66.5022 124.828C73.1714 120.808 77.9445 117.837 82.566 114.703C84.6753 113.286 86.268 111.997 86.7135 110.362Z" fill="#F0F0F0"/>
<path d="M39.7686 113.011C41.5224 115.855 46.6464 123.596 48.4239 125.89C50.2014 128.184 53.2918 130.777 54.0123 127.843C54.7328 124.909 51.9789 121.207 50.116 118.291C48.2532 115.376 43.006 108.513 41.3376 106.271C39.6691 104.029 36.8251 101.839 36.1615 104.465C35.4979 107.091 38.0101 110.158 39.7686 113.011Z" fill="#E0E0E0"/>
<path d="M83.4667 113.665C84.6943 118.187 85.2157 122.728 91.1502 127.885C97.0847 133.042 125.018 147.817 125.018 147.817L143.21 126.757L116.097 109.949L106.773 106.11L83.4667 113.665Z" fill="#455A64"/>
<path d="M66.0566 137.934V160.421L144.561 205.925V182.424C143.528 182.443 142.507 182.2 141.593 181.717L66.0566 137.934Z" fill="#FF725E"/>
<path opacity="0.3" d="M66.0566 137.934V160.421L144.561 205.925V182.424C143.528 182.443 142.507 182.2 141.593 181.717L66.0566 137.934Z" fill="black"/>
<path d="M215.258 142.314C216.784 141.423 216.888 140.034 215.556 139.081C216.335 139.661 216.978 140.405 217.438 141.26C217.898 142.115 218.165 143.06 218.22 144.03V163.089L144.57 205.915V182.424C145.603 182.443 146.624 182.2 147.537 181.718L215.258 142.314Z" fill="#FF725E"/>
<path opacity="0.45" d="M215.258 142.314C216.784 141.423 216.888 140.034 215.556 139.081C216.335 139.661 216.978 140.405 217.438 141.26C217.898 142.115 218.165 143.06 218.22 144.03V163.089L144.57 205.915V182.424C145.603 182.443 146.624 182.2 147.537 181.718L215.258 142.314Z" fill="black"/>
<path d="M215.258 138.882L139.716 95.094L115.902 108.968C107.314 107.717 91.3445 118.197 87.6379 125.288L66.0566 137.934L141.593 181.727C142.513 182.192 143.53 182.435 144.561 182.435C145.591 182.435 146.608 182.192 147.528 181.727L215.258 142.323C216.893 141.366 216.893 139.83 215.258 138.882Z" fill="#FF725E"/>
<path opacity="0.2" d="M215.258 138.882L139.716 95.094L115.902 108.968C107.314 107.717 91.3445 118.197 87.6379 125.288L66.0566 137.934L141.593 181.727C142.513 182.192 143.53 182.435 144.561 182.435C145.591 182.435 146.608 182.192 147.528 181.727L215.258 142.323C216.893 141.366 216.893 139.83 215.258 138.882Z" fill="black"/>
<path opacity="0.1" d="M80.727 129.701C82.7367 132.294 87.088 133.896 90.1406 134.701C92.151 135.234 94.2229 135.498 96.3026 135.488C96.2105 137.161 95.8916 138.813 95.3546 140.399C94.9375 141.617 93.3117 143.561 95.1603 144.144C96.5823 144.589 99.0518 143.888 100.507 143.67C102.367 143.39 104.21 143.01 106.029 142.532C107.024 142.271 108.081 141.935 108.702 141.11C109.399 140.162 109.338 138.911 109.518 137.759C109.684 136.678 110.319 135.422 111.527 135.308C110.214 134.569 108.281 134.19 106.816 133.697C104.617 132.957 102.389 132.298 100.18 131.554C95.699 130.04 91.2608 128.41 86.8653 126.662C86.5572 126.539 86.2348 126.411 85.9173 126.293L80.5516 129.435C80.6037 129.525 80.6606 129.615 80.727 129.701Z" fill="black"/>
<path opacity="0.1" d="M215.258 138.882L139.716 95.094L115.902 108.968C122.373 113.082 128.7 115.443 135.299 119.235C138.479 121.064 142.167 124.051 150.225 129.549C152.87 131.35 156.031 133.445 159.373 133.114C161.904 132.862 164.113 131.341 166.549 130.592C167.071 130.403 167.626 130.322 168.18 130.355C170.593 130.606 170.417 133.507 170.455 135.261C170.514 137.973 169.753 140.639 168.27 142.911C167.927 143.394 167.688 143.943 167.568 144.523C167.265 146.333 168.156 147.713 169.882 148.471C171.607 149.23 190.131 156.937 193.43 155.036L215.234 142.314C216.888 141.371 216.888 139.83 215.258 138.882Z" fill="black"/>
<path opacity="0.1" d="M143.726 155.344C142.364 154.519 141.023 153.663 139.702 152.775C139.185 152.429 136.858 150.903 136.261 150.381C137.981 151.14 139.683 151.926 141.38 152.727C143.243 153.609 145.125 154.448 147.04 155.202C149.613 156.211 153.889 158.117 156.107 155.406C157.43 153.789 157.055 151.433 157.529 149.395C158.003 147.357 161.52 140.636 157.055 140.176C156.502 140.144 155.947 140.223 155.425 140.408C152.993 141.162 150.779 142.679 148.248 142.93C144.902 143.262 141.532 141.446 139.1 139.365C136.21 136.976 133.11 134.854 129.838 133.023C129.568 132.872 129.592 132.981 129.364 132.767C130.779 133.31 132.147 133.966 133.455 134.73C134.455 135.317 135.412 135.962 136.412 136.545C138.285 137.663 140.217 138.677 142.2 139.583C144.162 140.521 146.329 140.948 148.499 140.825C151.04 140.598 153.363 139.365 155.733 138.427C156.637 137.993 157.637 137.796 158.638 137.853C160.221 138.057 161.549 140.043 161.482 141.579C161.482 141.626 161.482 141.674 161.482 141.721C161.184 144.314 160.748 146.883 160.506 149.481C160.362 150.251 160.446 151.047 160.748 151.77C160.993 152.149 161.315 152.472 161.694 152.717C162.074 152.963 162.501 153.124 162.947 153.192C163.819 153.391 164.734 153.424 165.587 153.699C165.701 153.726 165.804 153.787 165.881 153.875C166.014 154.064 165.881 154.32 165.744 154.505C164.918 155.505 163.858 156.287 162.658 156.78C161.482 157.321 160.24 157.7 159.051 158.202C158.142 158.658 157.189 159.02 156.207 159.283C155.572 159.387 154.93 159.435 154.287 159.425C153.173 159.425 150.997 159.425 147.651 157.595C146.286 156.894 144.997 156.117 143.726 155.344Z" fill="black"/>
<path opacity="0.2" d="M77.1862 144.347V166.877L78.5797 167.64L78.575 145.153L77.1862 144.347Z" fill="black"/>
<path opacity="0.1" d="M77.1862 144.347L97.0942 132.682C101.564 127.264 118.244 114.125 127.459 115.144L150.855 101.507L152.306 102.356L129.013 115.907C119.785 116.381 106.475 124.913 98.5683 133.445L78.5797 145.139L77.1862 144.347Z" fill="black"/>
<path d="M125.61 103.422C123.444 104.138 119.401 104.157 115.58 101.427C111.139 98.2557 103.778 92.8947 103.778 92.8947C103.778 92.8947 95.9898 81.0779 98.4024 80.6655C100.211 80.4142 102.051 80.5369 103.81 81.0261C105.568 81.5153 107.208 82.3606 108.627 83.5095C111.471 85.908 124.709 99.2037 124.709 99.2037L125.61 103.422Z" fill="#FFA8A7"/>
<path d="M103.759 92.8708C103.759 92.8708 111.12 98.2554 115.561 101.403C119.382 104.133 123.425 104.114 125.591 103.398L124.69 99.1324C124.69 99.1324 111.48 85.794 108.65 83.424C107.233 82.2511 105.58 81.3964 103.804 80.918C102.028 80.4396 100.17 80.3486 98.355 80.6511C95.9566 81.1203 103.759 92.8708 103.759 92.8708Z" fill="#FF725E"/>
<path opacity="0.1" d="M103.759 92.8708C103.759 92.8708 111.12 98.2554 115.561 101.403C119.382 104.133 123.425 104.114 125.591 103.398L124.69 99.1324C124.69 99.1324 111.48 85.794 108.65 83.424C107.233 82.2511 105.58 81.3964 103.804 80.918C102.028 80.4396 100.17 80.3486 98.355 80.6511C95.9566 81.1203 103.759 92.8708 103.759 92.8708Z" fill="black"/>
<path opacity="0.2" d="M109.338 84.1398L103.128 83.9502L102.815 87.126C102.815 87.126 105.152 87.3914 106.859 87.6995C108.641 87.9911 110.254 88.9314 111.385 90.3397C112.807 91.975 114.846 95.639 116.855 98.4546C118.017 100.162 119.529 101.602 121.292 102.678L121.965 96.4401C119.595 94.0701 116.097 90.6099 113.205 87.7991C113.054 87.8465 109.338 84.1398 109.338 84.1398Z" fill="black"/>
<path d="M109.598 107.257L106.209 103.522L105.806 99.0236C107.103 97.8947 107.946 96.3344 108.18 94.6316C108.415 92.9288 108.024 91.1988 107.081 89.7616C105.228 86.7517 104.109 85.8274 102.631 84.3201C100.332 81.988 99.2225 81.0258 98.3645 80.6418C96.9125 80.7223 95.4671 80.8949 94.0369 81.1585L87.0454 82.1586L81.7366 83.6138C80.4426 90.3399 79.3666 96.5588 80.3667 103.683C81.7176 113.073 82.7889 115.907 86.2917 122.088C86.8795 117.069 95.6485 111.86 99.3078 110.186C105.588 107.319 109.598 107.257 109.598 107.257Z" fill="#455A64"/>
<path d="M95.985 53.7138L92.904 54.0361C89.7235 54.3489 86.6046 54.5101 83.8317 56.2734C81.4136 57.8083 79.6763 60.2123 78.9779 62.99C78.0299 66.9147 79.5514 71.1759 81.8598 74.0152C82.6415 75.082 83.5172 76.0766 84.4763 76.9872C85.4243 77.8214 86.3296 78.5135 86.9553 78.594L86.7942 75.9586C88.1839 76.6192 89.7187 76.916 91.2545 76.8213L93.6245 76.7028C94.6836 76.6429 95.7192 76.3674 96.668 75.893C97.6167 75.4186 98.4586 74.7554 99.1419 73.9441C99.8602 73.1051 100.486 72.1913 101.009 71.2186C101.374 70.5597 101.265 69.844 101.559 69.1757C101.894 68.4737 102.274 67.7945 102.697 67.1422C103.262 66.2915 103.677 65.3505 103.925 64.3598C104.176 63.3442 104.041 62.2715 103.545 61.3499C103.042 60.6358 102.295 60.1301 101.446 59.9279C103.247 58.2594 103.664 54.657 100.972 53.6048C100.187 53.3715 99.3596 53.3244 98.5541 53.4673L95.985 53.7138Z" fill="#263238"/>
<path d="M98.2318 59.25C99.6538 59.9657 102.071 63.26 102.351 70.3985C102.583 76.4515 100.716 78.0678 99.7581 78.5608C98.8006 79.0537 96.8904 78.9068 95.0181 78.7124L95.0702 81.656C98.0043 84.974 92.8614 85.6281 88.9935 84.026C88.4389 83.7937 87.0738 82.6372 87.0549 82.1632L86.742 74.7688C86.2508 75.0137 85.6935 75.0929 85.1535 74.9947C84.6135 74.8964 84.1198 74.6259 83.7463 74.2237C82.3575 72.6926 81.8835 70.389 82.9927 69.1139C84.1018 67.8389 86.031 68.2418 86.9885 69.4884C86.9885 69.4884 88.0882 68.3461 91.8707 65.9524C95.6532 63.5587 97.6867 61.9708 98.2318 59.25Z" fill="#FFA8A7"/>
<path d="M86.9648 69.4887L86.9885 72.3326C87.2553 72.3308 87.5191 72.2763 87.7649 72.1723C88.0106 72.0684 88.2334 71.9169 88.4206 71.7267C88.6077 71.5365 88.7554 71.3113 88.8554 71.0639C88.9553 70.8165 89.0055 70.5518 89.003 70.285L88.9746 66.8674L86.9648 69.4887Z" fill="#263238"/>
<path d="M100.626 68.4077C100.516 68.8532 100.152 68.8248 99.6775 68.7158C99.2035 68.6068 98.8907 68.4551 98.9997 68.0095C99.0195 67.8969 99.0622 67.7896 99.1251 67.6942C99.1881 67.5988 99.27 67.5174 99.3658 67.455C99.4615 67.3925 99.5691 67.3505 99.6818 67.3313C99.7945 67.3122 99.9099 67.3165 100.021 67.3438C100.132 67.3711 100.236 67.421 100.327 67.4903C100.418 67.5596 100.494 67.6468 100.549 67.7465C100.605 67.8463 100.64 67.9565 100.651 68.0702C100.663 68.1839 100.651 68.2988 100.616 68.4077H100.626Z" fill="#263238"/>
<path d="M94.8 68.6117C94.9801 69.0525 94.7194 69.2468 94.2786 69.427C93.8378 69.6071 93.3828 69.7114 93.2027 69.2705C93.1594 69.1657 93.1372 69.0533 93.1374 68.9398C93.1376 68.8264 93.1601 68.7141 93.2036 68.6093C93.2472 68.5045 93.311 68.4094 93.3913 68.3293C93.4717 68.2492 93.567 68.1857 93.6719 68.1424C93.7768 68.0992 93.8892 68.077 94.0026 68.0771C94.1161 68.0773 94.2284 68.0998 94.3332 68.1434C94.4379 68.187 94.5331 68.2508 94.6132 68.3311C94.6933 68.4115 94.7568 68.5068 94.8 68.6117Z" fill="#263238"/>
<path d="M99.3931 64.7627L100.972 65.7723C100.911 65.8783 100.83 65.9708 100.732 66.0441C100.635 66.1175 100.524 66.1703 100.405 66.1991C100.287 66.2279 100.164 66.2323 100.043 66.2119C99.9231 66.1915 99.8083 66.1467 99.706 66.0804C99.4954 65.9423 99.3456 65.7288 99.2875 65.4838C99.2293 65.2387 99.2671 64.9807 99.3931 64.7627Z" fill="#263238"/>
<path d="M92.2926 66.36L93.8236 65.2793C93.899 65.3754 93.9539 65.4858 93.9851 65.6039C94.0162 65.7219 94.0229 65.8451 94.0047 65.9659C93.9865 66.0866 93.9438 66.2024 93.8793 66.306C93.8147 66.4096 93.7296 66.499 93.6293 66.5686C93.4219 66.7108 93.168 66.7685 92.9195 66.7297C92.671 66.6909 92.4468 66.5587 92.2926 66.36Z" fill="#263238"/>
<path d="M96.9662 67.6636L97.0325 72.6264L99.8197 71.6926L96.9662 67.6636Z" fill="#F28F8F"/>
<path opacity="0.15" d="M98.6442 70.4366C97.3976 71.0244 97.0326 72.6265 97.0326 72.6265L99.8197 71.6785L98.8717 70.3418C98.7931 70.3662 98.7169 70.398 98.6442 70.4366Z" fill="black"/>
<path d="M90.6431 71.8394C90.7995 72.6025 91.6953 73.0671 92.6433 72.8775C93.5913 72.6879 94.2312 71.9295 94.0653 71.1426C93.8994 70.3558 93.0131 69.915 92.0651 70.1046C91.1171 70.2942 90.4914 71.0715 90.6431 71.8394Z" fill="#F28F8F"/>
<path d="M100.559 70.0383C100.488 70.8157 101.208 71.5219 102.171 71.612C103.133 71.7021 103.972 71.138 104.067 70.3701C104.161 69.6023 103.417 68.8865 102.455 68.7965C101.493 68.7064 100.635 69.261 100.559 70.0383Z" fill="#F28F8F"/>
<path d="M98.3266 75.6079C98.118 76.4042 97.4544 76.3094 96.6533 76.0819C95.8523 75.8543 95.2313 75.6363 95.4399 74.8352C95.5531 74.4674 95.8039 74.1575 96.1401 73.9701C96.4763 73.7828 96.8718 73.7325 97.2441 73.8297C97.6165 73.9269 97.937 74.1641 98.1386 74.4919C98.3403 74.8197 98.4076 75.2127 98.3266 75.5889V75.6079Z" fill="#B16668"/>
<path d="M96.1035 74.3897C95.9324 74.3887 95.7623 74.4176 95.6011 74.475C95.5301 74.5934 95.4759 74.721 95.4399 74.8542C95.2314 75.6552 95.857 75.8922 96.6534 76.1008C96.891 76.166 97.1335 76.212 97.3786 76.2383C97.4206 76.1158 97.4461 75.9883 97.4544 75.8591C97.4673 75.4858 97.3329 75.1225 97.0801 74.8475C96.8273 74.5726 96.4765 74.4081 96.1035 74.3897Z" fill="#F28F8F"/>
<path d="M95.0275 78.7221C93.0651 78.5894 88.9982 77.6888 88.273 76.1436C88.5736 76.9296 89.1079 77.6046 89.804 78.0775C91.0601 79.0255 95.0607 80.0019 95.0607 80.0019L95.0275 78.7221Z" fill="#F28F8F"/>
<path d="M125.136 94.4873C121.842 90.2972 115.391 85.0595 114.523 83.5285C113.817 82.1866 112.963 80.9275 111.978 79.7744C111.546 79.3004 111.03 78.9401 110.66 78.4282L109.2 76.5322L109.143 76.4516C108.992 76.2573 108.797 76.0345 108.551 76.0487C108.465 76.0606 108.383 76.0936 108.312 76.1449C108.242 76.1962 108.185 76.2641 108.148 76.3426C108.079 76.5027 108.045 76.6756 108.048 76.8498C108.043 77.4495 108.145 78.0452 108.352 78.6083C108.527 79.1345 109.238 80.0683 108.669 80.1868C106.157 80.7082 103.09 79.7128 100.526 79.618C100.161 79.5698 99.7909 79.6343 99.4642 79.8028C99.325 79.9089 99.2106 80.044 99.1287 80.1987C99.0469 80.3533 98.9996 80.5239 98.9902 80.6987C98.9684 81.1545 99.0213 81.6108 99.1466 82.0496C99.5409 83.3254 100.346 84.4353 101.436 85.2064C102.583 86.0122 104.636 86.3725 105.986 86.7469C107.337 87.1214 108.873 87.3963 110.058 88.2637C111.371 89.2117 112.428 90.6906 113.376 91.9799C115.272 94.4542 117.016 97.3266 118.746 99.9052C121.415 103.887 123.904 104.038 125.601 103.441C127.297 102.844 128.454 98.6775 125.136 94.4873Z" fill="#FFA8A7"/>
<path d="M107.342 73.5792L98.118 76.0155C97.753 76.153 97.644 75.4515 98.118 75.2998L107.356 71.8965L107.342 73.5792Z" fill="#FF725E"/>
<path d="M105.797 72.9536L98.118 75.5227C97.9995 75.5701 97.9853 75.8403 98.118 75.8071C98.3882 75.7455 106.01 73.584 106.01 73.584L105.797 72.9536Z" fill="#F28F8F"/>
<path opacity="0.2" d="M105.157 72.6975L107.337 71.8965V73.5792L105.707 74.0105C105.388 73.6426 105.196 73.1826 105.157 72.6975Z" fill="black"/>
<path d="M105.986 72.2804C105.988 72.736 106.125 73.1809 106.38 73.5586C106.635 73.9364 106.996 74.2302 107.417 74.4028C107.839 74.5754 108.302 74.6192 108.749 74.5284C109.195 74.4377 109.605 74.2166 109.926 73.8931C110.246 73.5696 110.464 73.1583 110.551 72.711C110.638 72.2638 110.591 71.8008 110.415 71.3806C110.239 70.9604 109.942 70.6018 109.562 70.3503C109.182 70.0987 108.736 69.9654 108.281 69.9673C107.978 69.9685 107.679 70.0294 107.4 70.1463C107.121 70.2632 106.867 70.4339 106.654 70.6487C106.441 70.8635 106.273 71.1182 106.158 71.3981C106.044 71.6781 105.985 71.9779 105.986 72.2804Z" fill="#FF725E"/>
<path d="M106.944 72.2757C106.945 72.542 107.025 72.8019 107.173 73.0228C107.322 73.2436 107.533 73.4154 107.779 73.5165C108.026 73.6175 108.296 73.6432 108.557 73.5903C108.818 73.5375 109.058 73.4084 109.245 73.2195C109.433 73.0306 109.56 72.7903 109.611 72.5289C109.662 72.2676 109.635 71.9971 109.532 71.7514C109.429 71.5058 109.256 71.2962 109.034 71.149C108.812 71.0019 108.552 70.9239 108.285 70.9248C108.108 70.9248 107.933 70.9598 107.77 71.0278C107.606 71.0958 107.458 71.1955 107.333 71.321C107.209 71.4466 107.11 71.5956 107.043 71.7595C106.976 71.9233 106.943 72.0988 106.944 72.2757Z" fill="#F28F8F"/>
<path opacity="0.1" d="M106.944 72.2757C106.945 72.542 107.025 72.8019 107.173 73.0228C107.322 73.2436 107.533 73.4154 107.779 73.5165C108.026 73.6175 108.296 73.6432 108.557 73.5903C108.818 73.5375 109.058 73.4084 109.245 73.2195C109.433 73.0306 109.56 72.7903 109.611 72.5289C109.662 72.2676 109.635 71.9971 109.532 71.7514C109.429 71.5058 109.256 71.2962 109.034 71.149C108.812 71.0019 108.552 70.9239 108.285 70.9248C108.108 70.9248 107.933 70.9598 107.77 71.0278C107.606 71.0958 107.458 71.1955 107.333 71.321C107.209 71.4466 107.11 71.5956 107.043 71.7595C106.976 71.9233 106.943 72.0988 106.944 72.2757Z" fill="black"/>
<path d="M86.3154 86.3629C87.3867 88.5812 90.9417 93.8473 92.1219 99.924C92.7154 102.898 93.1223 105.906 93.3401 108.93C93.4681 110.006 101.436 107.627 101.578 106.517C101.72 105.408 100.934 100.156 99.7913 96.5633C98.6489 92.9704 97.0705 87.818 95.0513 85.96L86.3154 86.3629Z" fill="#FF725E"/>
<path opacity="0.1" d="M86.3154 86.3629C87.3867 88.5812 90.9417 93.8473 92.1219 99.924C92.7154 102.898 93.1223 105.906 93.3401 108.93C93.4681 110.006 101.436 107.627 101.578 106.517C101.72 105.408 100.934 100.156 99.7913 96.5633C98.6489 92.9704 97.0705 87.818 95.0513 85.96L86.3154 86.3629Z" fill="black"/>
<path d="M86.8463 77.5322C86.0405 77.7929 85.5807 77.8877 85.1162 79.3334C84.7086 80.599 84.0971 82.7936 84.1682 83.5994C84.2962 84.846 85.7561 86.4434 88.2636 87.2871C90.771 88.1309 94.8996 87.4673 96.4164 86.6188C98.7105 85.358 99.0423 83.9454 98.7105 82.2864C98.4563 81.1302 98.1173 79.9943 97.6962 78.8879C96.6818 78.8879 95.8002 78.7883 95.0181 78.7077L95.0418 79.6131C95.0418 79.6131 94.4019 80.1629 92.1978 80.3146C87.7659 80.6274 86.9174 79.2244 86.9174 79.2244L86.8463 77.5322Z" fill="#FF725E"/>
<path opacity="0.1" d="M90.2639 82.1443C91.2707 82.4307 92.3278 82.4942 93.3617 82.3305C94.3956 82.1668 95.3814 81.7797 96.2505 81.1963C96.4407 81.0484 96.5892 80.8535 96.6813 80.6309C96.7735 80.4082 96.8061 80.1654 96.7759 79.9263C96.7458 79.6872 96.654 79.4601 96.5095 79.2672C96.365 79.0744 96.1729 78.9224 95.9519 78.8263H95.8192L95.0276 78.7505L95.0513 79.6558C95.0513 79.6558 94.4114 80.2057 92.2073 80.3573C87.7754 80.6702 86.9269 79.2671 86.9269 79.2671C86.7136 79.3951 87.3061 81.3622 90.2639 82.1443Z" fill="black"/>
<path d="M97.5587 128.8C98.2365 126.549 100.123 127.141 103.91 129.032C107.698 130.924 112.798 131.44 113.499 131.459C114.296 131.459 115.291 133.829 112.551 135.118C109.812 136.408 109.442 136.806 108.802 138.626C107.897 141.205 106.55 141.02 104.579 141.024C103.277 140.943 101.98 141.244 100.848 141.892C97.8288 143.361 96.2646 142.205 96.2646 142.205C96.2646 142.205 97.8289 137.839 97.644 133.782C97.4591 129.724 97.1179 130.255 97.5587 128.8Z" fill="#FAFAFA"/>
<path d="M100.573 133.867C101.72 132.601 101.962 131.497 101.308 130.288L97.4497 131.033C97.5113 131.606 97.5872 132.455 97.6488 133.782C97.6725 134.332 97.6488 134.886 97.6488 135.431C98.592 135.133 99.9003 134.616 100.573 133.867Z" fill="#E6E6E6"/>
<path d="M109.361 137.342C109.864 136.498 110.617 136.029 112.556 135.119C110.603 135.256 106.963 133.052 104.564 131.327C104.564 131.298 107.001 135.825 109.361 137.342Z" fill="#E6E6E6"/>
<path d="M100.853 141.892C101.55 141.5 102.31 141.233 103.1 141.105C103.206 138.603 102.683 136.114 101.578 133.867C101.891 137.057 101.218 140.636 100.128 142.2C100.375 142.11 100.617 142.007 100.853 141.892Z" fill="#E6E6E6"/>
<path d="M82.3528 83.4526C77.281 84.3201 75.0058 84.7135 73.1145 93.7005C71.2896 102.384 68.3745 111.807 69.6116 115.372C70.8488 118.936 81.4 128.795 85.538 131.189C89.6761 133.583 93.0415 134.365 96.3737 134.393C100.564 134.427 102.981 130.417 100.692 129.146C99.9476 128.729 99.1276 128.772 97.8052 128.383C96.3595 127.961 94.6768 127.634 93.0652 126.961C94.0801 126.852 95.0665 126.558 95.9755 126.094C96.5585 125.823 98.3076 124.866 97.0278 124.335C96.7931 124.256 96.5441 124.229 96.2978 124.255L90.5435 124.411C89.6192 124.435 88.8229 124.515 87.9602 124.179C87.1158 123.805 86.3767 123.228 85.8082 122.501C85.192 121.776 84.609 121.012 83.9975 120.273C81.1156 116.775 78.191 112.485 78.191 112.485L81.983 97.0991C81.983 97.0991 84.9977 89.2497 82.3528 83.4526Z" fill="#FFA8A7"/>
<path d="M82.7367 83.3435C80.1534 83.3435 77.0487 84.0687 75.4845 86.3344C73.9203 88.6002 73.1998 92.1836 71.3038 100.242C69.4078 108.3 68.9718 112.167 68.986 114.201C69.0002 116.234 72.9486 120.045 72.9486 120.045C74.9062 117.853 77.3958 116.203 80.1771 115.253L78.4375 112.48C78.4375 112.48 81.7935 98.6632 82.7367 95.9756C83.68 93.288 85.1115 86.7421 82.7367 83.3435Z" fill="#FF725E"/>
<path opacity="0.1" d="M82.7367 83.3435C80.1534 83.3435 77.0487 84.0687 75.4845 86.3344C73.9203 88.6002 73.1998 92.1836 71.3038 100.242C69.4078 108.3 68.9718 112.167 68.986 114.201C69.0002 116.234 72.9486 120.045 72.9486 120.045C74.9062 117.853 77.3958 116.203 80.1771 115.253L78.4375 112.48C78.4375 112.48 81.7935 98.6632 82.7367 95.9756C83.68 93.288 85.1115 86.7421 82.7367 83.3435Z" fill="black"/>
<path opacity="0.2" d="M78.4375 112.48C77.0155 111.798 74.7214 113.002 74.7214 113.002C74.7214 113.002 76.0059 111.58 78.6556 111.58L78.4375 112.48Z" fill="black"/>
<path d="M68.147 107.939C68.0904 107.941 68.035 107.922 67.9906 107.887L66.4453 106.697C66.4121 106.672 66.3859 106.639 66.3693 106.601C66.3527 106.563 66.3462 106.521 66.3505 106.479C66.3527 106.437 66.3656 106.396 66.388 106.361C66.4104 106.325 66.4416 106.296 66.4785 106.276L68.0475 105.384L66.6255 104.015C66.5952 103.986 66.5725 103.95 66.5593 103.91C66.546 103.871 66.5427 103.828 66.5496 103.787C66.5579 103.746 66.5754 103.708 66.6009 103.675C66.6264 103.642 66.6591 103.616 66.6966 103.597L68.3698 102.834L66.9762 101.777C66.941 101.751 66.9132 101.715 66.8958 101.674C66.8783 101.634 66.8718 101.589 66.8767 101.545C66.8816 101.501 66.8982 101.458 66.9249 101.423C66.9515 101.387 66.9873 101.359 67.0284 101.341L68.877 100.521L67.5118 99.1893C67.4828 99.1598 67.4613 99.1239 67.4489 99.0845C67.4365 99.0451 67.4336 99.0033 67.4406 98.9625C67.4475 98.9218 67.464 98.8833 67.4888 98.8502C67.5136 98.8171 67.5458 98.7903 67.583 98.7722L69.6828 97.8242C69.7456 97.7965 69.8169 97.795 69.8809 97.8199C69.9449 97.8447 69.9964 97.894 70.024 97.9569C70.0517 98.0198 70.0533 98.091 70.0284 98.155C70.0035 98.219 69.9542 98.2705 69.8913 98.2982L68.1328 99.0661L69.4979 100.403C69.5281 100.431 69.5509 100.466 69.5641 100.504C69.5774 100.543 69.5807 100.585 69.5737 100.626C69.567 100.667 69.55 100.706 69.5244 100.739C69.4987 100.772 69.4652 100.798 69.4268 100.815L67.6256 101.616L69.0144 102.668C69.0496 102.695 69.0769 102.731 69.0936 102.772C69.1103 102.812 69.1157 102.857 69.1092 102.901C69.1048 102.944 69.0894 102.985 69.0645 103.021C69.0396 103.057 69.0061 103.085 68.967 103.105L67.2464 103.887L68.6684 105.233C68.6972 105.26 68.7191 105.294 68.7324 105.331C68.7457 105.368 68.75 105.408 68.7449 105.448C68.7398 105.487 68.7255 105.524 68.7031 105.557C68.6808 105.59 68.651 105.617 68.6163 105.636L67.0805 106.508L68.3177 107.456C68.3444 107.476 68.3668 107.501 68.3837 107.53C68.4006 107.559 68.4116 107.591 68.416 107.624C68.4204 107.657 68.4182 107.69 68.4094 107.723C68.4007 107.755 68.3856 107.785 68.365 107.811C68.3441 107.851 68.3126 107.884 68.2741 107.906C68.2356 107.929 68.1916 107.94 68.147 107.939Z" fill="#FF725E"/>
<path d="M128.81 98.3455C128.775 98.3523 128.74 98.3523 128.705 98.3455C128.644 98.3175 128.596 98.2668 128.571 98.204C128.546 98.1412 128.547 98.0713 128.573 98.009L129.336 96.2362L127.44 96.1746C127.398 96.1726 127.357 96.1608 127.321 96.1402C127.285 96.1196 127.254 96.0908 127.231 96.0561C127.212 96.0194 127.203 95.9788 127.203 95.9376C127.203 95.8964 127.212 95.8558 127.231 95.8191L127.98 93.9942L126.245 94.1506C126.202 94.1556 126.158 94.1491 126.118 94.1316C126.078 94.1141 126.043 94.0863 126.018 94.0511C125.99 94.0159 125.973 93.9738 125.968 93.9295C125.963 93.8851 125.97 93.8403 125.989 93.7998L126.724 92.0603L124.785 92.0129C124.745 92.0119 124.706 92.0016 124.67 91.9827C124.635 91.9637 124.604 91.9367 124.581 91.9038C124.56 91.8715 124.545 91.8348 124.54 91.7962C124.534 91.7577 124.537 91.7183 124.548 91.6811L125.093 89.9984L123.534 90.1311C123.467 90.1363 123.4 90.1149 123.349 90.0714C123.297 90.0279 123.265 89.9659 123.259 89.8988C123.256 89.8654 123.259 89.8317 123.269 89.7997C123.279 89.7677 123.295 89.738 123.317 89.7124C123.339 89.6867 123.365 89.6657 123.395 89.6505C123.425 89.6353 123.458 89.6263 123.491 89.6239L125.435 89.4627C125.476 89.4589 125.518 89.4655 125.556 89.4821C125.594 89.4987 125.627 89.5246 125.653 89.5575C125.679 89.5903 125.697 89.6292 125.704 89.6706C125.712 89.712 125.709 89.7546 125.695 89.7945L125.136 91.5152L127.113 91.5626C127.154 91.5646 127.195 91.5763 127.231 91.5969C127.267 91.6175 127.298 91.6463 127.321 91.6811C127.34 91.7178 127.35 91.7584 127.35 91.7996C127.35 91.8408 127.34 91.8814 127.321 91.9181L126.601 93.6055L128.34 93.4491C128.385 93.4452 128.429 93.4527 128.47 93.4709C128.511 93.4892 128.546 93.5176 128.573 93.5534C128.598 93.5894 128.614 93.6317 128.618 93.6758C128.622 93.7199 128.615 93.7643 128.596 93.8046L127.786 95.6579L129.682 95.7243C129.723 95.7256 129.763 95.7368 129.798 95.7571C129.834 95.7774 129.864 95.8061 129.886 95.8407C129.908 95.8753 129.921 95.9147 129.924 95.9556C129.928 95.9964 129.921 96.0374 129.904 96.075L128.999 98.1938C128.983 98.2328 128.957 98.2671 128.923 98.2936C128.89 98.32 128.851 98.3379 128.81 98.3455Z" fill="#FF725E"/>
<path d="M73.3942 126.33C73.3266 126.329 73.262 126.302 73.2141 126.254C73.184 126.225 73.1621 126.188 73.1505 126.147C73.1389 126.106 73.1379 126.063 73.1477 126.022L73.5222 124.254L71.5503 124.415C71.5092 124.417 71.4683 124.409 71.4305 124.393C71.3928 124.376 71.3592 124.352 71.3323 124.321C71.3071 124.288 71.29 124.25 71.2826 124.21C71.2751 124.169 71.2776 124.128 71.2896 124.088L71.8252 122.33L70.1094 122.671C70.0663 122.679 70.0218 122.676 69.9803 122.662C69.9388 122.648 69.9017 122.623 69.8724 122.59C69.8423 122.558 69.8216 122.518 69.8124 122.474C69.8032 122.431 69.8059 122.386 69.8202 122.344L70.4317 120.415L68.5357 120.552C68.4944 120.555 68.453 120.548 68.415 120.532C68.377 120.515 68.3436 120.49 68.3176 120.457C68.2917 120.425 68.2741 120.387 68.2667 120.347C68.2592 120.306 68.2621 120.264 68.275 120.225L68.9528 118.026C68.958 117.99 68.9709 117.956 68.9907 117.925C69.0105 117.895 69.0366 117.869 69.0673 117.849C69.098 117.83 69.1325 117.817 69.1685 117.813C69.2045 117.808 69.2411 117.811 69.2758 117.822C69.3105 117.833 69.3425 117.851 69.3695 117.875C69.3965 117.899 69.4179 117.929 69.4322 117.962C69.4466 117.996 69.4535 118.032 69.4526 118.068C69.4516 118.105 69.4429 118.14 69.4268 118.173L68.858 120.017L70.754 119.879C70.7953 119.877 70.8366 119.884 70.8745 119.9C70.9124 119.917 70.9458 119.942 70.972 119.974C70.9973 120.007 71.0144 120.046 71.0218 120.087C71.0292 120.129 71.0268 120.171 71.0147 120.211L70.4175 122.107L72.1286 121.766C72.1716 121.758 72.2159 121.76 72.2574 121.774C72.2989 121.788 72.3362 121.812 72.3657 121.845C72.3952 121.877 72.4159 121.916 72.4258 121.959C72.4357 122.002 72.4346 122.046 72.4225 122.088L71.8679 123.899L73.8066 123.742C73.8457 123.738 73.8852 123.744 73.9216 123.759C73.958 123.773 73.9902 123.797 74.0151 123.828C74.0421 123.856 74.0618 123.891 74.0725 123.929C74.0832 123.967 74.0847 124.007 74.0768 124.046L73.707 125.776L75.2475 125.477C75.2812 125.469 75.3163 125.468 75.3504 125.474C75.3846 125.48 75.4172 125.492 75.4463 125.511C75.4754 125.53 75.5004 125.555 75.5197 125.583C75.5391 125.612 75.5523 125.644 75.5588 125.679C75.5652 125.713 75.5646 125.748 75.5571 125.781C75.5496 125.815 75.5353 125.847 75.5151 125.875C75.4948 125.904 75.4691 125.927 75.4394 125.945C75.4097 125.963 75.3767 125.975 75.3423 125.98L73.4463 126.345L73.3942 126.33Z" fill="#FF725E"/>
<path d="M77.6744 63.3503L75.5225 62.1985L76.7596 61.1414L72.2898 59.0464L74.2427 57.9182L69.4268 55.3586L72.2898 57.8803L69.9624 59.0464L75.2143 61.3263L73.9156 62.6203L77.6744 63.3503Z" fill="#F28F8F"/>
<path d="M78.7741 60.5158L77.3711 59.1744L78.1342 58.6056L76.9018 57.1504L78.0868 56.7475L77.6744 54.8989L78.5039 56.8945L77.6744 57.2547L79.0016 58.7146L78.1058 59.3545L78.7741 60.5158Z" fill="#F28F8F"/>
<path d="M77.9541 65.4692L75.3139 67.5311L74.3375 66.0949L72.0291 67.351L71.0763 65.5735L67.5024 66.4883L71.6451 64.5117L72.8301 66.1423L74.7498 65.1137L75.5509 66.4883L77.9541 65.4692Z" fill="#F28F8F"/>
<path opacity="0.1" d="M114.67 157.586C114.641 157.804 114.563 158.013 114.443 158.198C114.082 159.022 114.675 159.97 115.391 160.492C116.012 160.903 116.712 161.181 117.446 161.308C118.18 161.435 118.933 161.409 119.657 161.231C121.108 160.855 122.443 160.126 123.543 159.108C124.567 158.207 125.52 156.875 125.084 155.586C124.705 154.472 123.392 153.913 122.24 153.988C121.088 154.064 119.988 154.628 118.922 155.121C117.886 155.609 116.748 155.839 115.604 155.794C115.201 155.794 114.656 155.823 114.386 156.216C114.04 156.823 114.651 157.017 114.67 157.586Z" fill="black"/>
<path opacity="0.1" d="M127.843 164.815C127.591 165.421 128.051 166.128 128.653 166.388C129.278 166.595 129.946 166.638 130.592 166.511C131.54 166.465 132.473 166.25 133.346 165.876C133.761 165.616 134.199 165.394 134.654 165.213C135.578 164.933 136.588 165.331 137.536 165.146C138.077 165.026 138.561 164.726 138.91 164.296C139.259 163.866 139.453 163.33 139.46 162.776L131.165 162.81C128.99 162.81 126.966 163.383 124.799 163.483C125.25 164.568 126.738 165.108 127.843 164.815Z" fill="black"/>
<path d="M116.097 154.524C116.016 154.543 115.937 154.566 115.86 154.595C115.637 154.666 115.435 154.788 115.27 154.953C115.105 155.118 114.982 155.321 114.912 155.543C114.853 155.771 114.866 156.011 114.95 156.23C115.04 156.382 115.267 156.349 115.239 156.61C115.207 156.782 115.115 156.937 114.978 157.046C114.844 157.154 114.733 157.288 114.651 157.439C114.605 157.618 114.617 157.807 114.687 157.978C114.757 158.149 114.881 158.292 115.04 158.387C115.355 158.564 115.656 158.765 115.94 158.989C116.301 159.349 116.462 159.937 116.95 160.103C117.215 160.145 117.487 160.131 117.746 160.06C118.353 159.98 118.765 160.454 119.391 160.108C119.638 159.975 119.827 159.743 120.074 159.634C120.415 159.518 120.765 159.433 121.121 159.378C121.469 159.239 121.801 159.064 122.112 158.856C122.757 158.446 123.319 157.918 123.771 157.302C124.69 156.08 125.115 154.557 124.961 153.036C124.892 152.124 124.493 151.269 123.837 150.632C122.643 149.575 120.68 149.708 119.571 148.547C119.68 149.523 119.965 150.476 120.045 151.462C120.107 151.953 120.065 152.452 119.922 152.927C119.623 153.695 119.036 153.017 118.472 152.893C118.286 152.846 118.093 152.839 117.905 152.876C117.718 152.912 117.54 152.989 117.386 153.102C117.202 153.266 117.086 153.492 117.062 153.737C117.037 153.982 117.106 154.228 117.253 154.424C116.865 154.415 116.477 154.448 116.097 154.524Z" fill="#FAFAFA"/>
<path d="M119.922 152.908C119.785 153.263 119.585 153.306 119.353 153.239C119.353 153.239 121.112 154.477 121.439 155.609C121.87 153.818 120.045 151.424 120.045 151.424C120.109 151.922 120.067 152.427 119.922 152.908Z" fill="#E6E6E6"/>
<path d="M117.249 156.894C117.249 156.894 116.016 156.927 115.661 158.79C115.762 158.852 115.856 158.925 115.94 159.008C116.211 159.278 116.372 159.691 116.642 159.956C116.253 159.397 116.329 157.316 117.249 156.894Z" fill="#E6E6E6"/>
<path d="M120.424 159.482C120.66 159.455 120.893 159.409 121.121 159.345C121.343 159.259 121.557 159.154 121.761 159.032C121.935 158.375 121.892 157.68 121.638 157.051C121.66 157.526 121.56 157.999 121.348 158.424C121.135 158.85 120.817 159.214 120.424 159.482Z" fill="#E6E6E6"/>
<path d="M119.348 155.434C118.941 153.974 117.097 153.538 117.092 153.538C117.05 153.685 117.042 153.84 117.069 153.99C117.096 154.141 117.157 154.283 117.249 154.405C117.583 154.486 117.896 154.636 118.168 154.845C118.441 155.055 118.666 155.319 118.83 155.621C118.993 155.923 119.092 156.257 119.118 156.599C119.145 156.942 119.099 157.286 118.983 157.61C118.983 157.61 119.751 156.894 119.348 155.434Z" fill="#E6E6E6"/>
<path d="M126.847 162.108C126.349 162.176 125.846 162.192 125.345 162.155C125.601 162.757 125.605 163.075 126.098 163.497C126.404 163.756 126.77 163.935 127.162 164.018C127.554 164.1 127.961 164.084 128.345 163.971C128.426 164.615 128.591 165.274 129.293 165.502C129.627 165.589 129.981 165.553 130.29 165.398C130.599 165.244 130.841 164.983 130.971 164.663C131.264 165.011 131.672 165.242 132.121 165.314C132.57 165.386 133.03 165.295 133.417 165.056C134.279 164.478 134.502 163.942 135.635 164.16C136.484 164.322 137.251 164.397 137.958 163.786C138.508 163.237 138.919 162.564 139.157 161.824C139.165 161.807 139.169 161.789 139.169 161.771C139.169 161.753 139.165 161.736 139.157 161.719C139.157 161.681 139.091 161.677 139.053 161.672C137.569 161.506 135.483 161.563 134.607 160.079C134.419 159.71 134.27 159.322 134.161 158.923C134.049 158.521 133.812 158.165 133.483 157.908C133.316 157.786 133.111 157.726 132.904 157.741C132.698 157.756 132.503 157.844 132.355 157.989C132.171 157.722 131.904 157.523 131.595 157.425C131.286 157.327 130.953 157.336 130.649 157.449C130.38 157.523 130.131 157.656 129.92 157.838C129.708 158.02 129.54 158.246 129.426 158.501C129.099 159.117 129.113 159.866 128.828 160.511C128.668 160.898 128.418 161.241 128.099 161.513C127.781 161.785 127.402 161.978 126.994 162.075L126.847 162.108Z" fill="#FAFAFA"/>
<path d="M137.171 164.213C136.005 163.914 134.052 162.26 133.355 160.895C133.295 162.126 133.678 163.339 134.436 164.312C134.618 164.208 134.819 164.141 135.028 164.115C135.236 164.089 135.447 164.104 135.649 164.16C136.147 164.288 136.666 164.306 137.171 164.213Z" fill="#E6E6E6"/>
<path d="M132.037 165.303C131.279 164.303 131.341 160.899 131.341 160.899C130.966 162.118 130.845 163.401 130.985 164.668C131.252 164.995 131.624 165.22 132.037 165.303Z" fill="#E6E6E6"/>
<path d="M128.26 163.004C127.816 163.425 127.27 163.724 126.677 163.871C127.206 164.09 127.793 164.126 128.345 163.976C128.601 162.975 130.241 161.132 130.241 161.132C129.484 161.645 128.816 162.278 128.26 163.004Z" fill="#E6E6E6"/>
<path opacity="0.1" d="M134.455 116.192L145.215 110.03C145.509 109.882 145.834 109.805 146.163 109.805C146.492 109.805 146.816 109.882 147.111 110.03L165.123 120.458C165.239 120.495 165.34 120.569 165.412 120.668C165.483 120.767 165.522 120.885 165.522 121.007C165.522 121.13 165.483 121.248 165.412 121.347C165.34 121.446 165.239 121.52 165.123 121.557L154.358 127.719C154.064 127.866 153.739 127.942 153.41 127.942C153.081 127.942 152.757 127.866 152.462 127.719L134.45 117.291C134.337 117.251 134.238 117.176 134.169 117.077C134.1 116.978 134.063 116.86 134.063 116.74C134.064 116.619 134.102 116.502 134.172 116.403C134.242 116.305 134.341 116.231 134.455 116.192Z" fill="black"/>
<path d="M135.588 110.494L146.433 104.237L164.502 114.67L153.661 120.932L135.588 110.494Z" fill="#455A64"/>
<path d="M135.588 116.756L153.661 127.188V120.932L135.588 110.494V116.756Z" fill="#37474F"/>
<path d="M164.502 114.67L153.661 120.931V127.188L164.502 120.931V114.67Z" fill="#263238"/>
<path d="M144.741 111.608L151.732 115.656C152.306 115.96 152.942 116.125 153.591 116.137C154.24 116.149 154.883 116.009 155.467 115.727C156.463 115.149 156.415 114.186 155.349 113.57L148.362 109.522C147.789 109.218 147.152 109.054 146.503 109.041C145.854 109.029 145.211 109.169 144.627 109.451C143.622 110.03 143.679 110.992 144.741 111.608Z" fill="#263238"/>
<path d="M146.177 111.257C146.177 111.257 145.044 103.574 147.414 100.436C147.414 100.436 147.836 102.683 148.907 103.104C150.661 103.792 152.41 103.266 153.405 104.417C154.401 105.569 153.955 106.375 155.216 107.261C155.984 107.788 158.231 107.105 159.43 108.148C159.43 108.148 154.932 110.76 153.405 115.452L146.177 111.257Z" fill="#FAFAFA"/>
<path d="M151.884 103.654C151.239 103.536 150.509 103.512 149.751 103.351C148.803 105.825 149.277 110.034 149.277 110.034C149.433 107.432 150.983 104.218 151.884 103.654Z" fill="#E6E6E6"/>
<path d="M155.216 107.242C155.059 107.135 154.913 107.013 154.78 106.877C153.083 108.603 152.017 112.091 152.017 112.091C152.709 110.85 156.254 107.603 157.344 107.517C156.472 107.46 155.628 107.527 155.216 107.242Z" fill="#E6E6E6"/>
<path d="M61.6769 62.53C61.6244 62.4972 61.5634 62.4807 61.5015 62.4826H58.3352L57.0317 63.2362L57.7806 68.1848L59.0888 67.4311L60.2217 66.1229V69.3224L61.1128 69.0001L64.9522 64.881C64.9858 64.8423 65.0105 64.7966 65.0245 64.7473C65.0385 64.698 65.0416 64.6463 65.0334 64.5957C65.0253 64.545 65.0062 64.4968 64.9774 64.4544C64.9486 64.412 64.9109 64.3764 64.8669 64.3501L61.6769 62.53Z" fill="#FF725E"/>
<path opacity="0.7" d="M61.6769 62.53C61.6244 62.4972 61.5634 62.4807 61.5015 62.4826H58.3352L57.0317 63.2362L57.7806 68.1848L59.0888 67.4311L60.2217 66.1229V69.3224L61.1128 69.0001L64.9522 64.881C64.9858 64.8423 65.0105 64.7966 65.0245 64.7473C65.0385 64.698 65.0416 64.6463 65.0334 64.5957C65.0253 64.545 65.0062 64.4968 64.9774 64.4544C64.9486 64.412 64.9109 64.3764 64.8669 64.3501L61.6769 62.53Z" fill="white"/>
<path d="M60.2217 69.3223L61.1128 69L64.9522 64.8809C64.9959 64.8309 65.0242 64.7693 65.0339 64.7036C65.0435 64.6378 65.034 64.5707 65.0065 64.5102C64.979 64.4497 64.9347 64.3984 64.8788 64.3625C64.823 64.3265 64.7579 64.3074 64.6915 64.3074H61.1128L60.2217 65.061V69.3223Z" fill="#FF725E"/>
<path opacity="0.4" d="M60.2217 69.3223L61.1128 69L64.9522 64.8809C64.9959 64.8309 65.0242 64.7693 65.0339 64.7036C65.0435 64.6378 65.034 64.5707 65.0065 64.5102C64.979 64.4497 64.9347 64.3984 64.8788 64.3625C64.823 64.3265 64.7579 64.3074 64.6915 64.3074H61.1128L60.2217 65.061V69.3223Z" fill="white"/>
<path d="M61.1128 43.4324C61.0857 42.909 60.935 42.3994 60.673 41.9454C60.411 41.4915 60.0452 41.106 59.6055 40.8207C59.1381 40.5845 58.6218 40.4614 58.0982 40.4614C57.5745 40.4614 57.0582 40.5845 56.5908 40.8207L42.4562 48.9261C42.0165 49.2114 41.6507 49.5969 41.3887 50.0508C41.1267 50.5048 40.9759 51.0144 40.9489 51.5378V80.1864C40.9759 80.7098 41.1267 81.2194 41.3887 81.6734C41.6507 82.1273 42.0165 82.5128 42.4562 82.7981C42.9235 83.0343 43.4398 83.1574 43.9635 83.1574C44.4871 83.1574 45.0035 83.0343 45.4708 82.7981L59.7477 74.5932C61.1033 73.8206 61.1128 73.0432 61.1128 72.081V43.4324Z" fill="#FF725E"/>
<path opacity="0.4" d="M61.1128 43.4324C61.0857 42.909 60.935 42.3994 60.673 41.9454C60.411 41.4915 60.0452 41.106 59.6055 40.8207C59.1381 40.5845 58.6218 40.4614 58.0982 40.4614C57.5745 40.4614 57.0582 40.5845 56.5908 40.8207L42.4562 48.9261C42.0165 49.2114 41.6507 49.5969 41.3887 50.0508C41.1267 50.5048 40.9759 51.0144 40.9489 51.5378V80.1864C40.9759 80.7098 41.1267 81.2194 41.3887 81.6734C41.6507 82.1273 42.0165 82.5128 42.4562 82.7981C42.9235 83.0343 43.4398 83.1574 43.9635 83.1574C44.4871 83.1574 45.0035 83.0343 45.4708 82.7981L59.7477 74.5932C61.1033 73.8206 61.1128 73.0432 61.1128 72.081V43.4324Z" fill="white"/>
<path opacity="0.2" d="M40.9489 80.1865C40.9759 80.7099 41.1267 81.2195 41.3887 81.6735C41.6507 82.1274 42.0165 82.5129 42.4562 82.7982C42.8815 83.0115 43.347 83.1328 43.8224 83.154C44.2977 83.1752 44.7722 83.096 45.2149 82.9215C44.5039 83.1916 43.9635 82.784 43.9635 81.9261V53.2775C43.9831 52.7522 44.1347 52.2404 44.4043 51.7891L41.3897 50.0496C41.1173 50.4996 40.9655 51.0122 40.9489 51.5379V80.1865Z" fill="black"/>
<path d="M61.0654 43.0059C60.89 42.3612 60.307 42.1574 59.6102 42.5603L45.4708 50.6657C45.0237 50.9416 44.6574 51.3308 44.409 51.7938L41.3944 50.0543C41.6454 49.5932 42.0111 49.2046 42.4562 48.9261L56.5861 40.8207C57.0543 40.5845 57.5714 40.4614 58.0958 40.4614C58.6202 40.4614 59.1373 40.5845 59.6055 40.8207C59.9848 41.0664 60.31 41.3869 60.561 41.7626C60.8121 42.1384 60.9837 42.5614 61.0654 43.0059Z" fill="#FF725E"/>
<path opacity="0.7" d="M61.0654 43.0059C60.89 42.3612 60.307 42.1574 59.6102 42.5603L45.4708 50.6657C45.0237 50.9416 44.6574 51.3308 44.409 51.7938L41.3944 50.0543C41.6454 49.5932 42.0111 49.2046 42.4562 48.9261L56.5861 40.8207C57.0543 40.5845 57.5714 40.4614 58.0958 40.4614C58.6202 40.4614 59.1373 40.5845 59.6055 40.8207C59.9848 41.0664 60.31 41.3869 60.561 41.7626C60.8121 42.1384 60.9837 42.5614 61.0654 43.0059Z" fill="white"/>
<path d="M52.761 75.7831C50.865 76.878 49.3245 75.3944 49.3245 72.4651C49.3536 70.4312 49.9854 68.4517 51.1399 66.7771V53.8606C51.1399 52.4812 51.8651 50.9407 52.761 50.4241C53.6568 49.9074 54.3868 50.6089 54.3868 51.9883V64.9C55.5054 65.1797 56.1975 66.5495 56.1975 68.5119C56.1975 71.427 54.657 74.6929 52.761 75.7831ZM52.761 50.9739C52.0642 51.3768 51.4954 52.5808 51.4954 53.6567V66.9287L51.3958 67.0615C50.3056 68.5838 49.7069 70.4031 49.68 72.2755C49.68 74.8919 51.064 76.2239 52.761 75.2427C54.4579 74.2615 55.842 71.3369 55.842 68.7205C55.842 66.9098 55.1878 65.6632 54.1308 65.4641H54.0313V52.1921C54.036 51.1161 53.4625 50.5663 52.761 50.9739Z" fill="#455A64"/>
<g opacity="0.7">
<path opacity="0.7" d="M52.761 50.974C52.0642 51.3769 51.4954 52.5809 51.4954 53.6568V66.9288L51.3959 67.0616C50.3056 68.5839 49.7069 70.4033 49.68 72.2756C49.68 74.892 51.0641 76.224 52.761 75.2428C54.4579 74.2616 55.842 71.337 55.842 68.7206C55.842 66.9099 55.1879 65.6633 54.1308 65.4642H54.0313V52.1922C54.036 51.1162 53.4625 50.5664 52.761 50.974Z" fill="white"/>
</g>
<path d="M53.2065 67.3079V53.5619C53.2065 53.1827 53.0074 52.9884 52.761 53.1306C52.6185 53.2434 52.5041 53.3877 52.4268 53.5522C52.3494 53.7167 52.3113 53.8969 52.3154 54.0786V67.8246C51.2928 68.9021 50.7212 70.3301 50.718 71.8157C50.718 73.5552 51.6328 74.4369 52.761 73.7828C53.8891 73.1286 54.8039 71.1947 54.8039 69.4551C54.8039 67.9478 54.1213 67.0851 53.2065 67.3079Z" fill="#F28F8F"/>
<path d="M53.4483 62.658C53.4203 62.6572 53.3929 62.65 53.3682 62.6368C53.3435 62.6237 53.3223 62.6049 53.3061 62.5821C53.2844 62.5434 53.2782 62.4979 53.2888 62.4548C53.2993 62.4117 53.3258 62.3742 53.3629 62.3499L54.1071 61.9043C54.1448 61.8832 54.1892 61.8775 54.2309 61.8886C54.2726 61.8997 54.3084 61.9266 54.3306 61.9636C54.3529 62.0006 54.3598 62.0449 54.3499 62.0869C54.34 62.1289 54.3141 62.1654 54.2778 62.1887L53.5336 62.6343C53.5089 62.6521 53.4786 62.6605 53.4483 62.658Z" fill="#455A64"/>
<path d="M53.4483 60.5867C53.4198 60.5862 53.3918 60.5786 53.3669 60.5645C53.3421 60.5504 53.3212 60.5303 53.3061 60.5061C53.2847 60.4681 53.2787 60.4233 53.2893 60.381C53.2999 60.3387 53.3262 60.302 53.363 60.2786L54.1072 59.833C54.1443 59.81 54.1891 59.8025 54.2317 59.8123C54.2743 59.8221 54.3113 59.8482 54.3347 59.8851C54.3465 59.9036 54.3545 59.9244 54.358 59.946C54.3616 59.9677 54.3607 59.9899 54.3554 60.0112C54.35 60.0325 54.3404 60.0525 54.3271 60.0699C54.3137 60.0874 54.297 60.1019 54.2778 60.1127L53.5336 60.5867C53.506 60.5964 53.4759 60.5964 53.4483 60.5867Z" fill="#455A64"/>
<path d="M53.4483 58.5152C53.4198 58.5147 53.3918 58.5071 53.3669 58.493C53.3421 58.4789 53.3212 58.4588 53.3061 58.4346C53.2847 58.3966 53.2787 58.3518 53.2893 58.3095C53.2999 58.2672 53.3262 58.2305 53.363 58.2071L54.1072 57.7331C54.1454 57.7128 54.1898 57.7074 54.2318 57.7179C54.2738 57.7284 54.3105 57.7541 54.3347 57.7899C54.3465 57.8084 54.3545 57.8292 54.358 57.8508C54.3616 57.8725 54.3607 57.8947 54.3554 57.916C54.35 57.9373 54.3404 57.9573 54.3271 57.9747C54.3137 57.9922 54.297 58.0067 54.2778 58.0175L53.5336 58.4915C53.5079 58.5069 53.4784 58.5151 53.4483 58.5152Z" fill="#455A64"/>
<path d="M53.4483 56.4437C53.4198 56.4433 53.3918 56.4357 53.3669 56.4216C53.3421 56.4075 53.3212 56.3874 53.3061 56.3632C53.2847 56.3252 53.2787 56.2804 53.2893 56.2381C53.2999 56.1958 53.3262 56.1591 53.363 56.1356L54.1072 55.6616C54.1259 55.6497 54.1468 55.6416 54.1686 55.6379C54.1905 55.6341 54.2129 55.6348 54.2345 55.6399C54.2561 55.645 54.2765 55.6543 54.2944 55.6674C54.3123 55.6805 54.3274 55.697 54.3388 55.716C54.3502 55.7351 54.3577 55.7562 54.3608 55.7782C54.3639 55.8001 54.3626 55.8225 54.3569 55.8439C54.3512 55.8654 54.3413 55.8855 54.3277 55.903C54.3141 55.9205 54.2972 55.9352 54.2778 55.946L53.5336 56.42C53.5079 56.4355 53.4784 56.4437 53.4483 56.4437Z" fill="#455A64"/>
<path d="M53.4483 54.3724C53.4197 54.372 53.3917 54.3644 53.3669 54.3503C53.3421 54.3362 53.3211 54.3161 53.3061 54.2919C53.2835 54.2541 53.2768 54.209 53.2874 54.1663C53.2981 54.1237 53.3253 54.087 53.363 54.0643L54.1071 53.5904C54.1448 53.5692 54.1892 53.5636 54.2309 53.5746C54.2727 53.5857 54.3084 53.6126 54.3306 53.6496C54.3529 53.6867 54.3598 53.7309 54.3499 53.7729C54.34 53.815 54.3142 53.8515 54.2778 53.8748L53.5336 54.3487C53.5078 54.3642 53.4783 54.3724 53.4483 54.3724Z" fill="#455A64"/>
</svg>
