<svg width="244" height="244" viewBox="0 0 244 244" fill="none" xmlns="http://www.w3.org/2000/svg">
<path d="M228.462 36.6489H189.105V93.6961H228.462V36.6489Z" fill="#E0E0E0"/>
<path d="M226.49 36.6489H187.133V93.6961H226.49V36.6489Z" fill="#F5F5F5"/>
<path d="M221.601 42.832H192.023V87.5231H221.601V42.832Z" fill="white"/>
<path d="M221.601 87.523C221.601 87.523 221.601 87.4449 221.601 87.3034V86.669C221.601 86.1078 221.601 85.2879 221.601 84.229C221.601 82.0867 221.601 78.9634 221.576 75.0204C221.576 67.1392 221.547 55.9884 221.528 42.8417L221.625 42.9393H192.048L192.155 42.8319C192.155 59.6874 192.155 75.2351 192.155 87.523L192.072 87.4351L213.602 87.4839H219.546H221.108H221.65H221.127H219.58H213.651L192.072 87.5278H191.984V87.4449C191.984 75.157 191.984 59.6289 191.984 42.7538V42.6465H192.091H221.669H221.767V42.7441C221.767 55.9201 221.733 67.0904 221.718 74.9911C221.718 78.9244 221.718 82.0378 221.693 84.1704C221.693 85.2342 221.693 86.0492 221.693 86.6104C221.693 86.8788 221.693 87.0984 221.693 87.2302C221.693 87.3619 221.601 87.523 221.601 87.523Z" fill="#E0E0E0"/>
<path d="M226.603 36.6489C226.4 37.0093 226.164 37.3507 225.9 37.6688C225.441 38.2837 224.792 39.1328 224.051 40.0112C223.309 40.8896 222.621 41.7095 222.099 42.2756C221.838 42.5972 221.547 42.8929 221.23 43.1588C221.454 42.8141 221.705 42.4878 221.981 42.1828L223.88 39.8795L225.783 37.5761C226.03 37.245 226.304 36.9349 226.603 36.6489Z" fill="#E0E0E0"/>
<path d="M221.752 87.3767C223.224 89.7168 224.958 91.8812 226.92 93.828L221.752 87.3767Z" fill="white"/>
<path d="M226.92 93.828C226.591 93.5906 226.29 93.3173 226.022 93.0131C225.334 92.3155 224.682 91.5825 224.07 90.8171C223.457 90.0544 222.885 89.2595 222.357 88.4357C222.12 88.105 221.919 87.75 221.757 87.3767C222.022 87.6848 222.265 88.011 222.484 88.3527C222.914 88.9578 223.524 89.7923 224.236 90.6853C224.948 91.5784 225.627 92.3494 226.125 92.9106C226.411 93.1971 226.677 93.5037 226.92 93.828Z" fill="#E0E0E0"/>
<path d="M187.124 93.657L192.282 87.313L187.124 93.657Z" fill="white"/>
<path d="M192.272 87.2935C191.497 88.4186 190.664 89.5034 189.778 90.5435C188.945 91.6272 188.056 92.6665 187.114 93.657C187.89 92.5311 188.724 91.4463 189.612 90.4069C190.443 89.3226 191.331 88.2833 192.272 87.2935Z" fill="#E0E0E0"/>
<path d="M187.133 36.6489C188.019 37.6007 188.853 38.5993 189.632 39.6404C190.467 40.6404 191.247 41.6846 191.969 42.7684C191.081 41.8175 190.245 40.8189 189.466 39.777C188.629 38.7802 187.85 37.7358 187.133 36.6489Z" fill="#E0E0E0"/>
<path d="M212.387 51.9038H202.481V80.0273H212.387V51.9038Z" fill="#E0E0E0"/>
<path d="M224.109 111.264H193.555V143.116H224.109V111.264Z" fill="#E0E0E0"/>
<path d="M222.04 111.264H191.486V143.116H222.04V111.264Z" fill="#FAFAFA"/>
<path d="M222.04 143.126H191.477V111.264H222.04V143.126ZM191.486 143.126H222.04V111.264H191.496L191.486 143.126Z" fill="#E0E0E0"/>
<path d="M217.936 115.549H195.595V138.836H217.936V115.549Z" fill="white"/>
<path d="M195.595 138.988C195.437 139.223 195.252 139.439 195.044 139.632C194.688 140.007 194.185 140.515 193.624 141.071C193.063 141.628 192.545 142.116 192.16 142.467C191.965 142.671 191.748 142.851 191.511 143.004C191.669 142.77 191.854 142.555 192.062 142.365C192.418 141.989 192.921 141.481 193.482 140.901C194.043 140.32 194.566 139.851 194.946 139.5C195.141 139.304 195.359 139.132 195.595 138.988Z" fill="#E0E0E0"/>
<path d="M217.936 138.934C218.17 139.092 218.384 139.277 218.575 139.485C218.951 139.841 219.458 140.344 220.039 140.905C220.62 141.466 221.084 141.984 221.435 142.369C221.639 142.561 221.82 142.778 221.972 143.013C221.739 142.857 221.526 142.673 221.337 142.467C220.957 142.11 220.449 141.608 219.873 141.042C219.297 140.476 218.824 139.958 218.473 139.578C218.267 139.387 218.087 139.17 217.936 138.934Z" fill="#E0E0E0"/>
<path d="M217.872 115.607C218.031 115.373 218.216 115.159 218.424 114.968C218.78 114.592 219.283 114.08 219.844 113.504C220.405 112.928 220.922 112.455 221.308 112.108C221.503 111.905 221.719 111.724 221.952 111.567C221.797 111.801 221.613 112.016 221.406 112.206C221.049 112.582 220.547 113.094 219.981 113.67C219.415 114.246 218.902 114.719 218.517 115.07C218.326 115.276 218.109 115.457 217.872 115.607Z" fill="#E0E0E0"/>
<path d="M195.532 115.656C195.298 115.498 195.084 115.313 194.893 115.105C194.517 114.748 194.004 114.246 193.453 113.685C192.902 113.123 192.404 112.606 192.052 112.221C191.85 112.027 191.67 111.811 191.516 111.576C191.75 111.732 191.965 111.915 192.155 112.123C192.531 112.479 193.043 112.982 193.619 113.548C194.195 114.114 194.668 114.626 195.015 115.012C195.212 115.205 195.386 115.421 195.532 115.656Z" fill="#E0E0E0"/>
<path d="M217.872 138.836C217.872 138.836 217.872 138.797 217.872 138.719C217.872 138.641 217.872 138.534 217.872 138.397C217.872 138.104 217.872 137.684 217.872 137.138C217.872 136.035 217.873 134.429 217.848 132.394C217.848 128.315 217.824 122.503 217.804 115.549L217.892 115.632H195.615L195.712 115.534C195.712 124.079 195.712 132.077 195.712 138.821L195.629 138.734L211.758 138.778H216.291H217.487H216.306H211.792L195.61 138.821H195.522V138.738C195.522 131.994 195.522 123.996 195.522 115.451V115.349H195.625H217.902H217.99V115.436C217.99 122.415 217.955 128.242 217.946 132.336C217.946 134.366 217.946 135.962 217.921 137.065C217.921 137.601 217.921 138.016 217.921 138.304C217.921 138.436 217.921 138.543 217.921 138.616C217.915 138.691 217.898 138.765 217.872 138.836Z" fill="#E0E0E0"/>
<path d="M210.494 123.464H203.037V130.921H210.494V123.464Z" fill="#EBEBEB"/>
<path d="M154.793 30.9064L151.118 30.9263L151.217 49.2065L154.892 49.1866L154.793 30.9064Z" fill="#E0E0E0"/>
<path d="M128.807 30.9544L119.296 31.0059L119.351 41.0976L128.862 41.0461L128.807 30.9544Z" fill="#EBEBEB"/>
<path d="M138.274 30.908L128.763 30.9595L128.818 41.0512L138.329 40.9997L138.274 30.908Z" fill="#F5F5F5"/>
<path d="M119.311 33.7991C125.631 33.8527 131.97 33.799 138.289 33.7161C138.317 33.7161 138.343 33.7053 138.362 33.6861C138.381 33.6669 138.392 33.6408 138.392 33.6136C138.392 33.5864 138.381 33.5604 138.362 33.5411C138.343 33.5219 138.317 33.5111 138.289 33.5111C131.965 33.4753 125.637 33.5144 119.306 33.6283C119.287 33.6329 119.27 33.6438 119.258 33.6593C119.246 33.6748 119.239 33.6939 119.239 33.7136C119.239 33.7334 119.246 33.7525 119.258 33.768C119.27 33.7835 119.287 33.7944 119.306 33.7991H119.311Z" fill="#E0E0E0"/>
<path d="M130.652 40.8799L113.367 40.9734L113.412 49.1961L130.697 49.1026L130.652 40.8799Z" fill="#EBEBEB"/>
<path d="M147.853 40.7869L130.569 40.8804L130.613 49.1031L147.898 49.0095L147.853 40.7869Z" fill="#F5F5F5"/>
<path d="M113.377 43.2662C124.855 43.3979 136.381 43.2662 147.859 43.0954C147.882 43.0903 147.902 43.0776 147.917 43.0595C147.931 43.0413 147.939 43.0186 147.939 42.9953C147.939 42.972 147.931 42.9494 147.917 42.9312C147.902 42.913 147.882 42.9003 147.859 42.8953C136.376 42.8318 124.855 42.8416 113.372 43.0905C113.349 43.0905 113.327 43.0997 113.31 43.1162C113.294 43.1327 113.284 43.155 113.284 43.1783C113.284 43.2016 113.294 43.224 113.31 43.2404C113.327 43.2569 113.349 43.2662 113.372 43.2662H113.377Z" fill="#E0E0E0"/>
<path d="M173.874 49.2004H106.911V52.148H173.874V49.2004Z" fill="#E0E0E0"/>
<path d="M120.594 50.6204H117.876V60.6732H120.594V50.6204Z" fill="#E0E0E0"/>
<path d="M161.172 50.6204H158.454V60.6732H161.172V50.6204Z" fill="#E0E0E0"/>
<path d="M158.377 24.089L154.702 24.1089L154.838 49.2503L158.513 49.2304L158.377 24.089Z" fill="#EBEBEB"/>
<path d="M164.121 28.7721L158.412 28.803L158.522 49.1767L164.232 49.1458L164.121 28.7721Z" fill="#F5F5F5"/>
<path d="M164.08 32.6962C162.179 32.8264 160.272 32.8264 158.371 32.6962C160.271 32.5596 162.179 32.5596 164.08 32.6962Z" fill="#E0E0E0"/>
<path d="M164.08 31.8471C162.179 31.9837 160.271 31.9837 158.371 31.8471C160.272 31.717 162.179 31.717 164.08 31.8471Z" fill="#E0E0E0"/>
<path d="M164.08 46.0869C162.179 46.217 160.272 46.217 158.371 46.0869C160.272 45.9567 162.179 45.9567 164.08 46.0869Z" fill="#E0E0E0"/>
<path d="M164.08 45.2328C162.179 45.363 160.272 45.363 158.371 45.2328C160.271 45.0962 162.179 45.0962 164.08 45.2328Z" fill="#E0E0E0"/>
<path d="M161.318 43.3638C161.26 43.3638 161.216 41.3094 161.216 38.7718C161.216 36.2342 161.26 34.1846 161.318 34.1846C161.377 34.1846 161.416 36.239 161.416 38.7718C161.416 41.3045 161.372 43.3638 161.318 43.3638Z" fill="#E0E0E0"/>
<path d="M170.351 33.7844H164.139V49.1613H170.351V33.7844Z" fill="#EBEBEB"/>
<path d="M157.541 28.392C157.54 28.6014 157.477 28.8059 157.36 28.9795C157.243 29.1531 157.077 29.288 156.883 29.3673C156.689 29.4465 156.476 29.4665 156.271 29.4247C156.065 29.3829 155.877 29.2812 155.73 29.1324C155.582 28.9836 155.482 28.7945 155.443 28.5889C155.403 28.3833 155.425 28.1705 155.506 27.9773C155.587 27.7842 155.723 27.6195 155.898 27.5039C156.072 27.3883 156.277 27.3272 156.487 27.3281C156.626 27.3281 156.764 27.3557 156.893 27.4093C157.021 27.4629 157.138 27.5414 157.236 27.6403C157.334 27.7392 157.411 27.8566 157.464 27.9856C157.516 28.1146 157.542 28.2527 157.541 28.392Z" fill="#E0E0E0"/>
<path d="M156.814 31.2957H156.16V46.2529H156.814V31.2957Z" fill="#E0E0E0"/>
<path d="M90.6802 17.4851H24.0535V137.172H90.6802V17.4851Z" fill="#EBEBEB"/>
<path d="M87.3276 20.9548H26.7131V133.605H87.3276V20.9548Z" fill="#FAFAFA"/>
<path d="M93.4959 138.251L90.6753 137.172V15.4551H93.4959V138.251Z" fill="#E0E0E0"/>
<path d="M41.5727 93.7207L57.3156 79.0807C59.3115 77.2262 61.9174 75.2254 64.4843 76.1526C65.7189 76.5918 66.6461 77.6459 67.8564 78.1486C70.272 79.1538 73.0341 77.6996 74.8885 75.855C76.7429 74.0103 78.2166 71.707 80.4663 70.3698C82.716 69.0327 86.2149 69.2035 87.3276 71.5703V87.4938L64.4501 97.2928L41.5727 93.7207Z" fill="#F5F5F5"/>
<path d="M26.7131 84.5657C32.5154 82.2038 38.3031 84.2143 42.456 88.904C43.3295 89.88 44.1249 91.0317 45.3254 91.5734C46.9504 92.3103 48.8292 91.7588 50.6056 91.5734C53.0401 91.3315 55.4942 91.7662 57.6976 92.8295C59.901 93.8929 61.7681 95.5437 63.0935 97.6002L43.7248 107.136L26.7131 107.014V84.5657Z" fill="#E0E0E0"/>
<path d="M87.352 84.6486C83.5309 82.8039 80.1686 85.0341 76.6452 87.396C73.1219 89.7579 69.8425 92.764 65.7092 93.74C62.9471 94.3793 59.9849 94.023 57.3156 94.9746C51.8744 96.9266 48.7316 103.822 42.9635 104.154C39.8305 104.33 37.0245 102.436 34.2283 101.011C31.432 99.5862 29.2312 98.2345 26.7375 100.138V133.61H87.352V84.6486Z" fill="#EBEBEB"/>
<path d="M88.6452 53.363H26.7131V54.5635H88.6452V53.363Z" fill="#E0E0E0"/>
<path d="M88.6452 80.1882H26.7131V81.3887H88.6452V80.1882Z" fill="#E0E0E0"/>
<path d="M88.6452 107.014H26.7131V108.214H88.6452V107.014Z" fill="#E0E0E0"/>
<path d="M55.4905 53.9633L55.4905 136.801H58.5551L58.5551 53.9633H55.4905Z" fill="#E0E0E0"/>
<path d="M39.772 20.9548H38.386V53.9632H39.772V20.9548Z" fill="#E0E0E0"/>
<path d="M51.7377 20.9548H50.3518V53.9632H51.7377V20.9548Z" fill="#E0E0E0"/>
<path d="M63.7035 20.9548H62.3176V53.9632H63.7035V20.9548Z" fill="#E0E0E0"/>
<path d="M75.6693 20.9548H74.2833V53.9632H75.6693V20.9548Z" fill="#E0E0E0"/>
<path d="M24.0486 15.4551H21.2328V137.914H24.0486V15.4551Z" fill="#E0E0E0"/>
<path d="M93.491 14.2205H21.2328V17.4852H93.491V14.2205Z" fill="#E0E0E0"/>
<path d="M95.404 138.651H19.2369V141.691H95.404V138.651Z" fill="#E0E0E0"/>
<path d="M90.6753 137.172L95.404 138.651H19.2369L24.0535 137.172H90.6753Z" fill="#EBEBEB"/>
<path d="M224.704 226.144C224.704 226.213 179.808 226.271 124.445 226.271C69.0813 226.271 24.1755 226.213 24.1755 226.144C24.1755 226.076 69.0715 226.017 124.445 226.017C179.818 226.017 224.704 226.076 224.704 226.144Z" fill="#263238"/>
<path d="M79.056 142.623C79.0441 142.686 79.0278 142.748 79.0072 142.808L78.8315 143.34C78.6705 143.828 78.4411 144.502 78.1288 145.385C77.5042 147.151 76.577 149.699 75.3374 152.817C72.1598 160.957 68.3601 168.841 63.9719 176.397C62.731 178.549 61.6449 180.787 60.7218 183.093C59.8882 185.247 59.3053 187.49 58.9846 189.778C58.5029 193.667 58.5029 197.601 58.9846 201.49C59.3457 204.818 59.8239 207.488 60.1314 209.337C60.2924 210.25 60.4144 210.962 60.5022 211.465L60.595 212.016C60.5992 212.08 60.5992 212.143 60.595 212.207C60.5731 212.147 60.5568 212.084 60.5462 212.021C60.5169 211.885 60.4827 211.704 60.4339 211.475C60.3363 210.987 60.1948 210.264 60.0191 209.357C59.6775 207.512 59.17 204.843 58.7845 201.51C58.2854 197.604 58.2756 193.652 58.7552 189.744C59.0662 187.438 59.6409 185.175 60.4681 183C61.3931 180.683 62.4842 178.435 63.7328 176.275C68.1115 168.722 71.9282 160.857 75.152 152.744C76.411 149.64 77.3675 147.103 78.0166 145.346C78.3337 144.477 78.5875 143.794 78.7632 143.321C78.8461 143.096 78.9096 142.925 78.9633 142.794C78.9887 142.734 79.0198 142.677 79.056 142.623Z" fill="#263238"/>
<path d="M74.298 172.079C74.2585 172.181 74.206 172.278 74.1418 172.367C74.015 172.567 73.849 172.855 73.6538 173.157C73.2195 173.84 72.5754 174.821 71.7799 176.031C70.189 178.471 67.9198 181.751 65.636 185.528C64.5038 187.426 63.4986 189.271 62.6494 190.989C61.8003 192.706 61.1318 194.287 60.595 195.629C60.0582 196.971 59.6678 198.069 59.4189 198.85C59.2969 199.211 59.1944 199.504 59.1163 199.729C59.0866 199.834 59.0457 199.935 58.9943 200.031C59.0085 199.923 59.0331 199.817 59.0675 199.714C59.1358 199.485 59.2188 199.187 59.3262 198.816C59.5458 198.035 59.9215 196.928 60.4242 195.566C60.9268 194.205 61.6002 192.609 62.4396 190.886C63.279 189.163 64.2842 187.299 65.4164 185.401C67.7051 181.609 70.0036 178.325 71.6286 175.929L73.5807 173.099L74.1126 172.337C74.1671 172.246 74.2291 172.16 74.298 172.079Z" fill="#263238"/>
<path d="M83.9652 179.35C82.1938 175.544 77.6213 173.06 73.4537 173.401C73.9044 173.625 74.2964 173.951 74.5981 174.354C74.8999 174.756 75.1029 175.224 75.191 175.719C75.3589 176.709 75.4486 177.711 75.4594 178.716C75.8401 183.522 78.9291 187.622 81.901 191.404C83.9896 194.068 86.088 196.772 88.5817 199.041C88.284 192.223 87.84 184.981 83.9652 179.35Z" fill="#455A64"/>
<path d="M73.4537 173.455C76.1085 171.41 79.5391 170.561 82.8917 170.527C86.2442 170.493 89.5528 171.215 92.8029 172.04C94.7549 172.528 96.7411 173.079 98.41 174.206C100.079 175.334 101.406 177.134 101.441 179.164C98.6833 176.134 94.2425 175.548 90.3092 174.406C87.6448 173.635 85.073 172.528 82.3548 171.966C79.3043 171.473 76.1763 171.998 73.4537 173.46" fill="#455A64"/>
<path d="M73.9076 172.913C72.7413 171.693 73.3854 168.833 74.3956 167.482C75.4057 166.13 77.021 165.378 78.6119 164.812C80.7083 164.067 82.8824 163.561 85.0925 163.304C84.8119 164.693 84.0935 165.955 83.0429 166.906C81.995 167.846 80.8499 168.672 79.6269 169.37L73.8978 172.913" fill="#455A64"/>
<path d="M62.9812 171.288C59.6531 172.752 57.0764 175.465 54.5925 178.12C58.2826 177.219 61.8127 175.757 65.0601 173.787C66.3484 173.001 67.627 172.123 69.0959 171.796C70.5648 171.469 72.224 172.123 73.4537 173.142C71.37 170.058 66.3094 169.824 62.9812 171.288Z" fill="#455A64"/>
<path d="M17.4704 169.887C13.3322 175.153 11.956 182.185 12.4196 188.866C14.8835 179.953 20.0037 172.002 27.0986 166.071C29.7973 163.831 33.2474 162.055 36.5902 162.055C29.7094 161.44 21.7404 164.456 17.4704 169.887Z" fill="#455A64"/>
<path d="M27.0743 159.313C24.7709 159.483 22.6823 160.655 20.7547 161.963C17.8267 163.968 15.0939 166.496 13.8202 169.8C16.4043 166.757 19.6986 164.399 23.4115 162.933C27.1243 161.468 31.1413 160.94 35.1068 161.396C32.5887 160.147 29.8754 159.088 27.0743 159.313Z" fill="#455A64"/>
<path d="M33.5402 151.407C32.208 152.334 31.1832 153.847 31.2515 155.482C31.3454 156.603 31.8128 157.659 32.5789 158.483C33.4228 159.462 34.3593 160.358 35.3751 161.157C36.2194 157.405 37.2393 153.481 38.0884 149.728C36.4748 149.976 34.9278 150.547 33.5402 151.407Z" fill="#455A64"/>
<path d="M41.358 151.046C39.5059 152.156 38.0145 153.778 37.0636 155.716C36.1852 157.668 35.8192 160.142 36.927 161.977C40.0967 157.243 43.5176 152.682 47.175 148.313C45.1527 149.035 43.2048 149.95 41.358 151.046Z" fill="#455A64"/>
<path d="M47.9899 157.492C45.9107 157.346 43.827 157.706 41.9178 158.542C40.0086 159.379 38.3311 160.666 37.0294 162.294C38.8447 161.369 40.8869 160.983 42.9147 161.182C48.0042 161.842 53.0543 162.777 58.0427 163.983C57.018 162.168 55.5677 160.629 53.8166 159.498C52.0654 158.367 50.0659 157.679 47.9899 157.492Z" fill="#455A64"/>
<path d="M78.9877 142.623C79.1097 141.422 77.8116 140.232 76.6795 139.812C75.5177 139.46 74.2787 139.451 73.1122 139.788C69.7028 140.605 66.6011 142.388 64.1779 144.922C61.7547 147.456 60.1127 150.634 59.4482 154.076C62.5993 152.513 65.8424 151.143 69.1594 149.972L68.5982 150.128C70.2033 149.806 71.7193 149.139 73.0414 148.174C74.3634 147.208 75.4599 145.967 76.2549 144.536C76.5135 143.962 76.8592 143.432 77.2797 142.965C77.4968 142.736 77.7796 142.58 78.0891 142.519C78.3985 142.457 78.7194 142.494 79.0072 142.623" fill="#455A64"/>
<path d="M78.9926 142.613C82.1245 140.45 85.9722 139.585 89.7286 140.197C91.5885 140.525 93.3532 141.26 94.8968 142.348C96.4405 143.436 97.725 144.851 98.659 146.493C99.5653 148.151 100.045 150.009 100.055 151.9C100.066 153.79 99.6059 155.653 98.7175 157.321C96.9802 153.71 95.121 149.948 91.8855 147.586C91.1291 147.029 90.2751 146.527 89.8457 145.687C89.3577 144.711 89.5529 143.521 89.1332 142.52C88.611 141.286 87.1812 140.925 85.8343 140.856C84.4874 140.788 80.6176 142.018 79.0023 142.613" fill="#455A64"/>
<path d="M78.9096 142.555C82.1255 141.579 85.7416 143.169 87.9474 145.58C90.1531 147.991 91.2463 151.217 91.622 154.447C91.9978 157.678 91.6952 160.947 91.3682 164.183C88.8506 160.43 86.9801 156.281 85.8343 151.91C85.317 149.958 84.9413 147.903 84.0092 146.088C83.4764 145.156 82.742 144.355 81.8596 143.744C80.9772 143.132 79.9693 142.726 78.9096 142.555Z" fill="#455A64"/>
<path d="M78.8023 142.623C81.374 141.432 82.8185 138.748 83.1504 135.937C83.3004 134.525 83.0936 133.098 82.5488 131.787C82.0039 130.475 81.1386 129.322 80.032 128.432C78.767 129.621 77.869 131.148 77.4444 132.832C77.0198 134.516 77.0862 136.286 77.636 137.933C78.1776 139.475 79.1683 141.027 78.7974 142.623" fill="#455A64"/>
<path d="M58.2721 194.712C58.206 194.589 58.152 194.46 58.111 194.327C58.0086 194.073 57.8817 193.687 57.6865 193.209C57.3107 192.233 56.7105 190.852 55.9297 189.173C53.8074 184.823 51.3843 180.626 48.678 176.612C46.0284 172.564 43.0929 168.71 39.894 165.081C38.9166 163.978 37.8544 162.953 36.7171 162.016C36.4057 161.771 36.0798 161.544 35.7411 161.338C35.614 161.281 35.4917 161.214 35.3751 161.138C35.5101 161.177 35.6408 161.229 35.7655 161.294C36.1194 161.48 36.4573 161.696 36.7757 161.938C37.9403 162.854 39.0243 163.868 40.016 164.968C43.2722 168.57 46.2433 172.418 48.9025 176.48C51.6194 180.502 54.0273 184.724 56.1054 189.11C56.8862 190.803 57.4474 192.199 57.7938 193.185C57.9744 193.673 58.0866 194.058 58.1745 194.322C58.2186 194.449 58.2513 194.579 58.2721 194.712Z" fill="#263238"/>
<path d="M67.5782 226.144H50.0249L47.2238 203.74H70.7795L67.5782 226.144Z" fill="#FF725E"/>
<path d="M61.4197 193.033C63.2789 188.763 62.4933 183.581 64.8357 179.565C66.6461 176.49 69.9889 174.685 73.3122 173.372C74.0833 175.685 73.7173 178.252 72.7364 180.506C71.7555 182.761 70.2085 184.674 68.5737 186.484C66.3094 188.988 63.8499 191.301 61.3904 193.609" fill="#455A64"/>
<path d="M71.8677 203.74H45.6133V208.313H71.8677V203.74Z" fill="#FF725E"/>
<path d="M70.9893 208.464C70.9893 208.532 65.309 208.591 58.3013 208.591C51.2937 208.591 45.6133 208.532 45.6133 208.464C45.6133 208.395 51.2937 208.337 58.3013 208.337C65.309 208.337 70.9893 208.376 70.9893 208.464Z" fill="#263238"/>
<path d="M80.1979 142.803C79.3273 141.179 78.3044 139.642 77.1431 138.211C75.973 136.775 74.417 135.704 72.6583 135.122C70.2915 134.429 67.7783 134.981 65.3871 135.684C62.6248 136.504 59.9283 137.532 57.3205 138.758C60.7699 140.059 64.5632 140.126 68.0565 138.948C69.8621 138.333 71.6189 138.411 73.5123 138.626C75.8206 138.89 78.7095 141.027 80.2077 142.803" fill="#455A64"/>
<path d="M37.5077 161.977C33.6037 162.192 30.1877 165.188 28.8408 168.848C27.4939 172.508 27.9478 176.656 29.4166 180.272C30.8855 183.888 33.3206 187.041 35.8436 189.998C37.127 185.606 38.4105 181.175 38.9717 176.627C39.5329 172.079 39.1083 166.271 37.5077 161.977Z" fill="#455A64"/>
<path d="M128.544 208.122L129.032 223.348L132.882 235.279C132.948 235.483 132.972 235.698 132.951 235.911C132.93 236.124 132.866 236.331 132.762 236.518C132.658 236.705 132.517 236.869 132.347 236.999C132.177 237.13 131.982 237.224 131.775 237.275C131.534 237.337 131.281 237.34 131.039 237.283C130.797 237.226 130.572 237.111 130.384 236.948C127.944 234.85 118.994 227.076 119.018 225.964C119.052 224.67 117.447 209.933 117.447 209.933L128.544 208.122Z" fill="#455A64"/>
<path d="M131.76 237.275L118.95 224.934L118.984 225.578C119.011 226.136 119.238 226.666 119.623 227.071C120.653 228.155 123.557 231.078 130.32 236.953C130.515 237.122 130.748 237.239 131 237.296C131.251 237.352 131.512 237.345 131.76 237.275Z" fill="#E0E0E0"/>
<path d="M121.815 219.858C122.008 219.986 122.149 220.18 122.209 220.404C122.269 220.628 122.245 220.866 122.142 221.074C122.021 221.273 121.83 221.419 121.606 221.481C121.382 221.544 121.142 221.518 120.936 221.41C120.726 221.278 120.574 221.071 120.512 220.83C120.449 220.59 120.481 220.335 120.599 220.117C120.745 219.922 120.962 219.792 121.202 219.754C121.443 219.715 121.688 219.772 121.888 219.912" fill="#E0E0E0"/>
<path d="M127.929 230.824C128.017 230.863 128.32 230.043 129.198 229.57C130.076 229.096 130.921 229.233 130.93 229.135C130.94 229.038 130.745 228.989 130.384 228.96C129.914 228.937 129.447 229.047 129.037 229.277C128.627 229.508 128.29 229.849 128.066 230.263C127.905 230.58 127.89 230.824 127.929 230.824Z" fill="#263238"/>
<path d="M129.125 232.776C129.198 232.839 129.662 232.317 130.438 232.049C131.213 231.78 131.902 231.873 131.902 231.776C131.902 231.678 131.194 231.414 130.316 231.737C129.437 232.059 129.042 232.776 129.125 232.776Z" fill="#263238"/>
<path d="M125.772 228.316C125.845 228.384 126.553 227.579 127.724 227.057C128.895 226.534 129.954 226.51 129.954 226.408C129.954 226.305 128.832 226.178 127.588 226.754C126.343 227.33 125.694 228.277 125.772 228.316Z" fill="#263238"/>
<path d="M125.24 223.699C125.284 223.792 126.104 223.392 127.192 223.294C128.281 223.196 129.144 223.411 129.193 223.294C129.242 223.177 128.329 222.806 127.158 222.943C125.987 223.079 125.187 223.631 125.24 223.699Z" fill="#263238"/>
<path d="M124.987 219.234C125.035 219.322 125.855 218.746 127.012 218.746C128.168 218.746 129.008 219.234 129.056 219.146C129.105 219.058 128.905 218.927 128.539 218.746C128.063 218.513 127.537 218.399 127.007 218.414C126.476 218.421 125.954 218.555 125.484 218.805C125.128 219.014 124.962 219.2 124.987 219.234Z" fill="#263238"/>
<path d="M126.939 217.906C126.982 217.717 126.982 217.52 126.939 217.331C126.857 216.811 126.673 216.314 126.397 215.867C126.227 215.515 125.943 215.231 125.592 215.061C125.471 215.015 125.34 215.007 125.215 215.039C125.09 215.07 124.978 215.139 124.894 215.237C124.745 215.438 124.672 215.685 124.689 215.935C124.749 216.448 124.986 216.923 125.36 217.279C125.733 217.636 126.219 217.851 126.734 217.887C127.24 217.911 127.741 217.785 128.176 217.525C128.61 217.264 128.957 216.881 129.174 216.423C129.227 216.307 129.254 216.18 129.254 216.052C129.254 215.924 129.227 215.798 129.174 215.681C129.107 215.57 129.007 215.482 128.888 215.43C128.769 215.379 128.637 215.366 128.51 215.393C128.138 215.493 127.801 215.692 127.534 215.969C127.137 216.319 126.806 216.737 126.558 217.204C126.452 217.368 126.382 217.552 126.353 217.745C126.715 217.149 127.164 216.609 127.685 216.145C127.929 215.914 128.225 215.746 128.549 215.657C128.618 215.64 128.691 215.646 128.756 215.674C128.821 215.703 128.875 215.751 128.91 215.813C128.938 215.892 128.95 215.976 128.945 216.06C128.94 216.144 128.918 216.226 128.881 216.301C128.683 216.692 128.377 217.019 127.999 217.241C127.621 217.463 127.187 217.572 126.748 217.555C126.316 217.523 125.908 217.346 125.589 217.053C125.27 216.76 125.06 216.368 124.991 215.94C124.976 215.768 125.019 215.596 125.113 215.452C125.158 215.396 125.22 215.355 125.289 215.336C125.358 215.317 125.432 215.32 125.499 215.344C125.792 215.493 126.033 215.726 126.192 216.013C126.547 216.597 126.8 217.237 126.939 217.906Z" fill="#263238"/>
<path d="M159.576 206.78L159.757 218.853C159.757 218.853 172.108 222.723 172.362 224.968L148.962 226.164L147.908 207.361L159.576 206.78Z" fill="#455A64"/>
<path d="M152.49 218.209C152.272 218.293 152.09 218.452 151.979 218.658C151.868 218.864 151.835 219.103 151.885 219.332C151.956 219.556 152.111 219.744 152.317 219.858C152.523 219.971 152.765 220.001 152.993 219.942C153.228 219.856 153.423 219.687 153.54 219.466C153.657 219.245 153.688 218.988 153.627 218.746C153.521 218.526 153.336 218.354 153.11 218.264C152.883 218.174 152.631 218.171 152.402 218.258" fill="#E0E0E0"/>
<path d="M148.962 226.144L148.933 224.246L171.381 223.812C171.381 223.812 172.445 224.212 172.357 224.949L148.962 226.144Z" fill="#E0E0E0"/>
<path d="M160.147 218.717C160.147 218.829 159.581 218.912 159.039 219.307C158.498 219.703 158.219 220.195 158.112 220.156C158.005 220.117 158.141 219.449 158.81 218.98C159.478 218.512 160.166 218.624 160.147 218.717Z" fill="#263238"/>
<path d="M162.655 219.6C162.685 219.707 162.201 219.927 161.84 220.43C161.479 220.932 161.391 221.45 161.274 221.45C161.157 221.45 161.055 220.81 161.518 220.195C161.982 219.581 162.646 219.498 162.655 219.6Z" fill="#263238"/>
<path d="M164.197 222.469C164.095 222.499 163.909 221.937 164.168 221.298C164.427 220.659 164.954 220.381 165.007 220.473C165.061 220.566 164.744 220.918 164.519 221.449C164.295 221.981 164.31 222.455 164.197 222.469Z" fill="#263238"/>
<path d="M159.8 215.969C159.761 216.072 159.229 215.945 158.585 216.018C157.941 216.091 157.448 216.326 157.385 216.233C157.321 216.14 157.78 215.706 158.541 215.623C159.303 215.54 159.854 215.877 159.8 215.969Z" fill="#263238"/>
<path d="M180.458 136.64L175.011 140.768C175.011 140.768 176.285 144.136 178.379 145.722C180.472 147.308 182.38 153.852 182.38 153.852C182.38 153.852 181.365 156.013 182.063 156.331C182.761 156.648 183.464 155.843 183.464 155.843C183.464 155.843 184.035 156.985 184.859 156.921C185.684 156.858 185.938 155.272 185.938 155.272C185.938 155.272 186.767 156.667 187.465 156.16C188.163 155.652 188.929 150.377 188.929 150.377L187.338 145.258C187.211 144.877 186.979 144.538 186.67 144.282L182.234 140.544L180.458 136.64Z" fill="#FFBE9D"/>
<path d="M186.289 155.799C186.192 155.704 186.114 155.592 186.06 155.467C185.896 155.137 185.793 154.78 185.757 154.413C185.709 153.87 185.74 153.322 185.85 152.788C185.952 152.193 186.182 151.548 186.255 150.885C186.263 150.252 186.077 149.632 185.723 149.108C185.425 148.596 185.118 148.132 184.918 147.718C184.745 147.39 184.647 147.029 184.63 146.659C184.613 146.524 184.628 146.387 184.674 146.259C184.71 146.741 184.848 147.21 185.079 147.635C185.289 148.035 185.606 148.469 185.928 148.991C186.321 149.55 186.523 150.221 186.504 150.904C186.466 151.248 186.399 151.587 186.304 151.919C186.221 152.237 186.143 152.544 186.079 152.837C185.961 153.347 185.913 153.871 185.938 154.393C185.981 154.877 186.1 155.352 186.289 155.799Z" fill="#EB996E"/>
<path d="M183.888 154.384C183.956 154.413 183.888 154.735 183.805 155.13C183.722 155.526 183.683 155.852 183.615 155.852C183.547 155.852 183.473 155.506 183.556 155.081C183.639 154.657 183.825 154.354 183.888 154.384Z" fill="#EB996E"/>
<path d="M113.089 131.243C113.089 131.667 113.621 165.476 113.753 168.067C113.826 169.629 113.904 181.033 114.456 189.51C115.217 201.222 117.442 219.976 117.442 219.976L129.056 219.156C129.056 219.156 131.14 171.332 131.077 178.218C131.077 179.111 135.03 140.783 135.03 140.783L130.994 129.901L113.089 131.243Z" fill="#263238"/>
<path d="M131.228 142.764L143.77 179.003L147.274 218.424L160.132 217.906C160.132 217.906 160.698 178.808 159.849 174.831C159 170.853 151.28 129.886 151.28 129.886L130.984 127.192L131.228 142.764Z" fill="#263238"/>
<path d="M160.752 105.803C160.898 106.291 166.896 123.2 166.896 123.2L176.544 144.389L181.575 140.783L176.378 121.605L172.908 104.09L160.752 105.803Z" fill="#FFBE9D"/>
<path d="M119.253 132.18C119.253 132.18 127.578 137.675 134.171 137.86C137.407 137.938 140.619 137.293 143.574 135.971C146.528 134.65 149.151 132.686 151.251 130.223L151.739 129.515C151.93 129.24 152.019 128.905 151.989 128.571C151.96 128.237 151.814 127.923 151.578 127.685L151.382 127.49L150.641 118.643L151.129 116.149L159.122 103.885L162.797 98.7517L165.979 85.7904L152.222 75.2252L144.736 73.3611L134.332 81.9401C134.332 81.9401 122.244 97.1608 120.048 104.974C117.852 112.787 113.104 129.901 113.104 129.901L119.253 132.18Z" fill="#FF725E"/>
<path d="M165.676 85.5464C167.918 86.909 169.623 89.0005 170.507 91.4707C172.069 95.6773 174.899 109.854 174.899 109.854L159.844 111.03L157.087 102.709L165.676 85.5464Z" fill="#FF725E"/>
<path d="M111.645 120.902L112.172 126.514L111.406 132.404L111.976 137.728L115.7 140.934C115.7 140.934 118.789 143.34 118.389 141.452C118.389 141.452 119.189 141.964 119.418 141.334C119.648 140.705 118.33 138.528 118.33 138.528L116.73 133.263L117.706 132.233C117.706 132.233 118.735 135.61 119.453 136.757C119.655 137.088 119.927 137.372 120.248 137.589C120.57 137.806 120.934 137.952 121.317 138.016L120.858 135.84L120.341 131.199L118.316 124.928L118.613 121.512L111.645 120.902Z" fill="#FFBE9D"/>
<path d="M182.678 149.328C181.97 149.977 181.024 150.304 180.189 150.792C179.355 151.28 178.564 152.051 178.569 153.012C178.569 153.539 178.803 154.091 178.569 154.564C178.335 155.037 177.788 155.184 177.412 155.54C177.134 155.838 176.951 156.212 176.885 156.614C176.819 157.016 176.873 157.428 177.042 157.8C177.172 158.128 177.349 158.435 177.569 158.712C177.787 158.989 178.086 159.191 178.425 159.288C178.764 159.385 179.125 159.373 179.457 159.254L179.633 159.205C179.835 159.145 180.048 159.13 180.257 159.16C180.466 159.191 180.666 159.266 180.843 159.381C181.093 159.62 181.325 159.878 181.536 160.152C181.783 160.392 182.101 160.545 182.443 160.588C182.785 160.63 183.132 160.56 183.43 160.388C183.728 160.215 183.962 159.95 184.096 159.633C184.23 159.315 184.256 158.963 184.171 158.629L186.27 158.859C186.409 158.893 186.554 158.899 186.695 158.877C186.837 158.854 186.973 158.803 187.094 158.727C187.197 158.616 187.272 158.483 187.314 158.338C187.357 158.193 187.365 158.041 187.338 157.892C187.312 157.18 187.174 156.477 186.928 155.809C186.765 155.465 186.676 155.091 186.67 154.711C186.739 154.374 186.847 154.046 186.992 153.735C187.191 153.024 187.114 152.264 186.777 151.607C186.441 150.958 186.027 150.353 185.542 149.806C185.285 149.398 184.908 149.078 184.464 148.889C183.869 148.713 183.249 149.03 182.707 149.338" fill="#E0E0E0"/>
<path d="M175.651 140.783C175.714 141.037 175.841 143.321 176.666 144.912C177.49 146.503 180.16 148.66 180.16 148.66C180.16 148.66 181.302 153.866 182.38 154.437C183.459 155.008 184.669 154.311 184.415 152.725C184.036 151.027 183.564 149.353 183 147.708C183 147.708 183.063 144.658 183.063 144.404C183.063 144.15 175.651 140.783 175.651 140.783Z" fill="#FFBE9D"/>
<path d="M183.068 145.087C183.097 145.315 183.107 145.545 183.098 145.775C183.098 146.263 183.098 146.907 183.098 147.727V147.698C183.483 148.85 184.005 150.362 184.43 152.178C184.572 152.652 184.602 153.154 184.518 153.642C184.464 153.915 184.33 154.166 184.133 154.363C183.935 154.559 183.684 154.692 183.41 154.745C183.128 154.795 182.837 154.767 182.571 154.662C182.294 154.559 182.058 154.371 181.897 154.125C181.595 153.652 181.351 153.144 181.17 152.612C180.712 151.337 180.338 150.033 180.053 148.708L180.092 148.776C179.11 147.974 178.202 147.085 177.378 146.122C177.021 145.709 176.723 145.249 176.49 144.755C176.301 144.332 176.151 143.893 176.041 143.443C175.884 142.801 175.773 142.148 175.709 141.491L175.665 140.973C175.665 140.851 175.665 140.793 175.665 140.793C175.665 140.793 175.768 141.769 176.192 143.389C176.318 143.828 176.482 144.256 176.68 144.667C176.917 145.139 177.214 145.577 177.564 145.97C178.39 146.914 179.296 147.784 180.272 148.571L180.306 148.601V148.64C180.601 149.955 180.976 151.25 181.429 152.519C181.601 153.033 181.833 153.525 182.122 153.983C182.258 154.184 182.451 154.341 182.675 154.434C182.9 154.526 183.147 154.551 183.386 154.506C183.613 154.462 183.823 154.352 183.987 154.188C184.152 154.025 184.263 153.816 184.308 153.588C184.384 153.132 184.358 152.666 184.23 152.222C183.825 150.426 183.332 148.903 182.976 147.747V147.722C183.005 146.917 183.034 146.258 183.049 145.77C183.039 145.542 183.046 145.314 183.068 145.087Z" fill="#EB996E"/>
<path d="M150.641 117.637C150.454 117.74 150.255 117.822 150.05 117.881C149.665 118.023 149.074 118.203 148.396 118.408C146.553 118.929 144.672 119.299 142.769 119.516C140.868 119.733 138.952 119.798 137.04 119.711C136.303 119.672 135.713 119.623 135.308 119.57C135.093 119.559 134.88 119.525 134.673 119.467C134.886 119.447 135.1 119.447 135.313 119.467C135.723 119.467 136.313 119.511 137.045 119.526C138.947 119.561 140.849 119.473 142.74 119.262C144.631 119.042 146.506 118.698 148.352 118.233C149.06 118.057 149.631 117.901 150.026 117.788C150.226 117.719 150.432 117.668 150.641 117.637Z" fill="#263238"/>
<path d="M165.637 95.3796C165.534 95.5555 165.411 95.7192 165.271 95.8676C165.017 96.1702 164.661 96.6143 164.232 97.1657C163.363 98.2735 162.221 99.84 161.001 101.607C159.781 103.373 158.693 104.979 157.873 106.125C157.463 106.696 157.126 107.155 156.897 107.467C156.785 107.645 156.652 107.809 156.502 107.955C156.59 107.77 156.696 107.593 156.819 107.428L157.741 106.042C158.522 104.871 159.586 103.246 160.806 101.48C162.026 99.7131 163.197 98.1564 164.105 97.0876C164.558 96.5508 164.934 96.1116 165.208 95.8384C165.33 95.6676 165.475 95.5134 165.637 95.3796Z" fill="#263238"/>
<path d="M126.831 82.7159C126.29 82.672 111.576 96.5117 110.512 98.9566C109.449 101.401 112.103 125.309 112.103 125.309L118.316 124.918L120.268 102.47L133.858 90.724L126.831 82.7159Z" fill="#FFBE9D"/>
<path d="M145.912 83.2626L130.423 95.9847L120.516 83.6578C120.516 83.6578 132.799 75.4448 135.522 74.1272C140.11 71.9019 144.76 73.3611 144.76 73.3611L145.912 83.2626Z" fill="#FF725E"/>
<path d="M140.876 90.3873C140.826 90.4454 140.771 90.4977 140.71 90.5435L140.222 90.9681C139.734 91.3438 139.09 91.8611 138.27 92.4906L131.706 97.6L131.609 97.6732L131.531 97.5756C131.116 97.0583 130.677 96.5117 130.228 95.9603L124.176 88.328L122.361 86.01L121.873 85.3707C121.761 85.2243 121.707 85.1414 121.717 85.1365C121.79 85.1972 121.855 85.266 121.912 85.3414L122.429 85.9465L124.303 88.2158L130.418 95.7651L131.716 97.3853H131.545L138.158 92.3589L140.11 90.8949L140.651 90.5093C140.719 90.4573 140.795 90.4161 140.876 90.3873Z" fill="#263238"/>
<path d="M134.688 142.008C134.7 142.107 134.7 142.207 134.688 142.306C134.664 142.53 134.634 142.794 134.6 143.155C134.527 143.926 134.42 144.985 134.293 146.278C134.044 148.918 133.751 152.568 133.419 156.599C133.087 160.63 132.765 164.285 132.443 166.92C132.302 168.238 132.165 169.302 132.058 170.039C132.004 170.38 131.955 170.663 131.921 170.883C131.912 170.981 131.89 171.078 131.858 171.171C131.845 171.072 131.845 170.972 131.858 170.873C131.858 170.654 131.906 170.385 131.945 170.024C132.019 169.253 132.126 168.194 132.253 166.901C132.497 164.261 132.79 160.611 133.126 156.58C133.463 152.549 133.78 148.899 134.073 146.263C134.22 144.941 134.356 143.877 134.464 143.145L134.595 142.301C134.618 142.201 134.649 142.103 134.688 142.008Z" fill="#455A64"/>
<path d="M163.968 84.2385C163.871 84.4101 163.76 84.5733 163.636 84.7265L162.66 86.1222C161.551 87.155 160.16 87.8345 158.663 88.0742C157.656 88.2386 156.625 88.1842 155.641 87.9147C154.657 87.6453 153.742 87.1671 152.959 86.5126C151.652 85.4321 150.697 83.9861 150.216 82.3597C149.834 81.0388 149.765 79.6468 150.016 78.2947C150.175 77.3871 150.469 76.5085 150.89 75.6888C151.041 75.396 151.168 75.2008 151.26 75.0397C151.353 74.8787 151.407 74.825 151.417 74.8299C151.426 74.8348 151.246 75.1471 150.977 75.7278C150.6 76.5539 150.336 77.4272 150.192 78.324C149.974 79.6499 150.059 81.008 150.441 82.2963C150.922 83.8697 151.853 85.2676 153.12 86.3174C153.916 86.9731 154.845 87.4491 155.843 87.7131C156.754 87.9403 157.7 87.9884 158.629 87.8546C160.092 87.6265 161.456 86.9789 162.558 85.9905C162.987 85.4341 163.338 84.9803 163.597 84.6387C163.71 84.4953 163.834 84.3615 163.968 84.2385Z" fill="#263238"/>
<g opacity="0.3">
<path opacity="0.3" d="M121.414 101.46L129.081 97.229L131.643 98.9077L139.119 91.7634L131.599 97.5365L129.286 94.6573L121.414 101.46Z" fill="black"/>
</g>
<g opacity="0.3">
<path opacity="0.3" d="M158.039 105.774C159.691 105.189 161.059 103.997 161.865 102.441C162.81 100.755 163.56 98.9674 164.1 97.1118L158.039 105.774Z" fill="black"/>
</g>
<g opacity="0.3">
<path opacity="0.3" d="M130.618 115.031C131.428 116.471 132.892 117.276 134.463 117.793C136.053 118.246 137.692 118.5 139.343 118.55C140.766 118.692 142.197 118.715 143.623 118.618C145.056 118.518 146.442 118.062 147.654 117.291C141.915 117.056 136.089 116.808 130.618 115.031Z" fill="black"/>
</g>
<path d="M130.262 135.176C130.34 135.165 130.418 135.165 130.496 135.176L131.155 135.235C131.443 135.269 131.789 135.303 132.199 135.313C132.609 135.322 133.073 135.366 133.585 135.347C134.098 135.327 134.664 135.347 135.264 135.278C135.864 135.21 136.508 135.152 137.177 135.064C140.096 134.614 142.909 133.632 145.473 132.165C146.054 131.819 146.615 131.497 147.103 131.14C147.591 130.784 148.054 130.467 148.454 130.164C148.855 129.862 149.206 129.535 149.518 129.271C149.831 129.008 150.084 128.783 150.289 128.559L150.777 128.1C150.831 128.043 150.891 127.994 150.958 127.954C150.918 128.021 150.87 128.083 150.816 128.139L150.367 128.627C150.172 128.842 149.928 129.115 149.626 129.374C149.323 129.632 148.991 129.984 148.576 130.296C148.146 130.663 147.697 131.007 147.23 131.326C146.742 131.692 146.18 132.019 145.6 132.38C143.025 133.886 140.183 134.88 137.23 135.308C136.547 135.391 135.903 135.483 135.278 135.498C134.715 135.539 134.15 135.552 133.585 135.537C133.068 135.537 132.609 135.488 132.189 135.464C131.839 135.443 131.491 135.402 131.145 135.342L130.486 135.235C130.409 135.229 130.333 135.209 130.262 135.176Z" fill="#263238"/>
<path d="M152.066 137.836C151.78 137.867 151.491 137.832 151.221 137.733C150.554 137.541 149.935 137.208 149.406 136.757C148.88 136.306 148.454 135.749 148.157 135.122C148.016 134.871 147.936 134.59 147.923 134.302C148.07 134.539 148.203 134.785 148.318 135.039C148.971 136.204 150.021 137.095 151.275 137.553C151.546 137.626 151.81 137.721 152.066 137.836Z" fill="#455A64"/>
<path d="M144.204 84.2971C144.165 84.2971 144.326 83.6334 144.531 82.5696C144.827 81.1976 144.895 79.7862 144.731 78.3923C144.542 77.0027 143.917 75.709 142.945 74.6981C142.517 74.3059 142.048 73.9622 141.544 73.6733C141.703 73.6987 141.855 73.7533 141.993 73.8344C142.387 74.0215 142.749 74.2684 143.067 74.5664C144.114 75.5769 144.79 76.9111 144.985 78.3533C145.153 79.7768 145.059 81.2191 144.707 82.6086C144.585 83.1405 144.463 83.5846 144.37 83.853C144.337 84.0084 144.281 84.158 144.204 84.2971Z" fill="#263238"/>
<path d="M181.463 57.7157C182.263 57.3643 182.468 56.2224 182.053 55.4465C181.573 54.6971 180.824 54.1608 179.96 53.9483C179.105 53.743 178.263 53.4905 177.437 53.1919C176.31 52.7039 175.426 51.7865 174.48 50.9959C173.533 50.2054 172.406 49.4978 171.171 49.5319C169.761 49.5612 168.536 50.547 167.14 50.7568C165.349 51.0252 163.27 50.0492 161.835 51.157C160.913 51.8646 160.694 53.148 160.02 54.085C159.532 54.7731 158.815 55.2611 158.263 55.8955C157.356 57.0311 156.856 58.4385 156.843 59.8922C156.845 61.3358 157.008 62.7746 157.331 64.1817L165.598 54.7975C167.55 58.7551 171.308 61.6295 175.431 63.2008C176.865 63.8368 178.436 64.0988 179.999 63.9621C181.541 63.7425 183.059 62.7616 183.522 61.2732C183.986 59.7848 183 57.906 181.463 57.7157Z" fill="#263238"/>
<path d="M172.752 53.3578L172.264 53.1089C166.994 50.708 162.016 53.8409 159.756 59.1748L152.197 75.2251C150.114 79.5146 151.514 85.356 156.101 86.615C158.615 87.3031 161.601 86.4003 162.826 84.1067C163.216 83.3747 163.9 81.7399 163.929 81.696C163.958 81.6521 169.248 83.526 171.903 78.6411C173.186 76.2841 175.431 71.2137 177.407 66.6021C178.437 64.2133 178.529 61.5246 177.667 59.0706C176.804 56.6167 175.05 54.5773 172.752 53.3578Z" fill="#FFBE9D"/>
<path d="M163.968 81.6959C161.699 80.491 159.824 78.66 158.566 76.4207C158.566 76.4207 158.151 81.0811 163.29 83.2527L163.968 81.6959Z" fill="#EB996E"/>
<path d="M173.791 70.6574C173.696 70.8407 173.534 70.9798 173.338 71.0454C173.142 71.111 172.929 71.0978 172.742 71.0088C172.649 70.9691 172.564 70.9111 172.494 70.8381C172.423 70.7651 172.368 70.6787 172.332 70.584C172.295 70.4893 172.278 70.3882 172.282 70.2868C172.285 70.1854 172.309 70.0857 172.352 69.9937C172.446 69.8095 172.609 69.6696 172.805 69.6039C173.001 69.5382 173.215 69.552 173.401 69.6424C173.494 69.682 173.579 69.7401 173.649 69.813C173.72 69.886 173.775 69.9724 173.811 70.0671C173.848 70.1618 173.865 70.2629 173.861 70.3643C173.858 70.4657 173.834 70.5654 173.791 70.6574Z" fill="#263238"/>
<path d="M175.124 68.4468C174.987 68.4907 174.665 67.8172 173.909 67.422C173.152 67.0267 172.401 67.1096 172.367 66.973C172.367 66.9096 172.523 66.7924 172.855 66.7436C173.3 66.6905 173.752 66.7757 174.148 66.9876C174.54 67.1959 174.858 67.5219 175.055 67.9197C175.192 68.2223 175.192 68.4272 175.124 68.4468Z" fill="#263238"/>
<path d="M166.686 67.0609C166.591 67.2442 166.428 67.3833 166.233 67.4489C166.037 67.5144 165.823 67.5013 165.637 67.4122C165.544 67.3721 165.46 67.3137 165.39 67.2407C165.32 67.1676 165.265 67.0813 165.228 66.9867C165.192 66.8922 165.175 66.7914 165.178 66.6902C165.181 66.5889 165.204 66.4893 165.247 66.3972C165.34 66.2121 165.502 66.0713 165.699 66.0055C165.895 65.9397 166.11 65.9542 166.296 66.0458C166.39 66.0849 166.475 66.1427 166.545 66.2155C166.616 66.2884 166.672 66.3749 166.708 66.4698C166.745 66.5647 166.762 66.666 166.758 66.7676C166.754 66.8692 166.73 66.969 166.686 67.0609Z" fill="#263238"/>
<path d="M167.623 64.6696C167.491 64.7135 167.164 64.0401 166.408 63.6399C165.652 63.2397 164.9 63.3325 164.866 63.1958C164.866 63.1324 165.022 63.0153 165.354 62.9665C165.8 62.913 166.251 62.9982 166.647 63.2105C167.042 63.4157 167.36 63.7425 167.555 64.1425C167.696 64.4402 167.691 64.6501 167.623 64.6696Z" fill="#263238"/>
<path d="M167.408 71.7361C167.872 71.8217 168.322 71.9643 168.75 72.1606C168.955 72.2436 169.16 72.3022 169.263 72.1899C169.383 71.9972 169.443 71.7728 169.434 71.5458C169.497 70.9846 169.565 70.3941 169.639 69.7792C169.951 67.2709 170.288 65.2457 170.385 65.2603C170.483 65.275 170.317 67.3197 170.005 69.828C169.922 70.4429 169.844 71.0334 169.77 71.5946C169.768 71.8909 169.662 72.1771 169.473 72.4046C169.406 72.4609 169.327 72.5004 169.242 72.5199C169.157 72.5395 169.069 72.5384 168.985 72.5169C168.862 72.4905 168.744 72.4479 168.633 72.39C168.199 72.2239 167.788 72.0043 167.408 71.7361Z" fill="#263238"/>
<path d="M164.91 71.0624C165.037 71.121 164.607 71.9408 164.998 72.8973C165.388 73.8538 166.315 74.2198 166.262 74.3613C166.208 74.5028 165.983 74.4199 165.608 74.2344C165.124 73.9866 164.743 73.5774 164.529 73.0779C164.333 72.5944 164.333 72.0535 164.529 71.57C164.656 71.1844 164.856 71.0283 164.91 71.0624Z" fill="#263238"/>
<path d="M169.385 61.8101C169.199 61.976 168.497 61.4831 167.555 61.122C166.613 60.7609 165.769 60.634 165.749 60.3754C165.749 60.2582 165.969 60.1314 166.364 60.0874C166.878 60.0463 167.395 60.1234 167.874 60.3129C168.354 60.5024 168.784 60.7992 169.131 61.1806C169.39 61.488 169.468 61.732 169.385 61.8101Z" fill="#263238"/>
<path d="M176.002 66.1142C175.778 66.2167 175.353 65.7629 174.728 65.4261C174.104 65.0894 173.513 64.9381 173.484 64.6844C173.484 64.5722 173.655 64.4404 173.972 64.4014C174.386 64.3718 174.799 64.4653 175.159 64.6703C175.52 64.8753 175.811 65.1824 175.997 65.553C176.124 65.8458 176.105 66.0605 176.002 66.1142Z" fill="#263238"/>
<path d="M158.263 63.0301C158.2 62.9472 155.413 60.2437 153.744 63.6645C152.075 67.0854 155.853 68.0565 155.906 67.9541C155.96 67.8516 158.263 63.0301 158.263 63.0301Z" fill="#FFBE9D"/>
<path d="M155.496 66.1483C155.496 66.1483 155.413 66.1483 155.291 66.1483C155.121 66.1407 154.96 66.0673 154.842 65.9433C154.545 65.631 154.52 64.9137 154.808 64.289C154.941 63.9912 155.139 63.7275 155.389 63.518C155.472 63.4261 155.577 63.3562 155.693 63.3145C155.81 63.2728 155.935 63.2605 156.058 63.2789C156.135 63.2927 156.205 63.3338 156.255 63.3945C156.305 63.4553 156.332 63.532 156.331 63.6107C156.331 63.7327 156.277 63.7864 156.292 63.801C156.306 63.8157 156.389 63.801 156.433 63.6253C156.456 63.532 156.446 63.4337 156.404 63.3472C156.375 63.2885 156.335 63.2363 156.285 63.1935C156.236 63.1508 156.178 63.1184 156.116 63.0983C155.962 63.059 155.801 63.0594 155.647 63.0995C155.494 63.1396 155.353 63.2181 155.238 63.3277C154.948 63.552 154.717 63.8434 154.564 64.1768C154.252 64.8795 154.291 65.6945 154.716 66.0751C154.794 66.1463 154.887 66.199 154.988 66.2295C155.09 66.2599 155.197 66.2671 155.301 66.2508C155.448 66.2313 155.506 66.1629 155.496 66.1483Z" fill="#EB996E"/>
<path d="M179.93 62.0444C178.92 63.1912 175.592 62.7618 173.479 61.371C171.527 60.0875 171.151 58.4967 170.141 56.9058C169.502 55.8956 169.502 55.8956 168.136 55.3344C167.033 54.8806 165.783 55.7395 164.72 56.2372C164.349 59.2384 162.24 61.6882 160.22 63.9427C160.026 64.2178 159.744 64.4177 159.42 64.5088C158.864 64.6064 158.395 64.055 158.239 63.5084C157.941 62.689 157.904 61.7977 158.132 60.9562C158.856 58.9138 159.964 57.0288 161.396 55.4027C162.725 53.7983 164.497 52.6204 166.491 52.016C169.019 51.3437 171.709 51.6815 173.992 52.9579C176.246 54.2412 178.041 56.2011 179.12 58.5601C179.673 59.63 179.952 60.8207 179.93 62.0249" fill="#263238"/>
<path d="M161.367 51.7279C161.367 51.7279 161.562 51.5522 161.967 51.4643C162.499 51.3566 163.051 51.4256 163.54 51.6608C164.029 51.896 164.428 52.2846 164.676 52.7673C164.856 53.1382 164.871 53.3968 164.841 53.4017C164.812 53.4066 164.729 53.1772 164.519 52.86C164.255 52.44 163.878 52.1032 163.431 51.8882C162.983 51.6733 162.485 51.5889 161.992 51.6449C161.786 51.6875 161.577 51.7152 161.367 51.7279Z" fill="#455A64"/>
<path d="M156.97 62.1614C157.496 61.8257 157.95 61.3896 158.307 60.878C159.107 59.5927 159.649 58.1639 159.903 56.6715C160.011 56.2373 160.175 55.819 160.391 55.4271C160.985 54.4696 161.892 53.7471 162.958 53.3823C163.411 53.2254 163.905 53.2254 164.358 53.3823C164.48 53.4256 164.594 53.4882 164.695 53.5678C164.767 53.6166 164.801 53.6459 164.798 53.6556C164.753 53.6488 164.71 53.6339 164.671 53.6117C164.561 53.5555 164.447 53.5097 164.329 53.4751C163.895 53.3559 163.435 53.3747 163.012 53.5287C162.38 53.759 161.808 54.1275 161.338 54.6072C161.054 54.8789 160.808 55.1875 160.606 55.5247C160.408 55.8994 160.258 56.2979 160.162 56.7105C159.903 58.231 159.323 59.6787 158.458 60.9561C158.184 61.3404 157.842 61.6712 157.448 61.9321C157.34 61.9989 157.225 62.0561 157.107 62.1029C157.019 62.1566 156.975 62.1712 156.97 62.1614Z" fill="#455A64"/>
<path d="M181.56 57.4913C181.508 57.531 181.45 57.5638 181.39 57.5889C181.217 57.6617 181.037 57.7173 180.853 57.7548C180.167 57.8737 179.461 57.7959 178.818 57.5303C177.884 57.1207 177.051 56.511 176.378 55.7442C175.581 54.8135 174.725 53.9349 173.816 53.1139C172.872 52.3461 171.708 51.8999 170.493 51.8402C169.498 51.7874 168.503 51.9317 167.565 52.2648C166.928 52.4872 166.314 52.7682 165.73 53.1042C165.518 53.2357 165.3 53.3562 165.076 53.4653C165.256 53.2905 165.458 53.1396 165.676 53.0163C166.252 52.6455 166.865 52.3364 167.506 52.094C168.461 51.7283 169.481 51.5622 170.502 51.606C171.771 51.656 172.99 52.1147 173.977 52.9138C174.895 53.7425 175.755 54.6344 176.549 55.5832C177.199 56.3373 178.003 56.9445 178.906 57.3644C179.519 57.6313 180.193 57.7322 180.858 57.6572C181.307 57.584 181.536 57.4669 181.56 57.4913Z" fill="#455A64"/>
<path d="M144.677 97.8L133.839 112.181C136.876 113.736 140.096 114.903 143.423 115.656L154.789 100.899L144.677 97.8Z" fill="white"/>
<path d="M135.03 112.762L134.283 115.031L144.316 116.856V115.817C144.316 115.817 137.616 114.094 135.03 112.762Z" fill="white"/>
<path d="M149.26 116.481C149.018 116.5 148.775 116.5 148.533 116.481C148.045 116.481 147.386 116.403 146.556 116.295C142.207 115.743 137.989 114.431 134.093 112.421C133.346 112.03 132.756 111.698 132.36 111.445C132.146 111.328 131.941 111.192 131.75 111.04C131.979 111.124 132.2 111.231 132.409 111.357C132.819 111.581 133.424 111.889 134.171 112.255C138.086 114.169 142.271 115.47 146.581 116.115C147.405 116.242 148.079 116.329 148.533 116.378C148.778 116.387 149.022 116.421 149.26 116.481Z" fill="#263238"/>
<path d="M197.054 192.604C196.786 191.998 196.399 191.453 195.916 190.999C195.433 190.546 194.865 190.194 194.244 189.964C193.004 189.573 191.652 189.866 190.34 189.681C188.9 189.476 187.592 188.705 186.152 188.5C184.713 188.295 182.922 189.115 182.898 190.569C181.904 190.206 180.819 190.176 179.807 190.483C178.795 190.79 177.91 191.418 177.286 192.272L198.099 196.4C197.93 195.092 197.578 193.814 197.054 192.604Z" fill="#E0E0E0"/>
<path d="M179.33 221.552L172.01 224.86V226.324L179.33 224.758V221.552Z" fill="#263238"/>
<path d="M175.685 192.614L178.628 225.934H204.047L204.589 192.614H175.685Z" fill="#FF725E"/>
<path d="M204.589 192.614H208.469C208.469 192.614 207.834 215.95 204.169 218.263L201.944 208.044L204.589 192.614Z" fill="#FF725E"/>
<path d="M208.469 196.176C208.469 196.176 210.728 194.321 210.909 192.892C211.089 191.462 208.469 184.849 208.469 184.849C208.469 184.849 201.188 167.555 199.577 165.232C198.519 163.783 197.068 162.667 195.395 162.016L194.326 162.372C194.326 162.372 199.851 174.328 202.886 181.16C204.296 184.455 205.898 187.665 207.683 190.774L204.106 195.405L208.469 196.176Z" fill="#FF725E"/>
<path d="M204.589 191.608H174.143V192.818H204.589V191.608Z" fill="#FF725E"/>
<path d="M204.228 192.965C204.228 193.033 197.45 193.092 189.1 193.092C180.75 193.092 173.972 193.033 173.972 192.965C173.972 192.896 180.745 192.838 189.1 192.838C197.455 192.838 204.228 192.896 204.228 192.965Z" fill="#263238"/>
<path d="M204.472 211.304C204.404 211.304 204.345 206.912 204.345 201.544C204.345 196.176 204.404 191.784 204.472 191.784C204.54 191.784 204.599 196.176 204.599 201.544C204.599 206.912 204.535 211.304 204.472 211.304Z" fill="#263238"/>
<path d="M207.683 190.808C207.748 190.725 207.781 190.621 207.776 190.515C207.769 190.206 207.731 189.899 207.664 189.598C207.406 188.488 207.09 187.394 206.717 186.318C205.799 183.581 204.365 179.857 202.579 175.826C201.101 172.368 199.377 169.02 197.42 165.808C196.831 164.834 196.132 163.932 195.337 163.119C195.04 162.828 194.699 162.588 194.326 162.406C194.434 162.427 194.537 162.464 194.634 162.514C194.914 162.654 195.174 162.833 195.405 163.046C196.234 163.841 196.962 164.736 197.572 165.71C199.579 168.905 201.331 172.254 202.813 175.724C204.355 179.164 205.715 182.682 206.888 186.265C207.25 187.351 207.542 188.459 207.761 189.583C207.821 189.89 207.842 190.203 207.825 190.515C207.819 190.599 207.794 190.681 207.751 190.754C207.712 190.779 207.683 190.808 207.683 190.808Z" fill="#263238"/>
<g opacity="0.3">
<path opacity="0.3" d="M207.683 190.808C205.898 187.7 204.296 184.49 202.886 181.194C199.851 174.362 194.326 162.406 194.326 162.406C194.326 162.406 196.435 163.231 199.002 168.262C201.568 173.294 204.457 180.126 206.048 184.083C208.147 189.305 207.683 190.808 207.683 190.808Z" fill="black"/>
</g>
<path d="M198.211 205.824C198.042 205.964 197.861 206.088 197.669 206.195C197.308 206.424 196.786 206.736 196.127 207.107C194.819 207.859 192.975 208.835 190.881 209.801C188.788 210.767 186.845 211.533 185.425 212.046C184.713 212.304 184.137 212.5 183.732 212.622C183.526 212.699 183.314 212.757 183.098 212.797C183.287 212.687 183.489 212.597 183.698 212.529L185.362 211.88C186.762 211.324 188.685 210.533 190.774 209.572C192.862 208.61 194.712 207.659 196.044 206.951L197.616 206.112C197.804 205.996 198.003 205.9 198.211 205.824Z" fill="#263238"/>
<path d="M198.509 203.262C198.509 203.262 198.401 203.394 198.187 203.589C197.972 203.784 197.64 204.077 197.211 204.384C195.029 206.067 192.577 207.365 189.959 208.225C189.471 208.391 189.051 208.508 188.763 208.571C188.618 208.624 188.464 208.652 188.309 208.654C188.309 208.615 188.919 208.425 189.9 208.054C191.178 207.58 192.424 207.022 193.629 206.385C194.831 205.745 195.992 205.03 197.103 204.243C197.972 203.638 198.479 203.232 198.509 203.262Z" fill="#263238"/>
<path d="M179.003 221.708C178.98 221.625 178.965 221.54 178.959 221.454C178.935 221.259 178.911 221.02 178.876 220.727C178.813 220.059 178.725 219.151 178.618 218.053C178.418 215.754 178.13 212.651 177.842 209.215C177.554 205.78 177.286 202.671 177.09 200.378C176.998 199.275 176.919 198.367 176.866 197.698C176.843 197.406 176.824 197.162 176.807 196.966C176.794 196.882 176.794 196.797 176.807 196.713C176.835 196.793 176.853 196.877 176.861 196.962C176.885 197.157 176.919 197.396 176.963 197.689C177.041 198.318 177.149 199.231 177.266 200.358C177.505 202.617 177.798 205.726 178.096 209.196C178.393 212.665 178.632 215.774 178.798 218.038C178.872 219.141 178.93 220.049 178.974 220.717L179.008 221.449C179.021 221.535 179.02 221.623 179.003 221.708Z" fill="white"/>
<path d="M198.479 191.974C198.479 192.048 194.175 192.106 188.866 192.106C183.556 192.106 179.252 192.048 179.252 191.974C179.252 191.901 183.556 191.847 188.866 191.847C194.175 191.847 198.479 191.906 198.479 191.974Z" fill="white"/>
<path d="M202.125 173.03C202.056 173.055 201.529 171.82 200.773 170.346C200.017 168.872 199.333 167.711 199.397 167.672C200.621 169.283 201.545 171.101 202.125 173.04V173.03Z" fill="white"/>
</svg>
