<svg width="277" height="277" viewBox="0 0 277 277" fill="none" xmlns="http://www.w3.org/2000/svg">
<path d="M151.076 225.406C151.076 225.406 35.3563 233.445 27.0574 187.385C20.4094 150.555 78.2026 169.103 84.5626 148.467C90.9225 127.83 47.4446 89.2661 88.9946 75.6211C130.545 61.976 128.284 115.121 155.624 117.171C182.964 119.221 199.994 70.5187 228.115 96.324C260.518 126.041 195.712 143.769 203.833 162.804C211.955 181.839 257.355 162.339 250.829 190.853C244.597 218.077 151.076 225.406 151.076 225.406Z" fill="#FF725E"/>
<path opacity="0.7" d="M151.076 225.406C151.076 225.406 35.3563 233.445 27.0574 187.385C20.4094 150.555 78.2026 169.103 84.5626 148.467C90.9225 127.83 47.4446 89.2661 88.9946 75.6211C130.545 61.976 128.284 115.121 155.624 117.171C182.964 119.221 199.994 70.5187 228.115 96.324C260.518 126.041 195.712 143.769 203.833 162.804C211.955 181.839 257.355 162.339 250.829 190.853C244.597 218.077 151.076 225.406 151.076 225.406Z" fill="white"/>
<path d="M43.6663 206.603C43.8982 207.117 44.3213 207.521 44.8458 207.727C45.3703 207.934 45.9548 207.929 46.4751 207.711C48.5415 206.831 51.5718 205.185 52.0483 202.941C52.7796 199.49 48.5082 201.695 48.2922 200.072C48.0761 198.449 53.2782 197.507 53.2782 195.047C53.2782 192.587 50.0373 194.526 49.7215 193.385C49.4057 192.244 53.0455 190.97 53.2782 188.266C53.5108 185.562 50.8738 188.133 50.9791 187.008C51.0843 185.884 53.3834 180.36 51.3946 180.239C49.4057 180.117 47.4224 185.712 46.3753 186.687C45.3283 187.662 43.8657 184.997 42.8242 187.008C41.7827 189.019 45.4335 194.327 43.8657 195.872C42.6968 197.036 42.2037 194.172 40.8353 195.479C39.467 196.787 42.176 203.379 43.6663 206.603Z" fill="#FF725E"/>
<path opacity="0.2" d="M43.6663 206.603C43.8982 207.117 44.3213 207.521 44.8458 207.727C45.3703 207.934 45.9548 207.929 46.4751 207.711C48.5415 206.831 51.5718 205.185 52.0483 202.941C52.7796 199.49 48.5082 201.695 48.2922 200.072C48.0761 198.449 53.2782 197.507 53.2782 195.047C53.2782 192.587 50.0373 194.526 49.7215 193.385C49.4057 192.244 53.0455 190.97 53.2782 188.266C53.5108 185.562 50.8738 188.133 50.9791 187.008C51.0843 185.884 53.3834 180.36 51.3946 180.239C49.4057 180.117 47.4224 185.712 46.3753 186.687C45.3283 187.662 43.8657 184.997 42.8242 187.008C41.7827 189.019 45.4335 194.327 43.8657 195.872C42.6968 197.036 42.2037 194.172 40.8353 195.479C39.467 196.787 42.176 203.379 43.6663 206.603Z" fill="black"/>
<path d="M43.8879 215.789C44.252 204.59 46.37 193.518 50.1647 182.975" stroke="#263238" stroke-width="0.75" stroke-linecap="round" stroke-linejoin="round"/>
<path d="M40.4697 204.193C40.228 204.707 39.7984 205.108 39.2697 205.314C38.7409 205.52 38.1532 205.516 37.6277 205.301C34.9297 204.193 30.3204 201.939 29.639 198.737C28.6695 194.166 34.3258 197.075 34.625 194.931C34.9242 192.787 27.977 191.535 27.977 188.283C27.977 185.031 32.2705 187.585 32.686 186.1C33.1015 184.615 28.254 182.903 27.977 179.324C27.7 175.746 31.1625 179.147 31.024 177.662C30.8855 176.178 27.8385 168.848 30.47 168.704C33.1015 168.56 35.733 175.951 37.118 177.241C38.503 178.532 40.442 175.025 41.827 177.662C43.212 180.299 38.3645 187.357 40.442 189.435C41.9877 190.981 42.6192 187.18 44.4585 188.914C46.4529 190.792 42.3533 200.182 40.4697 204.193Z" fill="#FF725E"/>
<path opacity="0.2" d="M40.4697 204.193C40.228 204.707 39.7984 205.108 39.2697 205.314C38.7409 205.52 38.1532 205.516 37.6277 205.301C34.9297 204.193 30.3204 201.939 29.639 198.737C28.6695 194.166 34.3258 197.075 34.625 194.931C34.9242 192.787 27.977 191.535 27.977 188.283C27.977 185.031 32.2705 187.585 32.686 186.1C33.1015 184.615 28.254 182.903 27.977 179.324C27.7 175.746 31.1625 179.147 31.024 177.662C30.8855 176.178 27.8385 168.848 30.47 168.704C33.1015 168.56 35.733 175.951 37.118 177.241C38.503 178.532 40.442 175.025 41.827 177.662C43.212 180.299 38.3645 187.357 40.442 189.435C41.9877 190.981 42.6192 187.18 44.4585 188.914C46.4529 190.792 42.3533 200.182 40.4697 204.193Z" fill="white"/>
<path d="M40.442 215.789C40.442 215.789 40.442 195.241 32.132 172.338" stroke="#263238" stroke-width="0.75" stroke-linecap="round" stroke-linejoin="round"/>
<path d="M48.6135 210.941H35.5225C33.803 212.038 32.3878 213.55 31.4078 215.339C30.4278 217.127 29.9147 219.134 29.916 221.174C29.916 225.689 32.3813 234.087 36.01 239.101H48.0983C51.7547 234.115 54.1923 225.689 54.1923 221.174C54.1955 219.137 53.6862 217.132 52.7113 215.344C51.7364 213.556 50.3272 212.042 48.6135 210.941Z" fill="white" stroke="#263238" stroke-width="0.75" stroke-linecap="round" stroke-linejoin="round"/>
<path d="M232.458 225.678C232.458 225.678 233.96 195.762 247.699 185.141C247.699 185.141 236.492 203.795 235.483 226.027L232.458 225.678Z" fill="#FF725E"/>
<path d="M233.3 227.301C233.3 227.301 231.988 201.263 220.038 192.039C220.038 192.039 229.788 208.265 230.663 227.606L233.3 227.301Z" fill="#FF725E"/>
<path opacity="0.2" d="M233.3 227.301C233.3 227.301 231.988 201.263 220.038 192.039C220.038 192.039 229.788 208.265 230.663 227.606L233.3 227.301Z" fill="black"/>
<path d="M234.098 227.04C234.098 227.04 236.558 195.562 223.6 182.626C223.6 182.626 232.819 203.623 230.885 226.996L234.098 227.04Z" fill="#FF725E"/>
<path opacity="0.2" d="M234.098 227.04C234.098 227.04 236.558 195.562 223.6 182.626C223.6 182.626 232.819 203.623 230.885 226.996L234.098 227.04Z" fill="white"/>
<path d="M227.024 223.872H240.115C243.483 225.035 245.716 227.079 245.716 229.412C245.716 231.849 243.256 236.392 239.622 239.107H227.533C223.882 236.392 221.439 231.849 221.439 229.412C221.417 227.079 223.65 225.035 227.024 223.872Z" fill="white" stroke="#263238" stroke-width="0.75" stroke-linecap="round" stroke-linejoin="round"/>
<path d="M85.87 157.735H191.13C193.483 157.735 195.813 158.198 197.986 159.099C200.16 159.999 202.135 161.319 203.799 162.982C205.462 164.646 206.782 166.621 207.683 168.795C208.583 170.969 209.046 173.298 209.046 175.651V214.681H67.937V175.651C67.937 173.297 68.401 170.966 69.3024 168.791C70.2038 166.616 71.525 164.64 73.1905 162.977C74.8559 161.313 76.833 159.993 79.0086 159.094C81.1842 158.194 83.5158 157.733 85.87 157.735Z" fill="#999999" stroke="#263238" stroke-linecap="round" stroke-linejoin="round"/>
<path opacity="0.2" d="M194.731 166.599H82.269C80.8192 166.6 79.4293 167.177 78.4042 168.202C77.379 169.227 76.8025 170.617 76.801 172.067V205.817H200.199V172.067C200.198 170.617 199.621 169.227 198.596 168.202C197.571 167.177 196.181 166.6 194.731 166.599Z" fill="black"/>
<path d="M76.3135 172.793L78.5738 171.557C79.4125 172.05 80.3709 172.303 81.3438 172.288C82.6623 172.133 86.4794 172.006 86.6899 171.302C86.9004 170.599 85.9753 170.344 84.9448 170.549C85.5819 170.2 85.9143 169.912 85.9143 169.568C85.9143 168.987 84.8728 168.909 84.8728 168.909C84.906 168.3 84.1526 167.923 84.1526 167.923C83.9804 167.766 83.7704 167.656 83.5432 167.605C83.316 167.553 83.0793 167.562 82.8562 167.629C83.1776 167.413 82.5128 166.66 81.0613 166.571C79.6098 166.482 76.8509 168.759 76.8509 168.759L73.5934 170.161L76.3135 172.793Z" fill="white" stroke="#263238" stroke-linecap="round" stroke-linejoin="round"/>
<path d="M84.6401 170.937C84.0529 171.197 83.2607 171.352 83.0945 171.097C82.8119 170.665 84.0806 170.156 84.4351 169.69C84.7897 169.225 82.0973 171.142 81.9366 170.133C81.9366 170.133 81.2109 169.851 81.4546 169.363C81.6984 168.876 82.3521 168.627 82.5626 168.255C82.7731 167.884 81.2496 169.363 81.017 168.782C80.7843 168.2 81.8867 167.923 81.7316 167.618C81.5765 167.314 80.0696 169.519 78.8397 169.369" stroke="#263238" stroke-linecap="round" stroke-linejoin="round"/>
<path d="M82.2025 169.834C82.8708 169.622 83.4533 169.2 83.8645 168.632" stroke="#263238" stroke-linecap="round" stroke-linejoin="round"/>
<path d="M79.3605 170.011C79.3605 170.011 81.2275 169.712 82.3299 170.643" stroke="#263238" stroke-linecap="round" stroke-linejoin="round"/>
<path d="M128.096 186.842C126.506 186.445 124.884 186.189 123.248 186.077C122.722 184.133 114.667 184.465 103.194 182.753C91.7202 181.042 85.316 182.1 85.316 182.1C81.9366 178.914 76.0642 184.947 75.7429 185.978C75.4216 187.008 77.56 187.086 77.56 187.086C77.3367 187.332 77.043 187.503 76.7189 187.577C76.3948 187.65 76.0559 187.622 75.7484 187.496C75.5866 187.396 75.3989 187.346 75.2088 187.351C75.0187 187.357 74.8345 187.419 74.6792 187.529C74.6792 187.529 66.0534 183.003 67.3442 181.103C68.8733 178.853 77.9921 172.842 77.9921 172.842C77.488 168.582 73.477 169.568 73.477 169.568C64.1033 174.238 59.7766 178.072 59.7766 181.518C59.7766 188.393 75.4105 197.811 75.4105 197.811C78.7068 201.95 82.9726 200.526 82.9726 200.526C82.9726 200.526 101.991 204.891 117.11 204.919C122.24 204.919 125.786 204.587 128.395 203.994C129.558 196.277 128.96 190.576 128.096 186.842Z" fill="#FF725E"/>
<path opacity="0.3" d="M123.054 197.606C122.312 199.107 115.099 202.359 103.775 201.196C92.4515 200.033 104.296 198.094 103.775 197.113C103.255 196.132 95.986 197.927 88.5624 197.706C81.1388 197.484 79.2552 189.617 77.7982 190.027C76.3412 190.437 75.0282 188.665 74.3302 190.653C73.3828 193.423 62.8624 181.136 61.0342 181.956C60.3251 182.271 60.2364 183.108 60.3915 184.022C63.2557 190.471 75.4216 197.8 75.4216 197.8C78.7179 201.938 82.9837 200.515 82.9837 200.515C82.9837 200.515 102.002 204.88 117.121 204.908C118.6 204.908 119.941 204.908 121.176 204.83L121.603 204.587C122.251 201.955 122.733 199.639 123.054 197.606Z" fill="black"/>
<path opacity="0.3" d="M86.6345 183.967C84.3153 184.167 82.0506 184.78 79.9477 185.778C79.8886 185.81 79.8203 185.819 79.7551 185.804C79.6898 185.79 79.6317 185.753 79.5911 185.7C79.5506 185.647 79.5302 185.581 79.5336 185.514C79.5371 185.447 79.564 185.384 79.6098 185.335C81.1832 183.729 84.0418 181.601 86.7564 183.452C86.8043 183.484 86.8412 183.529 86.8623 183.583C86.8834 183.637 86.8876 183.695 86.8743 183.751C86.8611 183.807 86.831 183.858 86.7881 183.897C86.7453 183.935 86.6917 183.96 86.6345 183.967Z" fill="black"/>
<path d="M128.096 186.842C126.506 186.445 124.884 186.189 123.248 186.077C122.722 184.133 114.667 184.465 103.194 182.753C91.7202 181.042 85.316 182.1 85.316 182.1C81.9366 178.914 76.0642 184.947 75.7429 185.978C75.4216 187.008 77.56 187.086 77.56 187.086C77.3367 187.332 77.043 187.503 76.7189 187.577C76.3948 187.65 76.0559 187.622 75.7484 187.496C75.5866 187.396 75.3989 187.346 75.2088 187.351C75.0187 187.357 74.8345 187.419 74.6792 187.529C74.6792 187.529 66.0534 183.003 67.3442 181.103C68.8733 178.853 77.9921 172.842 77.9921 172.842C77.488 168.582 73.477 169.568 73.477 169.568C64.1033 174.238 59.7766 178.072 59.7766 181.518C59.7766 188.393 75.4105 197.811 75.4105 197.811C78.7068 201.95 82.9726 200.526 82.9726 200.526C82.9726 200.526 101.991 204.891 117.11 204.919C122.24 204.919 125.786 204.587 128.395 203.994C129.558 196.277 128.96 190.576 128.096 186.842Z" stroke="#263238" stroke-linecap="round" stroke-linejoin="round"/>
<path d="M76.8675 198.426C77.7705 198.792 79.0004 199.263 80.3189 199.684" stroke="#263238" stroke-linecap="round" stroke-linejoin="round"/>
<path d="M79.6098 191.972C79.87 192.306 80.107 192.658 80.3189 193.025" stroke="#263238" stroke-linecap="round" stroke-linejoin="round"/>
<path d="M75.8481 188.36C76.9015 189.16 77.889 190.044 78.801 191.002" stroke="#263238" stroke-linecap="round" stroke-linejoin="round"/>
<path d="M78.668 186.072C80.161 184.653 81.9067 183.525 83.8147 182.748" stroke="#263238" stroke-linecap="round" stroke-linejoin="round"/>
<path d="M196.432 186.864L200.991 189.18L198.831 192.897L194.083 191.246L196.432 186.864Z" fill="white" stroke="#263238" stroke-linecap="round" stroke-linejoin="round"/>
<path d="M197.806 192.277L199.534 188.731C199.623 188.556 199.759 188.41 199.928 188.31C199.928 188.31 202.614 186.427 203.639 185.54C204.664 184.654 206.758 181.961 207.955 181.341C208.039 181.303 208.129 181.281 208.221 181.274C208.374 181.256 208.529 181.279 208.671 181.34C208.813 181.4 208.936 181.497 209.029 181.621C209.121 181.744 209.18 181.89 209.199 182.043C209.217 182.196 209.195 182.351 209.135 182.493L203.667 195.108C203.589 195.288 203.473 195.45 203.327 195.582C203.181 195.713 203.008 195.812 202.821 195.872C202.633 195.931 202.435 195.949 202.24 195.926C202.045 195.902 201.857 195.836 201.689 195.734L198.182 193.584C197.969 193.452 197.812 193.245 197.742 193.003C197.673 192.762 197.695 192.503 197.806 192.277Z" fill="#FF725E" stroke="#263238" stroke-linecap="round" stroke-linejoin="round"/>
<path d="M209.135 182.493C209.195 182.351 209.217 182.196 209.199 182.043C209.18 181.89 209.121 181.744 209.029 181.621C208.936 181.497 208.813 181.4 208.671 181.34C208.529 181.279 208.374 181.256 208.221 181.274C208.129 181.281 208.039 181.303 207.955 181.341C208.891 182.333 203.523 193.075 202.066 195.883C202.381 195.966 202.716 195.933 203.01 195.791C203.303 195.649 203.536 195.407 203.667 195.108L209.135 182.493Z" fill="white" stroke="#263238" stroke-linecap="round" stroke-linejoin="round"/>
<path d="M164.909 171.502C159.641 171.557 141.414 181.823 134.062 186.089C133.179 186.598 132.203 186.929 131.192 187.061C130.18 187.193 129.153 187.124 128.168 186.859C126.554 186.454 124.908 186.193 123.248 186.077C123.19 185.897 123.08 185.737 122.933 185.618C123.753 188.116 124.428 193.662 121.514 204.814C132.528 204.26 133.558 200.842 137.763 198.465C150.101 191.496 165.557 180.183 165.557 180.183C170.084 184.964 195.473 192.321 195.473 192.321C196.744 190.842 197.561 189.028 197.828 187.097C197.828 187.097 171.557 171.43 164.909 171.502Z" fill="#263238" stroke="#263238" stroke-linecap="round" stroke-linejoin="round"/>
<path d="M80.751 181.712C81.5931 180.726 83.8147 178.122 83.9421 177.74C84.0972 177.263 77.8481 173.147 77.8481 173.147C77.8481 173.147 78.258 171.396 77.8979 171.153C77.2165 170.698 76.4188 170.665 74.7235 170.649C73.0283 170.632 69.8649 169.219 69.8649 169.219C69.8649 169.219 67.1503 172.2 66.9841 172.543C66.8179 172.887 64.8789 174.864 64.7127 175.108C64.5465 175.352 67.2611 183.507 71.3164 183.972C72.9616 184.131 74.5341 184.728 75.8703 185.701C77.1521 183.997 78.8265 182.629 80.751 181.712Z" fill="white"/>
<path d="M80.751 181.712C81.5931 180.726 83.8147 178.122 83.9421 177.74C84.0972 177.263 77.8481 173.147 77.8481 173.147C77.8481 173.147 78.258 171.396 77.8979 171.153C77.2165 170.698 76.4188 170.665 74.7235 170.649C73.0283 170.632 69.8649 169.219 69.8649 169.219C69.8649 169.219 67.1503 172.2 66.9841 172.543C66.8179 172.887 64.8789 174.864 64.7127 175.108C64.5465 175.352 67.2611 183.507 71.3164 183.972C72.9616 184.131 74.5341 184.728 75.8703 185.701C77.1521 183.997 78.8265 182.629 80.751 181.712V181.712Z" stroke="#263238" stroke-linecap="round" stroke-linejoin="round"/>
<path d="M72.441 171.596C72.441 171.596 71.7097 172.15 72.2471 173.474" stroke="#263238" stroke-linecap="round" stroke-linejoin="round"/>
<path d="M74.8953 172.394C74.8953 172.394 75.4493 172.837 74.441 173.668" stroke="#263238" stroke-linecap="round" stroke-linejoin="round"/>
<path d="M80.1306 176.327C79.9759 176.786 79.7104 177.199 79.3576 177.531C79.0049 177.862 78.5758 178.101 78.1085 178.227" stroke="#263238" stroke-linecap="round" stroke-linejoin="round"/>
<path d="M74.8232 185.003C74.8232 185.003 71.8704 179.236 71.6488 178.526C71.4272 177.817 72.574 178.809 72.984 178.144C73.3939 177.479 71.2832 177.075 70.214 175.928C69.1447 174.781 70.0256 174.322 69.5492 173.158C69.5492 173.158 75.1279 164.05 68.2196 163.458C62.1976 162.937 64.9288 170.028 63.8208 171.286C62.7128 172.543 56.8459 177.031 62.8624 181.147C68.07 184.698 74.8232 185.003 74.8232 185.003Z" fill="#263238" stroke="#263238" stroke-linecap="round" stroke-linejoin="round"/>
<path d="M72.2471 178.388C72.2471 178.388 69.4384 178.72 70.5851 180.41C71.9369 182.366 74.1972 181.889 74.4188 180.798" fill="white"/>
<path d="M72.2471 178.388C72.2471 178.388 69.4384 178.72 70.5851 180.41C71.9369 182.366 74.1972 181.889 74.4188 180.798" stroke="#263238" stroke-linecap="round" stroke-linejoin="round"/>
<path d="M67.1337 175.707C67.1825 176.016 67.3103 176.308 67.5049 176.554" stroke="#7F7F7F" stroke-width="0.75" stroke-linecap="round" stroke-linejoin="round"/>
<path d="M67.3221 164.632C67.6663 164.577 68.0186 164.654 68.3082 164.848C70.297 166.139 67.5658 171.097 67.1393 174.322" stroke="#7F7F7F" stroke-width="0.75" stroke-linecap="round" stroke-linejoin="round"/>
<path d="M65.6102 165.884C65.7933 165.635 66.0032 165.406 66.2362 165.203" stroke="#7F7F7F" stroke-width="0.75" stroke-linecap="round" stroke-linejoin="round"/>
<path d="M65.9759 180.809C66.3369 180.975 66.7068 181.121 67.0839 181.247" stroke="#7F7F7F" stroke-width="0.75" stroke-linecap="round" stroke-linejoin="round"/>
<path d="M67.5049 167.585C66.6573 170.266 59.8763 176.914 65.0728 180.327" stroke="#7F7F7F" stroke-width="0.75" stroke-linecap="round" stroke-linejoin="round"/>
<path d="M66.0146 167.103C66.0146 167.103 67.0174 165.962 67.5049 166.771" stroke="#7F7F7F" stroke-width="0.75" stroke-linecap="round" stroke-linejoin="round"/>
<path d="M109.842 184.211L110.689 185.59C110.519 186.283 110.296 186.963 110.024 187.623C109.781 188.222 108.108 190.183 108.916 190.393C110.108 190.715 110.966 187.834 112.185 188.349C112.778 188.604 113.409 189.706 113.498 190.809C113.587 191.911 112.916 192.875 113.371 193.302C113.969 193.856 114.44 191.972 114.44 191.972C114.518 192.336 114.558 192.708 114.562 193.08C114.562 193.534 114.202 193.778 114.661 194.05C115.121 194.321 115.326 193.651 115.326 193.651C115.63 193.642 115.92 193.522 116.141 193.313C116.645 192.615 116.967 191.802 117.077 190.947C117.321 189.396 114.362 184.853 114.362 184.853L113.925 182.914C113.191 182.729 112.42 182.752 111.699 182.981C110.977 183.21 110.334 183.636 109.842 184.211Z" fill="white" stroke="#263238" stroke-linecap="round" stroke-linejoin="round"/>
<path d="M114.03 188.709C114.39 189.446 114.561 190.261 114.528 191.08" stroke="#263238" stroke-linecap="round" stroke-linejoin="round"/>
<path d="M115.343 193.673C115.343 193.673 115.786 192.565 114.9 188.87" stroke="#263238" stroke-linecap="round" stroke-linejoin="round"/>
<path d="M115.675 188.709C115.977 189.431 116.195 190.186 116.323 190.958C116.379 191.762 116.512 192.764 116.268 193.174" stroke="#263238" stroke-linecap="round" stroke-linejoin="round"/>
<path d="M71.5048 185.673C69.0616 184.011 63.228 180.416 61.5328 181.568L71.5048 185.673Z" fill="#FF725E"/>
<path d="M71.5048 185.673C69.0616 184.011 63.228 180.416 61.5328 181.568" stroke="#263238" stroke-linecap="round" stroke-linejoin="round"/>
<path d="M126.029 190.321C125.924 189.324 125.78 188.283 125.575 187.186L124.19 186.942C124.19 186.942 124.395 188.222 124.511 190.188L126.029 190.321Z" fill="#FF725E" stroke="#263238" stroke-linecap="round" stroke-linejoin="round"/>
<path d="M123.874 199.994C123.59 201.322 123.18 202.621 122.65 203.872L124.246 203.545C124.802 202.457 125.217 201.303 125.481 200.11L123.874 199.994Z" fill="#FF725E" stroke="#263238" stroke-linecap="round" stroke-linejoin="round"/>
<path d="M124.096 198.797H125.758C126.177 196.44 126.301 194.039 126.129 191.651L124.556 191.496C124.641 193.939 124.487 196.384 124.096 198.797Z" fill="#FF725E" stroke="#263238" stroke-linecap="round" stroke-linejoin="round"/>
<path d="M99.033 198.604C98.6064 198.664 98.1688 198.714 97.72 198.742" stroke="#263238" stroke-linecap="round" stroke-linejoin="round"/>
<path d="M111.908 189.379C111.908 189.379 108.196 196.365 100.606 198.288" stroke="#263238" stroke-linecap="round" stroke-linejoin="round"/>
<path d="M195.152 194.631L200.177 195.584L199.141 199.756L194.116 199.501L195.152 194.631Z" fill="white" stroke="#263238" stroke-linecap="round" stroke-linejoin="round"/>
<path d="M198.288 199.252L199.024 195.374C199.064 195.181 199.156 195.002 199.29 194.858C199.29 194.858 201.39 192.343 202.144 191.213C202.897 190.083 204.215 186.942 205.202 186.028C205.274 185.969 205.357 185.924 205.445 185.895C205.588 185.836 205.744 185.817 205.897 185.838C206.049 185.859 206.194 185.921 206.315 186.016C206.437 186.111 206.531 186.236 206.588 186.379C206.646 186.522 206.664 186.678 206.642 186.831L204.686 200.437C204.656 200.631 204.586 200.815 204.478 200.979C204.371 201.143 204.23 201.282 204.065 201.387C203.9 201.492 203.714 201.56 203.52 201.587C203.326 201.615 203.129 201.6 202.941 201.545L198.997 200.393C198.759 200.323 198.555 200.168 198.424 199.957C198.294 199.747 198.245 199.496 198.288 199.252Z" fill="#FF725E" stroke="#263238" stroke-linecap="round" stroke-linejoin="round"/>
<path d="M206.642 186.831C206.664 186.678 206.646 186.522 206.588 186.379C206.531 186.236 206.437 186.111 206.315 186.016C206.194 185.921 206.049 185.859 205.897 185.838C205.744 185.817 205.588 185.836 205.445 185.895C205.357 185.924 205.274 185.969 205.202 186.028C206.371 186.737 203.994 198.52 203.346 201.612C203.672 201.607 203.987 201.486 204.232 201.271C204.478 201.056 204.639 200.76 204.686 200.437L206.642 186.831Z" fill="white" stroke="#263238" stroke-linecap="round" stroke-linejoin="round"/>
<path d="M130.594 191.496C130.594 191.496 161.762 186.465 165.458 187.186C169.153 187.906 196.925 194.044 196.925 194.044C196.925 194.044 197.534 197.429 195.595 199.994C195.595 199.994 170.926 198.847 164.422 195.147C164.422 195.147 150.239 199.579 140.638 200.459C140.638 200.459 132.683 203.927 126.029 204.409L130.594 191.496Z" fill="#263238" stroke="#263238" stroke-linecap="round" stroke-linejoin="round"/>
<path d="M152.223 189.435L153.707 188.443" stroke="#7F7F7F" stroke-linecap="round" stroke-linejoin="round"/>
<path d="M139.53 197.429C143.181 195.296 147.021 192.864 150.61 190.51" stroke="#7F7F7F" stroke-linecap="round" stroke-linejoin="round"/>
<path d="M130.822 202.986C133.874 201.656 135.254 199.861 137.763 198.443" stroke="#7F7F7F" stroke-linecap="round" stroke-linejoin="round"/>
<path d="M111.21 177.369C108.074 176.216 95.0664 179.407 91.964 179.485C88.8616 179.563 85.316 182.1 85.316 182.1C85.316 182.1 91.7424 180.992 103.21 182.731C104.279 182.892 105.304 183.031 106.307 183.164L107.631 182.731L110.218 185.28C112.185 182.432 114.678 184.482 114.678 184.482C114.761 181.762 114.346 178.521 111.21 177.369Z" fill="#FF725E"/>
<g opacity="0.3">
<path opacity="0.3" d="M109.221 184.316C107.404 182.139 107.648 179.457 107.088 179.33C106.529 179.203 97.1827 180.992 93.1329 181.768C96.5021 181.883 99.8615 182.197 103.194 182.709C104.263 182.87 105.288 183.008 106.29 183.141L107.614 182.709L109.221 184.316Z" fill="black"/>
<path opacity="0.3" d="M110.124 185.208L110.202 185.281L110.124 185.208Z" fill="black"/>
</g>
<path d="M111.21 177.369C108.074 176.216 95.0664 179.407 91.964 179.485C88.8616 179.563 85.316 182.1 85.316 182.1C85.316 182.1 91.7424 180.992 103.21 182.731C104.279 182.892 105.304 183.031 106.307 183.164L107.631 182.731L110.218 185.28C112.185 182.432 114.678 184.482 114.678 184.482C114.761 181.762 114.346 178.521 111.21 177.369Z" stroke="#263238" stroke-linecap="round" stroke-linejoin="round"/>
<path d="M108.03 178.388C107.444 178.745 107.021 179.316 106.851 179.981C106.681 180.646 106.778 181.351 107.121 181.945" stroke="#263238" stroke-linecap="round" stroke-linejoin="round"/>
<path d="M209.063 214.398H67.937V235.09H209.063V214.398Z" stroke="black" stroke-miterlimit="10"/>
<path d="M80.9117 238.68H70.5242C70.0372 238.679 69.5646 238.514 69.1819 238.213C68.7993 237.912 68.5287 237.491 68.4135 237.018L67.937 235.079H83.4989L83.0224 237.018C82.9072 237.491 82.6366 237.912 82.254 238.213C81.8713 238.514 81.3987 238.679 80.9117 238.68Z" fill="#263238" stroke="#263238" stroke-linecap="round" stroke-linejoin="round"/>
<path d="M206.371 238.68H195.983C195.496 238.679 195.024 238.515 194.642 238.214C194.26 237.912 193.991 237.491 193.878 237.018L193.396 235.079H208.958L208.481 237.018C208.367 237.491 208.097 237.913 207.714 238.214C207.331 238.516 206.858 238.68 206.371 238.68Z" fill="#263238" stroke="#263238" stroke-linecap="round" stroke-linejoin="round"/>
<path d="M209.063 214.398H67.937V235.09H209.063V214.398Z" fill="#858585" stroke="#263238" stroke-linecap="round" stroke-linejoin="round"/>
<path d="M138.5 214.398H76.452V205.235C76.4513 204.571 76.5814 203.913 76.835 203.3C77.0886 202.686 77.4606 202.128 77.9299 201.659C78.3991 201.189 78.9563 200.816 79.5697 200.562C80.1831 200.308 80.8405 200.177 81.5045 200.177C81.5045 200.177 100.944 203.279 107.482 203.279C114.019 203.279 133.459 200.177 133.459 200.177C134.799 200.178 136.084 200.712 137.032 201.66C137.979 202.609 138.511 203.894 138.511 205.235L138.5 214.398Z" fill="#858585" stroke="#263238" stroke-linecap="round" stroke-linejoin="round"/>
<path d="M144.821 200.177H194.243C195.917 200.181 197.521 200.849 198.702 202.034C199.884 203.219 200.548 204.824 200.548 206.498V214.398H138.5V206.498C138.5 205.668 138.663 204.846 138.981 204.079C139.299 203.312 139.764 202.615 140.351 202.028C140.938 201.441 141.635 200.976 142.402 200.658C143.169 200.34 143.991 200.177 144.821 200.177Z" fill="#858585" stroke="#263238" stroke-linecap="round" stroke-linejoin="round"/>
<path d="M205.933 235.09H212.764C214.189 235.09 215.556 234.524 216.564 233.516C217.571 232.508 218.138 231.141 218.138 229.716V193.047C218.138 192.075 217.752 191.144 217.065 190.457C216.378 189.771 215.447 189.385 214.476 189.385C212.646 189.383 210.833 189.743 209.143 190.443C207.452 191.142 205.916 192.169 204.622 193.463C203.328 194.757 202.303 196.294 201.604 197.985C200.905 199.676 200.546 201.488 200.548 203.318V229.738C200.554 231.161 201.124 232.524 202.134 233.528C203.143 234.531 204.51 235.093 205.933 235.09Z" fill="#999999" stroke="#263238" stroke-linecap="round" stroke-linejoin="round"/>
<path d="M71.0671 235.09H64.264C62.8388 235.09 61.4719 234.524 60.4641 233.516C59.4564 232.508 58.8902 231.141 58.8902 229.716V193.047C58.8902 192.075 59.276 191.144 59.9628 190.457C60.6495 189.771 61.5809 189.385 62.5521 189.385C64.3797 189.387 66.1889 189.749 67.8765 190.45C69.5641 191.152 71.097 192.179 72.3877 193.473C73.6784 194.766 74.7017 196.302 75.399 197.991C76.0964 199.68 76.4542 201.49 76.452 203.318V229.738C76.4461 231.161 75.8759 232.524 74.8663 233.528C73.8568 234.531 72.4904 235.093 71.0671 235.09Z" fill="#999999" stroke="#263238" stroke-linecap="round" stroke-linejoin="round"/>
<path d="M23.9439 239.101H253.056" stroke="#263238" stroke-linecap="round" stroke-linejoin="round"/>
</svg>
