<svg width="336" height="336" viewBox="0 0 336 336" fill="none" xmlns="http://www.w3.org/2000/svg">
<path d="M168 286.951C239.959 286.951 298.294 283.545 298.294 279.344C298.294 275.142 239.959 271.737 168 271.737C96.0406 271.737 37.7059 275.142 37.7059 279.344C37.7059 283.545 96.0406 286.951 168 286.951Z" fill="#F5F5F5"/>
<path d="M207.695 171.777C242.37 171.777 270.48 143.667 270.48 108.992C270.48 74.3165 242.37 46.2067 207.695 46.2067C173.02 46.2067 144.91 74.3165 144.91 108.992C144.91 143.667 173.02 171.777 207.695 171.777Z" fill="#FF725E"/>
<path opacity="0.1" d="M205.095 164.721C236.437 164.721 261.845 138.828 261.845 106.888C261.845 74.9484 236.437 49.056 205.095 49.056C173.752 49.056 148.344 74.9484 148.344 106.888C148.344 138.828 173.752 164.721 205.095 164.721Z" fill="white"/>
<path opacity="0.1" d="M166.71 72.3072C168.618 75.4454 173.658 74.2694 178.846 71.111C184.034 67.9526 187.401 64.0214 185.472 60.8832C183.543 57.7449 178.45 58.8067 173.268 61.9651C168.087 65.1235 164.795 69.1622 166.71 72.3072Z" fill="white"/>
<path opacity="0.2" d="M260.602 118.386C262.803 116.843 264.645 114.844 266.004 112.525C267.363 110.205 268.207 107.621 268.478 104.946C265.83 108.037 263.438 110.914 260.79 113.998C260.837 115.497 260.548 116.928 260.602 118.386Z" fill="black"/>
<path opacity="0.2" d="M239.756 148.169C240.569 147.336 241.416 146.308 242.222 145.481C247.253 144.354 251.985 142.168 256.105 139.068C260.224 135.968 263.635 132.027 266.112 127.505C266.437 127.561 266.771 127.528 267.078 127.41C267.386 127.292 267.656 127.092 267.859 126.833C266.207 133.056 262.516 138.545 257.376 142.424C252.32 146.274 246.11 148.299 239.756 148.169Z" fill="black"/>
<path opacity="0.2" d="M261.475 118.386C261.475 118.386 257.591 159.029 206.035 157.308L261.475 118.386Z" fill="black"/>
<path d="M240.334 146.993L240.159 144.305H240.408C246.781 143.835 252.824 141.284 257.605 137.044C262.387 132.804 265.642 127.11 266.871 120.839C267.674 116.618 268.038 112.326 267.96 108.031C265.366 112.345 261.482 116.095 259.143 116.095V113.407C260.427 113.34 265.299 108.79 267.315 103.273C267.45 102.899 267.713 102.584 268.057 102.385C268.401 102.186 268.805 102.115 269.197 102.184C269.587 102.25 269.941 102.452 270.196 102.755C270.451 103.058 270.59 103.442 270.588 103.837C270.588 104.395 270.588 105.013 270.621 105.692C270.843 110.941 270.471 116.198 269.512 121.363C268.17 128.212 264.616 134.43 259.395 139.06C254.174 143.691 247.576 146.478 240.616 146.993H240.334Z" fill="white"/>
<path opacity="0.2" d="M154.466 118.487C152.261 116.945 150.414 114.947 149.051 112.628C147.687 110.309 146.839 107.723 146.563 105.047C149.211 108.132 151.617 111.001 154.271 114.085C154.224 115.584 154.513 116.988 154.466 118.487Z" fill="black"/>
<path opacity="0.2" d="M175.728 148.23C174.915 147.396 174.068 146.375 173.255 145.542C168.23 144.419 163.502 142.239 159.384 139.148C155.266 136.057 151.853 132.125 149.372 127.613C149.046 127.668 148.712 127.635 148.403 127.517C148.095 127.399 147.823 127.2 147.618 126.941C149.265 133.163 152.949 138.654 158.081 142.538C163.151 146.375 169.372 148.381 175.728 148.23Z" fill="black"/>
<path opacity="0.2" d="M152.813 118.487C152.813 118.487 156.771 159.123 208.32 157.308L152.813 118.487Z" fill="black"/>
<path d="M175.049 147.054H174.794C167.827 146.556 161.217 143.781 155.983 139.157C150.748 134.533 147.178 128.316 145.824 121.464C144.859 116.299 144.478 111.043 144.688 105.793C144.688 105.121 144.688 104.496 144.688 103.938C144.694 103.543 144.837 103.163 145.093 102.862C145.349 102.562 145.702 102.36 146.091 102.292C146.48 102.224 146.881 102.295 147.223 102.491C147.566 102.687 147.829 102.997 147.968 103.367C149.984 108.884 154.876 113.447 156.159 113.487V116.175C153.814 116.175 149.93 112.446 147.323 108.111C147.26 112.423 147.645 116.728 148.472 120.96C149.71 127.23 152.975 132.919 157.764 137.151C162.553 141.383 168.601 143.923 174.975 144.379H175.224L175.049 147.054Z" fill="white"/>
<path d="M241.248 118.272C248.223 118.675 255.199 119.22 260.991 119.972C261.267 118.89 261.522 117.788 261.724 116.659L261.764 116.458C262.335 112.983 260.622 109.556 257.927 108.817C252.719 107.473 247.551 106.458 242.471 105.645L241.188 105.477C223.242 103.215 205.104 102.908 187.092 104.563C176.77 105.685 166.543 107.547 156.489 110.134C155.773 110.325 155.117 110.692 154.58 111.203C152.383 113.219 151.892 117.204 153.465 120.046C153.592 120.409 153.734 120.758 153.868 121.121C159.58 120.261 166.387 119.576 173.195 119.031C195.835 117.227 218.573 116.973 241.248 118.272Z" fill="#FF725E"/>
<path opacity="0.6" d="M241.248 118.272C248.223 118.675 255.199 119.22 260.991 119.972C261.267 118.89 261.522 117.788 261.724 116.659L261.764 116.458C262.335 112.983 260.622 109.556 257.927 108.817C252.719 107.473 247.551 106.458 242.471 105.645L241.188 105.477C223.242 103.215 205.104 102.908 187.092 104.563C176.77 105.685 166.543 107.547 156.489 110.134C155.773 110.325 155.117 110.692 154.58 111.203C152.383 113.219 151.892 117.204 153.465 120.046C153.592 120.409 153.734 120.758 153.868 121.121C159.58 120.261 166.387 119.576 173.195 119.031C195.835 117.227 218.573 116.973 241.248 118.272Z" fill="white"/>
<path d="M212.641 157.1C209.886 157.194 207.131 157.239 204.375 157.235C207.131 157.368 209.892 157.323 212.641 157.1Z" fill="#FF725E"/>
<path d="M248.553 141.503C246.181 141.738 243.761 141.947 241.342 142.175C218.699 143.98 195.959 144.234 173.282 142.934C171.535 142.836 169.797 142.726 168.067 142.605C178.147 151.872 191.198 156.61 204.355 157.268C207.11 157.268 209.866 157.223 212.621 157.134C226.182 156.025 239.232 150.669 248.553 141.503Z" fill="#FF725E"/>
<path opacity="0.4" d="M248.553 141.503C246.181 141.738 243.761 141.947 241.342 142.175C218.699 143.98 195.959 144.234 173.282 142.934C171.535 142.836 169.797 142.726 168.067 142.605C178.147 151.872 191.198 156.61 204.355 157.268C207.11 157.268 209.866 157.223 212.621 157.134C226.182 156.025 239.232 150.669 248.553 141.503Z" fill="white"/>
<path d="M241.342 142.141C243.761 141.947 246.181 141.738 248.553 141.469C251.993 138.107 254.886 134.228 257.127 129.972L241.282 130.16C218.709 130.402 195.801 130.67 173.228 130.912L158.686 131.08C161.271 135.311 164.438 139.157 168.094 142.504C169.819 142.625 171.557 142.735 173.309 142.834C195.976 144.154 218.707 143.923 241.342 142.141Z" fill="#FF725E"/>
<path opacity="0.3" d="M241.342 142.141C243.761 141.947 246.181 141.738 248.553 141.469C251.993 138.107 254.886 134.228 257.127 129.972L241.282 130.16C218.709 130.402 195.801 130.67 173.228 130.912L158.686 131.08C161.271 135.311 164.438 139.157 168.094 142.504C169.819 142.625 171.557 142.735 173.309 142.834C195.976 144.154 218.707 143.923 241.342 142.141Z" fill="white"/>
<path d="M241.282 130.193L257.127 130.005C258.802 126.809 260.092 123.425 260.971 119.925C255.179 119.173 248.203 118.628 241.228 118.225C218.55 116.925 195.811 117.179 173.168 118.984C166.36 119.529 159.553 120.214 153.841 121.074C155.126 124.566 156.749 127.924 158.686 131.101L173.228 130.933C195.801 130.704 218.709 130.435 241.282 130.193Z" fill="#FF725E"/>
<path opacity="0.4" d="M241.282 130.193L257.127 130.005C258.802 126.809 260.092 123.425 260.971 119.925C255.179 119.173 248.203 118.628 241.228 118.225C218.55 116.925 195.811 117.179 173.168 118.984C166.36 119.529 159.553 120.214 153.841 121.074C155.126 124.566 156.749 127.924 158.686 131.101L173.228 130.933C195.801 130.704 218.709 130.435 241.282 130.193Z" fill="white"/>
<path d="M133.311 160.984C135.502 154.735 137.78 143.149 136.261 135.737C136.133 135.141 136.151 134.522 136.313 133.934C136.475 133.346 136.777 132.806 137.192 132.359C137.608 131.912 138.125 131.573 138.7 131.369C139.275 131.165 139.891 131.103 140.495 131.188C141.234 131.299 141.912 131.665 142.41 132.223C147.37 137.773 147.988 140.287 145.468 154.271C144.514 158.444 137.404 160.386 133.311 160.984Z" fill="#FF725E"/>
<path opacity="0.2" d="M133.311 160.984C135.502 154.735 137.78 143.149 136.261 135.737C136.133 135.141 136.151 134.522 136.313 133.934C136.475 133.346 136.777 132.806 137.192 132.359C137.608 131.912 138.125 131.573 138.7 131.369C139.275 131.165 139.891 131.103 140.495 131.188C141.234 131.299 141.912 131.665 142.41 132.223C147.37 137.773 147.988 140.287 145.468 154.271C144.514 158.444 137.404 160.386 133.311 160.984Z" fill="white"/>
<path d="M133.439 178.752C132.469 173.453 132.265 168.042 132.834 162.685C133.506 156.536 140.374 151.664 149.507 148.808C182.959 138.331 176.776 160.588 176.877 169.31C176.877 169.411 176.877 169.512 176.877 169.613C176.931 175.903 174.935 186.292 169.384 185.969C169.317 185.969 169.304 186.084 169.237 186.09C130.885 188.409 134.4 183.369 133.439 178.752Z" fill="#FF725E"/>
<g opacity="0.3">
<path opacity="0.3" d="M133.439 178.752C132.469 173.453 132.265 168.042 132.834 162.685C133.506 156.536 140.374 151.664 149.507 148.808C182.959 138.331 176.776 160.588 176.877 169.31C176.877 169.411 176.877 169.512 176.877 169.613C176.931 175.903 174.935 186.292 169.384 185.969C169.317 185.969 169.304 186.084 169.237 186.09C130.885 188.409 134.4 183.369 133.439 178.752Z" fill="white"/>
</g>
<path d="M282.173 160.85C279.969 154.6 277.677 143.022 279.176 135.603C279.303 135.006 279.284 134.388 279.121 133.8C278.958 133.212 278.656 132.672 278.24 132.226C277.823 131.78 277.306 131.442 276.73 131.239C276.155 131.036 275.539 130.974 274.935 131.06C274.197 131.178 273.521 131.546 273.02 132.102C268.074 137.659 267.463 140.166 270.003 154.15C270.971 158.33 278.087 160.259 282.173 160.85Z" fill="#FF725E"/>
<path opacity="0.2" d="M282.173 160.85C279.969 154.6 277.677 143.022 279.176 135.603C279.303 135.006 279.284 134.388 279.121 133.8C278.958 133.212 278.656 132.672 278.24 132.226C277.823 131.78 277.306 131.442 276.73 131.239C276.155 131.036 275.539 130.974 274.935 131.06C274.197 131.178 273.521 131.546 273.02 132.102C268.074 137.659 267.463 140.166 270.003 154.15C270.971 158.33 278.087 160.259 282.173 160.85Z" fill="white"/>
<path d="M282.079 178.584C283.04 173.284 283.235 167.872 282.657 162.516C281.985 156.368 275.09 151.509 265.958 148.673C232.485 138.264 238.708 160.5 238.621 169.23V169.532C238.574 175.815 240.59 186.204 246.14 185.868C246.207 185.868 246.221 185.989 246.288 185.989C284.646 188.268 281.158 183.228 282.079 178.584Z" fill="#FF725E"/>
<g opacity="0.3">
<path opacity="0.3" d="M282.079 178.584C283.04 173.284 283.235 167.872 282.657 162.516C281.985 156.368 275.09 151.509 265.958 148.673C232.485 138.264 238.708 160.5 238.621 169.23V169.532C238.574 175.815 240.59 186.204 246.14 185.868C246.207 185.868 246.221 185.989 246.288 185.989C284.646 188.268 281.158 183.228 282.079 178.584Z" fill="white"/>
</g>
<path d="M183.201 83.8118C182.02 84.8653 181.005 86.091 180.19 87.4474C179.787 88.1309 179.541 88.8963 179.473 89.6871C179.404 90.478 179.514 91.2741 179.794 92.017C180.466 93.455 182.199 94.4294 183.678 93.865C184.988 93.361 185.734 91.8893 187.038 91.3853C188.671 90.7536 190.398 91.8422 191.863 92.8368C193.328 93.8314 195.189 94.7856 196.715 93.9254C197.924 93.2534 198.327 91.5936 197.944 90.2563C197.561 88.919 196.385 88.032 195.471 86.977C188.254 78.624 183.201 83.8118 183.201 83.8118Z" fill="#263238"/>
<path opacity="0.1" d="M186.614 95.6995C192.817 96.2775 197.669 98.6227 197.454 100.934C197.239 103.246 192.031 104.651 185.828 104.066C179.626 103.481 174.774 101.149 174.989 98.8378C175.204 96.5261 180.412 95.1216 186.614 95.6995Z" fill="black"/>
<path d="M232.142 83.7648C233.325 84.8183 234.342 86.0439 235.16 87.4003C235.565 88.082 235.811 88.846 235.881 89.6358C235.951 90.4257 235.842 91.2211 235.563 91.9632C234.891 93.408 233.157 94.3824 231.685 93.8179C230.341 93.3206 229.629 91.849 228.325 91.345C226.686 90.7133 224.966 91.8154 223.507 92.8032C222.049 93.7911 220.181 94.7587 218.655 93.9053C217.446 93.2333 217.036 91.5802 217.419 90.2429C217.802 88.9056 218.978 88.0051 219.878 86.9501C227.076 78.5702 232.142 83.7648 232.142 83.7648Z" fill="#263238"/>
<path opacity="0.1" d="M240.381 98.784C240.603 101.089 235.751 103.441 229.549 104.032C223.346 104.624 218.125 103.233 217.923 100.921C217.721 98.6093 222.553 96.2573 228.756 95.6659C234.958 95.0746 240.159 96.4656 240.381 98.784Z" fill="black"/>
<path d="M146.765 80.64L146.16 80.3443C152.88 66.5011 162.181 58.4035 168.813 54.0557L169.183 54.6134C162.624 58.9209 153.404 66.9312 146.765 80.64Z" fill="#FF725E"/>
<path d="M174.048 51.744L173.739 51.1459C175.605 50.1701 177.531 49.3127 179.505 48.5789L179.733 49.2105C177.787 49.935 175.888 50.7811 174.048 51.744Z" fill="#FF725E"/>
<path d="M148.895 261.966L154.11 259.977L157.329 272.577L152.114 274.573L148.895 261.966Z" fill="#FFC3BD"/>
<path d="M158.673 271.696C163.054 272.368 163.84 271.999 168.215 271.159C169.156 270.984 169.472 273.363 167.368 274.257C163.881 275.735 163.766 275.735 160.823 276.998C158.276 278.074 155.407 279.438 153.431 280.325C153.371 280.352 153.308 280.372 153.243 280.385C153.029 280.42 152.81 280.369 152.634 280.243C152.458 280.118 152.338 279.927 152.302 279.713L151.375 274.707C151.356 274.598 151.375 274.486 151.427 274.389C151.479 274.291 151.563 274.214 151.664 274.169L157.268 271.79C157.719 271.632 158.205 271.599 158.673 271.696Z" fill="#263238"/>
<path opacity="0.2" d="M148.888 261.973L150.548 268.471L155.763 266.475L154.11 259.983L148.888 261.973Z" fill="black"/>
<path d="M157.174 264.345L148.512 268.041C148.512 268.041 136.638 226.686 133.338 212.265C130.039 197.844 117.587 146.557 117.587 146.557L136.483 146.019C136.483 146.019 145.26 192.138 147.538 209.012C149.856 226.565 157.174 264.345 157.174 264.345Z" fill="#263238"/>
<path opacity="0.2" d="M129.441 195.444C127.378 186.493 124.992 176.064 122.976 167.328L125.825 164.936C129.871 170.399 130.502 185.472 129.441 195.444Z" fill="black"/>
<path d="M131.746 146.153C131.746 146.153 125.772 215.369 121.115 225.873C121.115 225.873 116.572 239.212 111.848 250.387C110.625 253.25 109.408 255.972 108.246 258.29C106.572 261.65 105.134 263.894 104.214 264.15C100.182 265.252 96.8218 259.977 96.8218 259.977L108.454 218.024C108.454 217.352 108.454 216.713 108.488 216.095C108.884 196.211 110.148 146.389 110.148 146.389L131.746 146.153Z" fill="#263238"/>
<path d="M99.194 258.922L104.241 261.3L98.4615 272.859L93.4148 270.48L99.194 258.922Z" fill="#FFC3BD"/>
<path d="M100.854 271.233C101.573 272.94 103.911 275.486 107.433 278.188C108.212 278.779 106.949 280.741 104.832 279.747C102.715 278.752 98.1523 276.387 96.6269 275.681C94.1338 274.505 92.5949 273.961 90.6394 273.04C90.5797 273.013 90.5234 272.979 90.4714 272.94C90.3865 272.874 90.3153 272.793 90.262 272.7C90.2086 272.608 90.174 272.505 90.1603 272.399C90.1466 272.293 90.1539 272.185 90.1819 272.082C90.2099 271.979 90.2581 271.882 90.3236 271.797L93.4349 267.765C93.5017 267.677 93.5973 267.614 93.7052 267.588C93.8131 267.562 93.9267 267.575 94.0263 267.624L100.182 270.527C100.486 270.67 100.726 270.922 100.854 271.233Z" fill="#263238"/>
<path opacity="0.2" d="M96.7882 263.699L101.842 266.085L104.241 261.3L99.194 258.922L96.7882 263.699Z" fill="black"/>
<path d="M107.701 262.463L96.1699 257.282L95.0947 260.749L105.242 265.541L107.701 262.463Z" fill="#FF725E"/>
<path d="M101.432 272.207C101.763 272.397 102.15 272.468 102.527 272.409C102.658 272.374 102.778 272.306 102.875 272.212C102.973 272.118 103.045 272.001 103.085 271.871C103.119 271.801 103.133 271.723 103.125 271.646C103.116 271.568 103.086 271.495 103.038 271.434C102.614 270.883 100.518 271.112 100.276 271.145C100.25 271.147 100.226 271.158 100.207 271.175C100.187 271.192 100.174 271.214 100.168 271.239C100.161 271.263 100.161 271.289 100.168 271.313C100.176 271.336 100.19 271.358 100.209 271.374C100.584 271.697 100.994 271.976 101.432 272.207ZM102.675 271.535C102.731 271.547 102.784 271.572 102.829 271.609C102.848 271.636 102.857 271.667 102.857 271.7C102.857 271.732 102.848 271.764 102.829 271.79C102.804 271.877 102.757 271.955 102.692 272.017C102.627 272.08 102.547 272.124 102.46 272.147C101.773 272.141 101.115 271.869 100.625 271.387C101.301 271.312 101.984 271.362 102.641 271.535H102.675Z" fill="#FF725E"/>
<path d="M100.229 271.414C100.237 271.418 100.246 271.42 100.256 271.42C100.265 271.42 100.274 271.418 100.283 271.414C100.955 271.38 102.473 270.742 102.635 270.124C102.658 270.027 102.647 269.926 102.604 269.837C102.561 269.747 102.489 269.675 102.399 269.633C102.316 269.576 102.22 269.539 102.12 269.523C102.02 269.508 101.918 269.516 101.821 269.546C101.008 269.754 100.188 271.172 100.162 271.206C100.15 271.226 100.144 271.249 100.144 271.273C100.144 271.296 100.15 271.32 100.162 271.34C100.165 271.357 100.173 271.374 100.185 271.387C100.196 271.4 100.212 271.409 100.229 271.414ZM102.204 269.855H102.265C102.413 269.929 102.393 270.03 102.372 270.063C102.285 270.419 101.25 270.95 100.545 271.098C100.851 270.54 101.32 270.088 101.889 269.801C101.997 269.783 102.108 269.802 102.204 269.855Z" fill="#FF725E"/>
<path d="M157.221 260.427L146.032 265.198L147.974 268.518L157.779 264.338L157.221 260.427Z" fill="#FF725E"/>
<path d="M158.041 272.328C158.935 272.14 160.494 271.703 160.843 270.984C160.908 270.874 160.942 270.749 160.942 270.621C160.942 270.494 160.908 270.368 160.843 270.258C160.814 270.192 160.767 270.134 160.708 270.092C160.649 270.049 160.58 270.023 160.507 270.016C159.741 269.942 158.122 271.858 157.94 272.086C157.924 272.109 157.916 272.136 157.916 272.163C157.916 272.191 157.924 272.218 157.94 272.241C157.946 272.264 157.958 272.285 157.977 272.301C157.995 272.316 158.017 272.326 158.041 272.328ZM160.433 270.312C160.462 270.315 160.489 270.326 160.512 270.344C160.534 270.362 160.551 270.386 160.561 270.413C160.598 270.482 160.617 270.559 160.617 270.638C160.617 270.716 160.598 270.794 160.561 270.863C160.366 271.28 159.54 271.69 158.343 271.985C159.015 271.239 159.956 270.325 160.406 270.312H160.433Z" fill="#FF725E"/>
<path d="M158.041 272.328C158.057 272.33 158.074 272.328 158.089 272.322C158.104 272.316 158.118 272.307 158.128 272.294C158.632 271.75 159.385 270.11 159.042 269.573C158.962 269.445 158.794 269.324 158.451 269.425C158.324 269.464 158.206 269.528 158.105 269.613C158.003 269.699 157.92 269.804 157.86 269.922C157.436 270.735 157.86 272.18 157.907 272.241C157.914 272.262 157.926 272.281 157.943 272.296C157.959 272.312 157.979 272.323 158.001 272.328H158.041ZM158.679 269.64C158.706 269.635 158.734 269.637 158.759 269.648C158.785 269.659 158.806 269.677 158.821 269.701C159.029 270.03 158.565 271.253 158.095 271.898C157.9 271.293 157.9 270.642 158.095 270.037C158.134 269.948 158.193 269.869 158.266 269.805C158.339 269.742 158.425 269.694 158.518 269.667C158.57 269.652 158.625 269.647 158.679 269.653V269.64Z" fill="#FF725E"/>
<path d="M129.629 112.466C129.918 114.428 130.301 116.249 130.704 118.131C131.107 120.013 131.578 121.84 132.088 123.695C132.844 126.977 133.936 130.173 135.348 133.231L136.073 134.575L136.255 134.917L136.295 135.005L136.369 135.133L136.577 135.495C136.846 135.911 137.161 136.295 137.518 136.638C138.091 137.185 138.746 137.639 139.46 137.982C140.042 138.257 140.647 138.482 141.268 138.654C144.251 139.328 147.312 139.594 150.367 139.447C152.1 139.333 151.529 136.55 151.529 136.55C149.822 133.862 144.473 132.821 143.418 132.424C143.019 132.293 142.661 132.062 142.377 131.752C142.377 131.665 142.578 132.028 142.303 131.443L141.792 130.368C140.542 127.089 140.28 125.214 139.487 121.8C139.05 120.066 138.66 118.306 138.271 116.545C137.881 114.784 137.552 112.983 137.236 111.29L129.629 112.466Z" fill="#FFC3BD"/>
<path d="M126.034 108.044C125.516 112.869 130.139 123.762 130.139 123.762L142.074 121.242C139.87 117.156 138.714 111.095 136.026 107.292C133.573 103.878 126.598 102.816 126.034 108.044Z" fill="#FF725E"/>
<path opacity="0.5" d="M126.034 108.044C125.516 112.869 130.139 123.762 130.139 123.762L142.074 121.242C139.87 117.156 138.714 111.095 136.026 107.292C133.573 103.878 126.598 102.816 126.034 108.044Z" fill="black"/>
<path d="M108.535 106.048C107.785 106.211 107.13 106.665 106.714 107.31C106.298 107.955 106.155 108.739 106.317 109.489C106.32 109.516 106.32 109.543 106.317 109.57C107.387 114.149 108.185 118.787 108.709 123.46C109.16 127.391 109.422 131.148 109.57 134.555C109.939 142.524 109.724 148.606 109.946 150.683L136.718 150.736C139.621 129.232 136.812 113.696 135.038 108.105C134.769 107.23 134.256 106.449 133.56 105.854C132.864 105.26 132.013 104.875 131.107 104.745C130.066 104.604 128.829 104.462 127.512 104.375C127.055 104.375 126.585 104.328 126.121 104.308C122.27 104.313 118.422 104.537 114.596 104.98C113.87 105.061 113.138 105.168 112.426 105.269C111.014 105.538 109.657 105.806 108.535 106.048Z" fill="#FF725E"/>
<path opacity="0.5" d="M108.535 106.048C107.785 106.211 107.13 106.665 106.714 107.31C106.298 107.955 106.155 108.739 106.317 109.489C106.32 109.516 106.32 109.543 106.317 109.57C107.387 114.149 108.185 118.787 108.709 123.46C109.16 127.391 109.422 131.148 109.57 134.555C109.939 142.524 109.724 148.606 109.946 150.683L136.718 150.736C139.621 129.232 136.812 113.696 135.038 108.105C134.769 107.23 134.256 106.449 133.56 105.854C132.864 105.26 132.013 104.875 131.107 104.745C130.066 104.604 128.829 104.462 127.512 104.375C127.055 104.375 126.585 104.328 126.121 104.308C122.27 104.313 118.422 104.537 114.596 104.98C113.87 105.061 113.138 105.168 112.426 105.269C111.014 105.538 109.657 105.806 108.535 106.048Z" fill="black"/>
<path d="M114.912 91.9901C115.873 95.6525 117.029 102.393 114.589 105.027C120.839 109.294 124.804 115.261 125.966 113.978C126.578 113.306 126.887 105.464 126.107 104.301C121.914 103.575 121.827 100.504 122.364 97.5812L114.912 91.9901Z" fill="#FFC3BD"/>
<path opacity="0.2" d="M117.956 94.2749L122.364 97.5744C122.225 98.2559 122.149 98.9487 122.136 99.6442C120.543 99.5165 118.265 97.9172 117.996 96.2842C117.861 95.6224 117.848 94.9416 117.956 94.2749Z" fill="black"/>
<path d="M128.002 81.5069C130.475 81.6279 131.813 85.9018 129.279 89.4298C126.746 92.9578 124.676 81.3456 128.002 81.5069Z" fill="#263238"/>
<path d="M115.772 85.176C115.443 90.2026 114.999 93.1258 117.19 96.0019C120.49 100.336 126.934 98.8378 128.769 93.9859C130.402 89.6381 130.677 82.152 126.04 79.5514C125.022 78.9712 123.873 78.6609 122.701 78.6498C121.53 78.6388 120.375 78.9274 119.346 79.4882C118.317 80.049 117.449 80.8635 116.823 81.8542C116.198 82.845 115.836 83.9792 115.772 85.1491V85.176Z" fill="#FFC3BD"/>
<path d="M120.483 85.5389C120.357 86.042 120.091 86.4988 119.714 86.8559C119.338 87.2129 118.868 87.4554 118.359 87.5549C117.882 88.6435 117.734 88.993 118.164 90.1018L116.35 90.4848C116.31 89.0131 115.006 88.6435 113.554 88.704C114.226 90.6528 114.966 92.5747 115.806 94.4631C113.684 92.9644 111.98 90.95 110.853 88.6099C110.28 87.4939 109.952 86.268 109.892 85.0147C109.868 84.3875 109.969 83.7618 110.188 83.1736C110.407 82.5854 110.741 82.0463 111.169 81.5875C111.784 81.049 112.519 80.665 113.313 80.4674C114.106 80.2699 114.936 80.2646 115.732 80.4519C118.581 81.0163 121.437 82.2259 120.483 85.5389Z" fill="#263238"/>
<path d="M123.157 87.5281C123.104 87.938 123.278 88.2941 123.547 88.3277C123.816 88.3613 124.065 88.0589 124.125 87.6557C124.186 87.2525 124.004 86.8964 123.735 86.8628C123.467 86.8292 123.211 87.1249 123.157 87.5281Z" fill="#263238"/>
<path d="M127.734 88.1126C127.687 88.5226 127.861 88.8787 128.123 88.9123C128.386 88.9459 128.648 88.6435 128.695 88.2403C128.742 87.8371 128.574 87.481 128.312 87.4474C128.05 87.4138 127.801 87.7094 127.734 88.1126Z" fill="#263238"/>
<path d="M126.262 88.1328C126.59 89.4352 127.096 90.6858 127.767 91.849C127.461 92.0161 127.121 92.113 126.772 92.1327C126.424 92.1525 126.075 92.0946 125.751 91.9632L126.262 88.1328Z" fill="#ED847E"/>
<path d="M121.921 85.8614C121.962 85.8767 122.007 85.8797 122.05 85.8702C122.093 85.8607 122.132 85.839 122.163 85.8077C122.368 85.5858 122.623 85.4158 122.907 85.3118C123.191 85.2079 123.496 85.1728 123.796 85.2096C123.858 85.2263 123.925 85.2182 123.981 85.1868C124.037 85.1555 124.079 85.1034 124.098 85.0416C124.102 85.0239 124.102 85.0056 124.098 84.9879C124.112 84.929 124.103 84.867 124.071 84.8154C124.04 84.7637 123.989 84.7267 123.93 84.7123C123.553 84.658 123.168 84.6963 122.808 84.8239C122.449 84.9515 122.126 85.1646 121.867 85.4448C121.845 85.4667 121.827 85.4928 121.815 85.5217C121.803 85.5505 121.797 85.5815 121.797 85.6128C121.797 85.6441 121.803 85.6751 121.815 85.7039C121.827 85.7328 121.845 85.7589 121.867 85.7808C121.882 85.8098 121.9 85.8369 121.921 85.8614Z" fill="#263238"/>
<path d="M125.052 93.7642C124.461 93.7326 123.886 93.56 123.375 93.2607C122.864 92.9614 122.432 92.5442 122.116 92.0439C122.107 92.0293 122.102 92.0132 122.1 91.9966C122.098 91.9799 122.099 91.963 122.103 91.9467C122.107 91.9305 122.115 91.9153 122.125 91.902C122.135 91.8887 122.148 91.8775 122.163 91.8692C122.194 91.8524 122.231 91.8486 122.265 91.8587C122.299 91.8688 122.327 91.8918 122.344 91.9229C122.64 92.3762 123.036 92.7549 123.502 93.0289C123.969 93.3029 124.493 93.4649 125.032 93.5021C125.062 93.5089 125.088 93.5255 125.107 93.5493C125.126 93.5731 125.137 93.6027 125.137 93.6332C125.137 93.6636 125.126 93.6932 125.107 93.717C125.088 93.7408 125.062 93.7574 125.032 93.7642H125.052Z" fill="#263238"/>
<path d="M129.918 86.7821C129.941 86.7921 129.966 86.7972 129.992 86.7972C130.017 86.7972 130.042 86.7921 130.065 86.7821C130.096 86.773 130.124 86.7578 130.148 86.7375C130.173 86.7172 130.193 86.6921 130.207 86.6639C130.222 86.6356 130.23 86.6047 130.233 86.5731C130.235 86.5414 130.23 86.5097 130.22 86.4797C130.105 86.1156 129.905 85.7842 129.636 85.513C129.367 85.2419 129.038 85.0388 128.674 84.9207C128.644 84.9126 128.613 84.9105 128.582 84.9146C128.552 84.9186 128.522 84.9288 128.495 84.9444C128.468 84.96 128.445 84.9808 128.426 85.0056C128.407 85.0303 128.393 85.0586 128.385 85.0887C128.377 85.1178 128.375 85.1482 128.379 85.1782C128.383 85.2083 128.392 85.2372 128.407 85.2635C128.422 85.2897 128.442 85.3127 128.466 85.3312C128.49 85.3496 128.518 85.3631 128.547 85.3709C128.83 85.4684 129.086 85.6302 129.296 85.8436C129.506 86.057 129.664 86.3161 129.756 86.6007C129.761 86.644 129.779 86.6847 129.808 86.7173C129.837 86.7498 129.875 86.7725 129.918 86.7821Z" fill="#263238"/>
<path opacity="0.1" d="M110.08 108.615C112.284 108.105 113.272 108.83 115.073 111.747C116.733 114.435 118.185 122.499 118.185 122.499C118.857 126.914 119.354 126.37 115.181 127.042C112.493 127.472 109.133 128.318 109.133 128.318C109.133 128.318 103.488 110.154 110.08 108.615Z" fill="black"/>
<path d="M104.214 113.333C104.328 115.349 104.543 117.163 104.785 119.072C105.027 120.98 105.323 122.848 105.665 124.737C106.348 128.595 107.367 132.386 108.709 136.067L109.308 137.491L109.462 137.841L109.496 137.935L109.556 138.069L109.738 138.445C109.96 138.886 110.238 139.297 110.564 139.668C111.085 140.269 111.697 140.784 112.379 141.194C112.933 141.53 113.515 141.818 114.119 142.054C116.125 142.792 118.224 143.244 120.355 143.398C124.229 143.712 128.126 143.595 131.974 143.049L131.86 139.238L129.172 138.909C128.271 138.802 127.378 138.654 126.484 138.526C124.71 138.257 122.949 137.948 121.276 137.552C119.729 137.223 118.227 136.714 116.8 136.033C116.416 135.867 116.081 135.606 115.826 135.274C115.826 135.186 116.001 135.569 115.779 134.958L115.382 133.782C114.423 130.411 113.695 126.978 113.205 123.507C112.923 121.74 112.694 119.952 112.459 118.131C112.224 116.31 112.056 114.516 111.888 112.809L104.214 113.333Z" fill="#FFC3BD"/>
<path d="M130.281 139.581L134.192 136.221L135.972 142.451C135.972 142.451 132.008 144.567 130.664 142.592L130.281 139.581Z" fill="#FFC3BD"/>
<path d="M138.728 137.296L139.326 139.837C139.414 140.22 139.357 140.623 139.164 140.966C138.971 141.309 138.658 141.567 138.284 141.691L135.966 142.464L134.192 136.235L137.108 136.087C137.477 136.067 137.841 136.177 138.137 136.398C138.433 136.619 138.642 136.937 138.728 137.296Z" fill="#FFC3BD"/>
<path d="M144.319 144.574L138.808 144.977C138.523 145.003 138.235 144.968 137.965 144.874C137.694 144.78 137.446 144.63 137.238 144.433C137.03 144.236 136.867 143.996 136.759 143.731C136.65 143.466 136.6 143.18 136.611 142.894L136.833 127.613C136.84 127.352 136.942 127.103 137.12 126.912C137.298 126.721 137.54 126.602 137.8 126.578L144.587 126.087C144.873 126.061 145.16 126.097 145.431 126.19C145.702 126.284 145.949 126.435 146.157 126.632C146.365 126.829 146.529 127.068 146.637 127.334C146.745 127.599 146.796 127.884 146.785 128.171L146.583 142.168C146.566 142.777 146.326 143.358 145.908 143.802C145.491 144.245 144.925 144.52 144.319 144.574Z" fill="#FF725E"/>
<path opacity="0.2" d="M144.319 144.574L138.808 144.977C138.523 145.003 138.235 144.968 137.965 144.874C137.694 144.78 137.446 144.63 137.238 144.433C137.03 144.236 136.867 143.996 136.759 143.731C136.65 143.466 136.6 143.18 136.611 142.894L136.833 127.613C136.84 127.352 136.942 127.103 137.12 126.912C137.298 126.721 137.54 126.602 137.8 126.578L144.587 126.087C144.873 126.061 145.16 126.097 145.431 126.19C145.702 126.284 145.949 126.435 146.157 126.632C146.365 126.829 146.529 127.068 146.637 127.334C146.745 127.599 146.796 127.884 146.785 128.171L146.583 142.168C146.566 142.777 146.326 143.358 145.908 143.802C145.491 144.245 144.925 144.52 144.319 144.574Z" fill="black"/>
<path d="M144.635 144.836L139.124 145.239C138.839 145.265 138.551 145.23 138.281 145.136C138.01 145.042 137.762 144.892 137.554 144.695C137.346 144.498 137.183 144.258 137.075 143.993C136.966 143.728 136.916 143.443 136.927 143.156L137.142 127.868C137.152 127.608 137.256 127.36 137.436 127.171C137.615 126.982 137.857 126.864 138.116 126.84L144.903 126.349C145.188 126.324 145.475 126.359 145.745 126.452C146.016 126.546 146.263 126.696 146.471 126.892C146.678 127.088 146.842 127.327 146.951 127.591C147.059 127.856 147.111 128.14 147.101 128.426L146.899 142.464C146.872 143.066 146.628 143.639 146.212 144.075C145.795 144.511 145.235 144.782 144.635 144.836Z" fill="#FF725E"/>
<path opacity="0.8" d="M144.581 144.836L139.205 145.233C138.912 145.26 138.618 145.224 138.34 145.128C138.063 145.032 137.809 144.879 137.595 144.677C137.382 144.476 137.213 144.231 137.102 143.96C136.99 143.688 136.937 143.396 136.947 143.102L137.162 127.922C137.171 127.647 137.28 127.385 137.47 127.185C137.66 126.986 137.916 126.863 138.19 126.84L144.863 126.349C145.155 126.323 145.45 126.358 145.728 126.454C146.005 126.55 146.259 126.704 146.473 126.905C146.686 127.107 146.854 127.351 146.966 127.623C147.078 127.894 147.131 128.186 147.121 128.48L146.919 142.383C146.898 143.008 146.648 143.603 146.217 144.055C145.786 144.507 145.204 144.785 144.581 144.836Z" fill="white"/>
<path d="M148.68 133.99L148.438 134.057L146.2 134.662C145.8 134.769 145.45 135.014 145.212 135.353C144.974 135.692 144.862 136.104 144.897 136.517L145.091 138.788C145.127 139.227 145.326 139.637 145.65 139.936C145.974 140.235 146.398 140.401 146.839 140.401H149.11V140.34L148.875 134.044L148.68 133.99Z" fill="#FFC3BD"/>
<path opacity="0.3" d="M140.569 131.195L138.15 131.369C138.012 131.385 137.872 131.371 137.74 131.327C137.608 131.283 137.487 131.211 137.386 131.116C137.285 131.02 137.206 130.904 137.154 130.775C137.103 130.646 137.08 130.507 137.088 130.368L137.122 127.875C137.132 127.609 137.238 127.355 137.421 127.161C137.604 126.967 137.851 126.846 138.116 126.82L140.616 126.638C140.75 126.626 140.886 126.642 141.014 126.686C141.141 126.73 141.258 126.801 141.356 126.894C141.454 126.987 141.531 127.1 141.582 127.225C141.633 127.35 141.656 127.485 141.651 127.62V130.032C141.65 130.326 141.538 130.61 141.337 130.825C141.137 131.041 140.862 131.173 140.569 131.195Z" fill="white"/>
<path d="M140.347 131.04L138.15 131.201C138.015 131.213 137.879 131.195 137.751 131.151C137.623 131.106 137.506 131.034 137.407 130.941C137.309 130.848 137.231 130.735 137.18 130.609C137.128 130.484 137.104 130.349 137.108 130.213L137.142 128.003C137.15 127.715 137.264 127.441 137.461 127.232C137.658 127.023 137.924 126.893 138.21 126.867L140.408 126.706C140.543 126.694 140.679 126.711 140.807 126.756C140.935 126.801 141.052 126.873 141.15 126.966C141.248 127.059 141.326 127.172 141.378 127.298C141.429 127.423 141.454 127.558 141.449 127.693L141.416 129.904C141.407 130.191 141.294 130.465 141.097 130.675C140.9 130.884 140.633 131.014 140.347 131.04Z" fill="#263238"/>
<path opacity="0.1" d="M140.347 131.04L138.15 131.201C138.015 131.213 137.879 131.195 137.751 131.151C137.623 131.106 137.506 131.034 137.407 130.941C137.309 130.848 137.231 130.735 137.18 130.609C137.128 130.484 137.104 130.349 137.108 130.213L137.142 128.003C137.15 127.715 137.264 127.441 137.461 127.232C137.658 127.023 137.924 126.893 138.21 126.867L140.408 126.706C140.543 126.694 140.679 126.711 140.807 126.756C140.935 126.801 141.052 126.873 141.15 126.966C141.248 127.059 141.326 127.172 141.378 127.298C141.429 127.423 141.454 127.558 141.449 127.693L141.416 129.904C141.407 130.191 141.294 130.465 141.097 130.675C140.9 130.884 140.633 131.014 140.347 131.04Z" fill="white"/>
<path d="M143.277 135.932C143.268 136.24 143.147 136.533 142.937 136.757C142.726 136.981 142.441 137.121 142.135 137.148C141.991 137.161 141.847 137.143 141.711 137.095C141.576 137.048 141.451 136.972 141.347 136.873C141.243 136.774 141.161 136.654 141.107 136.52C141.053 136.387 141.027 136.244 141.033 136.1C141.041 135.794 141.161 135.501 141.37 135.277C141.579 135.053 141.863 134.913 142.168 134.884C142.312 134.87 142.457 134.888 142.594 134.935C142.73 134.982 142.855 135.058 142.96 135.157C143.065 135.256 143.148 135.377 143.202 135.51C143.257 135.644 143.282 135.788 143.277 135.932Z" fill="white"/>
<path d="M146.98 134.057L147.222 140.414L150.179 139.742C150.69 139.621 151.138 139.313 151.436 138.88C151.734 138.447 151.861 137.918 151.791 137.397C151.747 137.043 151.614 136.706 151.405 136.418C151.196 136.129 150.917 135.897 150.595 135.744L146.98 134.057Z" fill="#FFC3BD"/>
<path d="M103.79 109.657C101.277 113.803 103.307 126.914 103.307 126.914L116.343 124.569C116.343 124.569 117.103 117.076 114.657 111.303C112.009 105.04 106.848 104.624 103.79 109.657Z" fill="#FF725E"/>
<path opacity="0.5" d="M103.79 109.657C101.277 113.803 103.307 126.914 103.307 126.914L116.343 124.569C116.343 124.569 117.103 117.076 114.657 111.303C112.009 105.04 106.848 104.624 103.79 109.657Z" fill="black"/>
<path d="M130.24 83.0794C130.7 82.3643 131.107 81.6164 131.457 80.8416C129.75 81.3322 129.494 80.4586 128.587 78.0931C127.559 75.4051 124.307 73.9133 122.633 73.7856C111.035 72.8717 110.927 79.4237 110.9 80.5056C110.93 80.8959 111.074 81.2689 111.312 81.5792C111.551 81.8894 111.875 82.1235 112.244 82.2528C112.994 82.4839 113.782 82.5616 114.563 82.4813C116.236 82.4141 118.749 82.7971 120.315 82.2461C126.672 79.968 129.454 83.2339 130.24 83.0794Z" fill="#263238"/>
<path d="M118.769 91.2576C118.769 91.2576 123.937 89.1341 126.934 89.5575C129.931 89.9808 129.703 90.3907 129.703 90.3907C129.703 90.3907 130.959 97.4804 123.809 99.362C123.809 99.362 119.105 98.2061 117.761 96.0624C117.748 96.096 118.863 94.5639 118.769 91.2576Z" fill="#FF725E"/>
<path opacity="0.5" d="M118.769 91.2576C118.769 91.2576 123.937 89.1341 126.934 89.5575C129.931 89.9808 129.703 90.3907 129.703 90.3907C129.703 90.3907 130.959 97.4804 123.809 99.362C123.809 99.362 119.105 98.2061 117.761 96.0624C117.748 96.096 118.863 94.5639 118.769 91.2576Z" fill="white"/>
<path opacity="0.2" d="M119.434 92.1581C119.434 92.1581 124.871 90.2966 126.9 90.7066C128.93 91.1165 129.635 91.8758 129.635 91.8758C129.612 92.4728 129.536 93.0665 129.407 93.6499C129.407 93.6499 128.063 91.8355 119.287 93.2669L119.434 92.1581Z" fill="white"/>
<path opacity="0.2" d="M119.179 93.7978C119.179 93.7978 126.746 92.6218 128.97 94.6848C128.514 95.7137 127.869 96.6482 127.068 97.44C127.068 97.44 124.972 95.5047 118.83 94.9805L119.179 93.7978Z" fill="white"/>
<path opacity="0.2" d="M118.594 95.33C118.594 95.33 125.314 96.2842 125.939 98.018L124.636 98.69C124.636 98.69 121.894 98.4682 118.346 95.7735L118.594 95.33Z" fill="white"/>
<path d="M117.99 96.385C114.509 94.8999 114.784 91.6004 115.255 89.7725C115.276 89.6453 115.331 89.5262 115.414 89.427C115.497 89.3279 115.604 89.2524 115.725 89.208C116.74 88.8922 118.924 91.1232 119.172 91.3786L118.951 91.6205C118.319 90.9485 116.518 89.3021 115.799 89.5306C115.725 89.5306 115.611 89.6112 115.55 89.8464C115.107 91.5802 114.878 94.6848 118.111 96.0759L117.99 96.385Z" fill="#263238"/>
<path d="M112.701 89.3357C112.801 89.9551 113.023 90.5485 113.354 91.0815C113.685 91.6144 114.119 92.0763 114.63 92.4403C115.974 93.4147 117.244 92.3261 117.318 90.7401C117.398 89.3088 116.78 87.0845 115.181 86.7418C113.581 86.399 112.459 87.8035 112.701 89.3357Z" fill="#FFC3BD"/>
</svg>
